<svg xmlns="http://www.w3.org/2000/svg" width="51" height="60" viewBox="0 0 51 60" fill="none">
<path d="M27.9321 1.13889C27.6138 1.25258 27.1363 1.43448 26.8635 1.59364C26.5224 1.77554 25.9994 1.79828 25.0445 1.63911C22.4297 1.22984 20.3151 2.07113 19.1782 4.02655C18.0186 6.00471 18.2005 7.98286 19.7694 10.484C21.2928 12.9169 21.5656 13.6218 21.4292 14.9633C21.3155 16.0774 21.2701 16.1684 20.7016 16.1684C19.7466 16.1684 16.7226 17.0096 14.9263 17.76C11.1064 19.3516 7.17282 22.694 4.6717 26.4457C3.17103 28.7194 3.05734 29.538 4.126 30.3338C5.12645 31.0614 5.83131 30.6749 6.96819 28.7876C10.6062 22.7167 16.2223 19.0787 22.9526 18.4421C26.6816 18.0783 30.0695 18.5785 33.4573 19.9655L35.0035 20.6022V21.8072C35.0035 24.2629 36.0949 25.4452 42.234 29.5607C45.9857 32.0618 47.0543 32.5848 47.0543 31.9027C47.0543 31.789 45.3263 30.5384 43.189 29.1287C39.6192 26.764 38.9825 26.1956 39.5282 25.8545C39.6419 25.7636 41.5064 26.9004 43.6665 28.3329C45.8493 29.7654 47.7365 30.9022 47.8956 30.834C48.6232 30.5612 47.9411 29.9473 44.1894 27.4234C40.6878 25.0814 40.2331 24.6949 40.5287 24.3993C40.8243 24.1265 41.3472 24.3993 44.8033 26.7185C46.9634 28.1737 48.8733 29.3106 49.0325 29.2651C49.7601 28.9695 49.078 28.3329 45.4627 25.8318C41.9384 23.3989 41.0062 22.5348 41.9384 22.5348C42.234 22.5348 42.8479 22.9441 47.7819 26.3547C49.6237 27.6508 50.465 27.9464 50.465 27.3324C50.465 27.2188 49.3053 26.2183 47.9184 25.1042C46.5086 23.99 44.3713 22.2847 43.1662 21.3525C41.9839 20.3975 40.5969 19.4198 40.0967 19.147C39.028 18.5785 37.1635 18.5103 36.4132 19.0105C35.9585 19.3516 35.8448 19.3289 34.9353 18.7832L33.9348 18.2147L34.1395 17.0324C34.526 14.8723 35.481 13.5081 37.3454 12.3712C39.8238 10.8705 40.5514 9.77913 40.5742 7.50538C40.5742 6.23208 40.4832 5.84554 39.892 4.91331C38.9371 3.3899 37.2772 2.45766 35.39 2.43493C34.4123 2.41219 33.7757 2.27576 33.3436 1.98018C31.9567 1.04794 29.5238 0.661403 27.9321 1.13889ZM31.9339 2.41219C32.3205 2.57135 32.8889 2.98062 33.23 3.29895C33.7529 3.79917 33.9121 3.84465 34.5942 3.66275C36.6406 3.07157 38.9825 4.50403 39.5737 6.68683C40.0739 8.57404 39.0962 10.2566 36.7088 11.6209C36.0267 12.0074 35.1854 12.6668 34.7988 13.1215C34.2304 13.7582 33.9803 13.8719 33.5255 13.7582C32.8662 13.599 32.8207 13.3944 33.3209 12.9624C33.7757 12.5986 34.5487 11.0752 34.5487 10.5522C34.5487 10.3248 34.2759 10.5977 33.8893 11.1888C33.5483 11.7345 33.0026 12.4167 32.707 12.6895C32.2295 13.1215 32.0703 13.1443 31.2518 12.9396L30.3423 12.6895L30.8653 11.6209C31.1381 11.0524 31.4337 10.1657 31.5019 9.66544L31.6156 8.77868L31.0699 9.8246C29.8193 12.2348 29.16 12.7577 27.7957 12.3939C27.341 12.2575 27.3182 12.2348 27.6593 11.439C27.8867 10.916 28.0458 9.71091 28.0913 8.32393C28.1595 6.32303 28.1368 6.18661 27.9321 7.18705C27.8184 7.80097 27.4319 9.21069 27.1136 10.3021L26.4997 12.303H25.4083C24.4078 12.303 24.3169 12.2575 24.3169 11.78C24.3169 10.8705 23.6575 9.25616 22.9299 8.34667C22.0204 7.25527 21.884 7.41443 22.5888 8.68773C23.1345 9.6427 23.703 12.1666 23.4528 12.4167C23.3846 12.4849 23.1118 12.5304 22.8617 12.5304C22.5206 12.5304 22.0431 12.0074 21.2246 10.7568C19.7921 8.57404 19.542 8.0056 19.542 6.70957C19.542 5.027 20.6561 3.32169 22.1113 2.77599C22.9299 2.45766 24.6352 2.45766 25.7266 2.75325C26.4087 2.95789 26.727 2.93515 27.3182 2.61682C28.8416 1.82101 30.3878 1.7528 31.9339 2.41219ZM31.4792 14.2129C32.4796 14.554 33.3209 14.8723 33.3664 14.9178C33.4119 14.9405 33.3209 15.5999 33.1617 16.373C32.9116 17.4871 32.7979 17.7372 32.5024 17.6235C30.0922 16.6004 26.8862 15.9637 24.135 15.941H22.4979L22.5888 14.7359C22.657 14.0992 22.7025 13.5081 22.7253 13.4626C22.7253 13.4171 24.2941 13.4399 26.2041 13.4853C29.1827 13.599 29.9103 13.69 31.4792 14.2129ZM24.8853 16.6231C27.2045 16.805 29.4328 17.2597 31.4792 17.9646C32.1158 18.192 32.7752 18.3284 32.9571 18.2829C33.139 18.2602 33.4801 18.4648 33.7074 18.7832C34.003 19.2152 34.0485 19.3516 33.7984 19.3516C33.6392 19.3516 33.4119 19.2606 33.2754 19.1697C32.9798 18.9196 31.752 18.533 29.8876 18.101C27.8184 17.6235 23.5665 17.5326 21.2928 17.9191C15.5175 18.9196 10.3333 22.4212 6.89997 27.6508C5.51299 29.7654 4.89908 30.1746 4.3079 29.4698C4.05779 29.1742 4.08053 28.9695 4.39885 28.2647C5.44478 26.0819 8.42338 22.7395 11.1291 20.6931C13.3802 19.0105 16.5179 17.6463 19.4738 17.0778C20.2696 16.9187 21.0882 16.6458 21.2928 16.4867C21.5202 16.3048 21.9067 16.2366 22.1568 16.3048C22.4069 16.3957 23.6347 16.5322 24.8853 16.6231ZM40.3923 20.1019C40.8697 20.443 41.5064 20.9205 41.802 21.1706L42.3249 21.6253L41.7338 22.1028C41.4154 22.3529 41.1426 22.7395 41.1426 22.9669C41.1426 23.1715 40.847 23.5808 40.4605 23.8536C40.0967 24.1492 39.7783 24.5357 39.7783 24.7176C39.7783 25.0814 38.9371 25.9227 38.5733 25.9455C38.1185 25.9455 36.9589 24.8995 36.345 23.9446C35.8675 23.1715 35.6856 22.6258 35.6856 21.8527C35.6856 21.2615 35.5264 20.5794 35.2991 20.2838C34.9353 19.7381 34.9353 19.7381 35.4355 19.8746C35.7083 19.9428 36.2086 19.8518 36.5496 19.6699C37.4819 19.147 39.3463 19.3743 40.3923 20.1019Z" fill="#EB0029"/>
<path d="M20.2693 19.7156C18.2684 20.3067 15.7445 21.4891 14.0847 22.6032C11.4244 24.4222 8.55951 27.7874 7.17252 30.7432C5.96744 33.2444 5.64911 34.7678 5.51269 38.383C5.399 41.4526 5.399 41.6345 5.80827 41.6345C6.05839 41.6345 6.44492 41.7027 6.69504 41.7709C7.12705 41.8846 7.14978 41.7709 7.14978 38.5195C7.17252 34.6541 7.46811 33.2444 8.85509 30.4249C11.1061 25.9229 15.2671 22.1712 20.1556 20.2613C23.3389 19.0107 23.3843 18.7833 20.2693 19.7156Z" fill="#EB0029"/>
<path d="M46.9178 37.6098C46.8723 40.702 46.3494 42.9076 44.9169 45.8407C42.393 51.0931 37.4363 55.0949 31.5928 56.6637C29.0007 57.3459 25.2717 57.3459 22.4978 56.641C20.0194 56.0271 16.4041 54.2536 14.6079 52.7984C13.2891 51.707 13.2209 51.5933 13.3346 50.8657C13.6302 49.0012 11.9021 46.1363 9.51467 44.5902C7.03629 42.9985 3.23913 42.4983 1.7612 43.567C-0.330651 45.0904 0.146836 48.2054 2.92081 50.9794C5.26277 53.3213 8.67339 54.4582 10.9926 53.6851C11.8112 53.435 11.8339 53.435 13.1527 54.6401C15.3355 56.6183 18.7461 58.3918 21.9293 59.2558C23.7483 59.756 28.7506 59.9607 30.8652 59.6196C38.8915 58.3691 45.9856 51.8661 47.509 44.3628C47.7591 43.1804 47.9637 41.6115 47.9637 40.8839C47.9637 39.4515 47.3043 35.0404 47.077 35.0404C47.0088 35.0404 46.9178 36.2 46.9178 37.6098ZM6.99081 44.1354C8.83255 44.7948 10.6061 46.0908 11.5156 47.4778C12.1522 48.41 12.3569 49.0012 12.4933 50.2745C12.6979 52.048 12.8343 52.2982 14.6306 53.6624C17.3364 55.7315 21.3609 57.3231 24.9989 57.7779C29.5009 58.3236 34.5259 56.9821 38.8687 54.0717C41.4381 52.3436 45.0306 47.9098 46.1447 45.0904C46.3039 44.7038 46.5085 44.3628 46.6222 44.3628C46.8723 44.3628 46.8951 44.2946 46.4631 45.7498C45.5763 48.7511 43.4844 51.8434 40.7787 54.1399C38.9142 55.7315 38.4822 56.0044 36.0266 57.2094C32.6159 58.892 30.7287 59.2558 26.3631 59.0739C23.1117 58.9375 21.3836 58.5737 18.9735 57.5278C17.5637 56.9139 14.8352 55.1631 13.5619 54.0717C12.4933 53.1394 12.1295 52.9348 11.5156 53.003C8.69612 53.2531 7.60472 53.1167 6.12679 52.3891C3.55746 51.1158 1.10181 48.1372 1.12455 46.3182C1.17002 43.999 3.78483 43.0213 6.99081 44.1354Z" fill="#EB0029"/>
<path d="M45.5 40C45.5 48.2843 36.8366 56 28 56C19.1634 56 8.5 45.7843 8.5 37.5C8.5 29.2157 16.1634 21 25 21C33.8366 21 45.5 31.7157 45.5 40Z" fill="#EB0029"/>
</svg>
