<svg width="13" height="11" viewBox="0 0 13 11" fill="none" xmlns="http://www.w3.org/2000/svg">
<path d="M5.49391 10.8433C5.17746 10.8433 4.86812 10.7495 4.605 10.5737C4.34188 10.3979 4.1368 10.148 4.0157 9.85563C3.8946 9.56327 3.86292 9.24156 3.92465 8.93119C3.98639 8.62082 4.13877 8.33573 4.36254 8.11197C4.5863 7.8882 4.8714 7.73582 5.18177 7.67408C5.49214 7.61234 5.81384 7.64403 6.10621 7.76513C6.39857 7.88623 6.64845 8.09131 6.82426 8.35443C7.00007 8.61755 7.09391 8.92689 7.09391 9.24334C7.09391 9.66768 6.92534 10.0747 6.62528 10.3747C6.32523 10.6748 5.91826 10.8433 5.49391 10.8433ZM10.5839 10.8433C10.2675 10.8433 9.95812 10.7495 9.695 10.5737C9.43188 10.3979 9.2268 10.148 9.1057 9.85563C8.9846 9.56327 8.95292 9.24156 9.01465 8.93119C9.07639 8.62082 9.22878 8.33573 9.45254 8.11197C9.6763 7.8882 9.9614 7.73582 10.2718 7.67408C10.5821 7.61234 10.9038 7.64403 11.1962 7.76513C11.4886 7.88623 11.7385 8.09131 11.9143 8.35443C12.0901 8.61755 12.1839 8.92689 12.1839 9.24334C12.1839 9.66768 12.0153 10.0747 11.7153 10.3747C11.4152 10.6748 11.0083 10.8433 10.5839 10.8433ZM5.49391 10.2833C5.76841 10.2833 6.03167 10.1743 6.22577 9.98019C6.41987 9.78609 6.52891 9.52284 6.52891 9.24834C6.52891 8.97384 6.41987 8.71058 6.22577 8.51648C6.03167 8.32238 5.76841 8.21334 5.49391 8.21334C5.21941 8.21334 4.95616 8.32238 4.76206 8.51648C4.56796 8.71058 4.45891 8.97384 4.45891 9.24834C4.45891 9.52284 4.56796 9.78609 4.76206 9.98019C4.95616 10.1743 5.21941 10.2833 5.49391 10.2833ZM10.5839 10.2833C10.7817 10.2833 10.975 10.2247 11.1395 10.1148C11.3039 10.0049 11.4321 9.84875 11.5078 9.66602C11.5835 9.48329 11.6033 9.28223 11.5647 9.08825C11.5261 8.89427 11.4309 8.71608 11.291 8.57623C11.1512 8.43638 10.973 8.34114 10.779 8.30255C10.585 8.26397 10.384 8.28377 10.2012 8.35946C10.0185 8.43515 9.86232 8.56332 9.75244 8.72777C9.64256 8.89222 9.58391 9.08556 9.58391 9.28334C9.58391 9.41466 9.60978 9.54469 9.66003 9.66602C9.71029 9.78735 9.78395 9.89759 9.87681 9.99045C9.96966 10.0833 10.0799 10.157 10.2012 10.2072C10.3226 10.2575 10.4526 10.2833 10.5839 10.2833ZM5.49391 9.60334C5.4148 9.60334 5.33746 9.57988 5.27168 9.53593C5.2059 9.49197 5.15464 9.4295 5.12436 9.35641C5.09409 9.28332 5.08616 9.20289 5.1016 9.1253C5.11703 9.04771 5.15513 8.97644 5.21107 8.9205C5.26701 8.86455 5.33828 8.82646 5.41588 8.81102C5.49347 8.79559 5.5739 8.80351 5.64699 8.83379C5.72008 8.86406 5.78254 8.91533 5.8265 8.98111C5.87045 9.04689 5.89391 9.12423 5.89391 9.20334C5.89391 9.30942 5.85177 9.41117 5.77675 9.48618C5.70174 9.56119 5.6 9.60334 5.49391 9.60334ZM10.5839 9.60334C10.5048 9.60334 10.4275 9.57988 10.3617 9.53593C10.2959 9.49197 10.2446 9.4295 10.2144 9.35641C10.1841 9.28332 10.1762 9.20289 10.1916 9.1253C10.207 9.04771 10.2451 8.97644 10.3011 8.9205C10.357 8.86455 10.4283 8.82646 10.5059 8.81102C10.5835 8.79559 10.6639 8.80351 10.737 8.83379C10.8101 8.86406 10.8725 8.91533 10.9165 8.98111C10.9605 9.04689 10.9839 9.12423 10.9839 9.20334C10.9839 9.30942 10.9418 9.41117 10.8668 9.48618C10.7917 9.56119 10.69 9.60334 10.5839 9.60334ZM5.35391 7.37334C5.29748 7.37303 5.24247 7.35568 5.19607 7.32356C5.14967 7.29144 5.11406 7.24605 5.09391 7.19334L2.73391 1.03334H1.73391V1.12334C1.68896 1.29192 1.59436 1.44308 1.4624 1.55721C1.33043 1.67134 1.16721 1.74316 0.993909 1.76334H0.903909C0.683104 1.76499 0.469398 1.68542 0.303449 1.53975C0.137501 1.39408 0.0308935 1.19249 0.00391164 0.973338C-0.0149947 0.772314 0.0350127 0.570836 0.145727 0.401986C0.256441 0.233136 0.42128 0.106949 0.613176 0.0441463C0.805072 -0.0186558 1.01262 -0.0143408 1.20174 0.056382C1.39086 0.127105 1.55031 0.260032 1.65391 0.433337H2.97391C3.03115 0.435466 3.08668 0.453415 3.13434 0.485188C3.182 0.516962 3.21993 0.561318 3.24391 0.613337L4.11391 2.87334H12.4939C12.5392 2.87422 12.5837 2.88572 12.6238 2.9069C12.6638 2.92808 12.6984 2.95836 12.7246 2.99531C12.7509 3.03226 12.7681 3.07485 12.775 3.11966C12.7818 3.16447 12.778 3.21025 12.7639 3.25334L11.3639 7.15334C11.3454 7.20792 11.3105 7.25545 11.264 7.28945C11.2174 7.32346 11.1615 7.34228 11.1039 7.34334L5.35391 7.37334ZM10.8239 6.80334L12.0139 3.47334H4.25391L5.55391 6.80334H10.8239ZM6.20391 6.23334C6.14723 6.23325 6.09212 6.21464 6.04699 6.18034C6.00186 6.14604 5.96917 6.09793 5.95391 6.04334L5.39391 4.30334C5.3748 4.2344 5.3828 4.16076 5.41628 4.09753C5.44975 4.0343 5.50615 3.98629 5.57391 3.96334C5.64145 3.94706 5.71262 3.95646 5.77361 3.98973C5.83459 4.02299 5.88103 4.07774 5.90391 4.14334L6.45391 5.88334C6.47612 5.95098 6.47072 6.02465 6.43888 6.08832C6.40704 6.152 6.35135 6.20052 6.28391 6.22334H6.20391V6.23334ZM7.54391 6.23334C7.47829 6.23353 7.41501 6.2089 7.36679 6.16439C7.31857 6.11987 7.28896 6.05877 7.28391 5.99334L7.09391 4.24334C7.09865 4.17976 7.12574 4.1199 7.17038 4.07438C7.21502 4.02886 7.27433 4.0006 7.3378 3.99461C7.40128 3.98862 7.46483 4.00529 7.51719 4.04166C7.56956 4.07803 7.60736 4.13176 7.62391 4.19334L7.80391 5.94334C7.80973 6.01188 7.78917 6.08006 7.74642 6.13395C7.70368 6.18785 7.64198 6.22339 7.57391 6.23334H7.54391ZM8.81391 6.23334C8.74394 6.22339 8.68065 6.18639 8.63765 6.1303C8.59465 6.07421 8.57535 6.0035 8.58391 5.93334L8.82391 4.18334C8.83386 4.11336 8.87086 4.05008 8.92695 4.00708C8.98304 3.96407 9.05375 3.94478 9.12391 3.95334C9.1928 3.96557 9.25461 4.00314 9.29718 4.05867C9.33975 4.11419 9.35998 4.18364 9.35391 4.25334L9.11391 6.00334C9.10426 6.06781 9.0716 6.12661 9.02197 6.16889C8.97235 6.21116 8.9091 6.23406 8.84391 6.23334H8.81391ZM10.1339 6.23334H10.0639C10.0302 6.22518 9.99847 6.21037 9.97058 6.18976C9.94269 6.16916 9.9192 6.14319 9.90149 6.11337C9.88379 6.08355 9.87223 6.05049 9.86749 6.01614C9.86275 5.98179 9.86494 5.94683 9.87391 5.91334L10.3239 4.16334C10.3412 4.09571 10.3846 4.03769 10.4446 4.00206C10.5046 3.96643 10.5763 3.9561 10.6439 3.97334C10.7115 3.99058 10.7696 4.03398 10.8052 4.09399C10.8408 4.154 10.8511 4.22571 10.8339 4.29334L10.3839 6.04334C10.369 6.09898 10.3367 6.14841 10.2918 6.18439C10.2468 6.22037 10.1915 6.24103 10.1339 6.24334V6.23334ZM0.803911 1.23334L0.973913 1.15334L1.07391 1.00334V0.933337C1.06491 0.893843 1.06491 0.852832 1.07391 0.813338L1.00391 0.723338L0.733911 0.563338C0.649875 0.575769 0.57387 0.620128 0.521715 0.687184C0.46956 0.75424 0.445275 0.838826 0.453912 0.923337C0.463808 1.00157 0.503144 1.07309 0.563913 1.12334L0.803911 1.23334Z" fill="#FE624C"/>
</svg>
