<svg width="12" height="12" viewBox="0 0 12 12" fill="none" xmlns="http://www.w3.org/2000/svg">
<path d="M6.24554 12.0007C6.05879 12.0119 5.86616 11.9155 5.72253 11.7062L5.62706 11.6098C5.52346 11.5434 5.39999 11.565 5.29723 11.679L5.28995 11.6883L5.1676 11.7995C4.84702 12.0295 4.4612 11.9071 4.31001 11.4902C4.24086 11.2994 4.07454 11.2453 3.90739 11.3585L3.85224 11.3958H3.83712L3.74836 11.4425C3.38214 11.5866 3.0386 11.3714 2.99465 10.9292L2.95825 10.7992C2.89917 10.6919 2.78074 10.6516 2.63767 10.702L2.60211 10.7143H2.58643L2.46296 10.744C2.07266 10.792 1.79324 10.4983 1.86155 10.0598C1.88395 9.90938 1.82207 9.80011 1.70532 9.76256L1.57093 9.75051C1.06556 9.7973 0.779694 9.40084 0.978763 8.93518L1.00844 8.80237C1.00844 8.67993 0.923606 8.58747 0.774935 8.56309C0.523789 8.52303 0.353559 8.38826 0.285522 8.21454V8.21062H0.954404L1.35982 8.48268C1.45698 8.65948 1.47097 8.88278 1.37578 9.10525C1.32426 9.22601 1.33742 9.29521 1.42226 9.31567L1.53061 9.31959C2.01274 9.2756 2.36216 9.64768 2.28825 10.1262C2.26137 10.2991 2.32297 10.3552 2.49208 10.2946L2.52763 10.2823H2.54443L2.66119 10.2543C3.04868 10.2047 3.3841 10.4664 3.42526 10.8872L3.44962 10.9928C3.48406 11.0724 3.55321 11.0761 3.66437 11.0004L3.71952 10.9629H3.73548L3.81864 10.9189C4.18206 10.774 4.57152 10.9441 4.71627 11.3425C4.77618 11.5061 4.85738 11.5258 4.97889 11.3921L4.98533 11.3817L5.10404 11.2742C5.42071 11.0441 5.84012 11.1116 6.08007 11.4613L6.15034 11.5426C6.17358 11.5602 6.19598 11.5686 6.21754 11.5678C6.26038 11.565 6.30238 11.5246 6.34353 11.4442L6.40345 11.3274H6.42025L6.43901 11.2994C6.68735 10.9976 7.11069 10.9592 7.43099 11.2369L7.51891 11.2985C7.59814 11.3322 7.65134 11.2865 7.68046 11.1556L7.71882 10.9872H7.73925L7.82157 10.8525C8.01672 10.6031 8.35774 10.5216 8.68196 10.6844L8.78275 10.7208C8.86871 10.7348 8.90875 10.6779 8.90511 10.5423C8.89111 10.059 9.28449 9.7337 9.7571 9.83737L9.86349 9.84774C9.95057 9.83933 9.97464 9.77377 9.93741 9.64488C9.80469 9.18006 10.1046 8.76595 10.5875 8.75025C10.7622 8.74353 10.8054 8.67264 10.7155 8.51826L10.6855 8.46699V8.45186L10.6435 8.3594L10.6463 8.21062H11.122L11.0873 8.2986L11.1173 8.34903V8.365L11.1612 8.46223C11.2816 8.83711 11.0453 9.16605 10.6026 9.18202C10.4008 9.18846 10.2972 9.3308 10.3532 9.52524C10.4932 10.013 10.1589 10.3692 9.66274 10.2599L9.52835 10.2551C9.40768 10.2787 9.33208 10.3795 9.33684 10.5311C9.35084 11.0377 8.93871 11.2994 8.48569 11.0705L8.35578 11.0329C8.23342 11.0245 8.13627 11.1032 8.10267 11.2509L8.06431 11.419H8.04472C7.8756 11.7771 7.47859 11.8547 7.14429 11.563L7.02837 11.4938C6.91162 11.4546 6.79767 11.507 6.72851 11.6426L6.66776 11.7594H6.65096L6.6294 11.7922C6.52216 11.9219 6.38553 11.9923 6.24554 12.0007ZM5.81856 10.546C4.43964 10.5143 3.089 9.86455 2.21265 8.66508L2.00434 8.21062H2.46688L2.55927 8.41179C3.35331 9.49891 4.57796 10.089 5.82808 10.1178C5.91096 10.1187 5.99523 10.1187 6.07839 10.115C6.8797 10.0862 7.6813 9.8242 8.37734 9.31567L9.38528 8.21062H9.89625L9.85901 8.31541C9.55243 8.82675 9.14141 9.28765 8.63044 9.66169C7.86245 10.2235 6.97882 10.5115 6.09519 10.544C6.00251 10.5479 5.91012 10.5488 5.81856 10.546ZM5.83452 9.85502C4.66223 9.82812 3.51486 9.27644 2.77122 8.25657L2.74994 8.21062H3.37374L4.34165 9.038C4.80866 9.27644 5.32355 9.40561 5.84292 9.41681C5.91292 9.41849 5.98207 9.41765 6.05207 9.41569C6.71815 9.39048 7.38536 9.17361 7.96352 8.75025L8.45573 8.21062H9.03698L8.22223 9.10357C7.57014 9.58128 6.81923 9.82532 6.06887 9.85334C5.99047 9.85614 5.91208 9.85698 5.83452 9.85502Z" fill="#FE624C"/>
<path d="M0.378775 8.20659L0.496368 7.62129C0.619841 7.4613 0.575884 7.29123 0.390815 7.21082C-0.0742387 7.00797 -0.134155 6.52268 0.264822 6.21056L0.354416 6.1097C0.414333 6.00211 0.384375 5.87967 0.263982 5.78608L0.254463 5.77768L0.245223 5.76843L0.135749 5.66196C-0.113436 5.35712 -0.015442 4.96346 0.390815 4.78582C0.575884 4.70541 0.619841 4.53534 0.496368 4.37536C0.225624 4.02316 0.330058 3.63231 0.695437 3.48549L0.787831 3.46027L0.798191 3.44907L0.867347 3.43786C1.06642 3.40592 1.15125 3.25181 1.07202 3.06577C0.872107 2.59927 1.15881 2.20477 1.66418 2.25072L1.79857 2.23839C1.91533 2.20112 1.9772 2.09073 1.95368 1.94111C1.87613 1.43902 2.25271 1.12886 2.73092 1.29809L2.86363 1.3205C2.98683 1.31294 3.07278 1.22216 3.0879 1.0717L3.10666 0.875294H3.13354L3.19261 0.751174C3.35696 0.493124 3.68482 0.429516 3.99953 0.641616C4.1258 0.726792 4.25095 0.717549 4.33495 0.62761L4.40326 0.511896C4.55445 0.0930203 4.94139 -0.0285828 5.25973 0.202289L5.39049 0.313523C5.49324 0.435964 5.61671 0.45754 5.72031 0.391136L5.81578 0.296713C6.06609 -0.0714494 6.47038 -0.0930229 6.72265 0.209856L6.74421 0.241519H6.76101L6.82092 0.358354C6.89092 0.493963 7.00487 0.546359 7.12163 0.507133L7.23754 0.439883C7.57184 0.145409 7.96886 0.224707 8.13797 0.580822L8.17073 0.678041L8.18193 0.689533L8.19593 0.750054C8.24072 0.947304 8.39863 1.02211 8.57894 0.930488L8.6257 0.90723H8.64054L8.74609 0.866889C9.12827 0.770785 9.44213 1.02771 9.43009 1.47012L9.45053 1.60461C9.49533 1.71949 9.60844 1.77384 9.75683 1.74106C10.2521 1.63179 10.5856 1.9879 10.4464 2.47598L10.4333 2.61047C10.4481 2.73291 10.5436 2.81417 10.6948 2.81893L10.7807 2.82173L10.7911 2.83294L10.8723 2.84415C11.2533 2.94418 11.4048 3.32018 11.1806 3.70235L11.1338 3.8304C11.1181 3.952 11.1909 4.05482 11.3365 4.09685L11.4916 4.1428V4.16129L11.502 4.16606C11.8458 4.35686 11.8998 4.75864 11.5871 5.07385L11.5104 5.18593C11.4647 5.29997 11.5104 5.41792 11.6403 5.49441C12.0213 5.72164 12.0689 6.12455 11.7831 6.39576L11.7458 6.42378V6.44059L11.6403 6.50307C11.5104 6.58068 11.4647 6.69752 11.5104 6.81156L11.5871 6.92307C11.8998 7.23883 11.8458 7.6409 11.5011 7.83171L11.4001 7.87373L11.3889 7.88494L11.3365 7.89979L11.2153 8.20659H10.7387L10.7452 7.89419C10.8015 7.75409 10.9059 7.63249 11.0534 7.55208L11.1506 7.51202L11.1618 7.50081L11.2153 7.48484C11.3404 7.44841 11.3852 7.39406 11.3469 7.31561L11.2805 7.23043C10.9826 6.92868 10.9938 6.50307 11.2797 6.23577L11.3133 6.21056V6.19375L11.4188 6.13099C11.5692 6.04133 11.5731 5.95811 11.4188 5.86649C11.0042 5.61881 10.9406 5.11224 11.2805 4.76901L11.3469 4.683C11.3852 4.60538 11.3441 4.55019 11.2153 4.51209L11.0602 4.46614L11.0562 4.44848C10.7107 4.25767 10.594 3.84917 10.8079 3.48353L10.8507 3.38462C10.8686 3.29945 10.8155 3.25658 10.6808 3.25181L10.5959 3.24901L10.5847 3.23781L10.508 3.22744C10.1287 3.13133 9.91391 2.7629 10.0307 2.35719L10.0475 2.25072C10.0438 2.16274 9.98026 2.13472 9.84951 2.16358C9.37774 2.26753 8.98436 1.94196 8.99752 1.45864L8.98716 1.35133C8.9628 1.26727 8.89364 1.25578 8.77521 1.31658L8.72929 1.339H8.71334L8.6117 1.3785C8.28748 1.46256 7.97278 1.31378 7.82971 1.01006L7.79807 0.917602L7.78771 0.906392L7.77371 0.845589C7.74459 0.717545 7.69335 0.668797 7.613 0.702419L7.5234 0.762375C7.20394 1.04284 6.78061 1.00446 6.53226 0.702419L6.5135 0.673561H6.4967L6.43679 0.556726C6.37603 0.439889 6.31443 0.405145 6.24528 0.45754L6.17248 0.538796C5.93338 0.889586 5.51396 0.956828 5.1973 0.726796L5.06934 0.618367V0.609115C4.98227 0.510771 4.91311 0.493962 4.85908 0.561207L4.80952 0.657588C4.64433 1.11373 4.1594 1.27091 3.75566 1.00082L3.66131 0.952061C3.57843 0.927685 3.53167 0.98008 3.51851 1.11289L3.49976 1.30817H3.47176L3.4166 1.43174C3.25421 1.70464 2.92635 1.82792 2.58337 1.7066L2.47977 1.68306C2.3927 1.68026 2.36022 1.7419 2.3815 1.87471C2.45542 2.35242 2.106 2.72451 1.62302 2.68164L1.51663 2.68528C1.43151 2.70405 1.41556 2.77214 1.46903 2.8957C1.63534 3.2846 1.46791 3.67629 1.10449 3.81919L1.01574 3.84356L1.00454 3.85393L0.936503 3.86514C0.763753 3.89316 0.729875 3.96881 0.838229 4.11086C1.13361 4.49415 1.0065 4.98868 0.563845 5.18229C0.403974 5.25233 0.389974 5.33554 0.531086 5.44482L0.540326 5.45322L0.549566 5.46275L0.655399 5.56642C0.905705 5.86762 0.863708 6.29098 0.529967 6.55183L0.454371 6.6286C0.405934 6.70032 0.440372 6.76112 0.563845 6.81436C1.0065 7.00796 1.13361 7.50249 0.838229 7.88578C0.731835 8.02419 0.759834 8.10376 0.936503 8.13178L1.04682 8.20659H0.378775ZM2.09676 8.20659L1.54267 7.00432C1.13361 5.26186 1.76777 3.36221 3.30181 2.23923C5.34765 0.74277 8.22308 1.18854 9.7196 3.23584C10.4669 4.25964 10.7295 5.49077 10.5492 6.65381L9.9895 8.20659H9.47769L9.58408 8.09059C10.4165 6.69668 10.3904 4.88137 9.37298 3.48914C8.01757 1.63347 5.40925 1.22776 3.55491 2.58526C2.16395 3.60345 1.58859 5.32518 1.9604 6.90597L2.55901 8.20659H2.09676ZM2.84207 8.20659L2.21547 6.84545C1.86773 5.36468 2.40698 3.7511 3.71002 2.79735C5.44844 1.52616 7.89046 1.90469 9.16187 3.64435C10.1147 4.94945 10.139 6.64989 9.35898 7.95583L9.13023 8.20659H8.54814L8.98352 7.73056C9.67564 6.57144 9.65324 5.06152 8.80769 3.90352C7.68019 2.35999 5.51116 2.02237 3.96873 3.15095C2.42658 4.28009 2.0892 6.45096 3.21781 7.99421L3.46616 8.20659H2.84207ZM4.76192 7.80929L4.39094 7.4585L7.31314 4.11282L7.68299 4.44736L4.76192 7.80929ZM7.08523 7.73448C6.95616 7.73448 6.8366 7.71935 6.72741 7.68853C6.6171 7.65855 6.52386 7.60924 6.44519 7.54172C6.36763 7.47363 6.30715 7.38481 6.2632 7.27442C6.21924 7.16515 6.19684 7.03038 6.19684 6.87152C6.19684 6.7191 6.21924 6.58825 6.2632 6.47982C6.30715 6.37138 6.36763 6.28257 6.44519 6.21056C6.52386 6.14051 6.6171 6.08812 6.72741 6.05646C6.8366 6.02368 6.95616 6.00771 7.08523 6.00771C7.21318 6.00771 7.33189 6.02368 7.44025 6.05366C7.5486 6.08448 7.64184 6.13295 7.72219 6.20132C7.80171 6.26856 7.8633 6.35738 7.90726 6.46777C7.95122 6.57704 7.97446 6.71153 7.97838 6.87152C7.97446 7.03038 7.95122 7.16515 7.90726 7.27442C7.8633 7.38481 7.80171 7.47363 7.72219 7.54172C7.64184 7.60924 7.5486 7.65855 7.44025 7.68853C7.33189 7.71935 7.21318 7.73448 7.08523 7.73448ZM7.08523 7.30804C7.18994 7.30804 7.26554 7.27638 7.31118 7.21474C7.35709 7.15114 7.38145 7.0371 7.38509 6.87152C7.38145 6.70873 7.35709 6.5947 7.31118 6.53138C7.26554 6.46665 7.18994 6.43415 7.08523 6.43415C6.97967 6.43415 6.90408 6.46665 6.8562 6.53138C6.8086 6.5947 6.78537 6.70873 6.78537 6.87152C6.78537 7.16235 6.88532 7.30804 7.08523 7.30804ZM5.02539 5.8508C4.89632 5.8508 4.77788 5.83567 4.66757 5.80485C4.55725 5.77403 4.46402 5.72528 4.38534 5.65719C4.30779 5.58995 4.24703 5.50113 4.20335 5.39074C4.1594 5.28035 4.137 5.14586 4.137 4.98699C4.137 4.83457 4.1594 4.70457 4.20335 4.59614C4.24703 4.48771 4.30779 4.39805 4.38534 4.32688C4.46402 4.25572 4.55725 4.20444 4.66757 4.1725C4.77788 4.14 4.89632 4.12403 5.02539 4.12403C5.15418 4.12403 5.27205 4.13888 5.38041 4.1697C5.48876 4.19968 5.58199 4.24927 5.66235 4.31651C5.74187 4.38488 5.80346 4.4737 5.84742 4.58297C5.89138 4.69336 5.91462 4.82785 5.91854 4.98699C5.91462 5.14586 5.89138 5.28035 5.84742 5.39074C5.80346 5.50113 5.74187 5.58995 5.66235 5.65719C5.58199 5.72528 5.48876 5.77403 5.38041 5.80485C5.27205 5.83567 5.15418 5.8508 5.02539 5.8508ZM3.27745 5.46835C3.15874 5.46751 3.06438 5.37029 3.0655 5.25233C3.07754 4.07164 4.30695 2.87889 5.41765 2.96491C5.53552 2.97332 5.62427 3.07614 5.61475 3.19465C5.60635 3.31261 5.50276 3.40143 5.38489 3.39191C4.5413 3.32746 3.50451 4.30643 3.49416 5.25598C3.49332 5.37477 3.39616 5.47032 3.27745 5.46835ZM5.02539 5.42436C5.13094 5.42436 5.2057 5.3927 5.25133 5.32994C5.29725 5.26746 5.32133 5.15314 5.32525 4.98699C5.32133 4.82421 5.29725 4.71101 5.25133 4.64657C5.2057 4.58213 5.13094 4.55019 5.02539 4.55019C4.92067 4.55019 4.84424 4.58213 4.79636 4.64657C4.74988 4.71101 4.72553 4.82421 4.72553 4.98699C4.72553 5.27867 4.82548 5.42436 5.02539 5.42436Z" fill="#FE624C"/>
</svg>
