<svg width="12" height="12" viewBox="0 0 12 12" fill="none" xmlns="http://www.w3.org/2000/svg">
<path d="M6.24578 12.0007C6.05903 12.0119 5.86641 11.9155 5.72277 11.7062L5.6273 11.6098C5.52371 11.5434 5.40023 11.565 5.29748 11.679L5.2902 11.6883L5.16785 11.7995C4.84726 12.0295 4.46145 11.9071 4.31026 11.4902C4.2411 11.2994 4.07479 11.2453 3.90764 11.3585L3.85248 11.3958H3.83736L3.74861 11.4426C3.38239 11.5866 3.03885 11.3714 2.99489 10.9293L2.95849 10.7993C2.89942 10.6919 2.78098 10.6516 2.63791 10.702L2.60235 10.7144H2.58667L2.4632 10.7441C2.0729 10.792 1.79348 10.4983 1.8618 10.0598C1.8842 9.90939 1.82232 9.80012 1.70556 9.76257L1.57117 9.75052C1.0658 9.79732 0.779939 9.40085 0.979007 8.93519L1.00869 8.80238C1.00869 8.67994 0.92385 8.58748 0.775179 8.5631C0.524033 8.52304 0.353803 8.38827 0.285767 8.21455V8.21063H0.954648L1.36007 8.48269C1.45722 8.65949 1.47122 8.88279 1.37602 9.10526C1.32451 9.22602 1.33767 9.29523 1.4225 9.31568L1.53085 9.3196C2.01299 9.27561 2.36241 9.6477 2.28849 10.1263C2.26161 10.2991 2.32321 10.3552 2.49232 10.2946L2.52788 10.2823H2.54468L2.66143 10.2543C3.04893 10.2047 3.38435 10.4664 3.42551 10.8872L3.44986 10.9929C3.4843 11.0724 3.55346 11.0761 3.66461 11.0004L3.71977 10.9629H3.73573L3.81888 10.9189C4.1823 10.774 4.57176 10.9441 4.71651 11.3425C4.77643 11.5062 4.85762 11.5258 4.97914 11.3921L4.98558 11.3818L5.10429 11.2742C5.42095 11.0441 5.84037 11.1117 6.08031 11.4613L6.15059 11.5426C6.17383 11.5602 6.19623 11.5686 6.21779 11.5678C6.26062 11.565 6.30262 11.5247 6.34378 11.4442L6.4037 11.3274H6.42049L6.43925 11.2994C6.6876 10.9976 7.11093 10.9592 7.43124 11.2369L7.51915 11.2985C7.59839 11.3322 7.65158 11.2865 7.6807 11.1556L7.71906 10.9873H7.7395L7.82181 10.8525C8.01696 10.6031 8.35798 10.5216 8.6822 10.6844L8.783 10.7208C8.86895 10.7348 8.90899 10.6779 8.90535 10.5423C8.89135 10.059 9.28473 9.73371 9.75734 9.83738L9.86374 9.84775C9.95081 9.83934 9.97489 9.77378 9.93765 9.6449C9.80494 9.18007 10.1048 8.76596 10.5878 8.75027C10.7625 8.74354 10.8056 8.67266 10.7157 8.51827L10.6858 8.467V8.45187L10.6438 8.35941L10.6466 8.21063H11.1223L11.0875 8.29861L11.1175 8.34904V8.36501L11.1615 8.46224C11.2819 8.83712 11.0455 9.16606 10.6029 9.18203C10.401 9.18848 10.2974 9.33081 10.3534 9.52526C10.4934 10.0131 10.1591 10.3692 9.66299 10.2599L9.52859 10.2551C9.40792 10.2787 9.33233 10.3795 9.33709 10.5311C9.35109 11.0377 8.93895 11.2994 8.48594 11.0705L8.35602 11.0329C8.23367 11.0245 8.13651 11.1033 8.10292 11.2509L8.06456 11.419H8.04496C7.87585 11.7771 7.47883 11.8547 7.14453 11.563L7.02862 11.4938C6.91187 11.4546 6.79791 11.507 6.72876 11.6426L6.668 11.7594H6.6512L6.62964 11.7922C6.52241 11.922 6.38578 11.9923 6.24578 12.0007Z" fill="#FE624C"/>
<path d="M0.37902 8.20659L0.496612 7.62129C0.620085 7.4613 0.576128 7.29123 0.391059 7.21082C-0.0739945 7.00797 -0.133911 6.52268 0.265066 6.21056L0.35466 6.1097C0.414577 6.00211 0.384619 5.87967 0.264226 5.78608L0.254707 5.77768L0.245467 5.76843L0.135994 5.66196C-0.113192 5.35712 -0.0151979 4.96346 0.391059 4.78582C0.576128 4.70541 0.620085 4.53534 0.496612 4.37536C0.225868 4.02316 0.330303 3.63231 0.695681 3.48549L0.788076 3.46027L0.798436 3.44907L0.867591 3.43786C1.06666 3.40592 1.1515 3.25181 1.07226 3.06577C0.872352 2.59927 1.15905 2.20477 1.66443 2.25072L1.79882 2.23839C1.91557 2.20112 1.97745 2.09073 1.95393 1.94111C1.87637 1.43902 2.25295 1.12886 2.73116 1.29809L2.86388 1.3205C2.98707 1.31294 3.07302 1.22216 3.08814 1.0717L3.1069 0.875294H3.13378L3.19286 0.751174C3.35721 0.493124 3.68507 0.429516 3.99977 0.641616C4.12604 0.726792 4.2512 0.717549 4.33519 0.62761L4.40351 0.511896C4.5547 0.0930203 4.94164 -0.0285828 5.25998 0.202289L5.39073 0.313523C5.49349 0.435964 5.61696 0.45754 5.72055 0.391136L5.81603 0.296713C6.06633 -0.0714494 6.47063 -0.0930229 6.72289 0.209856L6.74445 0.241519H6.76125L6.82117 0.358354C6.89116 0.493963 7.00512 0.546359 7.12187 0.507133L7.23779 0.439883C7.57209 0.145409 7.9691 0.224707 8.13821 0.580822L8.17097 0.678041L8.18217 0.689533L8.19617 0.750054C8.24097 0.947304 8.39888 1.02211 8.57919 0.930488L8.62594 0.90723H8.64078L8.74634 0.866889C9.12852 0.770785 9.44238 1.02771 9.43034 1.47012L9.45078 1.60461C9.49557 1.71949 9.60869 1.77384 9.75708 1.74106C10.2524 1.63179 10.5858 1.9879 10.4467 2.47598L10.4335 2.61047C10.4484 2.73291 10.5438 2.81417 10.695 2.81893L10.781 2.82173L10.7913 2.83294L10.8725 2.84415C11.2536 2.94418 11.4051 3.32018 11.1808 3.70235L11.134 3.8304C11.1184 3.952 11.1912 4.05482 11.3367 4.09685L11.4919 4.1428V4.16129L11.5022 4.16606C11.846 4.35686 11.9001 4.75864 11.5873 5.07385L11.5106 5.18593C11.465 5.29997 11.5106 5.41792 11.6405 5.49441C12.0216 5.72164 12.0692 6.12455 11.7833 6.39576L11.7461 6.42378V6.44059L11.6405 6.50307C11.5106 6.58068 11.465 6.69752 11.5106 6.81156L11.5873 6.92307C11.9001 7.23883 11.846 7.6409 11.5014 7.83171L11.4003 7.87373L11.3891 7.88494L11.3367 7.89979L11.2155 8.20659H10.739L10.7454 7.89419C10.8017 7.75409 10.9061 7.63249 11.0537 7.55208L11.1508 7.51202L11.162 7.50081L11.2155 7.48484C11.3407 7.44841 11.3855 7.39406 11.3471 7.31561L11.2808 7.23043C10.9828 6.92868 10.994 6.50307 11.2799 6.23577L11.3135 6.21056V6.19375L11.4191 6.13099C11.5694 6.04133 11.5733 5.95811 11.4191 5.86649C11.0044 5.61881 10.9409 5.11224 11.2808 4.76901L11.3471 4.683C11.3855 4.60538 11.3443 4.55019 11.2155 4.51209L11.0604 4.46614L11.0565 4.44848C10.711 4.25768 10.5942 3.84917 10.8081 3.48353L10.851 3.38462C10.8689 3.29945 10.8157 3.25658 10.681 3.25181L10.5962 3.24901L10.585 3.23781L10.5083 3.22744C10.1289 3.13133 9.91415 2.7629 10.0309 2.35719L10.0477 2.25072C10.0441 2.16274 9.98051 2.13472 9.84975 2.16358C9.37798 2.26753 8.9846 1.94196 8.99776 1.45864L8.9874 1.35133C8.96304 1.26727 8.89389 1.25578 8.77546 1.31658L8.72954 1.339H8.71358L8.61195 1.3785C8.28772 1.46256 7.97302 1.31378 7.82995 1.01006L7.79831 0.917602L7.78795 0.906392L7.77395 0.845589C7.74484 0.717545 7.6936 0.668797 7.61324 0.702419L7.52365 0.762375C7.20419 1.04284 6.78085 1.00446 6.53251 0.702419L6.51375 0.673561H6.49695L6.43703 0.556726C6.37627 0.439889 6.31468 0.405145 6.24552 0.45754L6.17273 0.538796C5.93362 0.889586 5.5142 0.956828 5.19754 0.726796L5.06959 0.618367V0.609115C4.98251 0.510771 4.91336 0.493962 4.85932 0.561207L4.80976 0.657588C4.64457 1.11373 4.15964 1.27091 3.75591 1.00082L3.66155 0.952061C3.57868 0.927684 3.53192 0.98008 3.51876 1.11289L3.5 1.30817H3.472L3.41684 1.43174C3.25445 1.70464 2.92659 1.82792 2.58361 1.7066L2.48002 1.68306C2.39294 1.68026 2.36047 1.7419 2.38174 1.87471C2.45566 2.35242 2.10624 2.72451 1.62327 2.68164L1.51687 2.68528C1.43176 2.70405 1.4158 2.77214 1.46928 2.8957C1.63559 3.2846 1.46816 3.67629 1.10474 3.81919L1.01598 3.84356L1.00478 3.85393L0.936748 3.86514C0.763998 3.89316 0.730119 3.96881 0.838473 4.11086C1.13386 4.49415 1.00674 4.98868 0.564089 5.18229C0.404218 5.25233 0.390219 5.33554 0.53133 5.44482L0.54057 5.45322L0.54981 5.46275L0.655643 5.56642C0.905949 5.86762 0.863952 6.29098 0.530211 6.55183L0.454615 6.62859C0.406178 6.70032 0.440616 6.76112 0.564089 6.81436C1.00674 7.00796 1.13386 7.50249 0.838473 7.88578C0.732079 8.02419 0.760078 8.10376 0.936748 8.13178L1.04706 8.20659H0.37902Z" fill="#FE624C"/>
</svg>
