<svg width="11" height="12" viewBox="0 0 11 12" fill="none" xmlns="http://www.w3.org/2000/svg">
<g clip-path="url(#clip0_238_121)">
<path d="M1.38999 11.52C1.34088 11.5093 1.29691 11.4822 1.26537 11.4431C1.23383 11.404 1.21663 11.3552 1.21663 11.305C1.21663 11.2548 1.23383 11.206 1.26537 11.1669C1.29691 11.1278 1.34088 11.1006 1.38999 11.09H4.18999V7.21H0.98999C0.724774 7.21 0.470419 7.10464 0.282883 6.91711C0.0953463 6.72957 -0.0100098 6.47522 -0.0100098 6.21V2.31C-0.0100098 2.04478 0.0953463 1.79043 0.282883 1.60289C0.470419 1.41535 0.724774 1.31 0.98999 1.31H4.18999V0.209999C4.19256 0.153402 4.21688 0.0999792 4.25786 0.0608598C4.29884 0.0217404 4.35333 -5.84398e-05 4.40999 1.17671e-07H6.00999C6.06664 -5.84398e-05 6.12114 0.0217404 6.16212 0.0608598C6.2031 0.0999792 6.22741 0.153402 6.22999 0.209999V1.34H9.57999C9.84521 1.34 10.0996 1.44535 10.2871 1.63289C10.4746 1.82043 10.58 2.07478 10.58 2.34V6.24C10.58 6.50521 10.4746 6.75957 10.2871 6.94711C10.0996 7.13464 9.84521 7.24 9.57999 7.24H6.21999V11.09H9.15999C9.18843 11.09 9.21658 11.0957 9.24273 11.1069C9.26888 11.1181 9.29249 11.1344 9.31213 11.155C9.33177 11.1756 9.34702 11.1999 9.35697 11.2266C9.36691 11.2532 9.37134 11.2816 9.36999 11.31C9.36999 11.3657 9.34786 11.4191 9.30848 11.4585C9.2691 11.4979 9.21568 11.52 9.15999 11.52H1.38999ZM5.83999 11.05V7.21H4.63999V11.05H5.83999ZM9.61999 6.79C9.76851 6.79 9.91095 6.731 10.016 6.62598C10.121 6.52096 10.18 6.37852 10.18 6.23V2.32999C10.18 2.18147 10.121 2.03904 10.016 1.93402C9.91095 1.829 9.76851 1.77 9.61999 1.77H0.98999C0.841469 1.77 0.69903 1.829 0.594009 1.93402C0.488989 2.03904 0.429989 2.18147 0.429989 2.32999V6.23C0.429989 6.37852 0.488989 6.52096 0.594009 6.62598C0.69903 6.731 0.841469 6.79 0.98999 6.79H9.61999ZM9.13999 6.52C9.08164 6.52 9.02568 6.49682 8.98442 6.45556C8.94317 6.4143 8.91999 6.35834 8.91999 6.3C8.91999 6.24165 8.94317 6.18569 8.98442 6.14443C9.02568 6.10317 9.08164 6.07999 9.13999 6.07999C9.22887 6.0859 9.31709 6.06119 9.38999 6.00999C9.4455 5.93881 9.47386 5.85018 9.46999 5.75999C9.46999 5.70165 9.49317 5.64569 9.53442 5.60443C9.57568 5.56317 9.63164 5.54 9.68999 5.54C9.74842 5.54484 9.80307 5.57091 9.8436 5.61328C9.88413 5.65565 9.90775 5.7114 9.90999 5.77C9.91048 5.973 9.83566 6.16898 9.69999 6.32C9.61915 6.39287 9.52412 6.44824 9.42088 6.48266C9.31763 6.51707 9.20838 6.52979 9.09999 6.52H9.13999ZM0.949989 2.99C0.891553 2.98515 0.83691 2.95908 0.796379 2.91671C0.755848 2.87434 0.732231 2.81859 0.729988 2.75999C0.729493 2.55699 0.804319 2.36102 0.939987 2.21C1.09348 2.07294 1.2944 2.00118 1.49999 2.00999C1.55834 2.00999 1.61429 2.03317 1.65555 2.07443C1.69681 2.11569 1.71999 2.17165 1.71999 2.23C1.71999 2.28834 1.69681 2.3443 1.65555 2.38556C1.61429 2.42682 1.55834 2.45 1.49999 2.45C1.41111 2.44409 1.32288 2.4688 1.24999 2.52C1.19851 2.59325 1.1706 2.68046 1.16999 2.77C1.16999 2.82834 1.14681 2.8843 1.10555 2.92556C1.06429 2.96682 1.00834 2.99 0.949989 2.99ZM5.83999 1.34V0.419998H4.61999V1.34H5.83999Z" fill="white"/>
</g>
<defs>
<clipPath id="clip0_238_121">
<rect width="10.56" height="11.52" fill="white"/>
</clipPath>
</defs>
</svg>
