<svg width="11" height="11" viewBox="0 0 11 11" fill="none" xmlns="http://www.w3.org/2000/svg">
<path d="M5.06168 10.9033C1.65168 9.95327 0.46168 6.96327 0.00167982 3.45327C-0.00320511 3.41488 0.00261293 3.37588 0.018495 3.34059C0.0343771 3.3053 0.0597017 3.27508 0.0916762 3.25327C1.20684 2.47943 2.06939 1.39428 2.57168 0.133274C2.59121 0.0877499 2.62552 0.0501487 2.66908 0.0265558C2.71263 0.002963 2.76288 -0.00523977 2.81168 0.00327474C3.55017 0.169268 4.30476 0.253111 5.06168 0.253275C5.79882 0.253598 6.53358 0.169721 7.25168 0.00327474C7.30048 -0.00523977 7.35072 0.002963 7.39427 0.0265558C7.43783 0.0501487 7.47215 0.0877499 7.49168 0.133274C8.00105 1.39016 8.86213 2.47346 9.97168 3.25327C10.0045 3.27422 10.0305 3.30431 10.0465 3.33984C10.0625 3.37537 10.0678 3.41479 10.0617 3.45327C9.61168 6.94327 8.59168 9.95327 5.18168 10.9033H5.06168ZM5.12168 10.4633L5.63168 10.2933C7.96168 9.40327 8.94168 7.29327 9.43168 4.66327L9.61168 3.49327L9.25168 3.21327C8.40604 2.54444 7.72237 1.69327 7.25168 0.723274L7.12168 0.433275H6.97168C6.31452 0.573186 5.64343 0.636938 4.97168 0.623274C4.39507 0.635497 3.81872 0.588586 3.25168 0.483274L2.81168 0.403274L2.68168 0.693275C2.21845 1.65393 1.55329 2.50328 0.731676 3.18327L0.36168 3.46327L0.551675 4.60328C1.07168 7.25328 2.17168 9.34327 4.55168 10.2333L5.12168 10.4633ZM5.04168 9.60328C2.44168 8.88328 1.54168 6.60327 1.20168 3.95327C1.19255 3.91468 1.19643 3.87415 1.2127 3.83798C1.22898 3.80182 1.25674 3.77204 1.29168 3.75327C2.11689 3.1746 2.75614 2.36858 3.13168 1.43328C3.1512 1.38775 3.18553 1.35015 3.22908 1.32656C3.27264 1.30296 3.32288 1.29476 3.37168 1.30327C3.92235 1.43089 4.48646 1.49133 5.05168 1.48327C5.60372 1.49211 6.15469 1.43163 6.69167 1.30327C6.74047 1.29476 6.79072 1.30296 6.83428 1.32656C6.87783 1.35015 6.91215 1.38775 6.93168 1.43328C7.31093 2.36929 7.95357 3.17519 8.78168 3.75327C8.81453 3.77422 8.84055 3.80431 8.85654 3.83984C8.87253 3.87537 8.87778 3.91479 8.87167 3.95327C8.53167 6.58327 7.76168 8.88328 5.16168 9.60328H5.04168ZM5.10168 9.16327L5.46168 9.05327C7.19168 8.39327 7.92168 6.84328 8.29168 4.85328L8.42168 4.02328L8.17168 3.83327C7.54567 3.31947 7.04039 2.67422 6.69167 1.94328L6.61168 1.76328H6.54168C6.05169 1.86566 5.55224 1.91594 5.05168 1.91327C4.61597 1.91444 4.181 1.87763 3.75168 1.80327L3.46168 1.75327L3.38168 1.93328C3.02942 2.66201 2.52469 3.30656 1.90167 3.82327L1.65167 4.01328L1.78168 4.84328C2.17168 6.84328 2.99168 8.37327 4.78168 9.04327L5.10168 9.16327ZM2.46168 4.89327C2.41283 4.89901 2.36347 4.88822 2.32147 4.86262C2.27948 4.83701 2.24728 4.79808 2.23001 4.75203C2.21274 4.70597 2.2114 4.65546 2.22621 4.60856C2.24101 4.56166 2.2711 4.52107 2.31168 4.49327L4.02168 2.49327C4.06289 2.45236 4.1186 2.4294 4.17668 2.4294C4.23475 2.4294 4.29046 2.45236 4.33167 2.49327C4.35163 2.51283 4.36749 2.53617 4.37831 2.56192C4.38914 2.58768 4.39471 2.61534 4.39471 2.64327C4.39471 2.67121 4.38914 2.69887 4.37831 2.72463C4.36749 2.75038 4.35163 2.77372 4.33167 2.79327L2.62168 4.79327C2.60672 4.81888 2.58652 4.84103 2.56239 4.85827C2.53826 4.87551 2.51075 4.88744 2.48168 4.89327H2.46168Z" fill="#FE624C"/>
</svg>
