<svg width="9" height="11" viewBox="0 0 9 11" fill="none" xmlns="http://www.w3.org/2000/svg">
<g clip-path="url(#clip0_230_57)">
<path d="M3.89002 10.47C3.79095 10.47 3.69578 10.4314 3.6248 10.3623C3.55382 10.2931 3.51263 10.199 3.51002 10.1V9.41C3.51002 9.30922 3.55006 9.21256 3.62132 9.1413C3.69259 9.07003 3.78924 9.02999 3.89002 9.02999H4.97002C5.07081 9.02999 5.16746 9.07003 5.23872 9.1413C5.30999 9.21256 5.35002 9.30922 5.35002 9.41H5.41003C5.69047 9.40185 5.96485 9.3264 6.21002 9.19C6.29424 9.13582 6.36585 9.06421 6.42002 8.98V8.85999L6.15002 8.79C6.04858 8.76885 5.95245 8.72744 5.86738 8.66825C5.78232 8.60907 5.71008 8.53332 5.65499 8.44555C5.5999 8.35778 5.56309 8.25979 5.54677 8.15746C5.53046 8.05512 5.53496 7.95054 5.56002 7.84999C5.93883 7.07501 6.17591 6.2385 6.26002 5.38C6.32667 5.18008 6.46773 5.0135 6.65393 4.91482C6.84013 4.81614 7.05717 4.79292 7.26002 4.84999L7.67002 4.95V4.74999C7.82333 4.19301 7.85066 3.60886 7.75002 3.04V2.98C5.88002 0.729998 2.11002 1.05 0.750022 2.98L0.67002 3.05V3.12C0.603662 3.6791 0.661719 4.24595 0.840026 4.77999L0.900023 4.95999L1.22002 4.88C1.42288 4.82292 1.63992 4.84613 1.82612 4.94482C2.01231 5.0435 2.15337 5.21008 2.22002 5.41C2.3102 6.26856 2.55052 7.1046 2.93002 7.88C2.96306 7.98443 2.97374 8.09464 2.96136 8.20347C2.94897 8.3123 2.9138 8.4173 2.85815 8.51164C2.80249 8.60597 2.72758 8.68753 2.63831 8.75099C2.54904 8.81446 2.44741 8.85842 2.34003 8.88L1.64002 9.05C1.59047 9.05946 1.53957 9.05946 1.49002 9.05C1.30796 9.0699 1.12464 9.02593 0.971412 8.92561C0.818186 8.82528 0.704578 8.67483 0.650023 8.49999L-0.0799801 5.94C-0.121407 5.76363 -0.100148 5.57835 -0.0198604 5.41595C0.0604271 5.25355 0.194738 5.12417 0.360022 5.05H0.42002L0.360022 4.87C-0.639978 1.74 1.79002 0.0999942 4.14002 0.0699942C6.49002 0.0399942 8.93002 1.63999 8.14002 4.84999L8.08002 5.09L8.20003 5.16C8.32743 5.24762 8.42464 5.37247 8.47834 5.51747C8.53204 5.66247 8.53961 5.82053 8.50002 5.97L7.78002 8.52999C7.72969 8.69339 7.62708 8.83572 7.48795 8.93509C7.34883 9.03446 7.18091 9.08538 7.01002 9.08H6.82002C6.76598 9.30198 6.64354 9.50137 6.47002 9.65C6.1875 9.80943 5.87347 9.905 5.55002 9.92999H5.35002V10.11C5.34741 10.209 5.30623 10.3031 5.23525 10.3723C5.16427 10.4414 5.0691 10.48 4.97002 10.48L3.89002 10.47ZM4.89002 9.98999V9.51H4.03002V9.98999H4.89002ZM7.12002 8.52999C7.19046 8.53614 7.26105 8.52019 7.32199 8.48435C7.38293 8.4485 7.43118 8.39454 7.46002 8.33L8.18002 5.77C8.19154 5.70408 8.17992 5.63621 8.14711 5.57788C8.1143 5.51956 8.06234 5.47438 8.00002 5.45L7.12002 8.55V8.52999ZM1.59003 8.52999L0.700026 5.45H0.590026C0.545154 5.48212 0.510773 5.52678 0.491202 5.57837C0.471631 5.62997 0.467743 5.68619 0.480025 5.73999L1.20003 8.29C1.22116 8.36595 1.26959 8.43142 1.33602 8.47386C1.40246 8.51631 1.48222 8.53274 1.56002 8.52L1.59003 8.52999ZM6.59003 8.41999L7.48003 5.31999L7.22002 5.26C7.14847 5.24175 7.07309 5.24533 7.00358 5.27028C6.93408 5.29523 6.87364 5.34041 6.83002 5.4V5.70999C6.72567 6.39815 6.53413 7.07022 6.26002 7.70999L6.13003 8.01C6.13369 8.08077 6.16148 8.14816 6.20879 8.20093C6.2561 8.2537 6.32006 8.28866 6.39002 8.3L6.59003 8.41999ZM2.10002 8.41999L2.35002 8.34999C2.42157 8.3401 2.48685 8.30387 2.53309 8.24838C2.57933 8.1929 2.60319 8.12215 2.60002 8.05L2.47002 7.76C2.18606 7.12376 1.99414 6.45034 1.90002 5.76V5.45999C1.86079 5.39562 1.80069 5.34662 1.72974 5.32115C1.65878 5.29568 1.58124 5.29527 1.51002 5.31999L1.26002 5.38L2.10002 8.41999ZM7.34003 1.79V1.73C6.95778 1.32202 6.49166 1.0017 5.97378 0.791094C5.45589 0.580486 4.89852 0.484587 4.34003 0.509997C3.77657 0.481707 3.21401 0.581253 2.69448 0.801188C2.17495 1.02112 1.71191 1.35574 1.34003 1.77999L1.61002 1.59C2.40919 1.12632 3.3133 0.873821 4.23707 0.856325C5.16085 0.83883 6.07387 1.0569 6.89002 1.48999L7.34003 1.79Z" fill="#FE624C"/>
</g>
<defs>
<clipPath id="clip0_230_57">
<rect width="8.64" height="10.47" fill="white"/>
</clipPath>
</defs>
</svg>
