<svg width="10" height="10" viewBox="0 0 10 10" fill="none" xmlns="http://www.w3.org/2000/svg">
<g clip-path="url(#clip0_250_136)">
<path d="M4.23002 9.74C4.18121 9.72872 4.13632 9.70454 4.10003 9.67L2.36003 7.95H1.72003C1.26386 7.95 0.826368 7.76879 0.503806 7.44622C0.181243 7.12366 2.90736e-05 6.68618 2.90736e-05 6.23V1.73C-0.00128905 1.50329 0.0422254 1.27855 0.128073 1.06871C0.213921 0.858879 0.34041 0.668086 0.500258 0.507309C0.660106 0.346531 0.850158 0.218941 1.05949 0.131878C1.26883 0.0448152 1.49331 -3.83155e-06 1.72003 2.45677e-10H7.43003C7.65675 -3.83155e-06 7.88122 0.0448152 8.09056 0.131878C8.29989 0.218941 8.48995 0.346531 8.6498 0.507309C8.80965 0.668086 8.93613 0.858879 9.02198 1.06871C9.10783 1.27855 9.15135 1.50329 9.15003 1.73V6.23C9.15003 6.68618 8.96882 7.12366 8.64625 7.44622C8.32369 7.76879 7.8862 7.95 7.43003 7.95H4.43003V9.5C4.43083 9.55729 4.41111 9.61298 4.37443 9.657C4.33775 9.70101 4.28652 9.73045 4.23002 9.74ZM3.99003 8.91V7.71C3.99003 7.64635 4.01532 7.5853 4.06032 7.54029C4.10533 7.49529 4.16637 7.47 4.23002 7.47H7.43003C7.75285 7.45967 8.05914 7.3248 8.2847 7.09364C8.51027 6.86247 8.63761 6.55298 8.64003 6.23V1.73C8.64004 1.40021 8.50972 1.08377 8.27746 0.849636C8.04519 0.615501 7.72982 0.482642 7.40003 0.480003H1.72003C1.39025 0.482642 1.07487 0.615501 0.842604 0.849636C0.610342 1.08377 0.480014 1.40021 0.480025 1.73V6.23C0.482639 6.55806 0.614125 6.87194 0.846106 7.10392C1.07809 7.3359 1.39197 7.46739 1.72003 7.47H2.46003C2.52626 7.47208 2.58979 7.49679 2.64003 7.54L3.99003 8.91Z" fill="#FE624C"/>
</g>
<defs>
<clipPath id="clip0_250_136">
<rect width="9.16" height="9.74" fill="white"/>
</clipPath>
</defs>
</svg>
