<svg width="12" height="10" viewBox="0 0 12 10" fill="none" xmlns="http://www.w3.org/2000/svg">
<path d="M1.49023 9.31003C1.22502 9.31003 0.970663 9.20468 0.783127 9.01714C0.59559 8.8296 0.490234 8.57525 0.490234 8.31003V4.42003C0.490234 4.15482 0.59559 3.90046 0.783127 3.71292C0.970663 3.52539 1.22502 3.42003 1.49023 3.42003H2.98024C2.99092 3.39006 3.00798 3.36277 3.03024 3.34003L5.08023 1.31003V1.25003C5.0706 1.17032 5.0706 1.08974 5.08023 1.01003C5.06767 0.898144 5.07886 0.78486 5.11308 0.677593C5.14729 0.570326 5.20377 0.471491 5.27881 0.38755C5.35385 0.303609 5.44577 0.236455 5.54854 0.190475C5.65132 0.144496 5.76264 0.120728 5.87523 0.120728C5.98783 0.120728 6.09915 0.144496 6.20193 0.190475C6.3047 0.236455 6.39662 0.303609 6.47166 0.38755C6.5467 0.471491 6.60318 0.570326 6.63739 0.677593C6.67161 0.78486 6.6828 0.898144 6.67023 1.01003C6.67521 1.06325 6.67521 1.11682 6.67023 1.17003L8.76023 3.31003C8.76512 3.33647 8.76512 3.36359 8.76023 3.39003H10.0102C10.2755 3.39003 10.5298 3.49539 10.7173 3.68293C10.9049 3.87046 11.0102 4.12482 11.0102 4.39003V8.31003C11.0102 8.57525 10.9049 8.8296 10.7173 9.01714C10.5298 9.20468 10.2755 9.31003 10.0102 9.31003H1.49023ZM10.0902 8.89003C10.238 8.88746 10.3789 8.82764 10.4834 8.72317C10.5878 8.6187 10.6477 8.47775 10.6502 8.33003V4.42003C10.6477 4.27231 10.5878 4.13136 10.4834 4.02689C10.3789 3.92243 10.238 3.8626 10.0902 3.86003H1.49023C1.34171 3.86003 1.19927 3.91903 1.09425 4.02405C0.989233 4.12907 0.930233 4.27151 0.930233 4.42003V8.31003C0.930233 8.45855 0.989233 8.60099 1.09425 8.70601C1.19927 8.81103 1.34171 8.87003 1.49023 8.87003L10.0902 8.89003ZM9.61023 8.62003C9.55189 8.62003 9.49593 8.59685 9.45467 8.5556C9.41341 8.51434 9.39024 8.45838 9.39024 8.40003C9.39024 8.34168 9.41341 8.28573 9.45467 8.24447C9.49593 8.20321 9.55189 8.18003 9.61023 8.18003C9.65421 8.18933 9.69981 8.1875 9.7429 8.17471C9.78599 8.16191 9.82521 8.13857 9.85699 8.10679C9.88877 8.07501 9.91212 8.03579 9.92491 7.9927C9.9377 7.94961 9.93953 7.90401 9.93023 7.86003C9.93281 7.80078 9.95818 7.74482 10.001 7.70382C10.0439 7.66283 10.1009 7.63998 10.1602 7.64003C10.1891 7.64132 10.2175 7.64829 10.2437 7.66055C10.2699 7.6728 10.2934 7.69011 10.3129 7.71148C10.3324 7.73284 10.3475 7.75784 10.3574 7.78505C10.3672 7.81226 10.3716 7.84114 10.3702 7.87003C10.3775 8.07238 10.3058 8.26961 10.1702 8.42003C10.0915 8.48989 9.9997 8.54352 9.90017 8.57784C9.80064 8.61216 9.69531 8.6265 9.59023 8.62003H9.61023ZM2.90023 7.42003C2.75772 7.41033 2.61846 7.37297 2.49023 7.31003C2.37395 7.25283 2.27157 7.17092 2.19024 7.07003C2.11388 6.95673 2.05646 6.83177 2.02023 6.70003C1.97942 6.54333 1.95926 6.38196 1.96024 6.22003C1.93928 5.90972 2.02774 5.60188 2.21024 5.35003C2.29708 5.24824 2.40649 5.16812 2.52974 5.11604C2.653 5.06396 2.78671 5.04136 2.92023 5.05003C3.06417 5.04845 3.20696 5.07564 3.34023 5.13003C3.4555 5.18445 3.55522 5.26698 3.63023 5.37003C3.7177 5.47801 3.77927 5.60457 3.81023 5.74003C3.85236 5.89648 3.87255 6.05803 3.87024 6.22003C3.88951 6.53016 3.80121 6.83744 3.62024 7.09003C3.5341 7.20228 3.42131 7.29125 3.29208 7.34888C3.16286 7.4065 3.0213 7.43096 2.88023 7.42003H2.90023ZM9.08023 7.42003L8.24023 6.23003L8.06023 5.88003L8.12024 6.23003V7.40003H7.70023V5.11003H8.02023L8.87024 6.31003L9.04023 6.65003L8.97023 6.31003V5.12003H9.38023V7.39003L9.08023 7.42003ZM4.16023 7.42003V5.15003H4.46024H4.78024C4.89333 5.13971 5.00714 5.13971 5.12024 5.15003C5.22683 5.16532 5.32903 5.20279 5.42023 5.26003C5.51501 5.31286 5.59167 5.393 5.64024 5.49003C5.7062 5.60539 5.73745 5.73734 5.73024 5.87003C5.72929 5.99332 5.70556 6.11537 5.66023 6.23003C5.6079 6.32096 5.54024 6.40216 5.46024 6.47003C5.37509 6.52917 5.28036 6.57315 5.18023 6.60003C5.07412 6.61535 4.96635 6.61535 4.86023 6.60003H4.59023V7.37003L4.16023 7.42003ZM6.00023 7.42003V5.12003H7.33023V5.52003H6.44024V6.04003H7.25023V6.43003H6.44024V6.98003H7.35023V7.37003L6.00023 7.42003ZM2.90023 7.08003C2.97159 7.08245 3.04234 7.06619 3.10548 7.03286C3.16862 6.99954 3.22197 6.95031 3.26023 6.89003C3.35778 6.70935 3.40282 6.50498 3.39024 6.30003C3.4006 6.19696 3.4006 6.09311 3.39024 5.99003C3.37114 5.9077 3.34435 5.82735 3.31023 5.75003C3.27318 5.67999 3.2179 5.62126 3.15023 5.58003C3.08477 5.53798 3.00798 5.51704 2.93023 5.52003C2.85767 5.51873 2.78592 5.5354 2.72137 5.56855C2.65681 5.6017 2.60146 5.65031 2.56023 5.71003C2.46367 5.89108 2.4187 6.09517 2.43023 6.30003C2.41938 6.40308 2.41938 6.50698 2.43023 6.61003C2.44627 6.69775 2.47668 6.78222 2.52023 6.86003C2.5566 6.92468 2.60807 6.97957 2.67023 7.02003C2.7384 7.04028 2.81045 7.04372 2.88023 7.03003L2.90023 7.08003ZM4.79023 6.28003H4.97023H5.12024C5.16421 6.2474 5.20154 6.20667 5.23024 6.16003C5.24258 6.09057 5.24258 6.01949 5.23024 5.95003C5.24274 5.89405 5.24274 5.83601 5.23024 5.78003C5.20785 5.73473 5.1732 5.69662 5.13023 5.67003C5.08497 5.63978 5.03388 5.61934 4.98024 5.61003H4.82024H4.59023V6.34003H4.77023L4.79023 6.28003ZM1.49023 5.08003C1.43189 5.08003 1.37593 5.05685 1.33467 5.01559C1.29341 4.97434 1.27023 4.91838 1.27023 4.86003C1.26974 4.65702 1.34457 4.46105 1.48024 4.31003C1.55415 4.242 1.64081 4.1893 1.73521 4.15497C1.82962 4.12064 1.92989 4.10537 2.03024 4.11003C2.05996 4.10868 2.08964 4.11337 2.1175 4.12382C2.14536 4.13427 2.1708 4.15026 2.1923 4.17082C2.2138 4.19139 2.23091 4.2161 2.24258 4.24347C2.25426 4.27083 2.26027 4.30028 2.26023 4.33003C2.26023 4.38838 2.23705 4.44434 2.1958 4.4856C2.15454 4.52685 2.09858 4.55003 2.04023 4.55003C1.95092 4.53938 1.86103 4.56455 1.79023 4.62003C1.73472 4.69122 1.70636 4.77984 1.71024 4.87003C1.71027 4.89847 1.70452 4.92662 1.69335 4.95277C1.68217 4.97893 1.66581 5.00254 1.64523 5.02217C1.62466 5.04181 1.60032 5.05706 1.57367 5.06701C1.54703 5.07695 1.51864 5.08139 1.49023 5.08003ZM8.27023 3.44003L6.39024 1.56003L6.31023 1.63003C6.17855 1.72258 6.02118 1.77154 5.86023 1.77003C5.7027 1.76947 5.54913 1.72061 5.42023 1.63003L3.60023 3.44003H8.27023ZM5.81023 1.31003C5.87787 1.31202 5.94456 1.29379 6.00177 1.25766C6.05899 1.22153 6.10412 1.16915 6.13139 1.10722C6.15867 1.0453 6.16684 0.976644 6.15487 0.910046C6.14291 0.843447 6.11134 0.781931 6.06421 0.733376C6.01709 0.68482 5.95654 0.651432 5.89033 0.637482C5.82412 0.623532 5.75525 0.629658 5.69254 0.655071C5.62983 0.680485 5.57612 0.724031 5.5383 0.78014C5.50048 0.836249 5.48027 0.902366 5.48024 0.970032C5.4802 1.0585 5.51464 1.1435 5.57626 1.20698C5.63787 1.27046 5.72181 1.30743 5.81023 1.31003Z" fill="white"/>
</svg>
