<svg width="13" height="12" viewBox="0 0 13 12" fill="none" xmlns="http://www.w3.org/2000/svg">
<g clip-path="url(#clip0_230_75)">
<path d="M3.46003 11.06C3.24427 11.06 3.0372 10.975 2.88371 10.8234C2.73021 10.6717 2.64266 10.4657 2.64003 10.25V0.82C2.64003 0.602522 2.72642 0.393953 2.8802 0.240173C3.03398 0.0863935 3.24255 0 3.46003 0H8.46003C8.67577 0.00263117 8.88178 0.0901797 9.03341 0.243675C9.18503 0.397171 9.27005 0.604244 9.27003 0.82V10.25C9.27003 10.3564 9.24908 10.4617 9.20837 10.56C9.16766 10.6582 9.108 10.7475 9.03279 10.8228C8.95757 10.898 8.86827 10.9576 8.77 10.9983C8.67173 11.039 8.5664 11.06 8.46003 11.06H3.46003ZM8.46003 10.66C8.56876 10.66 8.67305 10.6168 8.74994 10.5399C8.82683 10.463 8.87003 10.3587 8.87003 10.25V0.82C8.87003 0.711261 8.82683 0.606973 8.74994 0.530083C8.67305 0.453193 8.56876 0.409996 8.46003 0.409996H3.46003C3.35129 0.409996 3.24701 0.453193 3.17012 0.530083C3.09323 0.606973 3.05003 0.711261 3.05003 0.82V10.25C3.05003 10.3587 3.09323 10.463 3.17012 10.5399C3.24701 10.6168 3.35129 10.66 3.46003 10.66H8.46003ZM5.70003 10.3C5.64699 10.3 5.59611 10.2789 5.55861 10.2414C5.5211 10.2039 5.50003 10.153 5.50003 10.1C5.50003 10.047 5.5211 9.99608 5.55861 9.95857C5.59611 9.92107 5.64699 9.89999 5.70003 9.89999H6.13003C6.18307 9.89999 6.23394 9.92107 6.27145 9.95857C6.30896 9.99608 6.33003 10.047 6.33003 10.1C6.33003 10.153 6.30896 10.2039 6.27145 10.2414C6.23394 10.2789 6.18307 10.3 6.13003 10.3H5.70003ZM4.10003 9.56C3.91968 9.56 3.74672 9.48836 3.6192 9.36083C3.49167 9.23331 3.42002 9.06034 3.42002 8.88V1.88C3.42265 1.70139 3.49546 1.53099 3.6227 1.40562C3.74994 1.28025 3.9214 1.20998 4.10003 1.21H7.74002C7.82885 1.20867 7.91705 1.22503 7.9995 1.2581C8.08195 1.29118 8.15699 1.34032 8.22026 1.40266C8.28354 1.46501 8.3338 1.53932 8.36809 1.62127C8.40239 1.70322 8.42003 1.79116 8.42002 1.88V8.88C8.42137 8.96967 8.40471 9.0587 8.37101 9.14181C8.33732 9.22492 8.28728 9.30042 8.22387 9.36384C8.16045 9.42725 8.08495 9.47729 8.00184 9.51099C7.91873 9.54468 7.8297 9.56135 7.74002 9.56H4.10003ZM7.74002 9.16C7.81429 9.16 7.8855 9.1305 7.93801 9.07799C7.99053 9.02548 8.02003 8.95426 8.02003 8.88V1.88C8.01744 1.80748 7.9868 1.7388 7.93457 1.68844C7.88233 1.63807 7.81258 1.60995 7.74002 1.61H4.14003C4.06842 1.61 3.99974 1.63844 3.94911 1.68908C3.89847 1.73971 3.87003 1.80839 3.87003 1.88V8.88C3.86868 8.91629 3.87467 8.95248 3.88764 8.9864C3.9006 9.02032 3.92028 9.05127 3.94548 9.07742C3.97069 9.10356 4.00092 9.12434 4.03434 9.13853C4.06777 9.15272 4.10371 9.16002 4.14003 9.16H7.74002ZM1.74002 7.45C1.20808 7.30302 0.742008 6.97936 0.418491 6.53225C0.0949742 6.08514 -0.066718 5.54123 -0.0399742 4.99C-0.0707399 4.45035 0.0929299 3.91756 0.421337 3.48824C0.749744 3.05893 1.22114 2.76153 1.75003 2.64999C1.8029 2.64097 1.85722 2.65252 1.90184 2.68227C1.94647 2.71202 1.97802 2.75772 1.99002 2.81C1.99876 2.86429 1.98585 2.91985 1.95406 2.96473C1.92227 3.00961 1.87414 3.04022 1.82003 3.05C1.39204 3.15303 1.01447 3.40452 0.754467 3.75974C0.494459 4.11496 0.368867 4.55089 0.400028 4.99C0.368105 5.45319 0.498327 5.91305 0.76836 6.29073C1.03839 6.66842 1.43142 6.94038 1.88003 7.06C1.93069 7.0762 1.9733 7.11101 1.99929 7.15741C2.02527 7.20381 2.03269 7.25834 2.02003 7.31C2.00845 7.35311 1.98206 7.39077 1.94549 7.41637C1.90892 7.44197 1.8645 7.45387 1.82003 7.45H1.74002ZM10.14 7.45C10.0946 7.45143 10.0501 7.43736 10.0137 7.4101C9.97735 7.38283 9.95137 7.344 9.94003 7.3C9.9278 7.24701 9.9366 7.19135 9.96457 7.14472C9.99255 7.09809 10.0375 7.06414 10.09 7.05C10.535 6.92876 10.9244 6.65747 11.1923 6.28207C11.4602 5.90666 11.5901 5.45021 11.56 4.99C11.5927 4.55757 11.4724 4.12741 11.2202 3.77464C10.9679 3.42188 10.5998 3.16894 10.18 3.06C10.1278 3.04799 10.0821 3.01644 10.0523 2.97182C10.0226 2.92719 10.011 2.87287 10.02 2.82C10.0298 2.76852 10.0593 2.72291 10.1023 2.69299C10.1453 2.66307 10.1984 2.65122 10.25 2.66C10.7788 2.77321 11.2502 3.0707 11.5799 3.49934C11.9096 3.92797 12.0762 4.45985 12.05 5C12.0749 5.55084 11.9125 6.09388 11.5893 6.54061C11.2661 6.98734 10.801 7.31141 10.27 7.46L10.14 7.45ZM1.84003 6.57999C1.51485 6.48319 1.23073 6.28172 1.03182 6.00686C0.832906 5.732 0.730329 5.39914 0.740025 5.06C0.721054 4.71498 0.826778 4.37464 1.0379 4.1011C1.24902 3.82757 1.55146 3.63907 1.89003 3.57C1.94168 3.56123 1.99471 3.57308 2.03772 3.603C2.08073 3.63292 2.11029 3.67852 2.12003 3.73C2.12905 3.78287 2.1175 3.83719 2.08775 3.88181C2.058 3.92644 2.0123 3.958 1.96003 3.97C1.71514 4.0264 1.49825 4.16796 1.34806 4.36944C1.19786 4.57092 1.12413 4.8192 1.14003 5.07C1.12394 5.3293 1.1977 5.58622 1.34888 5.7975C1.50006 6.00878 1.71942 6.16152 1.97003 6.23C2.02307 6.23 2.07394 6.25107 2.11145 6.28857C2.14895 6.32608 2.17002 6.37696 2.17002 6.43C2.17002 6.48304 2.14895 6.53391 2.11145 6.57142C2.07394 6.60893 2.02307 6.63 1.97003 6.63L1.84003 6.57999ZM10.05 6.57999C9.99699 6.58795 9.94296 6.57451 9.89982 6.54263C9.85669 6.51075 9.82798 6.46304 9.82003 6.41C9.81207 6.35695 9.82551 6.30292 9.8574 6.25979C9.88928 6.21666 9.93698 6.18796 9.99002 6.18C10.2468 6.12522 10.477 5.98424 10.6426 5.7805C10.8081 5.57676 10.899 5.32251 10.9 5.06C10.9294 4.80666 10.8609 4.55167 10.7084 4.34719C10.556 4.14272 10.3312 4.00421 10.08 3.96C10.0278 3.94799 9.98206 3.91644 9.9523 3.87181C9.92255 3.82718 9.911 3.77287 9.92002 3.72C9.93195 3.6697 9.96201 3.62555 10.0044 3.59603C10.0469 3.56651 10.0987 3.55368 10.15 3.56C10.4904 3.62929 10.7942 3.81926 11.0056 4.09492C11.2169 4.37057 11.3215 4.71332 11.3 5.06C11.3171 5.40976 11.2145 5.75489 11.009 6.03848C10.8036 6.32207 10.5077 6.52718 10.17 6.62L10.05 6.57999ZM4.74002 4.06C4.67709 4.05646 4.6172 4.0318 4.57003 3.99C4.52646 3.94213 4.50232 3.87972 4.50232 3.81499C4.50232 3.75027 4.52646 3.68787 4.57003 3.64L5.74002 2.48C5.78511 2.43491 5.84627 2.40958 5.91003 2.40958C5.97379 2.40958 6.03494 2.43491 6.08003 2.48C6.12512 2.52508 6.15045 2.58623 6.15045 2.64999C6.15045 2.71376 6.12512 2.77491 6.08003 2.82L4.91003 3.99C4.86286 4.0318 4.80295 4.05646 4.74002 4.06ZM4.40003 3.12C4.3371 3.11646 4.2772 3.0918 4.23003 3.05C4.18716 3.00377 4.16333 2.94305 4.16333 2.88C4.16333 2.81695 4.18716 2.75623 4.23003 2.71L4.89003 2.04C4.93625 1.99713 4.99698 1.9733 5.06003 1.9733C5.12308 1.9733 5.1838 1.99713 5.23003 2.04C5.25368 2.06156 5.27258 2.0878 5.2855 2.11707C5.29843 2.14635 5.30511 2.178 5.30511 2.21C5.30511 2.242 5.29843 2.27365 5.2855 2.30292C5.27258 2.33219 5.25368 2.35844 5.23003 2.38L4.57003 3.05C4.52285 3.0918 4.46296 3.11646 4.40003 3.12ZM7.62003 1.06C7.56699 1.06 7.51611 1.03893 7.4786 1.00142C7.4411 0.963912 7.42002 0.913044 7.42002 0.860001C7.42002 0.806957 7.4411 0.756082 7.4786 0.718575C7.51611 0.681067 7.56699 0.659996 7.62003 0.659996H8.05003C8.10307 0.659996 8.15394 0.681067 8.19145 0.718575C8.22896 0.756082 8.25003 0.806957 8.25003 0.860001C8.25003 0.913044 8.22896 0.963912 8.19145 1.00142C8.15394 1.03893 8.10307 1.06 8.05003 1.06H7.62003Z" fill="#FE624C"/>
</g>
<defs>
<clipPath id="clip0_230_75">
<rect width="12.05" height="11.06" fill="white"/>
</clipPath>
</defs>
</svg>
