<svg width="9" height="12" viewBox="0 0 9 12" fill="none" xmlns="http://www.w3.org/2000/svg">
<path d="M1.1683 11.8804C0.840653 11.9219 0.509904 11.832 0.248306 11.6304C0.147642 11.5157 0.0745803 11.3794 0.0347133 11.2321C-0.00515373 11.0848 -0.010764 10.9303 0.0183101 10.7804L0.488304 3.27043V2.98043C0.507085 2.75202 0.603757 2.537 0.76213 2.37134C0.920504 2.20569 1.13097 2.09946 1.35831 2.07043H2.54831C2.78831 0.760435 3.54831 0.0204348 4.33831 0.000434813C5.12831 -0.0195652 5.88831 0.650435 6.10831 2.00043V2.12043H7.3783C7.60564 2.14946 7.81611 2.25569 7.97449 2.42134C8.13286 2.587 8.22953 2.80202 8.24831 3.03043V3.32043L8.78831 10.8004C8.81738 10.9503 8.81177 11.1048 8.7719 11.2521C8.73204 11.3994 8.65897 11.5357 8.5583 11.6504C8.42959 11.7517 8.2818 11.8261 8.12374 11.869C7.96568 11.912 7.80058 11.9227 7.63831 11.9004L1.1683 11.8804ZM1.0983 11.4004H7.65831C8.01831 11.4004 8.1683 11.3504 8.2383 11.2804C8.3083 11.2104 8.34831 11.1104 8.31831 10.8204L7.8483 3.30043C7.8483 2.73043 7.6383 2.55043 7.2083 2.57043H6.2083V2.80043C6.3786 2.87202 6.51887 3.00032 6.60532 3.16358C6.69176 3.32683 6.71904 3.51497 6.68253 3.69605C6.64601 3.87713 6.54796 4.04 6.40501 4.157C6.26207 4.274 6.08303 4.33793 5.89831 4.33793C5.71358 4.33793 5.53455 4.274 5.3916 4.157C5.24865 4.04 5.1506 3.87713 5.11409 3.69605C5.07758 3.51497 5.10486 3.32683 5.1913 3.16358C5.27774 3.00032 5.41802 2.87202 5.58831 2.80043H5.78831V2.52043H2.99831V2.80043H3.0583C3.20124 2.86141 3.32302 2.9632 3.4084 3.09304C3.49378 3.22289 3.53897 3.37503 3.53831 3.53043C3.53831 3.73995 3.45508 3.94089 3.30692 4.08905C3.15877 4.2372 2.95783 4.32043 2.74831 4.32043C2.56481 4.32232 2.38638 4.26026 2.24365 4.14492C2.10092 4.02958 2.0028 3.86815 1.96613 3.68834C1.92946 3.50854 1.95653 3.32158 2.04269 3.15956C2.12885 2.99753 2.26873 2.87056 2.43831 2.80043H2.51831V2.52043H1.60831C1.18831 2.52043 0.978309 2.67043 0.978309 3.25043L0.498306 10.8004C0.498306 11.0904 0.49831 11.2104 0.58831 11.2604C0.67831 11.3104 0.788304 11.4004 1.0983 11.4004ZM1.29831 11.0104C1.24179 10.999 1.19098 10.9683 1.15449 10.9236C1.11799 10.879 1.09805 10.8231 1.09805 10.7654C1.09805 10.7078 1.11799 10.6519 1.15449 10.6072C1.19098 10.5626 1.24179 10.5319 1.29831 10.5204H7.4183C7.47482 10.5319 7.52563 10.5626 7.56213 10.6072C7.59862 10.6519 7.61856 10.7078 7.61856 10.7654C7.61856 10.8231 7.59862 10.879 7.56213 10.9236C7.52563 10.9683 7.47482 10.999 7.4183 11.0104H1.29831ZM6.6283 10.2104C6.59739 10.2097 6.56702 10.2022 6.53936 10.1883C6.5117 10.1745 6.48744 10.1547 6.46831 10.1304C6.44593 10.1081 6.42818 10.0816 6.41607 10.0525C6.40396 10.0233 6.39772 9.99202 6.39772 9.96043C6.39772 9.92885 6.40396 9.89757 6.41607 9.8684C6.42818 9.83922 6.44593 9.81273 6.46831 9.79043L7.46831 8.90043C7.51454 8.85756 7.57526 8.83374 7.63831 8.83374C7.70135 8.83374 7.76207 8.85756 7.8083 8.90043C7.83068 8.92273 7.84844 8.94922 7.86055 8.9784C7.87266 9.00757 7.8789 9.03885 7.8789 9.07043C7.8789 9.10202 7.87266 9.1333 7.86055 9.16247C7.84844 9.19164 7.83068 9.21814 7.8083 9.24043L6.8083 10.1404C6.75766 10.183 6.69438 10.2076 6.6283 10.2104ZM5.51831 9.80043C5.4534 9.79689 5.39241 9.76819 5.3483 9.72043C5.32593 9.69814 5.30818 9.67164 5.29607 9.64247C5.28395 9.6133 5.27772 9.58202 5.27772 9.55043C5.27772 9.51885 5.28395 9.48757 5.29607 9.4584C5.30818 9.42922 5.32593 9.40273 5.3483 9.38043L7.10831 7.80043C7.13129 7.77877 7.15831 7.76184 7.18784 7.75061C7.21736 7.73939 7.24881 7.73409 7.28038 7.73502C7.31195 7.73595 7.34303 7.74309 7.37184 7.75603C7.40065 7.76897 7.42664 7.78745 7.44831 7.81043C7.46998 7.83342 7.48691 7.86044 7.49813 7.88996C7.50935 7.91949 7.51465 7.95093 7.51372 7.98251C7.5128 8.01408 7.50565 8.04516 7.49271 8.07397C7.47977 8.10278 7.46129 8.12877 7.43831 8.15043L5.68831 9.74043C5.64019 9.77932 5.58018 9.8005 5.51831 9.80043ZM2.78831 3.90043C2.87052 3.90043 2.94937 3.86777 3.00751 3.80964C3.06564 3.7515 3.0983 3.67265 3.0983 3.59044C3.10483 3.5507 3.10483 3.51017 3.0983 3.47043V3.42043V3.50043C3.11224 3.54319 3.11389 3.589 3.10305 3.63264C3.09221 3.67628 3.06934 3.716 3.03702 3.74727C3.00471 3.77855 2.96426 3.80011 2.92029 3.80951C2.87631 3.81891 2.83058 3.81576 2.78831 3.80043C2.75651 3.80464 2.72418 3.80214 2.6934 3.79311C2.66263 3.78408 2.63409 3.76871 2.6096 3.748C2.58512 3.72728 2.56523 3.70167 2.55123 3.67281C2.53723 3.64395 2.52942 3.61249 2.5283 3.58043V3.42043L2.4583 3.52043C2.45178 3.56017 2.45178 3.6007 2.4583 3.64043C2.47063 3.71729 2.51141 3.78669 2.57255 3.83486C2.63369 3.88303 2.7107 3.90644 2.78831 3.90043ZM6.00831 3.90043C6.09053 3.90043 6.16937 3.86777 6.22751 3.80964C6.28564 3.7515 6.31831 3.67265 6.31831 3.59044C6.32998 3.55129 6.32998 3.50958 6.31831 3.47043V3.39043V3.49043C6.31579 3.52199 6.30705 3.55274 6.29259 3.5809C6.27814 3.60907 6.25826 3.6341 6.23409 3.65455C6.20993 3.675 6.18196 3.69046 6.15179 3.70005C6.12162 3.70964 6.08984 3.71317 6.0583 3.71043C5.99473 3.70062 5.93705 3.66758 5.89642 3.61771C5.85578 3.56784 5.83508 3.50468 5.83831 3.44043V3.50043C5.82664 3.53958 5.82664 3.58129 5.83831 3.62043C5.83252 3.67349 5.84052 3.72714 5.86154 3.77619C5.88256 3.82525 5.91589 3.86804 5.9583 3.90043H6.00831ZM3.11831 2.07043H5.72831V1.81043C5.50831 0.810434 4.97831 0.430433 4.49831 0.440433C4.01831 0.450433 3.4983 0.900433 3.2083 1.86043L3.11831 2.07043Z" fill="#FE624C"/>
</svg>
