<svg width="13" height="8" viewBox="0 0 13 8" fill="none" xmlns="http://www.w3.org/2000/svg">
<path d="M9.49 7.62C9.71871 7.61992 9.9422 7.55165 10.1319 7.42391C10.3216 7.29617 10.4689 7.11476 10.555 6.90287C10.6411 6.69099 10.6621 6.45824 10.6152 6.23438C10.5684 6.01052 10.4558 5.80572 10.292 5.64615C10.1281 5.48658 9.92042 5.37949 9.6954 5.33856C9.47038 5.29764 9.23827 5.32473 9.02873 5.41639C8.81919 5.50805 8.64174 5.66011 8.51906 5.85313C8.39638 6.04615 8.33403 6.27137 8.34 6.5C8.34782 6.79977 8.47242 7.08463 8.68725 7.29385C8.90207 7.50307 9.19013 7.6201 9.49 7.62ZM3.14 7.62C3.36673 7.62195 3.58889 7.55625 3.77809 7.43129C3.96729 7.30633 4.11493 7.1278 4.20213 6.9185C4.28934 6.7092 4.31215 6.47865 4.26766 6.25632C4.22316 6.03399 4.11337 5.82998 3.95233 5.67036C3.79129 5.51075 3.58632 5.40278 3.3636 5.36026C3.14089 5.31775 2.91054 5.34261 2.70203 5.43167C2.49351 5.52073 2.3163 5.66995 2.19302 5.86026C2.06975 6.05056 2.00603 6.2733 2.01 6.5C2.01524 6.79621 2.1366 7.07852 2.34795 7.28613C2.55931 7.49374 2.84374 7.61005 3.14 7.61V7.62ZM9.49 7.25C9.33687 7.25198 9.18663 7.20825 9.05849 7.1244C8.93034 7.04056 8.83011 6.92042 8.77059 6.77932C8.71108 6.63822 8.69498 6.48257 8.72437 6.33228C8.75376 6.18199 8.82731 6.04388 8.93559 5.93559C9.04388 5.82731 9.18199 5.75377 9.33228 5.72438C9.48258 5.69499 9.63821 5.71108 9.77931 5.77059C9.92041 5.83011 10.0406 5.93034 10.1244 6.05849C10.2082 6.18664 10.252 6.33688 10.25 6.49C10.2474 6.68983 10.1661 6.88057 10.0239 7.02095C9.88165 7.16132 9.68984 7.24002 9.49 7.24V7.25ZM3.14 7.25C2.95729 7.2288 2.78873 7.14118 2.66639 7.00383C2.54405 6.86647 2.47646 6.68894 2.47646 6.505C2.47646 6.32106 2.54405 6.14353 2.66639 6.00617C2.78873 5.86881 2.95729 5.7812 3.14 5.76C3.24508 5.7478 3.35155 5.75798 3.45242 5.78985C3.5533 5.82173 3.64628 5.87458 3.72528 5.94493C3.80428 6.01529 3.8675 6.10157 3.91079 6.1981C3.95408 6.29462 3.97646 6.39921 3.97646 6.505C3.97646 6.61079 3.95408 6.71538 3.91079 6.8119C3.8675 6.90843 3.80428 6.9947 3.72528 7.06506C3.64628 7.13542 3.5533 7.18828 3.45242 7.22015C3.35155 7.25202 3.24508 7.26219 3.14 7.25ZM12.14 6.67C12.2797 6.65748 12.4096 6.59299 12.504 6.4893C12.5985 6.38561 12.6506 6.25025 12.65 6.11V5.79L12.75 5.72C12.7821 5.68885 12.8074 5.65152 12.8246 5.61026C12.8418 5.56901 12.8505 5.52469 12.85 5.48V4.69C12.8498 4.62203 12.8299 4.55558 12.7926 4.49875C12.7553 4.44193 12.7023 4.39719 12.64 4.37V4.31C12.6187 4.16642 12.5818 4.02559 12.53 3.89L12.45 3.74L11.56 1.97C11.4673 1.7869 11.3235 1.63464 11.146 1.53168C10.9685 1.42873 10.7649 1.37951 10.56 1.39H8.21V1.08C8.21132 0.938648 8.18462 0.798432 8.13144 0.667458C8.07826 0.536483 7.99965 0.417342 7.90016 0.316921C7.80067 0.216501 7.68226 0.13679 7.55179 0.0823936C7.42131 0.0279969 7.28136 -6.17257e-06 7.14 1.02056e-09H1.08C0.938635 -6.17257e-06 0.798681 0.0279969 0.668206 0.0823936C0.537732 0.13679 0.419331 0.216501 0.31984 0.316921C0.22035 0.417342 0.141744 0.536483 0.088563 0.667458C0.0353822 0.798432 0.00867433 0.938648 0.00999545 1.08V5.56C0.00867433 5.70136 0.0353822 5.84157 0.088563 5.97254C0.141744 6.10352 0.22035 6.22266 0.31984 6.32308C0.419331 6.4235 0.537732 6.50321 0.668206 6.55761C0.798681 6.612 0.938635 6.64001 1.08 6.64H1.62C1.66711 6.64026 1.71263 6.62301 1.74774 6.5916C1.78285 6.56019 1.80504 6.51685 1.81 6.47V6.2L1.87 5.98C1.96747 5.72764 2.13905 5.51069 2.36216 5.35769C2.58527 5.20469 2.84946 5.1228 3.12 5.1228C3.39053 5.1228 3.65473 5.20469 3.87784 5.35769C4.10095 5.51069 4.27252 5.72764 4.37 5.98L4.44 6.2V6.47C4.44495 6.51685 4.46714 6.56019 4.50225 6.5916C4.53736 6.62301 4.58289 6.64026 4.63 6.64H7.91C7.95823 6.64054 8.00503 6.62364 8.04179 6.5924C8.07854 6.56116 8.10277 6.51769 8.11 6.47V6.2L8.18 5.98C8.27977 5.72977 8.45212 5.51512 8.67487 5.36364C8.89763 5.21217 9.16062 5.1308 9.43 5.13C9.69876 5.13344 9.96057 5.21586 10.1828 5.367C10.4051 5.51814 10.578 5.73132 10.68 5.98L10.74 6.2V6.47C10.745 6.51685 10.7671 6.56019 10.8023 6.5916C10.8374 6.62301 10.8829 6.64026 10.93 6.64L12.14 6.67ZM11.2 6.29V6.16C11.1202 5.76935 10.9079 5.41825 10.5991 5.1661C10.2902 4.91395 9.90372 4.77623 9.505 4.77623C9.10628 4.77623 8.7198 4.91395 8.41094 5.1661C8.10208 5.41825 7.88979 5.76935 7.81 6.16V6.29H4.88V6.18C4.80549 5.78631 4.59587 5.43098 4.28733 5.17536C3.97879 4.91973 3.59068 4.77984 3.19 4.77984C2.78932 4.77984 2.40121 4.91973 2.09267 5.17536C1.78412 5.43098 1.57451 5.78631 1.5 6.18V6.28H1.14C0.957001 6.28 0.781493 6.2073 0.652093 6.0779C0.522693 5.9485 0.449998 5.773 0.449998 5.59V4.33H8.04C8.07835 4.32937 8.11571 4.31771 8.14762 4.29644C8.17954 4.27516 8.20466 4.24516 8.22 4.21C8.25404 4.17149 8.27194 4.12136 8.27 4.07V1.78H10.56C10.6881 1.77478 10.815 1.807 10.9251 1.8727C11.0352 1.93841 11.1238 2.03477 11.18 2.15L12.12 3.89C12.2176 4.0755 12.2723 4.28055 12.28 4.49C12.279 4.53156 12.2923 4.57218 12.3179 4.605C12.3434 4.63781 12.3795 4.66077 12.42 4.67H12.48V5.36H12.42C12.3795 5.37273 12.3442 5.39799 12.319 5.43215C12.2938 5.4663 12.2802 5.50757 12.28 5.55V6.03V6.12C12.2769 6.14115 12.2676 6.16093 12.2534 6.17692C12.2392 6.1929 12.2206 6.2044 12.2 6.21H12.13L11.2 6.29ZM12.54 4.69V4.5V4.64V4.69ZM11.32 4.23C11.3791 4.24482 11.4409 4.24482 11.5 4.23C11.5612 4.20413 11.6121 4.15867 11.6447 4.10075C11.6772 4.04283 11.6897 3.97574 11.68 3.91C11.6846 3.86679 11.6846 3.82321 11.68 3.78L11.11 2.53C11.043 2.38812 10.9368 2.26843 10.8039 2.18512C10.6709 2.10181 10.5169 2.05839 10.36 2.06H9.01C8.9427 2.05455 8.87501 2.06279 8.81098 2.08422C8.74696 2.10564 8.68794 2.13981 8.63748 2.18467C8.58702 2.22952 8.54616 2.28413 8.51738 2.3452C8.4886 2.40627 8.47248 2.47253 8.47 2.54V3.79C8.46558 3.85681 8.47548 3.92378 8.49905 3.98645C8.52261 4.04912 8.5593 4.10602 8.60664 4.15337C8.65398 4.20071 8.71089 4.23739 8.77355 4.26095C8.83622 4.28452 8.9032 4.29442 8.97 4.29L11.32 4.23ZM11.44 4.01L11.38 3.89H11.45L11.44 4.01ZM0.39 4.01V1.08C0.39 0.897002 0.462695 0.721495 0.592095 0.592094C0.721495 0.462694 0.896996 0.389999 1.08 0.389999H7.14C7.323 0.389999 7.4985 0.462694 7.6279 0.592094C7.7573 0.721495 7.83 0.897002 7.83 1.08V1.37V3.93L0.39 4.01ZM11.3 3.88H8.96C8.86 3.88 8.85 3.88 8.85 3.76V2.44C8.85 2.44 8.85 2.35 9 2.35H10.35C10.4145 2.34646 10.4789 2.3582 10.538 2.38427C10.5971 2.41033 10.6491 2.44999 10.69 2.5L10.75 2.6L11.3 3.88Z" fill="#FE624C"/>
</svg>
