<svg width="49" height="48" viewBox="0 0 49 48" fill="none" xmlns="http://www.w3.org/2000/svg">
<g clip-path="url(#clip0_222_211)">
<path d="M37.2158 0.497772C37.4284 0.495243 37.6396 0.534532 37.8369 0.613983C38.034 0.693441 38.2137 0.811482 38.3652 0.960663C38.5166 1.10986 38.6363 1.28814 38.7187 1.4841L38.7197 1.48508L48.1103 23.5857C48.2783 23.9808 48.2824 24.4267 48.122 24.8249C47.9615 25.2233 47.6489 25.5414 47.2538 25.7097L12.1445 40.6198L12.1425 40.6208C11.9473 40.7049 11.7369 40.7491 11.5244 40.7517C11.3117 40.7542 11.1005 40.7149 10.9033 40.6355C10.7061 40.556 10.5263 40.4379 10.3749 40.2888C10.2236 40.1396 10.1028 39.9622 10.0204 39.7663V39.7644L0.629822 17.6648C0.461754 17.2695 0.457621 16.8229 0.618103 16.4245C0.778629 16.0263 1.09128 15.708 1.48627 15.5398L1.48529 15.5388L36.5956 0.630585L36.5976 0.629608C36.7929 0.545468 37.0032 0.500307 37.2158 0.497772Z" fill="#FFE5E0" stroke="black"/>
<path d="M40.0739 3.4333L1.0658 19.9993L3.3447 25.3654L42.3528 8.79945L40.0739 3.4333Z" fill="#FE624C"/>
<path d="M42.2776 10.8662L26.8326 17.4254L27.5558 19.1282L43.0007 12.569L42.2776 10.8662Z" fill="#FE624C"/>
<path d="M25.7112 17.9155L4.89703 26.7463L5.61959 28.4493L26.4337 19.6186L25.7112 17.9155Z" fill="#FE624C"/>
<path d="M46.8255 21.525L35.4388 26.3584L36.1616 28.0613L47.5483 23.2279L46.8255 21.525Z" fill="#FE624C"/>
<path d="M35.17 25.72L46.54 20.89L46.06 19.74L34.68 24.58L35.17 25.72Z" fill="#FE624C"/>
<path d="M18.48 25.3L43.84 14.53L43.36 13.38L18 24.15L18.48 25.3Z" fill="#FE624C"/>
<path d="M1.32998 35.06C2.26998 37.28 6.45997 37.63 10.69 35.83C14.92 34.03 17.58 30.83 16.64 28.57C15.7 26.31 11.51 26 7.27997 27.79C3.04997 29.58 0.389984 32.84 1.32998 35.06Z" fill="#FFBAAF"/>
<path d="M2.91999 34.38C3.66999 36.15 6.98998 36.38 10.34 35C13.69 33.62 15.8 31 15.05 29.24C14.3 27.48 10.99 27.24 7.63999 28.63C4.28999 30.02 2.17999 32.63 2.91999 34.38Z" fill="#FE624C"/>
<path d="M4.75999 33.6C5.27999 34.83 7.59 35.02 9.92 34.03C12.25 33.04 13.73 31.25 13.21 30.03C12.69 28.81 10.38 28.62 8.05 29.61C5.72 30.6 4.24999 32.38 4.75999 33.6Z" fill="#FFBAAF"/>
<path d="M10.13 33.46L9.39999 33.77L9.23999 33.39C8.94611 33.4832 8.63466 33.5071 8.32999 33.46C8.21343 33.4442 8.10308 33.398 8.01004 33.326C7.917 33.254 7.84457 33.1588 7.79999 33.05C7.76035 32.9367 7.76035 32.8133 7.79999 32.7C7.83063 32.5804 7.88505 32.4681 7.95999 32.37C8.03579 32.2491 8.12649 32.1382 8.22998 32.04L8.56998 31.74L8.22998 30.94L7.90997 31.13C7.82572 31.1804 7.74549 31.2372 7.66998 31.3L7.23999 30.99C7.35527 30.9031 7.47546 30.823 7.59998 30.75C7.74423 30.6597 7.8946 30.5795 8.04999 30.51L7.89999 30.15L8.62997 29.84L8.77997 30.21C9.06646 30.1152 9.37031 30.0844 9.66998 30.12C9.77741 30.1318 9.87963 30.1724 9.96588 30.2376C10.0521 30.3027 10.1192 30.3899 10.16 30.49C10.2037 30.606 10.2037 30.734 10.16 30.85C10.1355 30.9699 10.0843 31.0827 10.01 31.18C9.93484 31.2925 9.84765 31.3964 9.74997 31.49C9.64394 31.598 9.53032 31.6982 9.40997 31.79L9.78998 32.67C9.95998 32.58 10.11 32.5 10.23 32.42C10.3321 32.3579 10.4291 32.2877 10.52 32.21L10.96 32.53C10.8405 32.6297 10.7135 32.72 10.58 32.8C10.3831 32.9155 10.1793 33.019 9.96997 33.11L10.13 33.46ZM8.88998 31.46C8.98636 31.3624 9.07652 31.2589 9.15997 31.15C9.19267 31.1141 9.2147 31.0699 9.22354 31.0221C9.23238 30.9744 9.22768 30.9252 9.20999 30.88C9.19395 30.8436 9.16909 30.8117 9.13766 30.7872C9.10624 30.7628 9.06923 30.7466 9.02997 30.74C8.88713 30.7161 8.74041 30.737 8.60999 30.8L8.88998 31.46ZM9.06998 32.14C8.95803 32.2249 8.86304 32.33 8.78998 32.45C8.76438 32.4922 8.75085 32.5406 8.75085 32.59C8.75085 32.6394 8.76438 32.6878 8.78998 32.73C8.80963 32.7754 8.83987 32.8154 8.87814 32.8467C8.91641 32.878 8.96161 32.8997 9.00998 32.91C9.14413 32.947 9.28583 32.947 9.41998 32.91L9.06998 32.14Z" fill="#FE624C"/>
<path d="M10.69 35.83C14.92 34.04 17.58 30.83 16.64 28.57L17.77 31.24C18.72 33.46 16.05 36.71 11.82 38.5C7.59001 40.29 3.41002 39.95 2.46002 37.73L1.33002 35.06C2.27002 37.28 6.46 37.63 10.69 35.83Z" fill="#FE624C"/>
<path d="M11.55 37.9C15.78 36.1 18.44 32.85 17.5 30.63L18.64 33.3C19.58 35.52 16.91 38.78 12.69 40.57C8.47 42.36 4.27002 42.01 3.33002 39.79L2.19 37.12C3.14 39.32 7.33002 39.66 11.55 37.9Z" fill="#FFBAAF"/>
<path d="M12.42 39.9C16.64 38.11 19.31 34.9 18.36 32.63L19.5 35.31C20.44 37.53 17.78 40.78 13.55 42.57C9.32002 44.36 5.13 44.02 4.19 41.8L3.06 39.13C4 41.35 8.19001 41.69 12.42 39.9Z" fill="#FE624C"/>
<path d="M13.28 41.9C17.51 40.11 20.17 36.9 19.28 34.64L20.41 37.31C21.35 39.53 18.69 42.79 14.41 44.58C10.13 46.37 5.98999 46.02 5.04999 43.8L3.91998 41.13C4.85998 43.38 9.04997 43.73 13.28 41.9Z" fill="#FFBAAF"/>
<path d="M14.17 44.04C18.4 42.25 21.06 39.04 20.12 36.78L21.26 39.45C22.2 41.67 19.26 44.37 15.07 46.16C10.88 47.95 6.89001 48.16 5.95001 45.94L4.81 43.27C5.76 45.49 9.95001 45.84 14.17 44.04Z" fill="#FE624C"/>
<path d="M18.89 38.44C19.83 40.66 24.02 41.01 28.25 39.21C32.48 37.41 35.14 34.21 34.2 31.95C33.26 29.69 29.07 29.38 24.84 31.17C20.61 32.96 17.95 36.23 18.89 38.44Z" fill="#FFBAAF"/>
<path d="M20.48 37.76C21.23 39.52 24.55 39.76 27.9 38.38C31.25 37 33.35 34.38 32.61 32.62C31.87 30.86 28.54 30.62 25.19 32.01C21.84 33.4 19.76 36.01 20.48 37.76Z" fill="#FE624C"/>
<path d="M22.32 36.98C22.84 38.21 25.15 38.4 27.49 37.41C29.83 36.42 31.29 34.63 30.77 33.41C30.25 32.19 27.94 32 25.61 32.99C23.28 33.98 21.76 35.76 22.32 36.98Z" fill="#FFBAAF"/>
<path d="M27.69 36.84L26.96 37.15L26.8 36.77C26.503 36.8647 26.1879 36.8887 25.88 36.84C25.7642 36.8256 25.6545 36.7797 25.5628 36.7075C25.4712 36.6352 25.401 36.5393 25.36 36.43C25.3204 36.3167 25.3204 36.1933 25.36 36.08C25.3906 35.9604 25.445 35.8481 25.52 35.75C25.5993 35.6288 25.6934 35.518 25.8 35.42L26.13 35.11L25.8 34.32C25.6851 34.3745 25.5748 34.4381 25.47 34.51C25.3857 34.5604 25.3055 34.6172 25.23 34.68L24.79 34.37L25.15 34.13C25.2978 34.0398 25.4515 33.9596 25.61 33.89L25.46 33.53L26.19 33.22L26.34 33.59C26.6242 33.501 26.9236 33.4704 27.22 33.5C27.3314 33.5114 27.4376 33.5527 27.5274 33.6196C27.6172 33.6865 27.6872 33.7765 27.73 33.88C27.7696 33.9933 27.7696 34.1167 27.73 34.23C27.6968 34.3469 27.6463 34.4582 27.58 34.56C27.5048 34.6725 27.4177 34.7764 27.32 34.87C27.2139 34.978 27.1003 35.0782 26.98 35.17L27.35 36.05C27.5069 35.9797 27.6574 35.8961 27.8 35.8C27.9022 35.7379 27.9991 35.6677 28.09 35.59L28.53 35.91C28.4105 36.0097 28.2835 36.1 28.15 36.18C27.952 36.2935 27.7484 36.3969 27.54 36.49L27.69 36.84ZM26.45 34.84C26.5542 34.75 26.6452 34.6456 26.72 34.53C26.7527 34.4941 26.7747 34.4498 26.7835 34.4021C26.7924 34.3544 26.7877 34.3052 26.77 34.26C26.7539 34.2236 26.7291 34.1917 26.6977 34.1673C26.6662 34.1428 26.6292 34.1266 26.59 34.12C26.4482 34.0909 26.3009 34.1084 26.17 34.17L26.45 34.84ZM26.63 35.52C26.5209 35.604 26.4263 35.7054 26.35 35.82C26.3177 35.8595 26.2964 35.9069 26.2883 35.9574C26.2802 36.0078 26.2855 36.0595 26.3038 36.1072C26.322 36.1549 26.3526 36.1969 26.3923 36.229C26.432 36.2611 26.4795 36.2821 26.53 36.29C26.6642 36.3266 26.8058 36.3266 26.94 36.29L26.63 35.52Z" fill="#FE624C"/>
<path d="M28.25 39.21C32.48 37.42 35.14 34.21 34.2 31.95L35.33 34.62C36.27 36.84 33.61 40.09 29.38 41.89C25.15 43.69 20.97 43.33 20.02 41.11L18.89 38.44C19.83 40.66 24.02 41.01 28.25 39.21Z" fill="#FE624C"/>
</g>
<defs>
<clipPath id="clip0_222_211">
<rect width="48.74" height="47.56" fill="white"/>
</clipPath>
</defs>
</svg>
