<svg width="83" height="77" viewBox="0 0 83 77" fill="none" xmlns="http://www.w3.org/2000/svg">
<g clip-path="url(#clip0_9405_1140)">
<path d="M41.4463 41.4377V58.158C41.4463 58.4566 41.5649 58.7428 41.776 58.9539C41.9871 59.165 42.2734 59.2836 42.5719 59.2836L66.9029 59.2329C67.1957 59.2331 67.477 59.1191 67.6872 58.9153C67.8973 58.7115 68.0198 58.4338 68.0286 58.1411V41.449L41.4463 41.4377Z" fill="#FE624C"/>
<path d="M60.1153 33.7952C61.9097 33.8659 63.7057 33.6994 65.4565 33.2999C66.1902 33.1027 66.8876 32.7892 67.5221 32.3713C68.5259 31.6699 69.2663 30.6528 69.6253 29.4821C69.9843 28.3113 69.9413 27.0541 69.5032 25.9106C69.0798 24.9154 68.3748 24.0656 67.4749 23.4657C66.575 22.8658 65.5193 22.5419 64.4378 22.5339C64.1587 22.5382 63.8803 22.5626 63.6048 22.607C61.8713 22.8997 60.4417 23.9633 59.2148 25.1846C59.345 24.7715 59.4484 24.3504 59.5243 23.9239C59.6445 23.251 59.6559 22.5632 59.5581 21.8867C59.385 20.7886 58.8418 19.7827 58.0185 19.0358C57.1951 18.2889 56.1412 17.8459 55.0315 17.7802C53.9218 17.7145 52.8229 18.0301 51.9172 18.6746C51.0115 19.3192 50.3534 20.2539 50.0519 21.3239C49.7448 22.5943 49.8073 23.926 50.232 25.1621C49.0107 23.9577 47.5924 22.9109 45.8758 22.6295C45.6004 22.5845 45.3218 22.5619 45.0428 22.562C43.9612 22.57 42.9056 22.8939 42.0057 23.4938C41.1057 24.0937 40.4007 24.9435 39.9773 25.9387C39.5335 27.0895 39.4904 28.3563 39.855 29.5346C40.2195 30.7129 40.9705 31.734 41.9866 32.4332C42.6223 32.8464 43.3195 33.156 44.0522 33.3506C45.805 33.7492 47.6032 33.912 49.3991 33.8346L60.1153 33.7952ZM58.196 30.3059C58.3987 30.0133 58.635 29.6756 58.6913 29.6081L59.2148 28.9777C60.5487 27.3851 62.2034 25.3984 64.0269 25.0889C64.1627 25.0662 64.3001 25.055 64.4378 25.0551C65.0576 25.0355 65.667 25.2179 66.1741 25.5749C66.6812 25.9318 67.0585 26.444 67.2491 27.0341C67.4397 27.6242 67.4332 28.2602 67.2307 28.8463C67.0281 29.4325 66.6405 29.9368 66.1263 30.2834C65.7137 30.5395 65.2637 30.7294 64.7924 30.8462C63.2589 31.1799 61.6888 31.3142 60.1209 31.2458H59.1641C58.6013 31.2458 58.0384 31.2458 57.5206 31.2458L58.196 30.3059ZM51.2902 31.3077H49.3991C47.8317 31.3767 46.262 31.2463 44.7276 30.9193C44.2555 30.8049 43.8051 30.6149 43.3937 30.3566C42.8796 30.0124 42.4911 29.5108 42.2863 28.9271C42.0816 28.3434 42.0717 27.709 42.2582 27.1191C42.4446 26.5293 42.8174 26.0159 43.3205 25.6559C43.8236 25.2959 44.4299 25.1088 45.0484 25.1227C45.1861 25.1225 45.3235 25.1338 45.4593 25.1564C47.2828 25.4603 48.9432 27.4413 50.2827 29.0284C50.4628 29.2479 50.6373 29.4561 50.8061 29.6474C50.868 29.7262 51.0988 30.0583 51.307 30.3566C51.5153 30.6548 51.7911 31.0431 51.9993 31.3302L51.2902 31.3077ZM54.0536 27.824L53.7553 27.1712C53.0011 25.5448 52.0669 23.5187 52.4777 22.0161C52.6386 21.5338 52.9443 21.1128 53.3533 20.8107C53.7622 20.5085 54.2545 20.3399 54.7628 20.3278H54.8866C55.4147 20.3782 55.9125 20.5977 56.3059 20.9536C56.6993 21.3095 56.9674 21.7827 57.0704 22.3031C57.1256 22.7112 57.1142 23.1256 57.0366 23.53C56.7316 24.8555 56.2568 26.1361 55.6239 27.34L55.2693 28.1054C55.1061 28.4656 54.9485 28.8089 54.7909 29.1353L54.4195 28.4825C54.2169 28.1448 54.0987 27.931 54.0536 27.8128V27.824Z" fill="#FE624C"/>
<path d="M57.1932 35.3411L52.3135 35.3462L52.3385 59.2419L57.2182 59.2368L57.1932 35.3411Z" fill="white"/>
<g style="mix-blend-mode:multiply" opacity="0.51">
<path d="M68.0738 41.4377H41.4521V45.3772H68.0738V41.4377Z" fill="#FE624C"/>
</g>
<path d="M68.091 51.5678L68.0853 47.0712L41.458 47.0543V51.5678H68.091Z" fill="white"/>
<path d="M39.6343 35.506C39.6343 36.7891 39.6343 38.6182 39.6343 39.9013C39.635 40.0915 39.6734 40.2796 39.7472 40.4549C39.821 40.6301 39.9287 40.789 40.0642 40.9225C40.1998 41.0559 40.3603 41.1611 40.5367 41.2322C40.7131 41.3032 40.9018 41.3387 41.092 41.3364H68.4228C68.81 41.3349 69.1807 41.1801 69.454 40.9059C69.7272 40.6316 69.8806 40.2603 69.8806 39.8732V35.506C69.8792 35.3183 69.8401 35.1329 69.7654 34.9607C69.6908 34.7885 69.5821 34.6331 69.4461 34.5039C69.31 34.3747 69.1492 34.2742 68.9734 34.2085C68.7976 34.1428 68.6103 34.1132 68.4228 34.1216H41.092C40.9045 34.1132 40.7173 34.1428 40.5414 34.2085C40.3656 34.2742 40.2049 34.3747 40.0688 34.5039C39.9327 34.6331 39.8241 34.7885 39.7494 34.9607C39.6748 35.1329 39.6356 35.3183 39.6343 35.506Z" fill="#FFBAAF"/>
<path d="M22.0996 51.2791L17.1069 56.1068L20.8199 59.9461L25.8126 55.1184L22.0996 51.2791Z" fill="white"/>
<path d="M45.4765 32.3995C43.3247 30.1739 40.5611 28.6364 37.5354 27.9814C34.5096 27.3264 31.3576 27.5833 28.4779 28.7196C25.5982 29.856 23.1201 31.8207 21.3572 34.3653C19.5942 36.9099 18.6255 39.9202 18.5735 43.0153C18.5215 46.1105 19.3887 49.1516 21.0653 51.7539C22.7418 54.3563 25.1525 56.4031 27.9925 57.6354C30.8324 58.8677 33.9741 59.2303 37.0201 58.6772C40.0661 58.1241 42.8797 56.6802 45.105 54.5281C48.0872 51.642 49.8015 47.69 49.8712 43.5407C49.9408 39.3913 48.3601 35.384 45.4765 32.3995ZM42.6005 51.9393C40.8869 53.5953 38.7207 54.7061 36.3759 55.1312C34.031 55.5563 31.6128 55.2767 29.4269 54.3276C27.2409 53.3785 25.3855 51.8027 24.0952 49.7993C22.8049 47.7959 22.1376 45.455 22.1777 43.0724C22.2179 40.6898 22.9636 38.3727 24.3207 36.4139C25.6777 34.4551 27.5852 32.9426 29.8018 32.0677C32.0184 31.1928 34.4448 30.9947 36.774 31.4985C39.1032 32.0023 41.2307 33.1854 42.8875 34.8982C45.1058 37.1979 46.3214 40.2834 46.2676 43.4781C46.2138 46.6727 44.895 49.7156 42.6005 51.9393Z" fill="#303030"/>
<path d="M24.269 36.4796C26.0018 33.9288 28.6466 32.1393 31.659 31.4796C34.6714 30.8199 37.8221 31.3401 40.4625 32.9332C43.1029 34.5262 45.032 37.0709 45.8527 40.0433C46.6734 43.0156 46.3231 46.1895 44.8741 48.9115C45.7939 47.5575 46.4281 46.0303 46.7381 44.423C47.0481 42.8158 47.0273 41.1623 46.6771 39.5634C46.3269 37.9644 45.6545 36.4536 44.7011 35.1231C43.7476 33.7926 42.533 32.6703 41.1314 31.8246C39.7299 30.979 38.1707 30.4278 36.549 30.2046C34.9273 29.9815 33.2772 30.091 31.6992 30.5266C30.1213 30.9622 28.6487 31.7147 27.3712 32.7382C26.0937 33.7617 25.0382 35.0347 24.269 36.4796Z" fill="#FE624C"/>
<path d="M45.1051 54.5281C46.2619 53.4107 47.2395 52.1218 48.0037 50.7068C47.3679 51.6705 46.6301 52.563 45.803 53.3687C43.1161 55.9628 39.5903 57.511 35.8621 57.734C32.1338 57.9569 28.4486 56.84 25.4716 54.5846C22.4946 52.3293 20.4219 49.0842 19.6276 45.435C18.8333 41.7858 19.3697 37.9728 21.14 34.6843C19.0227 37.9041 18.1677 41.7918 18.7388 45.6027C19.3099 49.4137 21.267 52.88 24.2352 55.3377C27.2034 57.7955 30.9741 59.0719 34.825 58.9225C38.6759 58.7731 42.3363 57.2084 45.1051 54.5281Z" fill="#FE624C"/>
<path d="M1.08062 70.393C0.745716 70.7166 0.47787 71.1031 0.292374 71.5303C0.106877 71.9575 0.00736575 72.417 -0.000474163 72.8827C-0.00831408 73.3483 0.0756705 73.811 0.246681 74.2441C0.417692 74.6773 0.672381 75.0726 0.996195 75.4074C1.6497 76.082 2.54418 76.4697 3.48331 76.4856C4.42244 76.5014 5.32948 76.144 6.00535 75.4918L21.2017 60.8256C21.5364 60.5025 21.8041 60.1165 21.9895 59.6898C22.175 59.263 22.2744 58.804 22.2823 58.3388C22.2901 57.8736 22.2062 57.4114 22.0352 56.9787C21.8643 56.5459 21.6097 56.1511 21.2861 55.8169C20.9629 55.4822 20.5769 55.2145 20.1501 55.0291C19.7234 54.8437 19.2642 54.7442 18.799 54.7363C18.3338 54.7285 17.8716 54.8124 17.4388 54.9834C17.006 55.1543 16.6112 55.4088 16.2769 55.7324L1.08062 70.393Z" fill="#FE624C"/>
<mask id="mask0_9405_1140" style="mask-type:luminance" maskUnits="userSpaceOnUse" x="22" y="31" width="25" height="25">
<path d="M42.6002 51.9393C40.8866 53.5953 38.7205 54.7061 36.3756 55.1312C34.0308 55.5563 31.6125 55.2767 29.4266 54.3276C27.2407 53.3786 25.3853 51.8027 24.0949 49.7993C22.8046 47.7959 22.1374 45.455 22.1775 43.0724C22.2176 40.6899 22.9634 38.3727 24.3204 36.4139C25.6775 34.4551 27.5849 32.9426 29.8015 32.0677C32.0182 31.1928 34.4445 30.9947 36.7737 31.4985C39.1029 32.0024 41.2304 33.1855 42.8872 34.8982C45.1056 37.1979 46.3211 40.2835 46.2673 43.4781C46.2135 46.6728 44.8947 49.7157 42.6002 51.9393Z" fill="white"/>
</mask>
<g mask="url(#mask0_9405_1140)">
<path d="M30.0493 43.6889L30.0887 74.8671C30.0887 75.4328 30.3135 75.9753 30.7135 76.3753C31.1135 76.7753 31.6561 77 32.2218 77L77.3999 76.9438C77.9657 76.9378 78.5062 76.7085 78.9036 76.3058C79.3011 75.9031 79.5233 75.3597 79.5218 74.7939L79.4767 43.6889H30.0493Z" fill="#FE624C"/>
<g style="mix-blend-mode:multiply" opacity="0.51">
<path d="M79.4824 43.6889H30.0493V51.0051H79.4824V43.6889Z" fill="#FE624C"/>
</g>
<path d="M79.5105 62.8235L79.4992 54.4381L30.0605 54.4268L30.0662 62.8235H79.5105Z" fill="white"/>
<path d="M26.8296 32.8497C26.8296 35.2359 26.8296 38.6801 26.8296 41.0663C26.8326 41.7818 27.1193 42.4669 27.6268 42.9712C28.1344 43.4755 28.8213 43.7579 29.5368 43.7564H80.2812C80.6372 43.7564 80.9897 43.6862 81.3185 43.5499C81.6473 43.4135 81.946 43.2136 82.1975 42.9616C82.4489 42.7096 82.6482 42.4106 82.7839 42.0815C82.9197 41.7524 82.9891 41.3998 82.9884 41.0438V32.8497C82.9869 32.497 82.9158 32.148 82.7791 31.8228C82.6424 31.4976 82.4428 31.2026 82.1918 30.9548C81.9408 30.7069 81.6433 30.5111 81.3164 30.3785C80.9895 30.2459 80.6396 30.1791 80.2868 30.1821H29.5424C29.1885 30.1769 28.8371 30.242 28.5085 30.3737C28.18 30.5053 27.8809 30.7009 27.6285 30.949C27.3761 31.1972 27.1756 31.493 27.0384 31.8193C26.9013 32.1455 26.8303 32.4958 26.8296 32.8497Z" fill="#FFBAAF"/>
<path d="M34.2365 40.875C33.938 40.875 33.6516 40.7564 33.4405 40.5453C33.2294 40.3342 33.1108 40.0479 33.1108 39.7494V30.7449C33.1108 30.4464 33.2294 30.1601 33.4405 29.949C33.6516 29.7379 33.938 29.6193 34.2365 29.6193C34.535 29.6193 34.8213 29.7379 35.0324 29.949C35.2436 30.1601 35.3621 30.4464 35.3621 30.7449V39.7494C35.3621 40.0479 35.2436 40.3342 35.0324 40.5453C34.8213 40.7564 34.535 40.875 34.2365 40.875ZM34.2365 30.1821C34.0872 30.1821 33.9441 30.2414 33.8385 30.3469C33.733 30.4525 33.6737 30.5956 33.6737 30.7449V39.7494C33.6737 39.8987 33.733 40.0418 33.8385 40.1474C33.9441 40.2529 34.0872 40.3122 34.2365 40.3122C34.3858 40.3122 34.5289 40.2529 34.6345 40.1474C34.74 40.0418 34.7993 39.8987 34.7993 39.7494V30.7449C34.7993 30.5956 34.74 30.4525 34.6345 30.3469C34.5289 30.2414 34.3858 30.1821 34.2365 30.1821Z" fill="white"/>
<path d="M34.7993 38.9277L31.4224 41.9049V52.6934H38.1763V41.9049L34.7993 38.9277ZM34.7993 41.5953C34.6268 41.5953 34.4581 41.5442 34.3147 41.4483C34.1712 41.3525 34.0594 41.2162 33.9934 41.0568C33.9273 40.8974 33.91 40.722 33.9437 40.5528C33.9774 40.3836 34.0605 40.2282 34.1825 40.1062C34.3045 39.9842 34.4599 39.9011 34.6291 39.8675C34.7984 39.8338 34.9738 39.8511 35.1332 39.9171C35.2926 39.9831 35.4288 40.0949 35.5247 40.2384C35.6205 40.3818 35.6717 40.5505 35.6717 40.723C35.6717 40.9544 35.5798 41.1762 35.4162 41.3398C35.2526 41.5034 35.0307 41.5953 34.7993 41.5953Z" fill="white"/>
</g>
</g>
<defs>
<clipPath id="clip0_9405_1140">
<rect width="83" height="77" fill="white"/>
</clipPath>
</defs>
</svg>
