<svg width="60" height="36" viewBox="0 0 60 36" fill="none" xmlns="http://www.w3.org/2000/svg">
<g clip-path="url(#clip0_9405_1092)">
<path d="M59.39 31.21C59.39 33.58 58.64 35.53 56.27 35.53H3.10999C0.739993 35.53 0 33.58 0 31.21V4.31C0 1.94 0.739993 0 3.10999 0H56.27C58.64 0 59.39 1.94 59.39 4.31V31.21Z" fill="#FE624C"/>
<path d="M19.3298 10.76C19.3298 11.32 18.3298 11.7 17.9098 11.7L6.24977 11.78C5.81977 11.78 4.75977 11.43 4.75977 10.87V4.55002C4.75977 4.00002 5.36977 3.78003 5.75977 3.78003L18.5898 3.72003C19.0198 3.72003 19.1598 4.18003 19.1598 4.72003L19.3298 10.76Z" fill="white"/>
<path d="M6.02 28.17H5.96C5.95386 28.1807 5.95062 28.1927 5.95062 28.205C5.95062 28.2173 5.95386 28.2294 5.96 28.24V28.43C5.96 28.43 5.96 28.54 5.96 28.62V28.68V28.74V28.8H5.91V28.85L5.83 28.92H5.77H5.68H5.53H5.46999L5.42 28.86V28.79V28.73V28.64V28.59C5.4238 28.5568 5.4238 28.5232 5.42 28.49C5.42593 28.4671 5.42593 28.443 5.42 28.42V28.36C5.42411 28.3369 5.42411 28.3132 5.42 28.29C5.42 28.29 5.42 28.23 5.42 28.19C5.42437 28.1401 5.42437 28.0899 5.42 28.04C5.4253 27.9835 5.4253 27.9266 5.42 27.87C5.42428 27.8268 5.42428 27.7832 5.42 27.74C5.42 27.74 5.42 27.66 5.42 27.62C5.42489 27.5936 5.42489 27.5665 5.42 27.54C5.42 27.54 5.42 27.49 5.42 27.46C5.41532 27.4403 5.41532 27.4198 5.42 27.4C5.41514 27.3769 5.41514 27.3531 5.42 27.33C5.42 27.33 5.42 27.25 5.42 27.22V27.16C5.42384 27.1436 5.42384 27.1265 5.42 27.11C5.42198 27.0834 5.42198 27.0567 5.42 27.03V26.86V26.71C5.42308 26.6801 5.42308 26.6499 5.42 26.62C5.42552 26.597 5.42552 26.573 5.42 26.55V26.48C5.42468 26.4603 5.42468 26.4397 5.42 26.42C5.44111 26.3682 5.45784 26.3146 5.46999 26.26C5.46279 26.2304 5.46279 26.1996 5.46999 26.17L5.53999 26.12H5.60999L5.71999 26.07H5.88C5.89461 26.0948 5.91525 26.1154 5.94 26.13V26.22C5.94 26.22 5.94 26.3 5.94 26.34C5.9444 26.3732 5.9444 26.4068 5.94 26.44C5.93532 26.4598 5.93532 26.4803 5.94 26.5V26.71H6C6.02572 26.7201 6.05427 26.7201 6.08 26.71C6.08567 26.6837 6.08567 26.6564 6.08 26.63C6.08588 26.5903 6.08588 26.5498 6.08 26.51C6.08 26.51 6.08 26.43 6.08 26.38C6.07507 26.3469 6.07507 26.3132 6.08 26.28C6.07407 26.2571 6.07407 26.233 6.08 26.21C6.08 26.21 6.08 26.21 6.08 26.15V26.08C6.08287 26.0601 6.08287 26.0399 6.08 26.02C6.06194 25.9946 6.0379 25.974 6.01 25.96C5.98495 25.9334 5.95417 25.9129 5.92 25.9H5.85H5.68H5.60999H5.51L5.4 25.97L5.27 26.07C5.2534 26.0814 5.23944 26.0962 5.22909 26.1135C5.21873 26.1307 5.21223 26.15 5.21 26.17C5.20643 26.1932 5.20643 26.2168 5.21 26.24C5.21677 26.2663 5.21677 26.2938 5.21 26.32C5.20148 26.3562 5.20148 26.3939 5.21 26.43C5.20508 26.4899 5.20508 26.5501 5.21 26.61C5.20434 26.6766 5.20434 26.7435 5.21 26.81C5.20608 26.8666 5.20608 26.9234 5.21 26.98C5.21 26.98 5.21 27.04 5.21 27.08C5.20601 27.1099 5.20601 27.1401 5.21 27.17C5.21384 27.1865 5.21384 27.2036 5.21 27.22V27.27C5.20432 27.2964 5.20432 27.3237 5.21 27.35V27.52C5.20304 27.5428 5.20304 27.5672 5.21 27.59V27.65V27.7C5.21172 27.72 5.21172 27.74 5.21 27.76C5.21 27.76 5.21 27.83 5.21 27.9C5.20503 27.9699 5.20503 28.0401 5.21 28.11V28.33C5.21 28.33 5.21 28.4 5.21 28.43C5.21 28.46 5.21 28.49 5.21 28.52C5.20558 28.5666 5.20558 28.6135 5.21 28.66C5.20498 28.6999 5.20498 28.7402 5.21 28.78C5.22459 28.8163 5.24484 28.8501 5.27 28.88L5.35 29C5.3999 29.0561 5.4665 29.0947 5.53999 29.11H5.68H5.78999H5.85999H5.94L6.01 29.06L6.16 28.91L6.23 28.83V28.78V28.7C6.23 28.7 6.23 28.7 6.23 28.64C6.2362 28.6103 6.2362 28.5797 6.23 28.55V28.45C6.23 28.45 6.23 28.45 6.23 28.38C6.23335 28.3602 6.23335 28.3399 6.23 28.32C6.2366 28.3042 6.24 28.2872 6.24 28.27C6.24 28.2529 6.2366 28.2359 6.23 28.22C6.2209 28.2015 6.20783 28.1852 6.19171 28.1724C6.1756 28.1595 6.15684 28.1503 6.13677 28.1456C6.11671 28.1408 6.09583 28.1405 6.07565 28.1447C6.05546 28.149 6.03646 28.1576 6.02 28.17Z" fill="white"/>
<path d="M8.36982 28.96C8.37562 28.9236 8.37562 28.8865 8.36982 28.85V28.75C8.36982 28.75 8.36982 28.7 8.36982 28.69V28.6C8.37476 28.5635 8.37476 28.5265 8.36982 28.49V28.41C8.37393 28.3869 8.37393 28.3632 8.36982 28.34V28.27V28.14C8.36982 28.08 8.36982 28.02 8.36982 27.96C8.36407 27.9035 8.36407 27.8465 8.36982 27.79C8.36363 27.7502 8.36363 27.7098 8.36982 27.67C8.37362 27.6368 8.37362 27.6032 8.36982 27.57C8.37079 27.5534 8.37079 27.5367 8.36982 27.52V27.46V27.38C8.36695 27.3301 8.36695 27.28 8.36982 27.23C8.37457 27.1601 8.37457 27.0899 8.36982 27.02C8.37397 26.9768 8.37397 26.9332 8.36982 26.89C8.37438 26.8468 8.37438 26.8032 8.36982 26.76C8.37251 26.7267 8.37251 26.6933 8.36982 26.66V26.58V26.46V26.35C8.37706 26.3239 8.37706 26.2962 8.36982 26.27C8.36773 26.2534 8.36773 26.2366 8.36982 26.22C8.37549 26.1903 8.37549 26.1598 8.36982 26.13C8.37476 26.0935 8.37476 26.0565 8.36982 26.02C8.37709 25.9837 8.37709 25.9463 8.36982 25.91V25.81L8.31982 25.76C8.30117 25.7623 8.28331 25.7689 8.26768 25.7793C8.25205 25.7897 8.23908 25.8037 8.22982 25.82V25.89V25.97V26.1C8.20204 26.1641 8.18191 26.2312 8.16982 26.3L8.07982 26.48C8.08211 26.5233 8.08211 26.5667 8.07982 26.61C8.08638 26.6796 8.07918 26.7498 8.05861 26.8167C8.03804 26.8835 8.00452 26.9456 7.95995 26.9994C7.91537 27.0533 7.86063 27.0979 7.79884 27.1306C7.73705 27.1633 7.66942 27.1835 7.59982 27.19C7.53022 27.1966 7.46001 27.1894 7.3932 27.1688C7.32638 27.1483 7.26427 27.1147 7.21041 27.0701C7.15655 27.0256 7.112 26.9708 7.0793 26.909C7.0466 26.8472 7.02639 26.7796 7.01982 26.71C7.01681 26.7633 7.01681 26.8167 7.01982 26.87V27.02V27.13C7.00543 27.1581 6.98871 27.1848 6.96982 27.21V27.27C6.94385 27.3244 6.92374 27.3814 6.90982 27.44C6.87723 27.4937 6.85041 27.5507 6.82982 27.61C6.822 27.6496 6.822 27.6904 6.82982 27.73C6.82982 27.73 6.82982 27.73 6.82982 27.78V27.85C6.82667 27.8766 6.82667 27.9034 6.82982 27.93V28.01C6.82713 28.0433 6.82713 28.0767 6.82982 28.11V28.23V28.34C6.82693 28.3666 6.82693 28.3934 6.82982 28.42V28.52V28.63V28.69C6.82688 28.72 6.82688 28.7501 6.82982 28.78V28.89V28.98C6.82693 29.0066 6.82693 29.0334 6.82982 29.06C6.8191 29.0891 6.8191 29.121 6.82982 29.15H6.91982C6.91982 29.15 6.91982 29.15 6.91982 29.08V28.99V28.94C6.92311 28.9168 6.92311 28.8932 6.91982 28.87V28.79V28.69V28.56C6.92309 28.5134 6.92309 28.4666 6.91982 28.42V28.31C6.92381 28.2802 6.92381 28.2499 6.91982 28.22C6.92079 28.2034 6.92079 28.1867 6.91982 28.17V28.09H8.11982C8.1117 28.133 8.1117 28.1771 8.11982 28.22L8.17982 28.49C8.18371 28.5266 8.18371 28.5635 8.17982 28.6C8.18298 28.6233 8.18298 28.6468 8.17982 28.67C8.18264 28.6966 8.18264 28.7234 8.17982 28.75V28.89C8.18538 28.9365 8.18538 28.9835 8.17982 29.03V29.13C8.1913 29.1752 8.20808 29.2188 8.22982 29.26C8.22982 29.26 8.22982 29.32 8.30982 29.32C8.30982 29.32 8.30982 29.32 8.30982 29.25C8.32295 29.2254 8.32982 29.1979 8.32982 29.17C8.32982 29.1421 8.32295 29.1146 8.30982 29.09C8.34518 29.0556 8.36655 29.0093 8.36982 28.96ZM7.57982 27.83H7.36982H7.15982H6.81982C6.81982 27.83 6.81982 27.83 6.81982 27.78C6.82181 27.7467 6.82181 27.7133 6.81982 27.68V27.59V27.47L6.87982 27.36C6.87982 27.3 6.87982 27.26 6.92982 27.22V27.12C6.93985 27.0874 6.93985 27.0526 6.92982 27.02C6.92982 27.02 6.92982 27.02 6.92982 26.96C6.92982 26.96 6.92982 26.96 6.92982 26.91C6.9331 26.8768 6.9331 26.8433 6.92982 26.81L6.98982 26.67C6.98982 26.67 6.98982 26.56 7.05982 26.49C7.08043 26.4146 7.10719 26.341 7.13982 26.27C7.13982 26.27 7.13982 26.33 7.13982 26.37C7.13627 26.4033 7.13627 26.4368 7.13982 26.47V26.55C7.14298 26.5732 7.14298 26.5968 7.13982 26.62C7.13982 26.62 7.13982 26.67 7.13982 26.71C7.13606 26.7399 7.13606 26.7701 7.13982 26.8V26.87V26.97C7.13497 26.9998 7.13497 27.0302 7.13982 27.06C7.13549 27.0798 7.13549 27.1003 7.13982 27.12C7.13517 27.1532 7.13517 27.1869 7.13982 27.22V27.33C7.14298 27.3532 7.14298 27.3768 7.13982 27.4C7.13982 27.4 7.13982 27.4 7.13982 27.46C7.13493 27.4865 7.13493 27.5136 7.13982 27.54C7.13885 27.5567 7.13885 27.5734 7.13982 27.59C7.13493 27.6165 7.13493 27.6436 7.13982 27.67C7.13811 27.69 7.13811 27.71 7.13982 27.73H6.85982L7.57982 27.83Z" fill="white"/>
<path d="M9.68007 29.07C9.67637 29.0435 9.67637 29.0166 9.68007 28.99L9.62006 28.89C9.62474 28.8703 9.62474 28.8497 9.62006 28.83V28.73L9.56006 28.64V28.56L9.50007 28.45L9.44006 28.34V28.26V28.18L9.38006 28.09C9.38006 28.09 9.38006 28.09 9.38006 28.02H9.44006L9.51006 27.97L9.61006 27.89L9.67007 27.82V27.74C9.70427 27.7074 9.72854 27.6658 9.74006 27.62C9.74006 27.62 9.74006 27.53 9.74006 27.48C9.74006 27.43 9.74006 27.36 9.74006 27.31C9.74006 27.26 9.74006 27.21 9.74006 27.14V26.96C9.74006 26.96 9.74006 26.88 9.74006 26.85V26.73V26.66C9.74599 26.6303 9.74599 26.5997 9.74006 26.57V26.51V26.46V26.4H9.67007H9.56006H8.72006H8.66006C8.66006 26.4 8.66006 26.46 8.66006 26.48C8.65595 26.5032 8.65595 26.5269 8.66006 26.55C8.66103 26.5667 8.66103 26.5834 8.66006 26.6C8.66417 26.67 8.66417 26.7401 8.66006 26.81C8.66006 26.81 8.66006 26.88 8.66006 26.92C8.65643 26.9532 8.65643 26.9868 8.66006 27.02V27.46C8.66006 27.56 8.66006 27.66 8.66006 27.75V27.9C8.65462 27.9298 8.65462 27.9603 8.66006 27.99C8.65521 28.0198 8.65521 28.0502 8.66006 28.08C8.65515 28.1199 8.65515 28.1602 8.66006 28.2V27.71C8.65515 27.7499 8.65515 27.7902 8.66006 27.83C8.65835 27.85 8.65835 27.8701 8.66006 27.89C8.66103 27.9067 8.66103 27.9234 8.66006 27.94C8.66006 27.94 8.66006 28 8.66006 28.11V28.49C8.66006 28.64 8.66006 28.77 8.66006 28.87C8.65303 28.9298 8.65303 28.9902 8.66006 29.05H8.74006C8.74797 29.0345 8.75208 29.0174 8.75208 29C8.75208 28.9826 8.74797 28.9655 8.74006 28.95C8.7433 28.8934 8.7433 28.8366 8.74006 28.78V28.43C8.74006 28.3 8.74006 28.18 8.74006 28.08C8.74006 27.98 8.74006 27.92 8.74006 27.91C8.7391 27.8934 8.7391 27.8767 8.74006 27.86C8.73835 27.8401 8.73835 27.82 8.74006 27.8V27.86L8.86006 28.07L8.95006 28.22C8.94569 28.2499 8.94569 28.2802 8.95006 28.31C8.95006 28.31 8.95006 28.31 8.95006 28.36C8.94719 28.3799 8.94719 28.4001 8.95006 28.42V28.49C8.95006 28.49 8.95006 28.49 8.95006 28.55C8.94329 28.5763 8.94329 28.6038 8.95006 28.63C8.95253 28.6466 8.95253 28.6634 8.95006 28.68V28.76V28.83V28.91C8.95548 28.9431 8.95548 28.9769 8.95006 29.01C8.95006 29.09 9.02007 29.14 9.07007 29.14H9.15006C9.15642 29.1137 9.15642 29.0863 9.15006 29.06C9.15006 29.06 9.72007 29.09 9.68007 29.07ZM8.80006 26.07C8.80006 26.07 8.80006 26.01 8.80006 25.99C8.80006 25.97 8.80006 25.94 8.80006 25.91H8.94006L9.04006 26.01C9.04006 26.01 9.04006 26.01 9.04006 26.06V26.13V26.18C9.03572 26.2032 9.03572 26.2269 9.04006 26.25C9.04006 26.25 9.04006 26.25 9.04006 26.34C9.04006 26.43 9.04006 26.42 9.04006 26.46C9.04006 26.5 9.04006 26.55 9.04006 26.6C9.0427 26.6233 9.0427 26.6468 9.04006 26.67C9.0441 26.6898 9.0441 26.7102 9.04006 26.73C9.04847 26.756 9.04847 26.784 9.04006 26.81C9.04683 26.8363 9.04683 26.8638 9.04006 26.89V26.94L8.98006 27.01L8.91006 27.06L8.85007 27.11V26.96C8.85007 26.91 8.85007 26.83 8.85007 26.72V26.71C8.85007 26.62 8.85007 26.53 8.85007 26.44C8.85321 26.3867 8.85321 26.3333 8.85007 26.28V26.22C8.85411 26.2002 8.85411 26.1798 8.85007 26.16L8.80006 26.07Z" fill="white"/>
<path d="M11.16 26.71C11.1566 26.6835 11.1566 26.6566 11.16 26.63C11.1567 26.6068 11.1567 26.5833 11.16 26.56C11.16 26.56 11.16 26.56 11.16 26.47C11.123 26.3341 11.0464 26.2123 10.94 26.12L10.86 26.04V25.97L10.8 25.92L10.72 25.86C10.6904 25.8528 10.6596 25.8528 10.63 25.86H10.43H10.37L10.32 25.91V25.97C10.3124 25.9927 10.3124 26.0173 10.32 26.04V26.1C10.3176 26.13 10.3176 26.1601 10.32 26.19C10.3148 26.2566 10.3148 26.3235 10.32 26.39C10.3254 26.4499 10.3254 26.5101 10.32 26.57C10.3229 26.6033 10.3229 26.6367 10.32 26.67V26.74C10.33 26.7862 10.33 26.8339 10.32 26.88C10.3145 26.9232 10.3145 26.9669 10.32 27.01C10.32 27.06 10.32 27.11 10.32 27.15C10.32 27.19 10.32 27.23 10.32 27.29C10.3246 27.3366 10.3246 27.3835 10.32 27.43C10.3156 27.4899 10.3156 27.5501 10.32 27.61C10.32 27.68 10.32 27.74 10.32 27.79C10.32 27.84 10.32 27.9 10.32 27.96C10.3237 27.9933 10.3237 28.0268 10.32 28.06C10.3257 28.0864 10.3257 28.1137 10.32 28.14C10.32 28.14 10.32 28.2 10.32 28.22C10.3152 28.2431 10.3152 28.2669 10.32 28.29C10.3247 28.3097 10.3247 28.3303 10.32 28.35C10.32 28.35 10.32 28.41 10.32 28.43C10.3168 28.4465 10.3168 28.4635 10.32 28.48C10.3132 28.5096 10.3132 28.5404 10.32 28.57C10.3151 28.6132 10.3151 28.6568 10.32 28.7C10.32 28.7 10.32 28.77 10.32 28.8C10.32 28.83 10.32 28.87 10.32 28.88C10.3166 28.9066 10.3166 28.9335 10.32 28.96C10.3157 28.9832 10.3157 29.0069 10.32 29.03C10.3116 29.0526 10.3116 29.0775 10.32 29.1C10.3121 29.1155 10.308 29.1326 10.308 29.15C10.308 29.1674 10.3121 29.1845 10.32 29.2C10.3291 29.2053 10.3395 29.2081 10.35 29.2081C10.3606 29.2081 10.3709 29.2053 10.38 29.2H10.02H10.13H10.5C10.56 29.2 10.59 29.2 10.6 29.15L10.68 29.08C10.7047 29.0572 10.725 29.0301 10.74 29L10.79 28.93C10.8355 28.8677 10.8663 28.7959 10.88 28.72C10.8772 28.6734 10.8772 28.6266 10.88 28.58C10.88 28.58 10.88 28.52 10.88 28.5C10.876 28.4702 10.876 28.4399 10.88 28.41V28.3V28.21C10.8839 28.1735 10.8839 28.1366 10.88 28.1C10.8771 28.0735 10.8771 28.0466 10.88 28.02C10.8771 27.9801 10.8771 27.94 10.88 27.9C10.8756 27.8168 10.8756 27.7333 10.88 27.65V27.37C10.8748 27.3202 10.8748 27.2699 10.88 27.22C10.88 27.22 10.88 27.17 10.88 27.14C10.8841 27.1068 10.8841 27.0732 10.88 27.04C10.8849 27.0102 10.8849 26.9798 10.88 26.95L11.16 26.71ZM10.89 28.13V28.2C10.8947 28.2365 10.8947 28.2735 10.89 28.31C10.8852 28.3398 10.8852 28.3702 10.89 28.4V28.48C10.8862 28.5065 10.8862 28.5335 10.89 28.56C10.89 28.56 10.89 28.61 10.89 28.63V28.71C10.8845 28.733 10.8845 28.757 10.89 28.78V28.84V28.9V28.96H10.83H10.49C10.4999 28.9308 10.4999 28.8992 10.49 28.87V28.81C10.49 28.81 10.49 28.75 10.49 28.72V28.64C10.4949 28.6102 10.4949 28.5798 10.49 28.55C10.4853 28.5337 10.4853 28.5164 10.49 28.5C10.49 28.5 10.49 28.5 10.49 28.42C10.496 28.3836 10.496 28.3465 10.49 28.31C10.4863 28.2735 10.4863 28.2366 10.49 28.2C10.4852 28.1602 10.4852 28.1199 10.49 28.08C10.49 28.03 10.49 27.98 10.49 27.93V27.73C10.49 27.67 10.49 27.6 10.49 27.54C10.486 27.4934 10.486 27.4466 10.49 27.4C10.49 27.4 10.49 27.4 10.49 27.25V26.69C10.4928 26.6467 10.4928 26.6033 10.49 26.56C10.4867 26.5335 10.4867 26.5066 10.49 26.48C10.49 26.42 10.49 26.36 10.49 26.3V26.03H10.6C10.6427 26.0473 10.6805 26.0747 10.71 26.11L10.79 26.18L10.86 26.25L10.93 26.33C10.9566 26.3551 10.9771 26.3858 10.99 26.42L11.05 26.51V26.57C11.0487 26.5933 11.0487 26.6167 11.05 26.64C11.0451 26.6665 11.0451 26.6936 11.05 26.72C11.0442 26.7531 11.0442 26.7869 11.05 26.82C11.0567 26.8698 11.0567 26.9203 11.05 26.97C11.05 26.97 11.05 27.05 11.05 27.15C11.05 27.25 11.05 27.35 11.05 27.46C11.05 27.57 11.05 27.68 11.05 27.78C11.0554 27.8499 11.0554 27.9201 11.05 27.99C11.0549 28.0198 11.0549 28.0502 11.05 28.08C11.0541 28.0998 11.0541 28.1202 11.05 28.14L10.89 28.13Z" fill="white"/>
<path d="M15.16 26.33C15.1655 26.2568 15.1655 26.1832 15.16 26.11V25.86C15.1717 25.8311 15.1717 25.7989 15.16 25.77C15.1506 25.7655 15.1404 25.7632 15.13 25.7632C15.1196 25.7632 15.1094 25.7655 15.1 25.77H15.02C15.0143 25.7964 15.0143 25.8236 15.02 25.85V25.92C15.0254 25.9665 15.0254 26.0135 15.02 26.06C15.0196 26.17 15.0196 26.28 15.02 26.39V26.57C15.0153 26.6399 15.0153 26.7101 15.02 26.78V26.95C15.0244 26.9999 15.0244 27.0501 15.02 27.1V27.39C15.02 27.48 15.02 27.56 15.02 27.6C15.0157 27.6599 15.0157 27.7201 15.02 27.78V28C15.02 28 15.02 28.09 15.02 28.13V28.29C15.0262 28.3061 15.0262 28.3239 15.02 28.34C15.02 28.34 15.02 28.29 15.02 28.28C15.0159 28.2568 15.0159 28.2331 15.02 28.21C15.0245 28.1735 15.0245 28.1365 15.02 28.1C15.0238 28.0735 15.0238 28.0465 15.02 28.02V27.91C15.02 27.91 15.02 27.82 15.02 27.77C15.0156 27.7368 15.0156 27.7032 15.02 27.67C15.02 27.67 15.02 27.67 15.02 27.59C15.0268 27.557 15.0268 27.523 15.02 27.49C15.02 27.49 15.02 27.42 15.02 27.38C15.0162 27.3535 15.0162 27.3265 15.02 27.3C15.0229 27.2734 15.0229 27.2466 15.02 27.22C15.0167 27.2001 15.0167 27.1799 15.02 27.16C15.0238 27.1201 15.0238 27.0799 15.02 27.04V26.89C14.9929 26.8281 14.9695 26.7647 14.95 26.7C14.9293 26.6083 14.9026 26.5181 14.87 26.43C14.8526 26.3419 14.8292 26.255 14.8 26.17C14.8033 26.1234 14.8033 26.0766 14.8 26.03V25.94C14.7969 25.9168 14.7969 25.8932 14.8 25.87C14.8037 25.8435 14.8037 25.8165 14.8 25.79C14.7741 25.7808 14.7459 25.7808 14.72 25.79H14.66C14.6447 25.832 14.6447 25.878 14.66 25.92C14.6539 26.0032 14.6539 26.0868 14.66 26.17C14.6648 26.2499 14.6648 26.3301 14.66 26.41C14.66 26.49 14.66 26.55 14.66 26.58C14.6639 26.6232 14.6639 26.6667 14.66 26.71C14.66 26.76 14.66 26.82 14.66 26.86V26.97C14.66 26.97 14.66 27.04 14.66 27.05C14.6631 27.0799 14.6631 27.1101 14.66 27.14C14.66 27.19 14.66 27.24 14.66 27.29C14.6645 27.3499 14.6645 27.4101 14.66 27.47C14.6565 27.5366 14.6565 27.6034 14.66 27.67C14.66 27.67 14.66 27.79 14.66 27.86C14.66 27.93 14.66 28 14.66 28.06C14.66 28.12 14.66 28.14 14.66 28.18C14.6561 28.2232 14.6561 28.2668 14.66 28.31V28.71C14.6561 28.7532 14.6561 28.7968 14.66 28.84C14.66 28.9 14.66 28.94 14.66 28.98V29.11C14.6543 29.1363 14.6543 29.1636 14.66 29.19H14.02C14.0396 29.1811 14.0564 29.1672 14.0687 29.1496C14.081 29.132 14.0884 29.1114 14.09 29.09C14.09 29.09 14.09 29 14.09 28.92C14.09 28.84 14.09 28.82 14.09 28.76C14.0857 28.7168 14.0857 28.6732 14.09 28.63C14.09 28.63 14.09 28.56 14.09 28.52C14.0852 28.4902 14.0852 28.4598 14.09 28.43V28.32C14.09 28.32 14.09 28.24 14.09 28.21C14.0851 28.1668 14.0851 28.1232 14.09 28.08C14.09 28.08 14.09 28 14.09 27.98C14.0862 27.9635 14.0862 27.9464 14.09 27.93C14.0877 27.9067 14.0877 27.8833 14.09 27.86V27.81C14.0933 27.7868 14.0933 27.7632 14.09 27.74C14.0864 27.7068 14.0864 27.6732 14.09 27.64C14.09 27.58 14.09 27.52 14.09 27.45V27.26C14.093 27.21 14.093 27.1599 14.09 27.11V27.04C14.095 27.0035 14.095 26.9665 14.09 26.93C14.09 26.93 14.09 26.87 14.09 26.83C14.095 26.7801 14.095 26.7299 14.09 26.68C14.09 26.68 14.09 26.59 14.09 26.52C14.09 26.52 14.09 26.58 14.09 26.61V26.73C14.0933 26.7632 14.0933 26.7967 14.09 26.83C14.0876 26.87 14.0876 26.91 14.09 26.95V27.06C14.09 27.06 14.09 27.13 14.09 27.15V27.25C14.09 27.25 14.09 27.32 14.09 27.35V27.45C14.0883 27.4699 14.0883 27.49 14.09 27.51V27.57C14.0831 27.5928 14.0831 27.6172 14.09 27.64C14.0856 27.6698 14.0856 27.7001 14.09 27.73V27.89C14.09 27.95 14.09 28 14.09 28.05C14.0931 28.0799 14.0931 28.1101 14.09 28.14V28.2C14.0853 28.2365 14.0853 28.2735 14.09 28.31C14.09 28.31 14.09 28.31 14.09 28.37V28.44C14.09 28.44 14.09 28.49 14.09 28.53C14.09 28.57 14.09 28.61 14.09 28.66V28.79C14.0934 28.8165 14.0934 28.8434 14.09 28.87C14.0825 28.9063 14.0825 28.9437 14.09 28.98V29.04C14.0832 29.0696 14.0832 29.1004 14.09 29.13C14.0924 29.1441 14.0998 29.1569 14.1108 29.1661C14.1218 29.1752 14.1357 29.1802 14.15 29.18H15.02C15.02 29.18 15.07 29.18 15.08 29.12C15.0834 29.0767 15.0834 29.0333 15.08 28.99C15.0761 28.9467 15.0761 28.9032 15.08 28.86C15.0848 28.8034 15.0848 28.7466 15.08 28.69V28.28V28.18C15.0777 28.1634 15.0777 28.1466 15.08 28.13C15.0854 28.0969 15.0854 28.0631 15.08 28.03C15.0873 27.987 15.0873 27.943 15.08 27.9V27.75C15.0751 27.7135 15.0751 27.6765 15.08 27.64C15.08 27.64 15.08 27.58 15.08 27.56C15.0871 27.4802 15.0871 27.3998 15.08 27.32V26.81C15.08 26.71 15.08 26.61 15.08 26.51C15.109 26.451 15.1357 26.391 15.16 26.33Z" fill="white"/>
<path d="M17.1501 27.19V27.09V26.94C17.1556 26.8701 17.1556 26.7999 17.1501 26.73C17.1553 26.6467 17.1553 26.5632 17.1501 26.48V26.05H17.0201C17.0201 26.05 17.0201 26.05 16.9601 26.1C16.9542 26.123 16.9542 26.147 16.9601 26.17C16.9551 26.2098 16.9551 26.2501 16.9601 26.29C16.9601 26.29 16.9601 26.35 16.9601 26.38V26.44C16.9648 26.4597 16.9648 26.4803 16.9601 26.5C16.9601 26.5 16.9601 26.57 16.9601 26.6V26.71C16.9601 26.77 16.9601 26.82 16.9601 26.88C16.9551 26.9432 16.9551 27.0067 16.9601 27.07C16.9533 27.1231 16.9533 27.1769 16.9601 27.23C16.9564 27.2666 16.9564 27.3034 16.9601 27.34C16.9601 27.39 16.9601 27.44 16.9601 27.49V27.65C16.9601 27.7 16.9601 27.75 16.9601 27.79C16.9548 27.8331 16.9548 27.8768 16.9601 27.92C16.9561 27.9499 16.9561 27.9801 16.9601 28.01C16.9633 28.0332 16.9633 28.0568 16.9601 28.08C16.9657 28.1164 16.9657 28.1536 16.9601 28.19C16.9601 28.19 16.9601 28.29 16.9601 28.36C16.9628 28.4133 16.9628 28.4667 16.9601 28.52C16.9558 28.5599 16.9558 28.6001 16.9601 28.64V28.71V28.77L16.9001 28.85L16.8401 28.91V28.96H16.7701H16.5501V28.91C16.5262 28.8821 16.4951 28.8614 16.4601 28.85C16.4494 28.82 16.4324 28.7927 16.4101 28.77V28.69V28.61C16.4058 28.5869 16.4058 28.5631 16.4101 28.54C16.4072 28.5201 16.4072 28.4999 16.4101 28.48C16.4135 28.4534 16.4135 28.4266 16.4101 28.4C16.4101 28.4 16.4101 28.34 16.4101 28.31C16.4138 28.2634 16.4138 28.2166 16.4101 28.17V28.03C16.4101 28.03 16.4101 27.91 16.4101 27.83C16.4056 27.7601 16.4056 27.6899 16.4101 27.62C16.4147 27.5401 16.4147 27.4599 16.4101 27.38C16.4101 27.29 16.4101 27.21 16.4101 27.14V26.94C16.4037 26.8969 16.4037 26.8531 16.4101 26.81C16.4061 26.7801 16.4061 26.7499 16.4101 26.72C16.4044 26.6936 16.4044 26.6663 16.4101 26.64C16.4101 26.64 16.4101 26.59 16.4101 26.57C16.4141 26.5401 16.4141 26.5098 16.4101 26.48C16.407 26.4501 16.407 26.4199 16.4101 26.39C16.4101 26.34 16.4101 26.28 16.4101 26.21C16.4101 26.14 16.4101 26.08 16.4101 26.02C16.4139 25.9701 16.4139 25.9199 16.4101 25.87V25.74C16.4044 25.7259 16.3948 25.7136 16.3824 25.7048C16.37 25.6959 16.3553 25.6908 16.3401 25.69C16.3332 25.7094 16.3332 25.7306 16.3401 25.75C16.3368 25.7732 16.3368 25.7968 16.3401 25.82C16.3437 25.8432 16.3437 25.8668 16.3401 25.89C16.3401 25.89 16.3401 25.98 16.3401 26.02V26.15C16.3366 26.1799 16.3366 26.2101 16.3401 26.24C16.3401 26.24 16.3401 26.24 16.3401 26.31C16.3346 26.3465 16.3346 26.3835 16.3401 26.42C16.3448 26.4397 16.3448 26.4603 16.3401 26.48C16.337 26.5032 16.337 26.5268 16.3401 26.55C16.3439 26.5664 16.3439 26.5836 16.3401 26.6C16.3444 26.6231 16.3444 26.6469 16.3401 26.67C16.345 26.7031 16.345 26.7368 16.3401 26.77C16.3357 26.8032 16.3357 26.8368 16.3401 26.87C16.3341 26.9031 16.3341 26.9369 16.3401 26.97C16.3356 27.0065 16.3356 27.0435 16.3401 27.08C16.3401 27.08 16.3401 27.15 16.3401 27.21C16.3451 27.2599 16.3451 27.3101 16.3401 27.36C16.3362 27.4266 16.3362 27.4934 16.3401 27.56C16.3449 27.6399 16.3449 27.7201 16.3401 27.8C16.3351 27.8799 16.3351 27.9601 16.3401 28.04V28.21C16.3401 28.21 16.3401 28.27 16.3401 28.31C16.3433 28.3332 16.3433 28.3568 16.3401 28.38C16.336 28.4032 16.336 28.4268 16.3401 28.45C16.3442 28.4731 16.3442 28.4968 16.3401 28.52C16.3361 28.5499 16.3361 28.5801 16.3401 28.61C16.3372 28.6399 16.3372 28.6701 16.3401 28.7C16.3333 28.7296 16.3333 28.7604 16.3401 28.79C16.3427 28.8166 16.3427 28.8434 16.3401 28.87L16.3901 28.94V29L16.4501 29.05L16.5501 29.11H16.8401H16.9701H17.0301H17.0901V29.06V29C17.0934 28.9768 17.0934 28.9532 17.0901 28.93V28.83V28.71C17.096 28.6803 17.096 28.6497 17.0901 28.62C17.099 28.5873 17.099 28.5527 17.0901 28.52C17.0845 28.4835 17.0845 28.4465 17.0901 28.41C17.0901 28.41 17.0901 28.33 17.0901 28.27C17.0994 28.2137 17.0994 28.1563 17.0901 28.1C17.0901 28.1 17.0901 28.02 17.0901 27.98C17.0933 27.9568 17.0933 27.9332 17.0901 27.91C17.0967 27.8736 17.0967 27.8364 17.0901 27.8V27.65C17.0901 27.6 17.0901 27.54 17.0901 27.48C17.0932 27.3806 17.1135 27.2825 17.1501 27.19Z" fill="white"/>
<path d="M19.3202 26.33C19.3164 26.2934 19.3164 26.2566 19.3202 26.22C19.3243 26.1768 19.3243 26.1333 19.3202 26.09C19.3248 26.0468 19.3248 26.0032 19.3202 25.96V25.84C19.3162 25.8219 19.3077 25.805 19.2955 25.791C19.2832 25.777 19.2677 25.7663 19.2502 25.76H19.1702C19.1591 25.7553 19.1472 25.7529 19.1352 25.7529C19.1231 25.7529 19.1112 25.7553 19.1002 25.76C19.0957 25.7694 19.0934 25.7796 19.0934 25.79C19.0934 25.8004 19.0957 25.8106 19.1002 25.82V25.92C19.0955 25.9565 19.0955 25.9935 19.1002 26.03C19.0923 26.0764 19.0923 26.1237 19.1002 26.17V26.28C19.096 26.3266 19.096 26.3734 19.1002 26.42C19.1031 26.4533 19.1031 26.4867 19.1002 26.52V26.7C19.0953 26.7532 19.0953 26.8068 19.1002 26.86V26.95V27.05C19.0917 27.0963 19.0917 27.1437 19.1002 27.19C19.1056 27.2231 19.1056 27.2569 19.1002 27.29V27.37C19.093 27.3996 19.093 27.4305 19.1002 27.46V27.55V27.65V27.76C19.1045 27.7865 19.1045 27.8135 19.1002 27.84C19.1014 27.8633 19.1014 27.8867 19.1002 27.91C19.0968 27.9332 19.0968 27.9568 19.1002 27.98V28.09C19.1011 28.1067 19.1011 28.1234 19.1002 28.14C19.1002 28.14 19.1002 28.05 19.1002 28.01C19.1044 27.9434 19.1044 27.8766 19.1002 27.81C19.1002 27.73 19.1002 27.66 19.1002 27.61C19.1056 27.5501 19.1056 27.4899 19.1002 27.43C19.1026 27.4001 19.1026 27.37 19.1002 27.34C19.1045 27.3135 19.1045 27.2865 19.1002 27.26C19.1043 27.2268 19.1043 27.1932 19.1002 27.16V27.06V26.96V26.85C19.1002 26.85 19.1002 26.85 19.1002 26.76C19.1002 26.67 19.1002 26.66 19.1002 26.62V26.47C19.1002 26.41 19.1002 26.36 19.1002 26.32V26.21V26.1C19.0973 26.0601 19.0973 26.02 19.1002 25.98C19.0957 25.9334 19.0957 25.8866 19.1002 25.84C19.0962 25.8068 19.0962 25.7732 19.1002 25.74C19.1035 25.7168 19.1035 25.6932 19.1002 25.67C19.0895 25.6639 19.0775 25.6606 19.0652 25.6606C19.0529 25.6606 19.0408 25.6639 19.0302 25.67V25.73C19.0252 25.7632 19.0252 25.7969 19.0302 25.83C19.0302 25.83 19.0302 25.88 19.0302 25.9C19.0302 25.92 19.0302 25.96 19.0302 25.97C19.0336 26.0233 19.0336 26.0768 19.0302 26.13C19.0302 26.22 19.0302 26.32 19.0302 26.44V26.66C19.0302 26.76 19.0302 26.86 19.0302 26.98V27.35C19.0302 27.48 19.0302 27.6 19.0302 27.73V28.1C19.0302 28.23 19.0302 28.35 19.0302 28.45V28.72V28.83C19.0349 28.8497 19.0349 28.8703 19.0302 28.89C19.0252 28.9232 19.0252 28.9569 19.0302 28.99C19.0199 29.026 19.0199 29.0641 19.0302 29.1C19.0302 29.15 19.0902 29.16 19.1102 29.16C19.1397 29.1672 19.1706 29.1672 19.2002 29.16V29.1C19.2045 29.0735 19.2045 29.0465 19.2002 29.02V28.97C19.1992 28.9534 19.1992 28.9367 19.2002 28.92C19.1977 28.8867 19.1977 28.8533 19.2002 28.82C19.1958 28.7434 19.1958 28.6666 19.2002 28.59C19.2002 28.5 19.2002 28.4 19.2002 28.3C19.2002 28.2 19.2002 28.09 19.2002 28V27.74C19.1947 27.6668 19.1947 27.5933 19.2002 27.52C19.1956 27.4501 19.1956 27.38 19.2002 27.31V26.31V26.45C19.2059 26.5132 19.2059 26.5768 19.2002 26.64L19.2502 26.79C19.2418 26.816 19.2418 26.844 19.2502 26.87V26.96C19.2527 26.9966 19.2527 27.0334 19.2502 27.07V27.17C19.2452 27.2032 19.2452 27.2369 19.2502 27.27C19.2533 27.2932 19.2533 27.3168 19.2502 27.34C19.2461 27.3632 19.2461 27.3869 19.2502 27.41C19.2469 27.4433 19.2469 27.4768 19.2502 27.51C19.2555 27.5666 19.2555 27.6235 19.2502 27.68C19.2456 27.7499 19.2456 27.8201 19.2502 27.89C19.2502 27.97 19.2502 28.03 19.2502 28.08C19.2448 28.1265 19.2448 28.1735 19.2502 28.22C19.2535 28.2399 19.2535 28.2602 19.2502 28.28C19.2475 28.31 19.2475 28.3401 19.2502 28.37V28.52C19.2445 28.5732 19.2445 28.6268 19.2502 28.68C19.2533 28.7099 19.2533 28.7401 19.2502 28.77C19.2424 28.7893 19.2424 28.8108 19.2502 28.83H19.3102H19.3902V28.69C19.3916 28.6667 19.3916 28.6433 19.3902 28.62C19.3955 28.5769 19.3955 28.5332 19.3902 28.49C19.3902 28.49 19.3902 28.42 19.3902 28.39C19.3935 28.3635 19.3935 28.3366 19.3902 28.31C19.3869 28.2935 19.3869 28.2765 19.3902 28.26C19.3853 28.2369 19.3853 28.2131 19.3902 28.19C19.397 28.1604 19.397 28.1296 19.3902 28.1V28.03C19.3911 28.0134 19.3911 27.9967 19.3902 27.98V27.92C19.3945 27.9002 19.3945 27.8798 19.3902 27.86V27.79C19.395 27.7669 19.395 27.7431 19.3902 27.72V27.64C19.4043 27.5814 19.4244 27.5245 19.4502 27.47C19.4462 27.4134 19.4462 27.3566 19.4502 27.3C19.4529 27.2534 19.4529 27.2067 19.4502 27.16C19.4469 27.1201 19.4469 27.0799 19.4502 27.04C19.4574 26.997 19.4574 26.9531 19.4502 26.91C19.455 26.8702 19.455 26.8299 19.4502 26.79V26.59C19.4502 26.51 19.4502 26.44 19.4502 26.37C19.4465 26.3168 19.4465 26.2633 19.4502 26.21C19.4502 26.21 19.4502 26.13 19.4502 26.09V26.47C19.4502 26.56 19.4502 26.65 19.4502 26.75V26.97C19.4502 27.13 19.4502 27.26 19.4502 27.35C19.4556 27.4233 19.4556 27.4968 19.4502 27.57V27.68C19.4458 27.7132 19.4458 27.7468 19.4502 27.78C19.4482 27.8067 19.4482 27.8334 19.4502 27.86C19.4402 27.923 19.4402 27.9871 19.4502 28.05C19.4444 28.1333 19.4444 28.2168 19.4502 28.3V28.83C19.4457 28.8565 19.4457 28.8836 19.4502 28.91C19.4502 28.91 19.4502 28.96 19.4502 28.99C19.4641 28.9971 19.4795 29.0007 19.4952 29.0007C19.5108 29.0007 19.5262 28.9971 19.5402 28.99C19.5402 28.99 19.6102 28.94 19.6102 28.9C19.6073 28.8534 19.6073 28.8066 19.6102 28.76C19.6157 28.6567 19.6157 28.5533 19.6102 28.45C19.6102 28.34 19.6102 28.23 19.6102 28.12C19.6102 28.01 19.6102 27.93 19.6102 27.89C19.6055 27.8368 19.6055 27.7832 19.6102 27.73V27.58C19.6171 27.5102 19.6171 27.4399 19.6102 27.37C19.6171 27.2601 19.6171 27.1499 19.6102 27.04C19.6061 26.9734 19.6061 26.9066 19.6102 26.84V26.59C19.6102 26.5 19.6102 26.42 19.6102 26.35V26.2C19.5054 26.2224 19.4066 26.2667 19.3202 26.33Z" fill="white"/>
<path d="M20.7998 28.43V28.22L20.6698 28.1L20.5698 28.02L20.4798 27.94L20.5698 27.85C20.6018 27.8213 20.6288 27.7875 20.6498 27.75L20.7098 27.68C20.7156 27.6369 20.7156 27.5932 20.7098 27.55C20.7108 27.5334 20.7108 27.5167 20.7098 27.5C20.7156 27.4535 20.7156 27.4065 20.7098 27.36V27.12C20.715 27.0434 20.715 26.9666 20.7098 26.89V26.76C20.7133 26.7335 20.7133 26.7066 20.7098 26.68C20.7145 26.6502 20.7145 26.6198 20.7098 26.59V26.51V26.43V26.36C20.7098 26.36 20.7098 26.36 20.7098 26.27V26.21V26.15H20.6498L20.5798 26.1C20.5534 26.0681 20.5188 26.0439 20.4798 26.03H20.4198H20.3398H20.0198C20.0035 26.0193 19.9844 26.0135 19.9648 26.0135C19.9453 26.0135 19.9261 26.0193 19.9098 26.03C19.902 26.0663 19.902 26.1038 19.9098 26.14C19.9133 26.1799 19.9133 26.2201 19.9098 26.26C19.9153 26.3366 19.9153 26.4135 19.9098 26.49C19.9098 26.57 19.9098 26.65 19.9098 26.72C19.9133 26.76 19.9133 26.8001 19.9098 26.84V26.71C19.9137 26.7466 19.9137 26.7834 19.9098 26.82C19.9151 26.8632 19.9151 26.9068 19.9098 26.95C19.9098 26.95 19.9098 27.02 19.9098 27.04C19.9098 27.06 19.9098 27.1 19.9098 27.17C19.9051 27.2433 19.9051 27.3168 19.9098 27.39C19.9098 27.49 19.9098 27.58 19.9098 27.66C19.9135 27.7166 19.9135 27.7734 19.9098 27.83C19.9138 27.8766 19.9138 27.9235 19.9098 27.97C19.9098 28.03 19.9098 28.09 19.9098 28.12C19.9098 28.15 19.9098 28.22 19.9098 28.26C19.9067 28.2899 19.9067 28.3201 19.9098 28.35C19.9098 28.35 19.9098 28.35 19.9098 28.41C19.905 28.4398 19.905 28.4702 19.9098 28.5C19.9153 28.523 19.9153 28.547 19.9098 28.57V28.62C19.9012 28.6764 19.9012 28.7337 19.9098 28.79C19.9147 28.8198 19.9147 28.8502 19.9098 28.88V28.97C19.9022 28.9927 19.9022 29.0173 19.9098 29.04C19.9063 29.0565 19.9063 29.0735 19.9098 29.09L19.9998 29.14H20.0698H20.1598H20.2698H20.5998L20.6598 29.09L20.7198 29.02V28.96C20.7321 28.9278 20.7321 28.8922 20.7198 28.86C20.7263 28.8102 20.7263 28.7598 20.7198 28.71V28.56C20.8098 28.55 20.8098 28.48 20.7998 28.43ZM20.2398 29.06H20.1598H20.0798L19.9998 29.01V28.94C19.9998 28.94 19.9998 28.89 19.9998 28.86C20.0038 28.8301 20.0038 28.7999 19.9998 28.77C19.9958 28.7502 19.9958 28.7298 19.9998 28.71C19.9998 28.71 19.9998 28.65 19.9998 28.63C19.9957 28.6069 19.9957 28.5832 19.9998 28.56V28.48C20.0057 28.4571 20.0057 28.433 19.9998 28.41C19.9965 28.3902 19.9965 28.3699 19.9998 28.35C19.9998 28.35 19.9998 28.27 19.9998 28.24V28.17H20.1398H20.2098H20.2898L20.3598 28.24L20.4298 28.3V28.38C20.4323 28.4167 20.4323 28.4534 20.4298 28.49C20.4348 28.5499 20.4348 28.6101 20.4298 28.67C20.4298 28.79 20.4298 28.84 20.4298 28.86V28.92H20.3598H20.2698H20.1798L20.2398 29.06ZM20.0598 25.97H20.1398H20.2198L20.2998 26.03V26.11C20.2944 26.1364 20.2944 26.1636 20.2998 26.19V26.25C20.2934 26.2729 20.2934 26.2971 20.2998 26.32V26.43C20.3176 26.5225 20.3176 26.6175 20.2998 26.71V26.84C20.2934 26.8663 20.2934 26.8937 20.2998 26.92C20.2939 26.9598 20.2939 27.0002 20.2998 27.04C20.2998 27.04 20.2998 27.12 20.2998 27.16V27.25V27.33L20.1998 27.39L20.0998 27.46H20.0098V27.71C20.0131 27.6668 20.0131 27.6233 20.0098 27.58C20.0152 27.5135 20.0152 27.4466 20.0098 27.38C20.0158 27.3035 20.0158 27.2266 20.0098 27.15C20.0098 27.09 20.0098 27.07 20.0098 27.06C20.0233 26.994 20.0233 26.926 20.0098 26.86V26.5C20.0798 26.33 20.0698 26.17 20.0198 25.97H20.0598Z" fill="white"/>
<path d="M22.43 29.07H22.36H22.3H21.95H21.87H21.77C21.687 29.0595 21.603 29.0595 21.52 29.07H21.44H21.35V29C21.3533 28.9734 21.3533 28.9465 21.35 28.92V28.71C21.35 28.71 21.35 28.71 21.35 28.61C21.3543 28.5601 21.3543 28.5099 21.35 28.46C21.3447 28.4068 21.3447 28.3532 21.35 28.3V28.16C21.35 28.16 21.35 28.11 21.35 28.09C21.3528 28.0701 21.3528 28.0499 21.35 28.03C21.3459 28.0102 21.3459 27.9898 21.35 27.97C21.35 27.97 21.35 27.91 21.35 27.87V27.71H21.83C21.8525 27.7184 21.8774 27.7184 21.9 27.71C21.9031 27.6834 21.9031 27.6566 21.9 27.63V27.56H21.28C21.28 27.5 21.28 27.44 21.28 27.37C21.28 27.3 21.28 27.22 21.28 27.11C21.2843 27.0902 21.2843 27.0698 21.28 27.05V26.94C21.2849 26.8701 21.2849 26.7999 21.28 26.73C21.2752 26.64 21.2752 26.5499 21.28 26.46C21.28 26.37 21.28 26.29 21.28 26.24V26.09H21.38H21.46H21.53H21.64H21.75H22.02H22.12C22.1239 26.1033 22.1317 26.1152 22.1423 26.1241C22.153 26.1331 22.1661 26.1386 22.18 26.14C22.18 26.14 22.18 26.14 22.26 26.14L22.31 26.08V26.02C22.2974 26.0145 22.2837 26.0117 22.27 26.0117C22.2562 26.0117 22.2426 26.0145 22.23 26.02H22.12H22.02H21.71H21.6H21.54H21.45C21.45 26.02 21.45 26.02 21.39 26.07C21.3852 26.0863 21.3852 26.1037 21.39 26.12V26.26C21.3843 26.3599 21.3843 26.4601 21.39 26.56C21.39 26.68 21.39 26.79 21.39 26.89C21.39 26.99 21.39 27.05 21.39 27.08C21.394 27.1099 21.394 27.1401 21.39 27.17C21.3956 27.2031 21.3956 27.2369 21.39 27.27C21.394 27.3166 21.394 27.3634 21.39 27.41V28.13C21.39 28.13 21.39 28.21 21.39 28.25C21.3858 28.2866 21.3858 28.3234 21.39 28.36C21.39 28.36 21.39 28.45 21.39 28.51C21.3848 28.5832 21.3848 28.6567 21.39 28.73C21.3948 28.7865 21.3948 28.8434 21.39 28.9V29.14C21.3932 29.1799 21.3932 29.22 21.39 29.26C21.39 29.26 21.39 29.34 21.39 29.37C21.3935 29.3932 21.3935 29.4168 21.39 29.44C21.3939 29.4528 21.4003 29.4648 21.4089 29.4751C21.4175 29.4854 21.428 29.4939 21.44 29.5C21.4509 29.5053 21.4628 29.5081 21.475 29.5081C21.4871 29.5081 21.4991 29.5053 21.51 29.5V29.45H22.03H22.15H22.24H22.48C22.48 29.45 22.6 29.45 22.63 29.4C22.6343 29.3802 22.6343 29.3598 22.63 29.34C22.6585 29.3111 22.6758 29.273 22.6787 29.2325C22.6815 29.1921 22.6699 29.1519 22.6457 29.1193C22.6215 29.0867 22.5865 29.0638 22.5469 29.0547C22.5074 29.0457 22.4659 29.0511 22.43 29.07Z" fill="white"/>
<path d="M23.8102 29.07C23.8065 29.0435 23.8065 29.0166 23.8102 28.99C23.785 28.9601 23.7648 28.9263 23.7502 28.89C23.7546 28.8806 23.7569 28.8704 23.7569 28.86C23.7569 28.8496 23.7546 28.8394 23.7502 28.83V28.73C23.7268 28.7024 23.7066 28.6722 23.6902 28.64V28.56L23.6302 28.45L23.5702 28.34L23.5202 28.26V28.18C23.5235 28.1501 23.5235 28.1199 23.5202 28.09C23.5202 28.09 23.5202 28.09 23.5202 28.02H23.5802L23.6502 27.97C23.6875 27.9488 23.7212 27.9218 23.7502 27.89L23.8102 27.82V27.74C23.8444 27.7074 23.8686 27.6658 23.8802 27.62C23.8802 27.62 23.8802 27.53 23.8802 27.48C23.8802 27.43 23.8802 27.36 23.8802 27.31V26.71C23.8846 26.6501 23.8846 26.5899 23.8802 26.53C23.8802 26.53 23.8802 26.45 23.8802 26.42V26.3V26.23C23.8816 26.2 23.8816 26.17 23.8802 26.14V26.08V26.03V25.97H23.8102H23.7002H23.5302H23.4702C23.4702 25.97 23.4702 26.03 23.4702 26.05C23.4702 26.07 23.4702 26.05 23.4702 26.12C23.4711 26.1367 23.4711 26.1534 23.4702 26.17C23.4743 26.24 23.4743 26.3101 23.4702 26.38C23.4702 26.38 23.4702 26.45 23.4702 26.49C23.4665 26.5233 23.4665 26.5568 23.4702 26.59V27.03C23.4702 27.13 23.4702 27.23 23.4702 27.32V27.47C23.4647 27.4998 23.4647 27.5303 23.4702 27.56C23.4653 27.5898 23.4653 27.6202 23.4702 27.65C23.4653 27.6899 23.4653 27.7302 23.4702 27.77V27.71C23.4653 27.7499 23.4653 27.7902 23.4702 27.83C23.4685 27.85 23.4685 27.8701 23.4702 27.89C23.4711 27.9067 23.4711 27.9234 23.4702 27.94C23.4702 27.94 23.4702 28 23.4702 28.11V28.49C23.4702 28.64 23.4702 28.77 23.4702 28.87C23.4631 28.9298 23.4631 28.9902 23.4702 29.05H23.5502H23.6002C23.6081 29.0345 23.6122 29.0174 23.6122 29C23.6122 28.9826 23.6081 28.9655 23.6002 28.95C23.6034 28.8934 23.6034 28.8366 23.6002 28.78V28.43C23.6002 28.3 23.6002 28.18 23.6002 28.08C23.6002 27.98 23.6002 27.92 23.6002 27.91C23.5992 27.8934 23.5992 27.8767 23.6002 27.86C23.5985 27.8401 23.5985 27.82 23.6002 27.8V27.86C23.6502 27.94 23.7002 28.01 23.7302 28.07L23.8202 28.22V28.31V28.36V28.42V28.49C23.8202 28.49 23.8202 28.49 23.8202 28.55C23.8134 28.5763 23.8134 28.6038 23.8202 28.63C23.8226 28.6466 23.8226 28.6634 23.8202 28.68V28.76L23.8702 28.83V28.91C23.8756 28.9431 23.8756 28.9769 23.8702 29.01C23.8702 29.09 23.9402 29.14 23.9902 29.14H24.0702C24.0765 29.1137 24.0765 29.0863 24.0702 29.06C24.0702 29.06 23.8502 29.09 23.8102 29.07ZM22.9302 26.07C22.9302 26.07 22.9302 26.01 22.9302 25.99C22.9302 25.97 22.9302 25.94 22.9302 25.91H23.0202L23.1202 26.01C23.1202 26.01 23.1202 26.01 23.1202 26.06V26.13V26.18C23.1158 26.2032 23.1158 26.2269 23.1202 26.25C23.1202 26.25 23.1202 26.25 23.1202 26.34C23.1202 26.43 23.1202 26.42 23.1202 26.46C23.1202 26.5 23.1202 26.55 23.1202 26.6C23.1228 26.6233 23.1228 26.6468 23.1202 26.67C23.1202 26.67 23.1202 26.67 23.1202 26.73C23.1243 26.7565 23.1243 26.7835 23.1202 26.81C23.1228 26.8366 23.1228 26.8634 23.1202 26.89V26.94L23.0602 27.01L22.9902 27.06L22.9302 27.11V26.96C22.9302 26.91 22.9302 26.83 22.9302 26.72V26.71C22.9302 26.62 22.9302 26.53 22.9302 26.44C22.9333 26.3867 22.9333 26.3333 22.9302 26.28V26.22C22.9342 26.2002 22.9342 26.1798 22.9302 26.16V26.07Z" fill="white"/>
<path d="M47.1499 8.63998H47.0899C47.0846 8.65089 47.0818 8.66286 47.0818 8.67499C47.0818 8.68711 47.0846 8.69909 47.0899 8.70999V8.89999C47.0899 8.89999 47.0899 9.01001 47.0899 9.10001V9.17999V9.23999L47.0399 9.29999H46.9899L46.9199 9.37H46.8599C46.8305 9.36138 46.7993 9.36138 46.7699 9.37H46.6199H46.5499L46.4899 9.31V9.25V9.17999V9.10001C46.4858 9.08021 46.4858 9.05977 46.4899 9.03998C46.4947 9.01017 46.4947 8.97979 46.4899 8.94998C46.4899 8.94998 46.4899 8.89 46.4899 8.87C46.4866 8.85349 46.4866 8.83649 46.4899 8.81998C46.4947 8.7969 46.4947 8.77308 46.4899 8.75C46.4862 8.71677 46.4862 8.68323 46.4899 8.64999C46.4945 8.6001 46.4945 8.54989 46.4899 8.5C46.4948 8.44678 46.4948 8.39321 46.4899 8.34V8.19998C46.4954 8.16352 46.4954 8.12646 46.4899 8.09C46.492 8.06003 46.492 8.02996 46.4899 8C46.4855 7.97687 46.4855 7.95312 46.4899 7.92999C46.4765 7.88428 46.4765 7.83569 46.4899 7.78998C46.4899 7.78998 46.4899 7.71999 46.4899 7.67999C46.4932 7.66013 46.4932 7.63985 46.4899 7.62C46.4919 7.59337 46.4919 7.56661 46.4899 7.53998V7.37C46.4899 7.31 46.4899 7.24999 46.4899 7.20999C46.4928 7.17672 46.4928 7.14326 46.4899 7.10999C46.4899 7.10999 46.4899 7.05998 46.4899 7.03998V6.98999C46.4937 6.97354 46.4937 6.95645 46.4899 6.94C46.4899 6.94 46.4899 6.89 46.4899 6.87V6.81C46.5148 6.75866 46.5349 6.70509 46.5499 6.64999C46.5444 6.62024 46.5444 6.58975 46.5499 6.56H46.6199H46.6899L46.7899 6.50998H46.9599C46.9599 6.50998 46.9599 6.51 47.0199 6.56V6.64999C47.0158 6.69323 47.0158 6.73676 47.0199 6.78C47.0199 6.78 47.0199 6.85 47.0199 6.87V6.92999V7.14999H47.1099C47.1155 7.12363 47.1155 7.09634 47.1099 7.06998V6.82999C47.1054 6.79346 47.1054 6.75653 47.1099 6.72C47.1142 6.70024 47.1142 6.67977 47.1099 6.66C47.1114 6.64003 47.1114 6.61998 47.1099 6.60001C47.1099 6.60001 47.1099 6.54998 47.1099 6.53998C47.108 6.51668 47.108 6.4933 47.1099 6.47L47.0399 6.41C47.0148 6.38577 46.9837 6.36851 46.9499 6.35999H46.8799H46.7099H46.6399H46.5399L46.4199 6.42999L46.2999 6.53C46.2999 6.53 46.2399 6.6 46.2399 6.63C46.2343 6.64962 46.2343 6.67039 46.2399 6.69C46.2358 6.7098 46.2358 6.7302 46.2399 6.75C46.244 6.77651 46.244 6.80348 46.2399 6.82999C46.2399 6.82999 46.2399 6.82998 46.2399 6.94998V7.12V7.32999C46.2368 7.38327 46.2368 7.4367 46.2399 7.48999V7.59C46.2362 7.62323 46.2362 7.65677 46.2399 7.69C46.2408 7.70666 46.2408 7.72334 46.2399 7.73999C46.2399 7.73999 46.2399 7.73998 46.2399 7.81998V7.98999C46.2399 7.98999 46.2399 8.04998 46.2399 8.06998C46.2408 8.08663 46.2408 8.10334 46.2399 8.12V8.16998C46.2399 8.16998 46.2399 8.21999 46.2399 8.23999V8.38998C46.2349 8.4599 46.2349 8.53009 46.2399 8.60001V8.82999C46.235 8.85979 46.235 8.89018 46.2399 8.91998C46.2361 8.95321 46.2361 8.98676 46.2399 9.01999C46.2366 9.0666 46.2366 9.11339 46.2399 9.16C46.2325 9.19967 46.2325 9.24033 46.2399 9.28L46.2999 9.38L46.3799 9.48999C46.4298 9.54609 46.4964 9.58467 46.5699 9.60001C46.6162 9.60784 46.6635 9.60784 46.7099 9.60001H46.8199H46.8999L46.9799 9.54999L47.0499 9.5L47.1999 9.35001L47.2699 9.26999V9.22V9.13C47.2652 9.11028 47.2652 9.0897 47.2699 9.06998C47.2699 9.06998 47.2699 9.01999 47.2699 8.98999V8.88C47.2652 8.86028 47.2652 8.8397 47.2699 8.81998C47.272 8.80003 47.272 8.77992 47.2699 8.75998C47.2829 8.72446 47.2829 8.68551 47.2699 8.64999C47.2317 8.63502 47.19 8.63153 47.1499 8.63998Z" fill="white"/>
<path d="M49.52 9.42999V9.31998V9.22V9.16C49.5132 9.13039 49.5132 9.09959 49.52 9.06998C49.5245 9.03345 49.5245 8.99652 49.52 8.95999V8.88998C49.5243 8.86349 49.5243 8.83649 49.52 8.81C49.52 8.81 49.52 8.76 49.52 8.75V8.62L49.46 8.44C49.4466 8.38242 49.4299 8.32565 49.41 8.26999C49.41 8.19999 49.41 8.17 49.41 8.16C49.4149 8.12685 49.4149 8.09315 49.41 8.06C49.4135 8.04352 49.4135 8.02646 49.41 8.00998V7.94998C49.4124 7.92337 49.4124 7.89661 49.41 7.87C49.3874 7.8187 49.3707 7.76503 49.36 7.70999C49.36 7.63999 49.36 7.57998 49.36 7.50998V7.37C49.3649 7.33015 49.3649 7.28985 49.36 7.25C49.3638 7.21343 49.3638 7.17655 49.36 7.13998C49.36 7.13998 49.36 7.14 49.36 7.06V6.94C49.3554 6.90683 49.3554 6.87317 49.36 6.84V6.75C49.3647 6.72018 49.3647 6.68982 49.36 6.66C49.36 6.66 49.36 6.58999 49.36 6.54999C49.3636 6.51675 49.3636 6.48322 49.36 6.44998C49.3627 6.41336 49.3627 6.37661 49.36 6.34L49.3 6.28998C49.2627 6.30245 49.2286 6.32296 49.2 6.35001V6.41998C49.1914 6.44936 49.1914 6.4806 49.2 6.50998C49.2 6.50998 49.2 6.57998 49.15 6.63998L49.09 6.82999C49.09 6.88999 49.09 6.94999 49.01 7.01999C48.9964 7.06118 48.9797 7.10129 48.96 7.13998L48.91 7.25998C48.9057 7.31323 48.9057 7.36674 48.91 7.41998C48.9133 7.46659 48.9133 7.51339 48.91 7.56C48.9138 7.59657 48.9138 7.63342 48.91 7.66998C48.8956 7.69801 48.8789 7.72479 48.86 7.75V7.81C48.8297 7.86247 48.8093 7.92009 48.8 7.97998L48.72 8.14999C48.7122 8.18961 48.7122 8.23037 48.72 8.26999C48.72 8.26999 48.72 8.26999 48.72 8.32999V8.38998C48.7163 8.41652 48.7163 8.44346 48.72 8.47C48.7166 8.49656 48.7166 8.52343 48.72 8.54999C48.717 8.58659 48.717 8.6234 48.72 8.66C48.7257 8.69645 48.7257 8.73354 48.72 8.76999V8.88C48.7171 8.90659 48.7171 8.9334 48.72 8.95999C48.7179 8.97659 48.7179 8.99338 48.72 9.00998V9.12V9.22V9.28V9.38V9.47998V9.57999C48.7175 9.60325 48.7175 9.62673 48.72 9.64999C48.7106 9.68266 48.7106 9.71734 48.72 9.75H48.81C48.8137 9.72346 48.8137 9.69652 48.81 9.66998V9.59C48.811 9.57334 48.811 9.55663 48.81 9.53998C48.8134 9.52012 48.8134 9.49984 48.81 9.47998V9.41998C48.8138 9.3901 48.8138 9.35987 48.81 9.32999C48.8069 9.29673 48.8069 9.26324 48.81 9.22998C48.8075 9.18668 48.8075 9.1433 48.81 9.10001C48.81 9.05001 48.81 9 48.81 8.97V8.85999C48.8144 8.8268 48.8144 8.79317 48.81 8.75998C48.8133 8.73676 48.8133 8.71322 48.81 8.69H50.01C50.0068 8.73661 50.0068 8.78338 50.01 8.82999C50.01 8.89665 50.03 8.98667 50.07 9.10001C50.07 9.10001 50.07 9.16999 50.07 9.20999C50.0734 9.22985 50.0734 9.25013 50.07 9.26999C50.0667 9.29655 50.0667 9.32344 50.07 9.35001C50.07 9.35001 50.07 9.43999 50.07 9.48999V9.63C50.0659 9.66321 50.0659 9.69677 50.07 9.72998C50.0769 9.77646 50.094 9.82085 50.12 9.85999C50.1242 9.87864 50.1342 9.89547 50.1486 9.90805C50.163 9.92064 50.181 9.92833 50.2 9.92999H50.25C50.2555 9.91738 50.2584 9.90375 50.2584 9.88998C50.2584 9.87622 50.2555 9.86262 50.25 9.85001C50.2631 9.79748 50.2631 9.74253 50.25 9.69C50.25 9.69 49.52 9.45999 49.52 9.42999ZM48.73 8.31H48.02C48.0239 8.29355 48.0239 8.27643 48.02 8.25998V8.16998V8.06998V7.94998L48.09 7.84C48.1095 7.7944 48.1262 7.74763 48.14 7.69998L48.19 7.60001C48.1965 7.56699 48.1965 7.53302 48.19 7.5C48.1879 7.48006 48.1879 7.45994 48.19 7.44C48.1862 7.42356 48.1862 7.40643 48.19 7.38998C48.1857 7.37022 48.1857 7.34975 48.19 7.32999V7.22998L48.25 7.10001C48.2693 7.03526 48.2927 6.9718 48.32 6.91C48.3406 6.83461 48.3674 6.76103 48.4 6.69C48.4 6.69 48.4 6.75998 48.4 6.78998C48.4105 6.82607 48.4274 6.85996 48.45 6.88998C48.4455 6.91646 48.4455 6.94352 48.45 6.97C48.4532 6.99323 48.4532 7.01675 48.45 7.03998C48.446 7.06985 48.446 7.10014 48.45 7.13C48.4471 7.15993 48.4471 7.19007 48.45 7.22C48.4555 7.24301 48.4555 7.26697 48.45 7.28998C48.45 7.28998 48.45 7.35998 48.45 7.38998C48.45 7.41998 48.45 7.44998 48.45 7.47998C48.4532 7.49649 48.4532 7.51349 48.45 7.53C48.4457 7.54976 48.4457 7.57023 48.45 7.59V7.69V7.79999C48.4532 7.82321 48.4532 7.84677 48.45 7.87C48.45 7.87 48.45 7.87 48.45 7.94C48.4457 7.9665 48.4457 7.9935 48.45 8.01999V8.06998C48.4466 8.09653 48.4466 8.12344 48.45 8.14999V8.19998H48.18L48.73 8.31Z" fill="white"/>
<path d="M50.8299 9.54001C50.809 9.51256 50.7922 9.48225 50.7799 9.45001L50.7199 9.36002C50.7199 9.36002 50.7199 9.36002 50.7199 9.30002C50.7209 9.28337 50.7209 9.26668 50.7199 9.25003L50.6599 9.16003V9.06003V8.98001L50.5999 8.88004L50.5399 8.77002L50.4899 8.69003C50.4937 8.6635 50.4937 8.63655 50.4899 8.61002C50.4776 8.57778 50.4608 8.54747 50.4399 8.52002C50.4451 8.49697 50.4451 8.47306 50.4399 8.45001V8.40002H50.4999C50.5269 8.38926 50.5509 8.37212 50.5699 8.35004C50.6124 8.33247 50.6501 8.30503 50.6799 8.27002L50.7399 8.20001L50.7899 8.13004C50.8207 8.09118 50.8444 8.04716 50.8599 8.00003C50.8638 7.95345 50.8638 7.9066 50.8599 7.86002C50.8634 7.8034 50.8634 7.74664 50.8599 7.69003V7.52002C50.864 7.46343 50.864 7.40663 50.8599 7.35004C50.8559 7.31014 50.8559 7.26991 50.8599 7.23001V7.12003V7.04001V6.96002V6.91003C50.8646 6.89896 50.867 6.88705 50.867 6.87503C50.867 6.86301 50.8646 6.8511 50.8599 6.84003C50.8599 6.84003 50.8599 6.84001 50.8599 6.79001C50.8425 6.76758 50.8223 6.74743 50.7999 6.73001H50.7299H50.6299H50.4499H50.3899C50.3899 6.73001 50.3899 6.78002 50.3899 6.80002C50.3899 6.82002 50.3899 6.85003 50.3899 6.87003C50.3845 6.88626 50.3845 6.90377 50.3899 6.92001C50.386 6.93646 50.386 6.95359 50.3899 6.97003C50.3899 7.02003 50.3899 7.09002 50.3899 7.18002V7.29001C50.3862 7.32324 50.3862 7.35678 50.3899 7.39001V7.83002C50.3899 7.94002 50.3899 8.03003 50.3899 8.12003V8.27002C50.3766 8.32928 50.3766 8.39075 50.3899 8.45001V8.57001C50.3944 8.60654 50.3944 8.64349 50.3899 8.68002C50.385 8.71987 50.385 8.76017 50.3899 8.80002V8.88004C50.3852 8.89637 50.3852 8.91369 50.3899 8.93002C50.3899 8.93002 50.3899 8.99002 50.3899 9.11002V9.87003C50.3767 9.92592 50.3767 9.98411 50.3899 10.04H50.4699C50.4699 10.04 50.4699 9.98001 50.4699 9.95001C50.4699 9.92001 50.4699 9.87002 50.4699 9.77002C50.4699 9.67002 50.4699 9.56002 50.4699 9.43002V9.07001C50.4699 8.97001 50.4699 8.91002 50.4699 8.90002V8.81003V8.87003L50.5999 9.08002L50.6899 9.24002C50.6919 9.26665 50.6919 9.29338 50.6899 9.32001V9.38004C50.6919 9.40333 50.6919 9.42672 50.6899 9.45001L50.7399 9.51001C50.7315 9.53601 50.7315 9.56402 50.7399 9.59003V9.64001V9.72003L50.7899 9.80002V9.87003C50.8086 9.90233 50.8252 9.93573 50.8399 9.97003C50.8399 10.05 50.9099 10.1 50.9599 10.1C50.9725 10.1055 50.9861 10.1084 50.9999 10.1084C51.0137 10.1084 51.0273 10.1055 51.0399 10.1C51.0471 10.0739 51.0471 10.0462 51.0399 10.02C51.1035 9.99217 51.1535 9.94019 51.1788 9.87549C51.2042 9.81079 51.2027 9.73867 51.1749 9.67502C51.147 9.61137 51.095 9.56139 51.0303 9.53607C50.9656 9.51075 50.8935 9.51216 50.8299 9.54001ZM49.9499 6.54001C49.9556 6.51364 49.9556 6.48639 49.9499 6.46002C49.9547 6.43694 49.9547 6.4131 49.9499 6.39001H50.0499L50.1499 6.48001C50.1499 6.48001 50.1499 6.48003 50.1499 6.53003C50.1444 6.55304 50.1444 6.57703 50.1499 6.60004C50.1499 6.60004 50.1499 6.60002 50.1499 6.65002C50.1499 6.65002 50.1499 6.65002 50.1499 6.71002V6.76001C50.1465 6.78657 50.1465 6.81347 50.1499 6.84003C50.1499 6.84003 50.1499 6.92002 50.1499 6.96002C50.1554 7.00652 50.1554 7.05354 50.1499 7.10004C50.1537 7.12657 50.1537 7.15349 50.1499 7.18002C50.1499 7.18002 50.1499 7.18003 50.1499 7.25003V7.33002V7.40002V7.46002L50.0899 7.52002H50.0299H49.9599L49.8999 7.57001V7.18002C49.8999 7.08002 49.8999 6.97003 49.8999 6.87003C49.8947 6.78344 49.8947 6.6966 49.8999 6.61002V6.71002C49.9009 6.69337 49.9009 6.67669 49.8999 6.66003C49.904 6.63688 49.904 6.61318 49.8999 6.59003L49.9499 6.54001Z" fill="white"/>
<path d="M52.3099 7.20999V7.16V7.07999C52.3142 7.05685 52.3142 7.03311 52.3099 7.00998V6.92999C52.3099 6.92999 52.3099 6.85998 52.3099 6.81998C52.2633 6.72518 52.1988 6.64029 52.1199 6.56998L52.0499 6.48999L51.9799 6.44C51.9619 6.41456 51.9378 6.39395 51.9099 6.38H51.8199H51.6199H51.5599C51.5386 6.39127 51.5212 6.40868 51.5099 6.42999L51.4599 6.48999C51.4535 6.51288 51.4535 6.5371 51.4599 6.56V6.70999C51.4544 6.77988 51.4544 6.85009 51.4599 6.91998C51.4599 6.97998 51.4599 7.04001 51.4599 7.10001C51.4632 7.12992 51.4632 7.16009 51.4599 7.19V7.28C51.4744 7.32212 51.4744 7.36788 51.4599 7.41C51.4599 7.41 51.4599 7.48999 51.4599 7.54999C51.4546 7.59316 51.4546 7.63682 51.4599 7.67999C51.4599 7.67999 51.4599 7.75998 51.4599 7.81998C51.4599 7.87998 51.4599 7.92 51.4599 7.97C51.4558 8.02659 51.4558 8.08339 51.4599 8.13998V8.48999C51.4646 8.52316 51.4646 8.55683 51.4599 8.59C51.4599 8.59 51.4599 8.64998 51.4599 8.66998C51.4599 8.68998 51.4599 8.73 51.4599 8.75C51.4558 8.77315 51.4558 8.79682 51.4599 8.81998C51.4599 8.81998 51.4599 8.81998 51.4599 8.88998C51.4558 8.91314 51.4558 8.93684 51.4599 8.95999V9.00998V9.10001C51.4599 9.15001 51.4599 9.18998 51.4599 9.22998V9.34C51.4599 9.34 51.4599 9.4 51.4599 9.41C51.4565 9.43656 51.4565 9.46344 51.4599 9.48999C51.4599 9.48999 51.4599 9.53998 51.4599 9.56998V9.63998C51.4529 9.65394 51.4492 9.66937 51.4492 9.685C51.4492 9.70063 51.4529 9.71602 51.4599 9.72998C51.4642 9.74414 51.4719 9.75705 51.4824 9.76752C51.4929 9.77798 51.5057 9.78568 51.5199 9.78998H51.5899C51.626 9.79888 51.6638 9.79888 51.6999 9.78998H52.0699C52.1299 9.78998 52.1599 9.78998 52.1699 9.78998L52.2599 9.72L52.3199 9.64999L52.3699 9.56998C52.4135 9.51031 52.4442 9.44221 52.4599 9.37C52.4572 9.3267 52.4572 9.28328 52.4599 9.23999C52.4599 9.23999 52.4599 9.17998 52.4599 9.16998C52.4552 9.14017 52.4552 9.1098 52.4599 9.07999C52.4599 9.02999 52.4599 8.99999 52.4599 8.95999C52.4584 8.93001 52.4584 8.89998 52.4599 8.87C52.4637 8.83677 52.4637 8.80321 52.4599 8.76999C52.4561 8.74346 52.4561 8.71653 52.4599 8.69V8.54999C52.4599 8.47999 52.4599 8.39999 52.4599 8.29999V7.70999C52.454 7.66352 52.454 7.61645 52.4599 7.56998C52.4555 7.54014 52.4555 7.50982 52.4599 7.47998C52.4643 7.44679 52.4643 7.41319 52.4599 7.38C52.4599 7.38 52.4599 7.31998 52.4599 7.28998L52.3099 7.20999ZM52.0399 8.63V8.70999C52.0399 8.70999 52.0399 8.77 52.0399 8.81C52.0351 8.8398 52.0351 8.87019 52.0399 8.89999C52.0365 8.92655 52.0365 8.95343 52.0399 8.97998C52.0361 9.00651 52.0361 9.03347 52.0399 9.06C52.0399 9.06 52.0399 9.06 52.0399 9.13V9.17999C52.0351 9.20307 52.0351 9.22692 52.0399 9.25C52.0361 9.26982 52.0361 9.29018 52.0399 9.31C52.0399 9.31 52.0399 9.36 52.0399 9.37L51.9899 9.42999H51.9399H51.5399C51.5448 9.40355 51.5448 9.37645 51.5399 9.35001V9.29999V9.22C51.5442 9.19351 51.5442 9.16648 51.5399 9.13998C51.5399 9.13998 51.5399 9.07999 51.5399 9.04999C51.5442 9.02349 51.5442 8.9965 51.5399 8.97C51.5352 8.95027 51.5352 8.92973 51.5399 8.91C51.5399 8.91 51.5399 8.85999 51.5399 8.82999C51.5399 8.82999 51.5399 8.76998 51.5399 8.72998V8.62V8.48999C51.535 8.44011 51.535 8.38988 51.5399 8.34C51.5444 8.27341 51.5444 8.20657 51.5399 8.13998C51.5449 8.07675 51.5449 8.01322 51.5399 7.94998V7.79999C51.5353 7.74676 51.5353 7.69322 51.5399 7.63998V7.35001C51.5347 7.26342 51.5347 7.17659 51.5399 7.09C51.537 7.04337 51.537 6.9966 51.5399 6.94998V6.87C51.5449 6.8101 51.5449 6.7499 51.5399 6.69C51.5399 6.62 51.5399 6.55998 51.5399 6.50998C51.5399 6.45998 51.5399 6.43999 51.5399 6.42999H51.6499C51.6926 6.44223 51.7308 6.46654 51.7599 6.5L51.8299 6.57999L51.9099 6.63998L51.9799 6.72C51.9799 6.72 51.9799 6.77998 52.0399 6.81998C52.0588 6.84519 52.0755 6.87197 52.0899 6.89999V6.97C52.0856 6.98977 52.0856 7.01023 52.0899 7.03C52.0851 7.0598 52.0851 7.09019 52.0899 7.12C52.0861 7.15322 52.0861 7.18678 52.0899 7.22C52.1022 7.26586 52.1022 7.31413 52.0899 7.35999V7.53998C52.0899 7.63998 52.0899 7.74001 52.0899 7.85001C52.0899 7.96001 52.0899 8.06998 52.0899 8.16998C52.0899 8.26998 52.0899 8.36 52.0899 8.38C52.0899 8.38 52.0899 8.43998 52.0899 8.47998C52.0899 8.51998 52.0899 8.52998 52.0899 8.53998C52.0794 8.54121 52.0692 8.54453 52.0599 8.54974C52.0507 8.55495 52.0426 8.56197 52.0361 8.57034C52.0296 8.57872 52.0248 8.5883 52.022 8.59854C52.0192 8.60878 52.0185 8.61949 52.0199 8.63H52.0399Z" fill="white"/>
<path d="M54.7902 27.87C54.7902 30.02 52.5102 31.61 50.3602 31.61C49.3267 31.6073 48.3362 31.1956 47.6054 30.4648C46.8746 29.734 46.4628 28.7435 46.4602 27.71C46.449 26.6358 46.845 25.5971 47.5685 24.8031C48.2921 24.009 49.2895 23.5184 50.3602 23.43C51.5033 23.5296 52.5746 24.0296 53.3851 24.8419C54.1956 25.6542 54.6932 26.7266 54.7902 27.87Z" fill="#FDAC19"/>
<path d="M50.6301 27.87C50.6301 30.02 48.3501 31.61 46.1901 31.61C45.1575 31.6073 44.1681 31.1953 43.4389 30.4642C42.7097 29.7331 42.3001 28.7426 42.3001 27.71C42.2865 26.6351 42.6817 25.5952 43.4058 24.8006C44.1298 24.006 45.1286 23.5161 46.2001 23.43C47.3433 23.5296 48.4146 24.0296 49.2251 24.8419C50.0355 25.6542 50.5332 26.7266 50.6301 27.87Z" fill="#0086CA"/>
<path d="M5.66977 20.13C5.15977 20.13 4.75977 19.38 4.75977 18.41C4.75977 17.44 5.12977 16.54 5.66977 16.54C6.20977 16.54 6.66977 17.6 6.66977 18.48C6.66977 19.36 6.16977 20.13 5.66977 20.13ZM5.66977 16.81C5.37977 16.81 5.02977 17.53 5.02977 18.41C5.02977 19.29 5.36977 19.86 5.66977 19.86C5.96977 19.86 6.42977 19.27 6.42977 18.48C6.42977 17.69 6.01977 16.81 5.66977 16.81Z" fill="white"/>
<path d="M8.21004 20.13C7.69004 20.13 7.29004 19.38 7.29004 18.41C7.29004 17.44 7.66004 16.54 8.21004 16.54C8.76004 16.54 9.21004 17.6 9.21004 18.48C9.21004 19.36 8.76004 20.13 8.21004 20.13ZM8.21004 16.81C7.91004 16.81 7.56004 17.53 7.56004 18.41C7.56004 19.29 7.90004 19.86 8.21004 19.86C8.52004 19.86 8.96004 19.27 8.96004 18.48C8.96004 17.69 8.52004 16.81 8.21004 16.81Z" fill="white"/>
<path d="M13.2699 20.13C12.7599 20.13 12.3599 19.38 12.3599 18.41C12.3599 17.44 12.7299 16.54 13.2699 16.54C13.8099 16.54 14.2699 17.6 14.2699 18.48C14.2699 19.36 13.7699 20.13 13.2699 20.13ZM13.2699 16.81C12.9799 16.81 12.6299 17.53 12.6299 18.41C12.6299 19.29 12.9699 19.86 13.2699 19.86C13.5699 19.86 14.0299 19.27 14.0299 18.48C14.0299 17.69 13.5899 16.81 13.2699 16.81Z" fill="white"/>
<path d="M10.7401 20.13C10.2301 20.13 9.83008 19.38 9.83008 18.41C9.83008 17.44 10.1901 16.54 10.7401 16.54C11.2901 16.54 11.7401 17.6 11.7401 18.48C11.7401 19.36 11.2301 20.13 10.7401 20.13ZM10.7401 16.81C10.4501 16.81 10.0901 17.53 10.0901 18.41C10.0901 19.29 10.4301 19.86 10.7401 19.86C11.0501 19.86 11.5001 19.27 11.5001 18.48C11.5001 17.69 11.0201 16.81 10.7401 16.81Z" fill="white"/>
<path d="M19.1202 20.13C18.6002 20.13 18.2002 19.38 18.2002 18.41C18.2002 17.44 18.5702 16.54 19.1202 16.54C19.6702 16.54 20.1202 17.6 20.1202 18.48C20.1202 19.36 19.6102 20.13 19.1202 20.13ZM19.1202 16.81C18.8202 16.81 18.4702 17.53 18.4702 18.41C18.4702 19.29 18.8102 19.86 19.1202 19.86C19.4302 19.86 19.8702 19.27 19.8702 18.48C19.8702 17.69 19.4402 16.81 19.1202 16.81Z" fill="white"/>
<path d="M21.65 20.13C21.14 20.13 20.73 19.38 20.73 18.41C20.73 17.44 21.1 16.54 21.65 16.54C22.2 16.54 22.65 17.6 22.65 18.48C22.65 19.36 22.2 20.13 21.65 20.13ZM21.65 16.81C21.36 16.81 21 17.53 21 18.41C21 19.29 21.34 19.86 21.65 19.86C21.96 19.86 22.4 19.27 22.4 18.48C22.4 17.69 22.02 16.81 21.65 16.81Z" fill="white"/>
<path d="M26.7198 20.13C26.1998 20.13 25.7998 19.38 25.7998 18.41C25.7998 17.44 26.1698 16.54 26.7198 16.54C27.2698 16.54 27.7198 17.6 27.7198 18.48C27.7198 19.36 27.2098 20.13 26.7198 20.13ZM26.7198 16.81C26.4198 16.81 26.0698 17.53 26.0698 18.41C26.0698 19.29 26.4098 19.86 26.7198 19.86C27.0298 19.86 27.4698 19.27 27.4698 18.48C27.4698 17.69 27.0198 16.81 26.7198 16.81Z" fill="white"/>
<path d="M24.18 20.13C23.67 20.13 23.27 19.38 23.27 18.41C23.27 17.44 23.64 16.54 24.18 16.54C24.72 16.54 25.18 17.6 25.18 18.48C25.18 19.36 24.68 20.13 24.18 20.13ZM24.18 16.81C23.89 16.81 23.54 17.53 23.54 18.41C23.54 19.29 23.88 19.86 24.18 19.86C24.48 19.86 24.94 19.27 24.94 18.48C24.94 17.69 24.5 16.81 24.18 16.81Z" fill="white"/>
<path d="M46.0199 20.13C45.5099 20.13 45.1099 19.38 45.1099 18.41C45.1099 17.44 45.4699 16.54 46.0199 16.54C46.5699 16.54 47.0199 17.6 47.0199 18.48C47.0199 19.36 46.4899 20.13 46.0199 20.13ZM46.0199 16.81C45.7299 16.81 45.3699 17.53 45.3699 18.41C45.3699 19.29 45.7099 19.86 46.0199 19.86C46.3299 19.86 46.7699 19.27 46.7699 18.48C46.7699 17.69 46.3199 16.81 46.0199 16.81Z" fill="white"/>
<path d="M48.5301 20.13C48.0201 20.13 47.6201 19.38 47.6201 18.41C47.6201 17.44 47.9901 16.54 48.5301 16.54C49.0701 16.54 49.5301 17.6 49.5301 18.48C49.5301 19.36 49.0901 20.13 48.5301 20.13ZM48.5301 16.81C48.2401 16.81 47.8901 17.53 47.8901 18.41C47.8901 19.29 48.2301 19.86 48.5301 19.86C48.8301 19.86 49.2901 19.27 49.2901 18.48C49.2901 17.69 48.8501 16.81 48.5301 16.81Z" fill="white"/>
<path d="M53.5999 20.13C53.0899 20.13 52.6899 19.38 52.6899 18.41C52.6899 17.44 53.0499 16.54 53.5999 16.54C54.1499 16.54 54.5999 17.6 54.5999 18.48C54.5999 19.36 54.0999 20.13 53.5999 20.13ZM53.5999 16.81C53.3099 16.81 52.9499 17.53 52.9499 18.41C52.9499 19.29 53.2999 19.86 53.5999 19.86C53.8999 19.86 54.3599 19.27 54.3599 18.48C54.3599 17.69 53.9199 16.81 53.5999 16.81Z" fill="white"/>
<path d="M51.0699 20.13C50.5499 20.13 50.1499 19.38 50.1499 18.41C50.1499 17.44 50.5199 16.54 51.0699 16.54C51.6199 16.54 52.0699 17.6 52.0699 18.48C52.0699 19.36 51.5599 20.13 51.0699 20.13ZM51.0699 16.81C50.7699 16.81 50.4199 17.53 50.4199 18.41C50.4199 19.29 50.7599 19.86 51.0699 19.86C51.3799 19.86 51.8199 19.27 51.8199 18.48C51.8199 17.69 51.3799 16.81 51.0699 16.81Z" fill="white"/>
<path d="M32.5601 20.13C32.0401 20.13 31.6401 19.38 31.6401 18.41C31.6401 17.44 32.0101 16.54 32.5601 16.54C33.1101 16.54 33.5601 17.6 33.5601 18.48C33.5601 19.36 33.0201 20.13 32.5601 20.13ZM32.5601 16.81C32.2701 16.81 31.9101 17.53 31.9101 18.41C31.9101 19.29 32.2501 19.86 32.5601 19.86C32.8701 19.86 33.3101 19.27 33.3101 18.48C33.3101 17.69 32.8801 16.81 32.5601 16.81Z" fill="white"/>
<path d="M35.0902 20.13C34.5802 20.13 34.1802 19.38 34.1802 18.41C34.1802 17.44 34.5402 16.54 35.0902 16.54C35.6402 16.54 36.0902 17.6 36.0902 18.48C36.0902 19.36 35.6502 20.13 35.0902 20.13ZM35.0902 16.81C34.8002 16.81 34.4502 17.53 34.4502 18.41C34.4502 19.29 34.7902 19.86 35.0902 19.86C35.3902 19.86 35.8502 19.27 35.8502 18.48C35.8502 17.69 35.4102 16.81 35.0902 16.81Z" fill="white"/>
<path d="M40.1602 20.13C39.6502 20.13 39.2402 19.38 39.2402 18.41C39.2402 17.44 39.6102 16.54 40.1602 16.54C40.7102 16.54 41.1602 17.6 41.1602 18.48C41.1602 19.36 40.6502 20.13 40.1602 20.13ZM40.1602 16.81C39.8702 16.81 39.5102 17.53 39.5102 18.41C39.5102 19.29 39.8502 19.86 40.1602 19.86C40.4702 19.86 40.9102 19.27 40.9102 18.48C40.9102 17.69 40.4802 16.81 40.1602 16.81Z" fill="white"/>
<path d="M37.63 20.13C37.11 20.13 36.71 19.38 36.71 18.41C36.71 17.44 37.08 16.54 37.63 16.54C38.18 16.54 38.63 17.6 38.63 18.48C38.63 19.36 38.12 20.13 37.63 20.13ZM37.63 16.81C37.33 16.81 36.98 17.53 36.98 18.41C36.98 19.29 37.32 19.86 37.63 19.86C37.94 19.86 38.38 19.27 38.38 18.48C38.38 17.69 37.94 16.81 37.63 16.81Z" fill="white"/>
</g>
<defs>
<clipPath id="clip0_9405_1092">
<rect width="59.39" height="35.53" fill="white"/>
</clipPath>
</defs>
</svg>
