<svg width="38" height="68" viewBox="0 0 38 68" fill="none" xmlns="http://www.w3.org/2000/svg">
<g clip-path="url(#clip0_9405_1064)">
<path fill-rule="evenodd" clip-rule="evenodd" d="M37.9998 48.7649C37.9998 52.5675 36.8868 56.2847 34.8014 59.4465C32.716 62.6082 29.752 65.0725 26.2842 66.5277C22.8163 67.9829 19.0003 68.3636 15.3189 67.6218C11.6374 66.8799 8.25581 65.0488 5.60163 62.3599C2.94745 59.6711 1.13992 56.2453 0.407637 52.5158C-0.32465 48.7862 0.0512089 44.9205 1.48764 41.4073C2.92407 37.8941 5.35657 34.8914 8.47756 32.7788C11.5985 30.6662 15.2678 29.5386 19.0214 29.5386C24.0548 29.5386 28.882 31.5642 32.4412 35.1698C36.0003 38.7755 37.9998 43.6658 37.9998 48.7649Z" fill="#FFBAB0"/>
<path d="M17.8916 38.505C18.1935 37.9457 18.8664 37.7709 19.3236 37.3777H19.4789C19.6859 37.098 19.8153 36.7397 20.2812 36.731C20.2812 36.6349 20.2812 36.5387 20.4364 36.5649C20.6323 36.2354 20.9048 35.9594 21.2301 35.7609C21.9217 34.9994 22.3672 34.0419 22.5068 33.0168V32.6934C22.3343 32.6934 22.2653 32.5187 22.1877 32.3701C22.0928 32.3701 21.9978 32.3701 22.0323 32.2128H20.4364C20.376 32.5711 19.5738 32.3701 19.6428 32.0467C19.6428 31.8894 19.5134 31.8545 19.4789 31.7234C19.1825 31.4322 18.8653 31.1634 18.5299 30.9194H17.5724C17.3852 30.9154 17.2025 30.9779 17.056 31.096C16.9095 31.2141 16.8084 31.3804 16.7701 31.5661C16.5545 31.6622 16.7701 32.1866 16.451 32.2128V32.8595C16.3216 33.3139 16.6839 33.279 16.6149 33.6635C16.8995 33.6111 16.8995 34.5374 16.451 34.3102C16.3138 34.5878 16.0934 34.8142 15.8212 34.9569C15.5883 36.3989 16.1749 37.334 15.9765 38.6711C16.3475 38.7148 16.5717 38.9245 17.0893 38.8284C17.5983 38.9682 17.5897 38.575 17.8916 38.505Z" fill="#FE624C"/>
<path d="M5.80576 46.9559C5.57285 46.8773 5.48662 46.6588 5.2537 46.5889V46.5102C5.2537 46.318 5.05529 46.2393 4.98628 46.082C4.91727 45.9247 4.77061 45.9596 4.71023 45.8548H4.6412C4.54207 45.837 4.43998 45.8589 4.35651 45.9159C4.2875 46.1432 4.46005 46.1432 4.48593 46.2742C4.7091 46.4839 4.8932 46.7326 5.0294 47.0083V47.0783C5.17606 47.1394 5.19331 47.3317 5.29683 47.4453C5.61974 47.5166 5.94986 47.5489 6.28027 47.5414C6.29752 47.1744 6.06456 47.0171 5.80576 46.9559Z" fill="#FE624C"/>
<path d="M25.828 41.0919H26.1472C26.1472 40.987 26.1472 40.8996 26.3111 40.9259C26.6389 40.3491 27.2515 40.0519 27.5793 39.4751V39.1518C27.0789 39.1518 26.8805 38.7847 26.3111 38.8284C25.7332 39.1693 25.4485 39.7985 25.0344 40.2792C24.9654 40.8996 25.414 40.9958 25.828 41.0919Z" fill="#FE624C"/>
<path d="M8.97162 63.2021C9.25629 63.2021 6.09893 58.6839 8.33321 55.6165C9.11823 55.1708 9.19591 53.3355 8.48853 52.7063C8.21248 52.5661 7.98852 52.3393 7.85012 52.0596C6.93307 51.5033 5.97569 51.0183 4.98615 50.6089C4.58933 50.2156 2.82946 50.6089 2.67419 50.6089C2.24286 50.7312 1.38888 50.8623 1.31986 50.8973H1.16454C1.10084 50.9514 1.02769 50.9929 0.948875 51.0196L0.0258789 49.6476C0.1525 52.329 0.831954 54.9538 2.02056 57.353C3.20917 59.7522 4.88058 61.8727 6.92713 63.5779C7.97094 64.0848 8.80771 64.1372 8.97162 63.2021Z" fill="#FE624C"/>
<path d="M1.81496e-05 48.7649C1.81496e-05 48.9135 1.81496e-05 49.062 1.81496e-05 49.2019C0.349531 49.2467 0.703506 49.1664 1.00068 48.9746C2.15664 48.1532 3.09694 45.4353 3.21771 43.6874C3.25595 43.6974 3.29108 43.7171 3.31975 43.7446C3.34842 43.7721 3.3697 43.8066 3.38162 43.8447H4.1753C4.58937 43.8447 4.73602 44.1331 4.97756 44.3254H5.1242C5.36053 44.4833 5.64903 44.5399 5.92646 44.4827H6.08173C6.27752 44.2013 6.49072 43.9327 6.72009 43.6787C6.86218 43.3142 6.96907 42.9367 7.03927 42.5513C7.22693 42.0766 7.5634 41.6774 7.99686 41.4152C8.16076 40.9433 8.71284 40.8559 9.10966 40.6112C8.99752 40.349 9.86017 40.349 9.74802 40.6112C10.2742 40.6112 10.5417 40.8821 11.1801 40.7772H11.8184C11.9548 40.8072 12.0959 40.8079 12.2326 40.7793C12.3693 40.7507 12.4985 40.6934 12.612 40.6112C12.8087 40.2793 13.0845 40.0028 13.4143 39.8072C13.8745 39.148 14.0996 38.3498 14.0527 37.5437C14.1562 36.5737 13.837 35.1841 14.208 34.4763C14.208 33.9694 14.5703 33.7684 14.5272 33.1916C14.5381 32.9868 14.603 32.7887 14.7153 32.6181C14.8276 32.4474 14.9831 32.3105 15.1655 32.2215C15.1655 31.8982 15.5969 32.0118 15.4847 31.5748C15.5616 31.4578 15.615 31.3265 15.6416 31.1885C15.6683 31.0505 15.6677 30.9086 15.64 30.7708C15.571 30.0804 15.0189 30.395 14.6824 30.6048C14.1137 31.3729 13.4122 32.0303 12.612 32.5449H12.4568C12.2066 32.9819 11.5251 32.5449 11.4992 32.2215V31.068C8.08209 32.5523 5.17057 35.0209 3.12625 38.167C1.08194 41.3132 -0.00512268 44.9983 1.81496e-05 48.7649Z" fill="#FE624C"/>
<path d="M33.747 36.6174C33.6328 36.512 33.4928 36.4395 33.3415 36.4076H30.6328C30.443 36.4076 30.1842 36.4076 30.1583 36.2503H29.8392C29.2439 36.3639 29.494 35.6299 29.0368 35.6036C28.7831 35.6693 28.5557 35.8129 28.3858 36.0148C28.2159 36.2166 28.1119 36.4668 28.0879 36.731V37.4039C28.0103 37.9108 28.4847 37.8584 28.7263 38.0506C28.8557 38.0506 28.8729 38.1118 28.8816 38.2079H29.0368C31.7024 40.2966 26.3281 41.8522 25.3447 43.6787C25.0931 43.6976 24.8487 43.7722 24.6287 43.8972L23.0932 43.6962L22.3081 45.3479L23.2398 46.1432L23.7143 45.9421H23.7919C24.9048 45.6275 27.5358 44.8498 28.2518 46.0995C28.4503 48.3979 24.853 46.851 23.7919 47.8473C23.7919 47.9434 23.7919 48.0396 23.6367 48.0134C23.6367 48.4241 23.3434 48.5727 23.1536 48.8174V48.9834L22.5152 49.6738L20.5311 49.8923C20.5311 49.8923 17.5376 53.1695 17.6066 54.559C17.6584 55.5728 20.0739 57.7052 20.0739 57.7052H24.1542V57.6265C27.1304 57.9848 28.0017 59.8812 28.7091 63.0186C28.5193 63.2633 28.2432 63.4119 28.226 63.8314V63.9887C28.3899 63.9887 31.2366 62.1447 31.2539 61.7252C31.6162 58.9374 34.8166 59.4181 34.601 56.5691C34.532 55.6165 33.5486 54.6901 33.6434 53.6589C33.7211 52.785 34.9029 52.0072 34.9202 51.0808C34.9892 47.6813 30.2187 50.0933 29.3388 47.2006C29.4768 46.2131 30.4344 46.0558 30.2963 44.7798C31.5299 44.8323 32.1511 45.4877 33.169 45.7499C33.2466 49.5602 37.189 46.484 37.4823 49.6214C37.5858 50.74 35.2566 53.991 37.1027 54.6027C37.2062 54.2765 37.3011 53.9444 37.3874 53.6065C37.3735 53.4099 37.4218 53.214 37.5254 53.0471C37.5254 52.8724 37.603 52.6889 37.6375 52.5141C37.6299 52.3343 37.6623 52.155 37.7324 51.9897C37.7324 51.8411 37.7842 51.6838 37.8015 51.5265C37.8187 51.3692 37.8015 51.1508 37.8618 51.0983C37.8618 50.7225 37.9395 50.338 37.9654 49.9622V47.5152C37.9132 46.7476 37.8211 45.9833 37.6893 45.2255C37.662 45.1495 37.6446 45.0702 37.6375 44.9896C37.0375 41.918 35.7015 39.043 33.747 36.6174Z" fill="#FE624C"/>
<path d="M16.8477 0C8.46267 0 1.06104 7.29726 1.06104 15.7918C1.06104 20.3275 3.64903 23.9892 6.6942 26.8032C7.11691 27.1878 10.1448 29.6173 11.0075 30.3601C13.3752 32.378 15.3501 34.8262 16.8304 37.5787C18.3167 34.8277 20.294 32.3801 22.662 30.3601C23.5246 29.6173 26.5612 27.1878 26.9753 26.8032C30.0636 23.9892 32.4186 21.3849 32.0045 15.3723C31.4352 6.90401 25.2241 0 16.8477 0ZM16.8477 8.43337C18.2026 8.44201 19.5246 8.85702 20.6469 9.62605C21.7692 10.3951 22.6415 11.4837 23.1537 12.7544C23.6659 14.0252 23.7951 15.4212 23.5249 16.7663C23.2547 18.1114 22.5974 19.3452 21.6357 20.3122C20.674 21.2791 19.4511 21.9358 18.1214 22.1993C16.7917 22.4629 15.4147 22.3215 14.1642 21.7931C12.9137 21.2646 11.8458 20.3728 11.0951 19.23C10.3444 18.0873 9.94476 16.745 9.94643 15.3723C9.94641 14.4567 10.1252 13.55 10.4727 12.7047C10.8201 11.8594 11.3293 11.0922 11.9709 10.4471C12.6124 9.80209 13.3736 9.29205 14.2106 8.94644C15.0476 8.60082 15.9438 8.42645 16.8477 8.43337Z" fill="#303030"/>
<path d="M16.8393 8.38965C18.1517 8.38792 19.4351 8.78061 20.5272 9.51801C21.6192 10.2554 22.4709 11.3044 22.9743 12.5322C23.4777 13.7601 23.6103 15.1116 23.3553 16.4159C23.1003 17.7201 22.4692 18.9184 21.5418 19.8591C20.6144 20.7999 19.4323 21.4408 18.1453 21.7008C16.8582 21.9608 15.5239 21.8283 14.3112 21.3199C13.0986 20.8115 12.062 19.9501 11.3327 18.8447C10.6034 17.7394 10.2141 16.4397 10.2141 15.1101C10.2164 13.33 10.9148 11.6233 12.1565 10.3637C13.3983 9.10409 15.0821 8.39428 16.8393 8.38965ZM16.8393 6.91272C15.2389 6.91272 13.6744 7.39349 12.3438 8.29423C11.0131 9.19497 9.97593 10.4752 9.36349 11.9731C8.75105 13.471 8.59083 15.1192 8.90305 16.7094C9.21527 18.2995 9.98591 19.7601 11.1176 20.9066C12.2492 22.053 13.691 22.8337 15.2607 23.15C16.8303 23.4663 18.4573 23.304 19.9358 22.6835C21.4144 22.0631 22.6782 21.0124 23.5673 19.6644C24.4564 18.3163 24.931 16.7314 24.931 15.1101C24.931 12.936 24.0785 10.851 22.561 9.31369C21.0435 7.77638 18.9853 6.91272 16.8393 6.91272Z" fill="#303030"/>
<path d="M17.2703 23.8318C12.4653 23.8318 7.92773 19.4622 7.92773 14.7955C7.92773 10.6793 10.6365 6.51942 15.8124 6.51942C16.3063 6.5188 16.7994 6.55677 17.2875 6.63302C21.5491 7.26224 26.0521 10.2249 25.8365 15.2412C25.7741 17.5526 24.8493 19.7541 23.2485 21.4023C21.6508 22.9805 19.5016 23.8539 17.2703 23.8318ZM15.8124 6.81655C10.809 6.81655 8.19516 10.8366 8.19516 14.8217C8.19516 19.3311 12.6033 23.5609 17.2703 23.5609C21.9373 23.5609 25.3707 20.0652 25.5777 15.2149C25.7847 10.3647 21.4024 7.49821 17.2444 6.88646C16.7693 6.82909 16.2908 6.80573 15.8124 6.81655Z" fill="white"/>
</g>
<defs>
<clipPath id="clip0_9405_1064">
<rect width="38" height="68" fill="white"/>
</clipPath>
</defs>
</svg>
