<svg width="80" height="63" viewBox="0 0 80 63" fill="none" xmlns="http://www.w3.org/2000/svg">
<g clip-path="url(#clip0_9405_1054)">
<path d="M39.9802 0H39.4502V7.14H39.9802V0Z" fill="#FE624C"/>
<path d="M66.4299 16.86C68.038 15.6799 69.5223 14.3397 70.8599 12.86L70.4499 12.53C69.1474 13.9704 67.7072 15.2799 66.1499 16.44L66.4299 16.86Z" fill="#FE624C"/>
<path d="M73.4702 32.02C74.3702 31.89 75.1302 31.75 75.8002 31.63C77.112 31.3328 78.4555 31.1985 79.8002 31.23V30.7C78.4254 30.6727 77.0522 30.8104 75.7102 31.11C75.0502 31.23 74.3002 31.37 73.4102 31.49L73.4702 32.02Z" fill="#FE624C"/>
<path d="M15.7599 16.91L15.9999 16.44C14.0827 15.5277 12.2374 14.4714 10.4799 13.28L10.1699 13.71C11.9488 14.9179 13.8176 15.9877 15.7599 16.91Z" fill="#FE624C"/>
<path d="M5.56 42.74V42.21C4.98 42.21 3.87 42.11 2.81 42.01C1.75 41.91 0.61 41.81 0 41.81V42.34C0.59 42.34 1.68998 42.44 2.75998 42.54C3.82998 42.64 4.95 42.74 5.56 42.74Z" fill="#FE624C"/>
<path d="M62.4799 42.51C62.4799 54.17 50.0999 62.78 38.4799 62.78C32.8785 62.78 27.5065 60.5549 23.5458 56.5941C19.585 52.6333 17.3599 47.2613 17.3599 41.66C17.3599 30 26.8299 18.48 38.4899 18.48C50.1499 18.48 62.4799 30.86 62.4799 42.51Z" fill="#FE624C"/>
<path d="M39.9402 61.51L38.2402 19.56L40.3402 20.03L41.9902 61.01L39.9402 61.51Z" fill="white"/>
<path d="M47.2099 44.66C46.2099 42.41 43.4999 41.73 41.0899 41.13C37.7599 40.31 34.8899 39.6 34.5899 35.51H34.5199C34.5199 32.75 36.1499 28.15 39.7899 27.78C40.3038 27.6963 40.8309 27.7842 41.2899 28.03C42.6999 28.84 43.1099 31.35 43.3599 32.85C43.4271 33.4465 43.5613 34.0335 43.7599 34.6L46.2399 34C46.1053 33.5488 46.0083 33.0872 45.9499 32.62C45.6199 30.62 45.1599 27.79 42.8899 26.49C41.8367 25.9166 40.6286 25.6925 39.4399 25.85C33.5799 26.44 31.6599 32.85 31.9399 36.11H32.0299C32.6599 41.11 37.0299 42.18 40.2599 42.98C42.6799 43.58 44.1899 43.98 44.7199 45.26C45.7199 47.66 45.3899 53.26 43.2399 54.26C42.9021 54.4235 42.5342 54.5159 42.1592 54.5314C41.7842 54.5469 41.4101 54.4851 41.0599 54.35C39.1799 53.73 36.8299 51.35 36.0599 47.73L33.4799 48.02C34.2299 51.83 36.8399 55.09 39.9399 56.12C40.6157 56.3519 41.3254 56.4701 42.0399 56.47C42.9369 56.4731 43.8227 56.2713 44.6299 55.88C48.4599 54.07 48.2999 47.19 47.2099 44.66Z" fill="white"/>
</g>
<defs>
<clipPath id="clip0_9405_1054">
<rect width="79.79" height="62.78" fill="white"/>
</clipPath>
</defs>
</svg>
