<svg width="33" height="33" viewBox="0 0 33 33" fill="none" xmlns="http://www.w3.org/2000/svg">
<g clip-path="url(#clip0_222_29)">
<path d="M32.74 17.42C32.74 25.88 23.74 32.12 15.31 32.12C11.2495 32.12 7.35539 30.507 4.48421 27.6358C1.61303 24.7646 0 20.8705 0 16.81C0 8.35 6.86001 0 15.32 0C23.78 0 32.74 8.97 32.74 17.42Z" fill="#FE624C"/>
<path d="M11.57 12.23C10.6836 11.9015 9.96362 11.2349 9.56806 10.3763C9.1725 9.51767 9.13364 8.53723 9.46 7.65001C9.78611 6.73071 10.4515 5.971 11.3199 5.52661C12.1882 5.08223 13.1936 4.98684 14.13 5.26001C15.0699 5.69105 15.8246 6.44423 16.2574 7.38332C16.6903 8.3224 16.7728 9.3854 16.49 10.38C15.8 12.28 13.33 12.88 11.57 12.23ZM13.8 6.23001C13.1055 6.04561 12.3669 6.12945 11.7314 6.46483C11.0958 6.80022 10.6098 7.36257 10.37 8.04001C10.134 8.68324 10.1626 9.39376 10.4493 10.016C10.7361 10.6383 11.2577 11.1215 11.9 11.36C13.24 11.86 15.1 11.42 15.58 10.1C15.7912 9.3416 15.7286 8.53305 15.4031 7.81623C15.0776 7.0994 14.51 6.52011 13.8 6.18001V6.23001Z" fill="white"/>
<path d="M18.27 26.8C17.3854 26.4695 16.6677 25.8021 16.2742 24.9437C15.8806 24.0853 15.8431 23.1059 16.17 22.22C16.4982 21.2999 17.1655 20.54 18.0355 20.0958C18.9054 19.6515 19.9123 19.5564 20.85 19.83C21.7908 20.2595 22.5459 21.013 22.9773 21.9529C23.4087 22.8929 23.4878 23.9566 23.2 24.95C22.5 26.86 20.04 27.45 18.27 26.8ZM20.51 20.75C19.8225 20.5796 19.0962 20.6704 18.4718 21.0047C17.8474 21.3391 17.3692 21.8933 17.13 22.56C16.894 23.2032 16.9226 23.9137 17.2093 24.536C17.4961 25.1582 18.0177 25.6415 18.66 25.88C19.99 26.38 21.85 25.94 22.34 24.62C22.5345 23.8628 22.458 23.0613 22.1238 22.3546C21.7896 21.6478 21.2187 21.0802 20.51 20.75Z" fill="white"/>
<path d="M6.12999 24.24L5.51999 23.48C8.98999 20.67 12.6 18.25 16.42 15.68C19.77 13.42 23.23 11.09 26.67 8.44L27.26 9.20999C23.8 11.88 20.32 14.21 16.96 16.48C13.13 19.04 9.54999 21.46 6.12999 24.24Z" fill="white"/>
</g>
<defs>
<clipPath id="clip0_222_29">
<rect width="32.74" height="32.12" fill="white"/>
</clipPath>
</defs>
</svg>
