<svg width="49" height="37" viewBox="0 0 49 37" fill="none" xmlns="http://www.w3.org/2000/svg">
<g clip-path="url(#clip0_222_3)">
<path d="M24.09 35.46C17.18 35.46 11.55 29.31 11.55 21.75C11.55 14.19 17.18 8.03003 24.09 8.03003C31 8.03003 36.64 14.19 36.64 21.75C36.64 29.31 31.01 35.46 24.09 35.46ZM24.09 9.57001C18.02 9.57001 13.09 15.03 13.09 21.75C13.09 28.47 18.03 33.93 24.09 33.93C30.15 33.93 35.09 28.47 35.09 21.75C35.09 15.03 30.16 9.54001 24.09 9.54001V9.57001Z" fill="#FE624C"/>
<path d="M24.09 36.26C13.55 36.26 3.93001 30.54 0.0900116 22.03L-0.0499878 21.72L0.0900116 21.41C3.88001 12.89 13.5 7.16998 24.09 7.16998C34.68 7.16998 44.26 12.89 48.09 21.41L48.23 21.72L48.09 22.03C44.26 30.54 34.63 36.26 24.09 36.26ZM1.68001 21.72C5.32001 29.52 14.28 34.72 24.09 34.72C33.9 34.72 42.86 29.51 46.51 21.72C42.86 13.92 33.91 8.72 24.09 8.72C14.27 8.72 5.32001 13.92 1.68001 21.72Z" fill="#FE624C"/>
<path d="M31.3 26.54C33.81 18.96 32.53 15.54 27.3 12.54C24.76 11.08 18.52 13.24 16.73 15.72C14.17 19.26 16.43 27.35 19.65 30.17C21.92 32.16 29.5 31.98 31.3 26.54Z" fill="#FE624C"/>
<path d="M4.85997 5.92987L3.71655 6.94647L8.88596 12.7607L10.0294 11.7441L4.85997 5.92987Z" fill="#FE624C"/>
<path d="M14.6784 0.316852L13.2892 0.957886L17.1647 9.35686L18.554 8.71582L14.6784 0.316852Z" fill="#FE624C"/>
<path d="M45.0614 7.24303L39.8991 13.0636L41.0438 14.0788L46.2061 8.25823L45.0614 7.24303Z" fill="#FE624C"/>
<path d="M35.2502 1.64984L32.0753 8.92743L33.4776 9.53923L36.6526 2.26164L35.2502 1.64984Z" fill="#FE624C"/>
<path d="M25.08 0H23.55V7.75H25.08V0Z" fill="#FE624C"/>
</g>
<defs>
<clipPath id="clip0_222_3">
<rect width="48.19" height="36.26" fill="white"/>
</clipPath>
</defs>
</svg>
