<svg width="80" height="85" viewBox="0 0 80 85" fill="none" xmlns="http://www.w3.org/2000/svg">
<g clip-path="url(#clip0_9405_1255)">
<path d="M64.75 15.4564L20.2671 34.983L34.9623 68.4596L79.4452 48.933L64.75 15.4564Z" fill="#FE624C"/>
<g style="mix-blend-mode:multiply" opacity="0.5">
<path d="M34.21 66.7L75.28 47.46L71.97 31.84L79.46 48.9L34.97 68.43L34.21 66.7Z" fill="#FE624C"/>
</g>
<path d="M64.5357 7.10804L14.2842 29.1669L17.6646 36.8677L67.9161 14.8088L64.5357 7.10804Z" fill="#FE624C"/>
<g style="mix-blend-mode:multiply" opacity="0.5">
<path d="M17.6698 36.85L67.9198 14.79L66.7498 12.13L16.5698 34.33L17.6698 36.85Z" fill="#FE624C"/>
</g>
<path d="M42.0788 16.9731L36.7222 19.3245L54.5204 59.87L59.877 57.5186L42.0788 16.9731Z" fill="#FFBAAF"/>
<path d="M42.0977 16.9314L40.2573 17.7396L58.0626 58.2821L59.903 57.4738L42.0977 16.9314Z" fill="#FFA192"/>
<path d="M69.6016 26.4962L25.1187 46.0228L27.47 51.3795L71.953 31.8528L69.6016 26.4962Z" fill="#FFBAAF"/>
<path d="M23.0098 18.91L24.3298 10.81L35.4898 14.72L25.6498 3.67L31.5798 0L37.1598 12.7L36.3598 2.44L41.5598 2.92L40.2698 11.34L45.4398 2.14L50.7698 5.85L43.2698 12.35L52.3198 9.38L52.6198 12.96L42.0098 17.62L26.8898 24.26L26.3198 21.79L31.5798 19.48L23.0098 18.91Z" fill="#FFA192"/>
<path d="M27.4802 51.37L71.9702 31.84L70.9002 29.41L26.6602 49.49L27.4802 51.37Z" fill="#FFA192"/>
<path d="M21.1136 50.8208L4.60889 68.6693L22.0242 84.7735L38.529 66.925L21.1136 50.8208Z" fill="#FE624C"/>
<g style="mix-blend-mode:multiply" opacity="0.3">
<path d="M21.1202 50.84L19.9502 52.1L35.1902 67.12L20.9802 83.82L22.0302 84.79L38.5302 66.94L21.1202 50.84Z" fill="#FE624C"/>
</g>
<path d="M28.2101 57.4L21.4501 64.71L14.3501 58.15L15.4301 56.99C15.4301 56.99 18.0101 48.57 16.1101 46.9C14.4901 45.48 8.96009 48.31 8.22009 50.32C7.48009 52.33 10.9801 57.26 12.3401 59.08C10.4201 57.86 5.2201 54.77 3.2901 55.65C1.3601 56.53 -1.0499 62.29 0.490098 63.79C2.3001 65.55 10.4901 62.32 10.4901 62.32L11.3601 61.38L18.4601 67.94L11.7101 75.3L14.9301 78.3L21.6901 70.99L28.7901 77.55L31.7901 74.33L24.6901 67.76L31.4501 60.45L28.2101 57.4Z" fill="#FFA192"/>
</g>
<defs>
<clipPath id="clip0_9405_1255">
<rect width="79.46" height="84.79" fill="white"/>
</clipPath>
</defs>
</svg>
