<svg width="68" height="82" viewBox="0 0 68 82" fill="none" xmlns="http://www.w3.org/2000/svg">
<g clip-path="url(#clip0_222_19)">
<path d="M13.62 80.61C13.2876 80.6463 12.9523 80.6463 12.62 80.61L12.67 80.27C13.74 80.41 14.43 80.27 14.67 79.7L14.99 79.84C14.8552 80.0825 14.6558 80.2828 14.4139 80.4188C14.172 80.5547 13.8972 80.6209 13.62 80.61ZM0.259995 81.35L0 81.13C0.54 80.48 1.09 79.87 1.64 79.32L1.89 79.57C1.34 80.11 0.799995 80.71 0.259995 81.35ZM10.26 79.94C9.48952 79.6548 8.73799 79.3208 8.00999 78.94L8.17 78.64C8.88406 79.0212 9.62229 79.3552 10.38 79.64L10.26 79.94ZM14.26 77.52C13.8354 76.8627 13.2364 76.3365 12.53 76L12.68 75.69C13.4446 76.0548 14.0948 76.622 14.56 77.33L14.26 77.52ZM3.68999 77.97L3.48 77.7C3.9921 77.2938 4.53358 76.9262 5.09999 76.6C4.89621 76.2604 4.72543 75.9021 4.59 75.53L4.92 75.41C5.0441 75.7594 5.205 76.0946 5.39999 76.41L5.53 76.34L5.7 76.65L5.59 76.7C5.67 76.82 5.76 76.92 5.84 77.02C5.94265 77.134 6.05291 77.2409 6.17 77.34L5.95 77.61C5.81958 77.4975 5.69602 77.3773 5.57999 77.25C5.47999 77.13 5.37999 77.01 5.28999 76.88C4.73374 77.2085 4.19929 77.5726 3.68999 77.97ZM7.92999 75.75L7.84 75.41C8.63719 75.1878 9.46258 75.0834 10.29 75.1V75.45C9.49263 75.4291 8.69676 75.5302 7.92999 75.75ZM22.17 72.09C21.9236 72.1052 21.6764 72.1052 21.43 72.09V71.74C21.6629 71.76 21.8971 71.76 22.13 71.74C22.369 71.6702 22.5919 71.5539 22.7858 71.3978C22.9797 71.2416 23.1409 71.0486 23.26 70.83L23.58 70.96C23.4423 71.2271 23.2515 71.4633 23.0194 71.6541C22.7873 71.845 22.5187 71.9865 22.23 72.07L22.17 72.09ZM4.53999 73.09H4.18999C4.17478 72.2673 4.25194 71.4455 4.42 70.64L4.75 70.7C4.58372 71.4822 4.50324 72.2803 4.50999 73.08L4.53999 73.09ZM19.03 71.5C18.2717 71.1773 17.548 70.7786 16.87 70.31L17.07 70.02C17.7244 70.4783 18.4249 70.867 19.16 71.18L19.03 71.5ZM22.8 68.74C22.3318 68.0939 21.7842 67.5093 21.17 67L21.4 66.74C22.0392 67.2678 22.6073 67.8762 23.09 68.55L22.8 68.74ZM14.97 68.74C14.3768 68.1733 13.8285 67.5615 13.33 66.91L13.6 66.7C14.0911 67.3361 14.6293 67.9344 15.21 68.49L14.97 68.74ZM5.45 68.4L5.12999 68.27C5.44011 67.5083 5.82889 66.781 6.28999 66.1L6.57999 66.29C6.11994 66.954 5.73114 67.6646 5.42 68.41L5.45 68.4ZM19.23 65.57C18.5508 65.138 17.8424 64.7537 17.11 64.42L17.26 64.11C18.0026 64.4531 18.7239 64.8404 19.42 65.27L19.23 65.57ZM30.16 63.57C29.4632 63.5964 28.7721 63.434 28.16 63.1L28.31 62.79C28.8729 63.0979 29.509 63.2465 30.15 63.22H30.2H30.55L30.61 63.56L30.24 63.61L30.16 63.57ZM11.93 64.87C11.5348 64.1491 11.2003 63.3965 10.93 62.62L11.26 62.5C11.5263 63.262 11.861 63.9983 12.26 64.7L11.93 64.87ZM8.09 64.51L7.92999 64.25C8.38799 63.848 8.89953 63.5115 9.45 63.25C9.65796 63.1564 9.87174 63.0762 10.09 63.01L10.19 63.35C9.98429 63.4068 9.78362 63.4803 9.59 63.57C9.05239 63.8075 8.55348 64.1243 8.10999 64.51H8.09ZM14.81 63.58C14.0448 63.3491 13.2569 63.2016 12.46 63.14V62.79C13.2972 62.8559 14.1252 63.0101 14.93 63.25L14.81 63.58ZM32.45 62.01L32.12 61.93C32.1514 61.6944 32.1514 61.4556 32.12 61.22C32.0612 60.6869 31.9265 60.165 31.72 59.67L32.04 59.54C32.2628 60.0655 32.4044 60.6219 32.46 61.19C32.5096 61.4608 32.5129 61.7381 32.47 62.01H32.45ZM26.09 61.7C25.4945 61.1372 24.9367 60.5359 24.42 59.9L24.69 59.68C25.1967 60.3058 25.7445 60.8972 26.33 61.45L26.09 61.7ZM10.4 60.25C10.4 60.03 10.34 59.81 10.33 59.59C10.28 58.991 10.28 58.389 10.33 57.79H10.68C10.635 58.3691 10.635 58.9509 10.68 59.53C10.68 59.75 10.68 59.96 10.75 60.17L10.4 60.25ZM30.67 57.57C30.28 56.93 29.82 56.27 29.3 55.57L29.58 55.37C30.1 56.06 30.58 56.74 30.97 57.37L30.67 57.57ZM22.97 57.97C22.44 57.21 21.97 56.51 21.64 55.97L21.93 55.78C22.29 56.36 22.73 57.05 23.26 57.78L22.97 57.97ZM11.12 55.46L10.79 55.37C11.0173 54.5803 11.3256 53.8163 11.71 53.09L12.02 53.26C11.6501 53.9523 11.3487 54.6791 11.12 55.43V55.46ZM27.78 53.69C27.22 53.05 26.66 52.44 26.13 51.92L26.38 51.67C26.91 52.2 27.48 52.82 28.04 53.46L27.78 53.69ZM20.4 53.82C20.01 53.1 19.64 52.37 19.3 51.64L19.61 51.49C19.95 52.21 20.32 52.94 20.71 53.65L20.4 53.82ZM13.4 51.31L13.14 51.07C13.699 50.4603 14.3462 49.9379 15.06 49.52L15.24 49.82C14.5556 50.2019 13.932 50.6839 13.39 51.25L13.4 51.31ZM24.29 50.41C23.6053 50.0051 22.8817 49.6701 22.13 49.41L22.25 49.09C23.0251 49.3687 23.7691 49.7273 24.47 50.16L24.29 50.41ZM18.35 49.41C18.29 49.24 18.22 49.06 18.15 48.88C17.92 48.88 17.68 48.94 17.44 48.99L17.38 48.65L18.03 48.54C17.86 48.06 17.71 47.54 17.57 47.1L17.9 47C18.05 47.5 18.21 48 18.39 48.51C18.8758 48.4701 19.3641 48.4701 19.85 48.51V48.86C19.4174 48.8251 18.9826 48.8251 18.55 48.86L18.72 49.3L18.35 49.41ZM35.71 46.54L35.42 46.23L34.02 44.78L34.27 44.54L35.67 45.99L35.96 46.3L35.71 46.54ZM16.93 44.67C16.7659 43.8709 16.649 43.0628 16.58 42.25H16.92C16.9947 43.0522 17.1115 43.85 17.27 44.64L16.93 44.67ZM32.26 43.01C31.66 42.42 31.06 41.85 30.5 41.33L30.73 41.08C31.3 41.6 31.9 42.17 32.5 42.76L32.26 43.01ZM28.68 39.72C28.04 39.16 27.4 38.65 26.8 38.19L27.02 37.91C27.62 38.38 28.26 38.91 28.91 39.45L28.68 39.72ZM16.86 39.82H16.52C16.5426 38.9966 16.6566 38.1782 16.86 37.38L17.19 37.47C17.0191 38.2417 16.932 39.0296 16.93 39.82H16.86ZM24.86 36.82C24.1908 36.3741 23.4888 35.9796 22.76 35.64L22.93 35.25C23.6711 35.6021 24.3862 36.0065 25.07 36.46L24.86 36.82ZM18.35 35.49L18.13 35.23C18.4631 34.9585 18.8507 34.7617 19.2665 34.653C19.6823 34.5444 20.1166 34.5263 20.54 34.6V34.94C20.1605 34.8681 19.7701 34.8773 19.3944 34.9669C19.0187 35.0565 18.6662 35.2246 18.36 35.46L18.35 35.49Z" fill="#CF331D"/>
<path d="M58.63 24.35C53.18 29.17 47.63 33.89 42.19 38.66C42.36 42.46 42.66 46.24 43.19 49.97L43.4 49.82C49.47 45.36 59.17 27.54 58.63 24.35Z" fill="#CF331D"/>
<path d="M43.72 10.9C39.39 16.74 35.18 22.65 30.91 28.52C27.1 28.68 23.31 28.72 19.55 28.52L19.69 28.29C23.6 21.86 40.5 10.64 43.72 10.9Z" fill="#CF331D"/>
<path d="M67.52 0.250008C64.76 -0.399992 60.86 0.390005 57.18 1.70001L66.93 10.75C67.86 6.80001 68.25 2.77001 67.52 0.250008Z" fill="#CF331D"/>
<path d="M65.24 16.35C65.9265 14.5287 66.4944 12.6648 66.94 10.77L57.21 1.70001C55.6373 2.25758 54.0981 2.90533 52.6 3.64001C41.17 9.75002 34.89 16.76 29.6 28.64L42.11 40.25C53.54 34.14 59.93 28.18 65.24 16.35Z" fill="#FE624C"/>
<path d="M54.07 17.5C55.3131 18.0728 56.7324 18.1303 58.0178 17.66C59.3031 17.1897 60.3501 16.2298 60.93 14.99C61.4801 13.6967 61.5014 12.2393 60.9891 10.9306C60.4768 9.6219 59.4719 8.56616 58.19 7.99C56.9354 7.39634 55.4975 7.32058 54.1874 7.7791C52.8774 8.23761 51.8006 9.19354 51.19 10.44C50.6647 11.7609 50.6711 13.2339 51.2081 14.5501C51.745 15.8663 52.7707 16.9235 54.07 17.5Z" fill="#FFF5F3"/>
<path opacity="0.7" d="M57.43 9.34001C55.77 8.57001 54.89 8.59001 53.91 9.20001C53.43 9.50001 53.61 10.53 54.1 10.92C55.2124 11.4667 56.4882 11.5808 57.68 11.24C58.27 11.01 58.62 9.88001 57.43 9.34001Z" fill="white"/>
<path d="M29.6 28.6L42.29 40.17L40.76 43.33L27.01 30.44L29.6 28.6Z" fill="#FFF5F3"/>
<path d="M49.4 19.53L37.43 38.74L29.52 41.4L31.75 33.67L49.4 19.53Z" fill="#CF331D"/>
</g>
<defs>
<clipPath id="clip0_222_19">
<rect width="67.9" height="81.36" fill="white"/>
</clipPath>
</defs>
</svg>
