<svg width="83" height="77" viewBox="0 0 83 77" fill="none" xmlns="http://www.w3.org/2000/svg">
<g clip-path="url(#clip0_222_183)">
<path d="M41.4465 41.4377V58.158C41.4465 58.4565 41.5651 58.7428 41.7762 58.9539C41.9873 59.165 42.2736 59.2836 42.5722 59.2836L66.9032 59.2329C67.1959 59.233 67.4773 59.1191 67.6874 58.9153C67.8976 58.7114 68.02 58.4337 68.0288 58.1411V41.449L41.4465 41.4377Z" fill="#FE624C"/>
<path d="M60.1155 33.7951C61.9099 33.8659 63.7058 33.6994 65.4567 33.2999C66.1904 33.1027 66.8878 32.7892 67.5223 32.3713C68.5261 31.6699 69.2665 30.6528 69.6255 29.482C69.9845 28.3113 69.9415 27.0541 69.5034 25.9105C69.08 24.9153 68.375 24.0656 67.4751 23.4656C66.5752 22.8657 65.5195 22.5419 64.438 22.5338C64.1589 22.5382 63.8805 22.5626 63.605 22.607C61.8715 22.8996 60.4419 23.9633 59.2149 25.1845C59.3452 24.7715 59.4486 24.3504 59.5245 23.9239C59.6447 23.251 59.6561 22.5632 59.5583 21.8866C59.3852 20.7886 58.842 19.7827 58.0186 19.0358C57.1953 18.2889 56.1414 17.8459 55.0317 17.7802C53.922 17.7145 52.8231 18.0301 51.9174 18.6746C51.0117 19.3191 50.3536 20.2539 50.0521 21.3239C49.745 22.5943 49.8075 23.926 50.2322 25.162C49.0109 23.9577 47.5926 22.9109 45.8759 22.6295C45.6006 22.5844 45.322 22.5619 45.043 22.562C43.9614 22.57 42.9058 22.8939 42.0058 23.4938C41.1059 24.0937 40.4009 24.9435 39.9775 25.9387C39.5337 27.0895 39.4906 28.3562 39.8552 29.5346C40.2197 30.7129 40.9707 31.734 41.9868 32.4332C42.6225 32.8463 43.3197 33.1559 44.0524 33.3505C45.8052 33.7492 47.6034 33.9119 49.3992 33.8345L60.1155 33.7951ZM58.1962 30.3059C58.3988 30.0132 58.6352 29.6756 58.6915 29.608L59.2149 28.9777C60.5488 27.385 62.2035 25.3984 64.0271 25.0889C64.1629 25.0662 64.3003 25.0549 64.438 25.0551C65.0578 25.0355 65.6672 25.2179 66.1743 25.5748C66.6814 25.9318 67.0587 26.444 67.2493 27.0341C67.4399 27.6242 67.4334 28.2602 67.2309 28.8463C67.0283 29.4324 66.6407 29.9368 66.1264 30.2834C65.7139 30.5395 65.2638 30.7294 64.7925 30.8461C63.2591 31.1798 61.689 31.3141 60.1211 31.2457H59.1643C58.6015 31.2457 58.0386 31.2457 57.5208 31.2457L58.1962 30.3059ZM51.2903 31.3076H49.3992C47.8319 31.3767 46.2622 31.2462 44.7278 30.9193C44.2557 30.8049 43.8053 30.6148 43.3939 30.3565C42.8798 30.0124 42.4912 29.5108 42.2865 28.9271C42.0818 28.3433 42.0719 27.7089 42.2584 27.1191C42.4448 26.5293 42.8176 26.0158 43.3207 25.6559C43.8238 25.2959 44.4301 25.1088 45.0486 25.1226C45.1863 25.1225 45.3237 25.1338 45.4595 25.1564C47.283 25.4603 48.9433 27.4413 50.2829 29.0284C50.463 29.2478 50.6375 29.4561 50.8063 29.6474C50.8682 29.7262 51.099 30.0582 51.3072 30.3565C51.5155 30.6548 51.7913 31.0431 51.9995 31.3301L51.2903 31.3076ZM54.0538 27.824L53.7555 27.1712C53.0013 25.5447 52.067 23.5187 52.4779 22.0161C52.6388 21.5337 52.9445 21.1128 53.3535 20.8106C53.7624 20.5085 54.2546 20.3398 54.763 20.3277H54.8868C55.4149 20.3782 55.9126 20.5977 56.3061 20.9535C56.6995 21.3094 56.9676 21.7827 57.0706 22.3031C57.1258 22.7112 57.1144 23.1255 57.0368 23.53C56.7318 24.8555 56.257 26.136 55.6241 27.34L55.2695 28.1054C55.1063 28.4656 54.9487 28.8089 54.7911 29.1353L54.4197 28.4825C54.217 28.1448 54.0988 27.9309 54.0538 27.8127V27.824Z" fill="#FE624C"/>
<path d="M57.193 35.3411L52.3133 35.3462L52.3383 59.2419L57.218 59.2368L57.193 35.3411Z" fill="white"/>
<g style="mix-blend-mode:multiply" opacity="0.51">
<path d="M68.0738 41.4377H41.4521V45.3772H68.0738V41.4377Z" fill="#FE624C"/>
</g>
<path d="M68.0907 51.5678L68.0851 47.0712L41.4578 47.0543V51.5678H68.0907Z" fill="white"/>
<path d="M39.6342 35.506C39.6342 36.7891 39.6342 38.6182 39.6342 39.9013C39.6349 40.0915 39.6733 40.2796 39.7471 40.4549C39.8209 40.6301 39.9287 40.789 40.0642 40.9225C40.1997 41.0559 40.3603 41.1611 40.5367 41.2322C40.7131 41.3032 40.9018 41.3387 41.0919 41.3364H68.4228C68.8099 41.3349 69.1807 41.1801 69.4539 40.9059C69.7271 40.6316 69.8805 40.2603 69.8805 39.8732V35.506C69.8792 35.3183 69.84 35.1329 69.7653 34.9607C69.6907 34.7885 69.5821 34.6331 69.446 34.5039C69.3099 34.3747 69.1492 34.2742 68.9733 34.2085C68.7975 34.1428 68.6103 34.1132 68.4228 34.1216H41.0919C40.9044 34.1132 40.7172 34.1428 40.5414 34.2085C40.3656 34.2742 40.2048 34.3747 40.0687 34.5039C39.9326 34.6331 39.824 34.7885 39.7494 34.9607C39.6747 35.1329 39.6355 35.3183 39.6342 35.506Z" fill="#FFBAAF"/>
<path d="M22.0998 51.2791L17.1071 56.1068L20.8201 59.9461L25.8128 55.1184L22.0998 51.2791Z" fill="white"/>
<path d="M45.4764 32.3994C43.3245 30.1739 40.561 28.6364 37.5353 27.9814C34.5095 27.3264 31.3575 27.5833 28.4778 28.7196C25.598 29.8559 23.12 31.8206 21.357 34.3653C19.5941 36.9099 18.6253 39.9202 18.5734 43.0153C18.5214 46.1105 19.3886 49.1515 21.0651 51.7539C22.7417 54.3563 25.1524 56.403 27.9924 57.6354C30.8323 58.8677 33.974 59.2302 37.02 58.6771C40.066 58.124 42.8796 56.6802 45.1049 54.5281C48.0871 51.6419 49.8014 47.69 49.871 43.5406C49.9407 39.3913 48.36 35.384 45.4764 32.3994ZM42.6003 51.9393C40.8868 53.5953 38.7206 54.7061 36.3758 55.1312C34.0309 55.5563 31.6126 55.2766 29.4267 54.3276C27.2408 53.3785 25.3854 51.8027 24.0951 49.7993C22.8048 47.7959 22.1375 45.4549 22.1776 43.0724C22.2178 40.6898 22.9635 38.3726 24.3206 36.4138C25.6776 34.455 27.585 32.9425 29.8017 32.0676C32.0183 31.1927 34.4446 30.9947 36.7738 31.4985C39.103 32.0023 41.2306 33.1854 42.8874 34.8982C45.1057 37.1979 46.3213 40.2834 46.2675 43.4781C46.2136 46.6727 44.8948 49.7156 42.6003 51.9393Z" fill="#303030"/>
<path d="M24.269 36.4796C26.0018 33.9288 28.6466 32.1393 31.659 31.4796C34.6714 30.8199 37.8221 31.3401 40.4625 32.9332C43.1029 34.5262 45.032 37.0709 45.8527 40.0433C46.6734 43.0156 46.3231 46.1895 44.8741 48.9115C45.7939 47.5575 46.4281 46.0303 46.7381 44.423C47.0481 42.8158 47.0273 41.1623 46.6771 39.5634C46.3269 37.9644 45.6545 36.4536 44.7011 35.1231C43.7476 33.7926 42.533 32.6703 41.1314 31.8246C39.7299 30.979 38.1707 30.4278 36.549 30.2046C34.9273 29.9815 33.2772 30.091 31.6992 30.5266C30.1213 30.9622 28.6487 31.7147 27.3712 32.7382C26.0937 33.7617 25.0382 35.0347 24.269 36.4796Z" fill="#FE624C"/>
<path d="M45.1049 54.5281C46.2616 53.4107 47.2393 52.1218 48.0035 50.7068C47.3676 51.6705 46.6298 52.563 45.8028 53.3687C43.1159 55.9628 39.5901 57.511 35.8618 57.734C32.1335 57.9569 28.4484 56.84 25.4714 54.5846C22.4944 52.3293 20.4217 49.0842 19.6274 45.435C18.8331 41.7858 19.3695 37.9728 21.1397 34.6843C19.0224 37.9041 18.1674 41.7918 18.7386 45.6027C19.3097 49.4137 21.2668 52.88 24.235 55.3377C27.2032 57.7955 30.9738 59.0719 34.8247 58.9225C38.6756 58.7731 42.336 57.2084 45.1049 54.5281Z" fill="#FE624C"/>
<path d="M1.08062 70.3929C0.745716 70.7166 0.47787 71.103 0.292374 71.5302C0.106877 71.9574 0.00736575 72.417 -0.000474163 72.8826C-0.00831408 73.3483 0.0756705 73.8109 0.246681 74.2441C0.417692 74.6773 0.672381 75.0726 0.996195 75.4073C1.6497 76.0819 2.54418 76.4697 3.48331 76.4855C4.42244 76.5013 5.32948 76.1439 6.00535 75.4917L21.2017 60.8256C21.5364 60.5024 21.8041 60.1165 21.9895 59.6897C22.175 59.263 22.2744 58.8039 22.2823 58.3387C22.2901 57.8735 22.2062 57.4114 22.0352 56.9786C21.8643 56.5459 21.6097 56.1511 21.2861 55.8168C20.9629 55.4821 20.5769 55.2144 20.1501 55.029C19.7234 54.8436 19.2642 54.7442 18.799 54.7363C18.3338 54.7285 17.8716 54.8124 17.4388 54.9833C17.006 55.1543 16.6112 55.4088 16.2769 55.7324L1.08062 70.3929Z" fill="#FE624C"/>
<mask id="mask0_222_183" style="mask-type:luminance" maskUnits="userSpaceOnUse" x="22" y="31" width="25" height="25">
<path d="M42.6003 51.9393C40.8868 53.5953 38.7206 54.7061 36.3758 55.1312C34.0309 55.5563 31.6126 55.2766 29.4267 54.3276C27.2408 53.3785 25.3854 51.8027 24.0951 49.7993C22.8048 47.7959 22.1375 45.4549 22.1776 43.0724C22.2177 40.6898 22.9635 38.3726 24.3205 36.4138C25.6776 34.455 27.585 32.9425 29.8017 32.0676C32.0183 31.1927 34.4446 30.9947 36.7738 31.4985C39.103 32.0023 41.2305 33.1854 42.8874 34.8982C45.1057 37.1979 46.3213 40.2834 46.2674 43.4781C46.2136 46.6727 44.8948 49.7156 42.6003 51.9393Z" fill="white"/>
</mask>
<g mask="url(#mask0_222_183)">
<path d="M30.0493 43.6889L30.0887 74.8671C30.0887 75.4328 30.3135 75.9753 30.7135 76.3753C31.1135 76.7753 31.6561 77 32.2218 77L77.3999 76.9437C77.9657 76.9378 78.5062 76.7085 78.9036 76.3058C79.3011 75.9031 79.5233 75.3597 79.5218 74.7939L79.4767 43.6889H30.0493Z" fill="#FE624C"/>
<g style="mix-blend-mode:multiply" opacity="0.51">
<path d="M79.4824 43.6889H30.0493V51.0051H79.4824V43.6889Z" fill="#FE624C"/>
</g>
<path d="M79.5105 62.8235L79.4992 54.438L30.0605 54.4268L30.0662 62.8235H79.5105Z" fill="white"/>
<path d="M26.83 32.8496C26.83 35.2358 26.83 38.6801 26.83 41.0663C26.8329 41.7817 27.1197 42.4668 27.6272 42.9711C28.1347 43.4755 28.8216 43.7579 29.5371 43.7564H80.2816C80.6376 43.7564 80.9901 43.6862 81.3189 43.5498C81.6477 43.4134 81.9464 43.2135 82.1978 42.9615C82.4493 42.7096 82.6486 42.4105 82.7843 42.0814C82.92 41.7523 82.9895 41.3997 82.9888 41.0438V32.8496C82.9873 32.4969 82.9162 32.1479 82.7795 31.8227C82.6428 31.4975 82.4432 31.2026 82.1922 30.9547C81.9412 30.7068 81.6437 30.511 81.3168 30.3784C80.9898 30.2458 80.64 30.1791 80.2872 30.1821H29.5428C29.1889 30.1768 28.8375 30.2419 28.5089 30.3736C28.1804 30.5052 27.8812 30.7008 27.6289 30.949C27.3765 31.1971 27.1759 31.4929 27.0388 31.8192C26.9016 32.1455 26.8307 32.4957 26.83 32.8496Z" fill="#FFBAAF"/>
<path d="M34.2367 40.875C33.9382 40.875 33.6519 40.7564 33.4408 40.5453C33.2297 40.3342 33.1111 40.0479 33.1111 39.7494V30.7449C33.1111 30.4463 33.2297 30.16 33.4408 29.949C33.6519 29.7379 33.9382 29.6193 34.2367 29.6193C34.5353 29.6193 34.8216 29.7379 35.0327 29.949C35.2438 30.16 35.3624 30.4463 35.3624 30.7449V39.7494C35.3624 40.0479 35.2438 40.3342 35.0327 40.5453C34.8216 40.7564 34.5353 40.875 34.2367 40.875ZM34.2367 30.1821C34.0875 30.1821 33.9443 30.2414 33.8388 30.3469C33.7332 30.4525 33.6739 30.5956 33.6739 30.7449V39.7494C33.6739 39.8986 33.7332 40.0418 33.8388 40.1473C33.9443 40.2529 34.0875 40.3122 34.2367 40.3122C34.386 40.3122 34.5292 40.2529 34.6347 40.1473C34.7403 40.0418 34.7996 39.8986 34.7996 39.7494V30.7449C34.7996 30.5956 34.7403 30.4525 34.6347 30.3469C34.5292 30.2414 34.386 30.1821 34.2367 30.1821Z" fill="white"/>
<path d="M34.7996 38.9277L31.4226 41.9048V52.6934H38.1765V41.9048L34.7996 38.9277ZM34.7996 41.5953C34.627 41.5953 34.4584 41.5441 34.3149 41.4483C34.1714 41.3524 34.0596 41.2162 33.9936 41.0568C33.9276 40.8974 33.9103 40.722 33.9439 40.5528C33.9776 40.3836 34.0607 40.2282 34.1827 40.1062C34.3047 39.9842 34.4602 39.9011 34.6294 39.8674C34.7986 39.8338 34.974 39.851 35.1334 39.9171C35.2928 39.9831 35.4291 40.0949 35.5249 40.2383C35.6208 40.3818 35.6719 40.5505 35.6719 40.723C35.6719 40.9543 35.58 41.1762 35.4164 41.3398C35.2528 41.5034 35.0309 41.5953 34.7996 41.5953Z" fill="white"/>
</g>
</g>
<defs>
<clipPath id="clip0_222_183">
<rect width="83" height="77" fill="white"/>
</clipPath>
</defs>
</svg>
