<svg width="46" height="49" viewBox="0 0 46 49" fill="none" xmlns="http://www.w3.org/2000/svg">
<g clip-path="url(#clip0_9405_1192)">
<path d="M0 22.5L13.61 38.12C13.61 38.12 15.96 30.18 27.68 25.86C39.4 21.54 39.43 15.62 39.43 15.62L25.82 0C25.82 0 24.5 5.31999 14.5 9.87C1.11 15.96 0 22.5 0 22.5Z" fill="#FE624C"/>
<g style="mix-blend-mode:multiply" opacity="0.5">
<path d="M34.2702 19.37C31.9943 21.2167 29.4071 22.6424 26.6302 23.58C23.1651 24.8077 19.9551 26.6618 17.1602 29.05C15.5144 30.4629 14.0857 32.1106 12.9202 33.94L2.74023 22.29C3.67845 20.5699 4.94182 19.0484 6.46021 17.81C9.24969 15.4854 12.358 13.5726 15.6902 12.13C18.5348 10.8922 21.1829 9.24478 23.5502 7.24001C24.6298 6.32144 25.5995 5.28121 26.4402 4.14001L36.8402 16.08C36.2533 17.3629 35.3729 18.4899 34.2702 19.37Z" fill="#FE624C"/>
</g>
<path d="M24.1299 15.57C24.858 16.4089 25.3212 17.4448 25.461 18.5469C25.6007 19.6489 25.4108 20.7676 24.915 21.7618C24.4193 22.7559 23.6401 23.5808 22.6758 24.1323C21.7116 24.6838 20.6055 24.9372 19.4973 24.8605C18.3891 24.7837 17.3285 24.3802 16.4494 23.701C15.5704 23.0218 14.9124 22.0973 14.5585 21.0444C14.2046 19.9914 14.1706 18.8572 14.461 17.7849C14.7514 16.7127 15.353 15.7505 16.1899 15.02C16.7463 14.5326 17.3936 14.16 18.0945 13.9237C18.7955 13.6874 19.5363 13.5921 20.2743 13.6432C21.0123 13.6943 21.7328 13.8908 22.3945 14.2215C23.0562 14.5522 23.646 15.0105 24.1299 15.57Z" fill="#FE624C"/>
<g style="mix-blend-mode:multiply" opacity="0.5">
<path d="M21.9999 22.49C21.7751 22.6689 21.5341 22.8262 21.2799 22.96C21.0933 23.0534 20.8948 23.1207 20.6899 23.16L20.2099 22.07C20.3685 22.0483 20.5234 22.0046 20.6699 21.94C20.873 21.8562 21.0673 21.7524 21.2499 21.63L19.7399 19.88C19.5299 19.88 19.3199 19.95 19.0999 19.97C18.8839 19.995 18.6658 19.995 18.4499 19.97C18.2275 19.9166 18.0125 19.836 17.8099 19.73C17.5644 19.5962 17.3471 19.4163 17.1699 19.2C16.8433 18.8663 16.648 18.4261 16.6199 17.96C16.616 17.5328 16.757 17.1168 17.0199 16.78L16.3799 16.06L17.1399 15.4L17.7499 16.09C17.918 15.9511 18.1028 15.8335 18.2999 15.74C18.4731 15.6562 18.6539 15.5892 18.8399 15.54L19.2999 16.59C19.1699 16.6229 19.0428 16.6664 18.9199 16.72C18.776 16.7893 18.6358 16.8661 18.4999 16.95L19.8599 18.52L20.5099 18.44C20.7325 18.415 20.9572 18.415 21.1799 18.44C21.4068 18.4907 21.6279 18.5644 21.8399 18.66C22.0742 18.7934 22.2838 18.9659 22.4599 19.17C22.8171 19.5394 23.0391 20.0187 23.0899 20.53C23.1067 20.9775 22.9729 21.4176 22.7099 21.78L23.3599 22.52L22.6099 23.17L21.9999 22.49ZM18.0699 17.29C17.9924 17.3556 17.932 17.439 17.8936 17.533C17.8553 17.6271 17.8403 17.7289 17.8499 17.83C17.8798 18.0017 17.952 18.1632 18.0599 18.3C18.1906 18.4535 18.3711 18.5561 18.5699 18.59C18.7822 18.6201 18.9976 18.6201 19.2099 18.59L18.0699 17.29ZM21.6699 21.24C21.8007 21.084 21.8653 20.883 21.8499 20.68C21.8173 20.4689 21.7244 20.2718 21.5825 20.1121C21.4406 19.9525 21.2557 19.8372 21.0499 19.78C20.834 19.755 20.6158 19.755 20.3999 19.78L21.6699 21.24Z" fill="#FE624C"/>
</g>
<path d="M30.0101 15.88C29.8505 16.0082 29.6798 16.122 29.5001 16.22C29.3728 16.28 29.2384 16.3237 29.1001 16.35L28.7601 15.6C28.8704 15.5848 28.9781 15.5546 29.0801 15.51C29.2258 15.4506 29.3635 15.3733 29.4901 15.28L28.4301 14.08C28.2901 14.08 28.1401 14.13 27.9901 14.14C27.8441 14.1601 27.6961 14.1601 27.5501 14.14C27.3926 14.1107 27.2407 14.0567 27.1001 13.98C26.9296 13.884 26.7772 13.7587 26.6501 13.61C26.4207 13.3766 26.2854 13.0668 26.2701 12.74C26.2633 12.4451 26.3627 12.1577 26.5501 11.93L26.1001 11.42L26.6301 10.97L27.0501 11.46C27.1655 11.3559 27.2973 11.2714 27.4401 11.21C27.56 11.1546 27.6836 11.1078 27.8101 11.07L28.1301 11.8L27.8601 11.89C27.7596 11.9339 27.6654 11.9911 27.5801 12.06L28.5201 13.14C28.6686 13.1102 28.8189 13.0901 28.9701 13.08C29.1231 13.0652 29.2771 13.0652 29.4301 13.08C29.5888 13.1117 29.7432 13.1621 29.8901 13.23C30.0559 13.3202 30.2021 13.4426 30.3201 13.59C30.5754 13.8399 30.7317 14.1738 30.7601 14.53C30.7718 14.8376 30.6803 15.1403 30.5001 15.39L30.9501 15.91L30.4201 16.37L30.0101 15.88ZM27.2701 12.28C27.22 12.3273 27.1807 12.3848 27.1548 12.4486C27.1289 12.5125 27.1171 12.5812 27.1201 12.65C27.1407 12.7711 27.1924 12.8848 27.2701 12.98C27.3602 13.085 27.4838 13.1557 27.6201 13.18C27.7661 13.2 27.9141 13.2 28.0601 13.18L27.2701 12.28ZM29.7801 15.02C29.8713 14.9112 29.9178 14.7718 29.9101 14.63C29.8823 14.4825 29.8169 14.3447 29.7201 14.23C29.6215 14.1193 29.493 14.0394 29.3501 14C29.1974 13.9803 29.0428 13.9803 28.8901 14L29.7801 15.02Z" fill="#FE624C"/>
<path d="M12.6498 27.16C12.5006 27.2945 12.3321 27.4057 12.1498 27.49C12.0186 27.5514 11.8811 27.5983 11.7398 27.63L11.3998 26.87C11.511 26.8597 11.6195 26.8292 11.7198 26.78C11.8662 26.7265 12.0043 26.6524 12.1298 26.56L11.1298 25.36L10.6798 25.42C10.5335 25.4347 10.3861 25.4347 10.2398 25.42C9.88898 25.3563 9.57293 25.1681 9.34979 24.89C9.12198 24.6586 8.98375 24.3538 8.95978 24.03C8.95578 23.7326 9.05472 23.4429 9.23981 23.21L8.7998 22.71L9.31979 22.25L9.73981 22.73C9.85853 22.633 9.98968 22.5522 10.1298 22.49C10.2506 22.4287 10.3781 22.3817 10.5098 22.35L10.8198 23.08C10.7282 23.0932 10.64 23.1238 10.5598 23.17C10.4582 23.2138 10.3611 23.2674 10.2698 23.33L11.2198 24.42C11.365 24.3902 11.5119 24.3702 11.6598 24.36C11.8158 24.3402 11.9737 24.3402 12.1298 24.36C12.2864 24.3872 12.4381 24.4378 12.5798 24.51C12.7489 24.5952 12.8987 24.7144 13.0198 24.86C13.2603 25.1202 13.414 25.4486 13.4598 25.8C13.4694 26.1089 13.3742 26.412 13.1898 26.66L13.6398 27.19L13.1198 27.64L12.6498 27.16ZM9.9198 23.56C9.86376 23.6047 9.82042 23.6633 9.7941 23.73C9.76778 23.7967 9.75941 23.8691 9.76981 23.94C9.78152 24.0578 9.83467 24.1677 9.9198 24.25C10.0028 24.3602 10.1241 24.4351 10.2598 24.46C10.4061 24.475 10.5535 24.475 10.6998 24.46L9.9198 23.56ZM12.4198 26.3C12.5084 26.1859 12.5544 26.0444 12.5498 25.9C12.5241 25.7548 12.4583 25.6197 12.3598 25.51C12.2661 25.3955 12.1351 25.3176 11.9898 25.29C11.8409 25.2648 11.6887 25.2648 11.5398 25.29L12.4198 26.3Z" fill="#FE624C"/>
<path d="M10.5098 26.62L11.4198 47.32C11.4198 47.32 18.1998 42.58 30.0698 46.5C41.9398 50.42 45.6298 45.82 45.6298 45.82L44.7298 25.12C44.7298 25.12 40.3798 28.46 29.7298 25.78C15.4598 22.19 10.5098 26.62 10.5098 26.62Z" fill="#FE624C"/>
<g style="mix-blend-mode:multiply" opacity="0.5">
<path d="M39.2598 45.53C36.3284 45.557 33.4158 45.0591 30.6598 44.06C27.1863 42.8609 23.5224 42.3085 19.8498 42.43C17.6808 42.5156 15.5355 42.9131 13.4798 43.61L12.7998 28.13C14.6089 27.3699 16.5477 26.9658 18.5098 26.94C22.1423 26.8783 25.7651 27.3329 29.2698 28.29C32.2631 29.1013 35.3599 29.4652 38.4598 29.37C39.8752 29.3207 41.2807 29.1128 42.6498 28.75L43.3498 44.57C42.0795 45.2032 40.6792 45.5319 39.2598 45.53Z" fill="#FE624C"/>
</g>
<path d="M33.7 36.23C33.7505 37.3432 33.4695 38.4463 32.8926 39.3997C32.3157 40.3531 31.4689 41.1138 30.4594 41.5856C29.4498 42.0574 28.323 42.219 27.2216 42.0499C26.1202 41.8808 25.0937 41.3887 24.2721 40.6359C23.4506 39.883 22.8709 38.9033 22.6065 37.8208C22.3422 36.7382 22.405 35.6016 22.787 34.5548C23.1691 33.508 23.8532 32.5982 24.7527 31.9404C25.6522 31.2827 26.7267 30.9067 27.84 30.86C28.5774 30.8278 29.3139 30.9412 30.0075 31.1936C30.7011 31.446 31.3381 31.8326 31.8823 32.3313C32.4264 32.8299 32.8671 33.4309 33.179 34.0999C33.4908 34.7688 33.6679 35.4926 33.7 36.23Z" fill="#FE624C"/>
<g style="mix-blend-mode:multiply" opacity="0.5">
<path d="M27.7198 40.29C27.4311 40.2841 27.1435 40.254 26.8598 40.2C26.6587 40.1538 26.4639 40.0832 26.2798 39.99L26.5798 38.83C26.7185 38.9196 26.8703 38.9871 27.0298 39.03C27.2425 39.0871 27.4602 39.1239 27.6798 39.14L27.5798 36.83L27.0198 36.51C26.8406 36.3859 26.6762 36.2416 26.5298 36.08C26.3822 35.9035 26.264 35.7042 26.1798 35.49C26.0702 35.2339 26.0125 34.9586 26.0098 34.68C25.9566 34.2163 26.0778 33.7493 26.3498 33.37C26.5981 33.0403 26.9505 32.8042 27.3498 32.7V31.7L28.3498 31.65L28.3998 32.57C28.6186 32.5658 28.837 32.5893 29.0498 32.64C29.2378 32.6849 29.4217 32.7451 29.5998 32.82L29.2898 33.93C29.1744 33.8723 29.0539 33.8254 28.9298 33.79C28.7716 33.7555 28.6113 33.7321 28.4498 33.72L28.5298 35.79C28.7198 35.89 28.9098 36.01 29.0998 36.13C29.2802 36.2566 29.4477 36.4006 29.5998 36.56C29.7491 36.7412 29.8767 36.9392 29.9798 37.15C30.0827 37.3977 30.1403 37.6619 30.1498 37.93C30.2052 38.4407 30.0777 38.9545 29.7898 39.38C29.5272 39.7428 29.1504 40.0069 28.7198 40.13V41.13H27.7198V40.29ZM27.8898 33.76C27.788 33.765 27.6888 33.7938 27.6002 33.8442C27.5117 33.8946 27.4361 33.9651 27.3798 34.05C27.2898 34.2005 27.2479 34.375 27.2598 34.55C27.2618 34.7496 27.3364 34.9416 27.4698 35.09C27.6109 35.2485 27.7763 35.3835 27.9598 35.49L27.8898 33.76ZM28.2498 39.1C28.4497 39.0575 28.6253 38.9392 28.7398 38.77C28.8446 38.5845 28.8932 38.3726 28.8798 38.16C28.8748 37.9459 28.8012 37.7391 28.6698 37.57C28.5142 37.4193 28.3432 37.2853 28.1598 37.17L28.2498 39.1Z" fill="#FE624C"/>
</g>
<path d="M38.1 40.14C37.9006 40.1624 37.6993 40.1624 37.5 40.14C37.3592 40.1126 37.224 40.0619 37.1 39.99L37.3 39.2C37.3973 39.2565 37.5015 39.3002 37.61 39.33C37.761 39.3669 37.9149 39.3903 38.07 39.4L37.99 37.81L37.61 37.58C37.4852 37.4938 37.3711 37.3931 37.27 37.28C37.1674 37.1598 37.0831 37.025 37.02 36.88C36.9501 36.6975 36.9096 36.5052 36.9 36.31C36.874 35.9836 36.9623 35.6584 37.15 35.39C37.3307 35.1593 37.5847 34.9971 37.87 34.93V34.26H38.56V34.91C38.7125 34.8884 38.8674 34.8884 39.02 34.91L39.39 35.04L39.19 35.8L38.93 35.71H38.6L38.66 37.15L39.05 37.38C39.1759 37.4686 39.2931 37.5691 39.4 37.68C39.5037 37.8051 39.5911 37.9428 39.66 38.09C39.7359 38.2633 39.7735 38.4509 39.77 38.64C39.8099 38.9898 39.7287 39.3428 39.54 39.64C39.354 39.8891 39.09 40.0686 38.79 40.15V40.84H38.09L38.1 40.14ZM38.21 35.62C38.1396 35.6276 38.0716 35.6493 38.0098 35.6836C37.9479 35.718 37.8936 35.7643 37.85 35.82C37.7978 35.9293 37.7705 36.0489 37.77 36.17C37.7755 36.307 37.8285 36.4379 37.92 36.54C38.0198 36.6487 38.1342 36.7429 38.26 36.82L38.21 35.62ZM38.46 39.33C38.6008 39.2987 38.7254 39.2169 38.81 39.1C38.8735 38.9658 38.9044 38.8184 38.9 38.67C38.893 38.5212 38.8406 38.3782 38.75 38.26C38.646 38.1518 38.5283 38.0577 38.4 37.98L38.46 39.33Z" fill="#FE624C"/>
<path d="M17.5 38.15C17.2982 38.1586 17.0962 38.1384 16.9 38.09C16.7572 38.0589 16.6193 38.0084 16.4901 37.94L16.7001 37.14C16.7953 37.2005 16.9001 37.2445 17.0101 37.27C17.1565 37.3138 17.3075 37.3406 17.46 37.35L17.3901 35.76L17.0101 35.53C16.8853 35.4438 16.7711 35.3431 16.6701 35.23C16.4269 34.9548 16.2981 34.5971 16.31 34.23C16.278 33.9091 16.3594 33.5871 16.5401 33.32C16.724 33.0861 16.981 32.9206 17.2701 32.85V32.19H17.97V32.83C18.1215 32.8296 18.2724 32.8464 18.4201 32.88C18.5506 32.9112 18.6778 32.9547 18.8001 33.01L18.6 33.78C18.5148 33.7373 18.4239 33.707 18.3301 33.69C18.2229 33.6568 18.1121 33.6366 18 33.63L18.0701 35.07L18.46 35.3C18.5861 35.3922 18.7033 35.496 18.81 35.61C18.9124 35.7325 18.9997 35.8668 19.0701 36.01C19.1436 36.1809 19.1843 36.3641 19.19 36.55C19.2114 36.8998 19.1278 37.248 18.9501 37.55C18.7642 37.7971 18.4996 37.9734 18.2001 38.05V38.75H17.5V38.15ZM17.6101 33.62C17.5381 33.6257 17.4684 33.6475 17.4061 33.6839C17.3438 33.7203 17.2904 33.7702 17.25 33.83C17.1878 33.9319 17.1598 34.051 17.1701 34.17C17.1757 34.31 17.2286 34.4439 17.3201 34.55C17.4208 34.6549 17.5351 34.7457 17.66 34.82L17.6101 33.62ZM17.85 37.33C17.9892 37.2948 18.1125 37.2138 18.2001 37.1C18.2716 36.9683 18.3062 36.8197 18.3001 36.67C18.2981 36.5215 18.2411 36.3789 18.1401 36.27C18.0452 36.1535 17.93 36.0553 17.8001 35.98L17.85 37.33Z" fill="#FE624C"/>
</g>
<defs>
<clipPath id="clip0_9405_1192">
<rect width="45.63" height="48.08" fill="white"/>
</clipPath>
</defs>
</svg>
