<svg width="42" height="49" viewBox="0 0 42 49" fill="none" xmlns="http://www.w3.org/2000/svg">
<g clip-path="url(#clip0_9405_1077)">
<path d="M2.23455 13.1461L1.79715 13.2956C1.22662 13.4838 0.64184 13.6767 0.0427911 13.8456L0 13.6864C0.594295 13.5175 1.17908 13.3246 1.74485 13.1364L2.187 12.9917L2.23455 13.1461Z" fill="#FE624C"/>
<path d="M3.71778 15.4618L3.53236 15.8911C3.2994 16.4507 3.05693 17.0296 2.78117 17.5941L2.63379 17.5217C2.90479 16.9573 3.14726 16.3832 3.38498 15.8284L3.56564 15.399L3.71778 15.4618Z" fill="#FE624C"/>
<path d="M2.69096 9.4073L2.5721 9.52309L2.25831 9.18057C1.85419 8.73191 1.43581 8.2736 0.993652 7.8346L1.10776 7.71881C1.54991 8.15782 1.97305 8.62095 2.37717 9.06478L2.69096 9.4073Z" fill="#FE624C"/>
<path opacity="0.38" d="M8.12029 16.5182C9.14287 18.0676 10.5953 19.2744 12.2939 19.986C13.9926 20.6977 15.861 20.8821 17.663 20.516C19.4649 20.15 21.1194 19.2498 22.4171 17.9295C23.7148 16.6092 24.5974 14.928 24.9533 13.0986C25.3093 11.2692 25.1225 9.37376 24.4166 7.65208C23.7107 5.9304 22.5175 4.45983 20.9879 3.42639C19.4582 2.39294 17.6609 1.84304 15.8232 1.84627C13.9855 1.84949 12.19 2.40569 10.6639 3.4445C9.65074 4.13336 8.78127 5.01799 8.10512 6.04786C7.42897 7.07774 6.95938 8.23268 6.72318 9.44673C6.48698 10.6608 6.48879 11.9102 6.72851 13.1235C6.96822 14.3368 7.44116 15.4904 8.12029 16.5182Z" fill="#FFBAAF"/>
<path d="M24.5279 28.3232L28.1174 25.8821L22.8591 19.9483L21.0239 21.1978L24.5279 28.3232Z" fill="#FD4431"/>
<path d="M38.4817 49L42 46.6071L28.0412 25.9062L24.5229 28.2991L38.4817 49Z" fill="#FE624C"/>
<path d="M13.6068 22.2929C15.7578 22.737 17.9902 22.5239 20.0218 21.6805C22.0534 20.837 23.7928 19.4012 25.02 17.5545C26.2472 15.7078 26.9071 13.5333 26.9163 11.306C26.9254 9.07873 26.2833 6.89873 25.0713 5.04177C23.8592 3.1848 22.1316 1.73431 20.107 0.873763C18.0825 0.0132114 15.8518 -0.218738 13.6973 0.207262C11.5428 0.633262 9.5612 1.69807 8.00316 3.267C6.44512 4.83592 5.38065 6.83847 4.94439 9.02135C4.65425 10.4699 4.64816 11.9623 4.92648 13.4133C5.2048 14.8642 5.76207 16.2454 6.56647 17.4778C7.37087 18.7102 8.40665 19.7697 9.61464 20.5959C10.8226 21.4221 12.1792 21.9987 13.6068 22.2929ZM7.32632 14.6995C6.65638 12.9956 6.49935 11.1283 6.87509 9.33385C7.25083 7.53937 8.14246 5.89822 9.43727 4.61786C10.7321 3.3375 12.3719 2.47542 14.1495 2.14061C15.9271 1.8058 17.7626 2.01328 19.424 2.73683C21.0854 3.46039 22.4981 4.66753 23.4835 6.20564C24.4688 7.74375 24.9827 9.54377 24.96 11.3782C24.9373 13.2126 24.3792 14.999 23.3561 16.5115C22.333 18.0241 20.891 19.1949 19.2122 19.8759C18.0969 20.3284 16.9046 20.5535 15.7035 20.5382C14.5024 20.5229 13.316 20.2676 12.2122 19.7869C11.1084 19.3061 10.1087 18.6094 9.27037 17.7365C8.43203 16.8636 7.77143 15.8316 7.32632 14.6995Z" fill="#FE624C"/>
<g style="mix-blend-mode:multiply" opacity="0.72">
<path d="M6.47563 9.14196C6.76324 7.69652 7.36142 6.33322 8.22757 5.14914C9.09372 3.96507 10.2065 2.98935 11.4867 2.2915C9.56207 3.86206 8.28488 6.10538 7.90549 8.58176C7.5261 11.0581 8.07188 13.589 9.43584 15.6783C10.7998 17.7676 12.8836 19.2647 15.2788 19.8761C17.6739 20.4875 20.2078 20.1691 22.3837 18.9834C20.7954 20.2775 18.8525 21.0433 16.8198 21.1767C14.7871 21.31 12.7633 20.8044 11.0239 19.7287C9.28455 18.653 7.91421 17.0594 7.09949 15.165C6.28478 13.2706 6.06527 11.1675 6.47088 9.14196H6.47563Z" fill="#FFAC9F"/>
</g>
<path d="M13.8254 21.2798C12.5287 21.0137 11.2962 20.4911 10.1985 19.7417C9.1008 18.9923 8.1593 18.0309 7.42777 16.9123C5.95036 14.6532 5.41788 11.8911 5.94747 9.23364C6.2097 7.9178 6.72478 6.66724 7.4633 5.55339C8.20182 4.43953 9.14933 3.48418 10.2517 2.74189C12.4781 1.24276 15.2001 0.70246 17.8191 1.23984C19.7681 1.63977 21.5569 2.61601 22.9602 4.04559C24.3634 5.47517 25.3184 7.29415 25.7047 9.2734C26.0911 11.2527 25.8916 13.3037 25.1313 15.1681C24.371 17.0325 23.084 18.6269 21.4324 19.7505C20.3284 20.5059 19.0869 21.0302 17.7808 21.2928C16.4746 21.5554 15.1299 21.551 13.8254 21.2798ZM6.26602 9.29635C5.81664 11.5408 6.14888 13.8739 7.20604 15.8974C8.26321 17.921 9.97975 19.5095 12.0626 20.3918C14.1455 21.2741 16.4656 21.3955 18.6269 20.7353C20.7882 20.075 22.6567 18.6741 23.9134 16.7717C25.17 14.8692 25.737 12.5832 25.5176 10.3037C25.2981 8.02429 24.3058 5.89281 22.7099 4.27313C21.1141 2.65346 19.0138 1.646 16.7674 1.42274C14.5211 1.19947 12.268 1.77424 10.3928 3.04894C8.2608 4.49944 6.77808 6.74409 6.26602 9.29635Z" fill="white"/>
<path d="M28.5672 26.6499L25.0449 29.1238L25.3615 29.5879L28.8837 27.114L28.5672 26.6499Z" fill="white"/>
<path d="M10.7926 5.90486C8.49151 8.77047 7.94001 10.4638 8.35363 12.6588C8.53905 13.7298 10.3552 13.8504 11.3061 13.0785C12.6753 11.9786 14.0969 8.07578 14.0826 6.32457C14.0731 5.06062 12.4471 3.84973 10.7926 5.90486Z" fill="white"/>
</g>
<defs>
<clipPath id="clip0_9405_1077">
<rect width="42" height="49" fill="white"/>
</clipPath>
</defs>
</svg>
