<svg width="54" height="64" viewBox="0 0 54 64" fill="none" xmlns="http://www.w3.org/2000/svg">
<g clip-path="url(#clip0_9405_1015)">
<path d="M36.2153 5.04527L36.299 4.03168C36.4055 2.71552 36.5121 1.35776 36.6794 0L37.037 0.0453857C36.8658 1.39558 36.7555 2.74956 36.6566 4.06193L36.5729 5.07552L36.2153 5.04527Z" fill="#FD4431"/>
<path d="M30.285 6.11938L29.5774 5.38944C28.653 4.44015 27.6982 3.45681 26.7852 2.43187L27.0591 2.1936C27.9606 3.21476 28.9155 4.19431 29.8361 5.13983L30.5437 5.86976L30.285 6.11938Z" fill="#FD4431"/>
<path d="M43.3711 9.10342L43.2456 8.76681L44.2042 8.41886C45.4482 7.96502 46.734 7.49604 48.0084 6.96655L48.1492 7.29938C46.8786 7.82886 45.589 8.29784 44.345 8.75168L43.3711 9.10342Z" fill="#FD4431"/>
<path d="M36.3412 20.3512L27.8237 17.3483L31.2323 9.01642L38.9509 13.0367L36.3412 20.3512Z" fill="#FE624C"/>
<path d="M44.847 30.2867L42.9868 26.9358L48.7425 23.9745L49.743 27.5977L44.847 30.2867Z" fill="#FD4431"/>
<path d="M49.1001 29.4434L45.9692 23.8043L51.782 20.9489L53.9998 26.7543L49.1001 29.4434Z" fill="#FD4431"/>
<path d="M47.5289 23.0403L45.9692 23.8043L49.1001 29.4433L50.6179 28.6075L47.5289 23.0403Z" fill="#FE624C"/>
<path d="M32.9175 16.9701C28.4434 15.3893 23.5982 15.1632 18.9949 16.3204C14.3915 17.4777 10.2368 19.9662 7.05621 23.4712C3.87561 26.9763 1.81203 31.3404 1.12651 36.0116C0.440984 40.6828 1.16431 45.4512 3.20499 49.7136C5.24567 53.976 8.51202 57.541 12.5909 59.9577C16.6698 62.3743 21.3779 63.5339 26.1198 63.29C30.8617 63.046 35.4242 61.4094 39.2304 58.5871C43.0366 55.7648 45.9154 51.8837 47.5026 47.4346C48.557 44.4822 49.0161 41.3522 48.8537 38.2233C48.6914 35.0945 47.9107 32.0281 46.5564 29.1992C45.202 26.3703 43.3005 23.8343 40.9603 21.7361C38.6201 19.6378 35.8872 18.0183 32.9175 16.9701Z" fill="#FFBAAF"/>
<path d="M33.1039 16.4482C20.3181 11.9438 5.90414 17.874 1.37339 30.5817C-3.15736 43.2895 3.91076 57.9676 16.6889 62.4721C29.4671 66.9765 44.4859 61.2996 49.0243 48.5881C53.5626 35.8766 45.882 20.9526 33.1039 16.4482ZM18.0698 58.6068C14.261 57.2644 10.9381 54.8293 8.52136 51.6094C6.10457 48.3896 4.70243 44.5295 4.49224 40.5173C4.28206 36.5052 5.27328 32.5212 7.34054 29.0691C9.40781 25.6171 12.4583 22.8519 16.1062 21.1235C19.7541 19.395 23.8357 18.7808 27.8347 19.3585C31.8338 19.9362 35.5707 21.6799 38.573 24.369C41.5753 27.0582 43.7081 30.5721 44.7016 34.4663C45.6952 38.3606 45.505 42.4603 44.1549 46.247C43.2585 48.7615 41.8727 51.0757 40.0767 53.0576C38.2806 55.0396 36.1095 56.6504 33.6872 57.7981C31.265 58.9459 28.6391 59.608 25.9594 59.7467C23.2798 59.8855 20.5989 59.4981 18.0698 58.6068Z" fill="#FE624C"/>
<path d="M17.3736 60.6491C11.6515 58.5331 6.98115 54.2882 4.34959 48.8115C1.71802 43.3347 1.33145 37.0553 3.27155 31.3003C7.342 19.8861 20.4435 14.0466 32.4761 18.29C44.3983 22.4881 51.2458 36.3115 47.1259 47.8657C45.1401 53.4367 40.8642 57.8163 35.0895 60.2028C29.4379 62.501 23.135 62.6598 17.3736 60.6491ZM32.3657 18.6002C20.5044 14.421 7.59307 20.1697 3.58349 31.4138C-0.544024 42.9869 5.82033 56.2392 17.4801 60.3465C29.4479 64.5635 42.8804 58.7997 46.8139 47.7598C50.8768 36.3758 44.1244 22.7377 32.3657 18.6002ZM18.6289 57.1204C15.1168 55.8834 12.0525 53.6387 9.82364 50.6702C7.59476 47.7017 6.3014 44.1427 6.10712 40.4433C5.91284 36.744 6.82636 33.0704 8.73217 29.8873C10.638 26.7042 13.4505 24.1544 16.8139 22.5604C20.1774 20.9665 23.9408 20.4 27.6281 20.9326C31.3154 21.4652 34.761 23.0729 37.5292 25.5525C40.2974 28.0321 42.2639 31.2721 43.1798 34.8628C44.0957 38.4535 43.9201 42.2336 42.675 45.7251C41.0024 50.4035 37.5309 54.231 33.0227 56.3675C28.5145 58.5039 23.3378 58.7747 18.6289 57.1204ZM31.1066 22.1288C27.6564 20.9127 23.921 20.7411 20.3728 21.6357C16.8245 22.5303 13.6228 24.4509 11.1726 27.1546C8.72229 29.8584 7.13353 33.2238 6.6072 36.8253C6.08088 40.4268 6.64063 44.1025 8.21567 47.3877C9.79071 50.6729 12.3103 53.42 15.4558 55.2814C18.6012 57.1429 22.2313 58.0352 25.8869 57.8455C29.5425 57.6558 33.0594 56.3926 35.9928 54.2157C38.9262 52.0387 41.1444 49.0458 42.3669 45.6154C44.0005 41.0161 43.7325 35.9604 41.6215 31.5573C39.5105 27.1543 35.729 23.7635 31.1066 22.1288Z" fill="white"/>
<path d="M16.0229 41.4476C16.3082 41.7842 18.2255 45.1124 18.2484 45.1161C18.4157 45.1464 41.0733 32.8585 41.0733 32.8585C41.8341 32.5295 41.8341 32.4803 41.0276 32.7488L40.7994 32.8282C40.7994 32.8282 14.9806 40.2297 16.0229 41.4476Z" fill="#303030"/>
<path d="M31.6656 21.7203L31.3651 22.8058C30.9847 24.2203 30.5738 25.6764 30.1021 27.1173L29.7217 26.9925C30.1896 25.5629 30.589 24.1106 30.977 22.7037L31.2814 21.6144L31.6656 21.7203Z" fill="#FD4431"/>
<path d="M20.6755 52.616L20.3636 53.7015C19.9641 55.1084 19.5495 56.5645 19.0625 58.0017L18.6821 57.8731C19.1615 56.4473 19.5761 54.9949 19.9756 53.5956L20.2875 52.5101L20.6755 52.616Z" fill="#FD4431"/>
<path d="M43.2799 45.3544L42.1729 45.1011C40.7387 44.772 39.2589 44.4278 37.7905 44.0156L37.9009 43.6374C39.3578 44.0459 40.8377 44.3938 42.2642 44.7153L43.3712 44.9725L43.2799 45.3544Z" fill="#FD4431"/>
<path d="M11.9186 34.5113L10.8344 34.1785C9.4269 33.7549 7.97372 33.3086 6.53955 32.798L6.67649 32.4198C8.10305 32.9304 9.55244 33.3691 10.9524 33.7965L12.0366 34.1293L11.9186 34.5113Z" fill="#FD4431"/>
<path d="M24.0373 21.2731L23.8086 24.2827L24.1576 24.3089L24.3863 21.2994L24.0373 21.2731Z" fill="#FD4431"/>
<path d="M17.1617 23.194L16.8452 23.3425L18.1406 26.072L18.4571 25.9235L17.1617 23.194Z" fill="#FD4431"/>
<path d="M11.2344 27.1422L11.0415 27.4325L13.5744 29.0961L13.7673 28.8058L11.2344 27.1422Z" fill="#FD4431"/>
<path d="M7.14892 39.2262L7.12109 39.5731L10.1472 39.813L10.175 39.4662L7.14892 39.2262Z" fill="#FD4431"/>
<path d="M11.7817 45.1491L9.03125 46.4265L9.17938 46.7418L11.9298 45.4644L11.7817 45.1491Z" fill="#FD4431"/>
<path d="M14.6694 49.8017L12.9873 52.3141L13.2786 52.5069L14.9608 49.9945L14.6694 49.8017Z" fill="#FD4431"/>
<path d="M25.7117 53.8088L25.4819 56.8182L25.8309 56.8446L26.0606 53.8351L25.7117 53.8088Z" fill="#FD4431"/>
<path d="M32.7197 54.9344L31.4263 52.2038L31.742 52.0563L33.0354 54.7869L32.7197 54.9344Z" fill="#FD4431"/>
<path d="M38.6464 50.9822L36.1128 49.3181L36.3068 49.0269L38.8404 50.691L38.6464 50.9822Z" fill="#FD4431"/>
<path d="M39.739 38.3124L39.7114 38.6593L42.7377 38.8971L42.7653 38.5503L39.739 38.3124Z" fill="#FD4431"/>
<path d="M40.6986 31.3867L37.9507 32.6694L38.0994 32.9843L40.8474 31.7017L40.6986 31.3867Z" fill="#FD4431"/>
<path d="M36.5977 25.6046L34.9155 28.117L35.2069 28.3098L36.889 25.7974L36.5977 25.6046Z" fill="#FD4431"/>
<path d="M25.6208 37.4272C25.2166 37.285 24.779 37.2651 24.3635 37.3701C23.9479 37.475 23.5729 37.7001 23.286 38.0169C22.9991 38.3337 22.8131 38.728 22.7515 39.1498C22.6899 39.5717 22.7555 40.0022 22.94 40.387C23.1245 40.7719 23.4196 41.0937 23.788 41.3117C24.1564 41.5298 24.5816 41.6345 25.0098 41.6124C25.438 41.5903 25.85 41.4424 26.1937 41.1876C26.5374 40.9327 26.7974 40.5823 26.9408 40.1806C27.0367 39.9137 27.0785 39.6305 27.064 39.3475C27.0495 39.0645 26.9788 38.7871 26.8562 38.5312C26.7335 38.2754 26.5613 38.0462 26.3493 37.8567C26.1373 37.6673 25.8897 37.5213 25.6208 37.4272Z" fill="#FE6A3C"/>
<path d="M25.8491 39.7343C25.7928 39.8939 25.6901 40.0332 25.554 40.1347C25.418 40.2362 25.2547 40.2953 25.0848 40.3045C24.915 40.3138 24.7462 40.2727 24.5998 40.1865C24.4535 40.1003 24.3361 39.9729 24.2626 39.8204C24.1891 39.6679 24.1628 39.4971 24.1869 39.3297C24.2111 39.1623 24.2846 39.0058 24.3983 38.88C24.5119 38.7542 24.6605 38.6647 24.8253 38.6229C24.9902 38.581 25.1638 38.5888 25.3242 38.6451C25.5389 38.7204 25.7149 38.8775 25.8133 39.0817C25.9117 39.2859 25.9246 39.5206 25.8491 39.7343Z" fill="#FE624C"/>
<path d="M41.1382 15.1055L27.7285 10.3779L29.3377 7.78723L42.0017 12.6812L41.1382 15.1055Z" fill="#303030"/>
</g>
<defs>
<clipPath id="clip0_9405_1015">
<rect width="54" height="64" fill="white"/>
</clipPath>
</defs>
</svg>
