<svg width="62" height="52" viewBox="0 0 62 52" fill="none" xmlns="http://www.w3.org/2000/svg">
<g clip-path="url(#clip0_222_311)">
<path d="M43.5662 10.7531L1.86241 21.5151C0.541543 21.856 -0.252912 23.2031 0.0879509 24.524L3.91851 39.3677C4.25937 40.6886 5.60647 41.483 6.92734 41.1421L48.6311 30.3801C49.952 30.0393 50.7464 28.6922 50.4056 27.3713L46.575 12.5276C46.2341 11.2067 44.887 10.4122 43.5662 10.7531Z" fill="#FE624C"/>
<mask id="mask0_222_311" style="mask-type:luminance" maskUnits="userSpaceOnUse" x="-1" y="10" width="52" height="32">
<path d="M43.5562 10.7531L1.8524 21.5151C0.531533 21.856 -0.262922 23.2031 0.0779411 24.524L3.9085 39.3677C4.24936 40.6886 5.59646 41.483 6.91733 41.1421L48.6211 30.3801C49.942 30.0393 50.7364 28.6922 50.3955 27.3713L46.565 12.5276C46.2241 11.2067 44.877 10.4122 43.5562 10.7531Z" fill="white"/>
</mask>
<g mask="url(#mask0_222_311)">
<g style="mix-blend-mode:multiply" opacity="0.5">
<path d="M50.6424 19.3993L1.99609 31.9529L4.81966 42.8945L53.466 30.3409L50.6424 19.3993Z" fill="#FE624C"/>
</g>
</g>
<path d="M19.42 24.02C19.4901 24.3017 19.5303 24.5899 19.54 24.88C19.5586 25.1658 19.5316 25.4527 19.46 25.73C19.3926 26.0046 19.2775 26.2652 19.12 26.5C18.9468 26.7479 18.7258 26.9587 18.47 27.12V27.22C18.7465 27.2181 19.0221 27.2517 19.29 27.32C19.5598 27.3904 19.8118 27.5164 20.03 27.69C20.277 27.8872 20.4899 28.1237 20.66 28.39C20.8588 28.7301 21.007 29.0973 21.1 29.48C21.2466 30.0004 21.2773 30.5465 21.19 31.08C21.1082 31.5326 20.9235 31.9602 20.65 32.33C20.3783 32.6948 20.0387 33.0037 19.65 33.24C19.2167 33.4962 18.7485 33.6882 18.26 33.81L17.68 33.96C17.44 34.02 17.18 34.08 16.9 34.13C16.62 34.18 16.33 34.23 16.03 34.28C15.7483 34.3188 15.4644 34.3389 15.18 34.34L12.29 23.15C12.63 22.99 13.06 22.82 13.57 22.64C14.0774 22.4513 14.5948 22.2911 15.12 22.16C15.5794 22.0421 16.0476 21.9619 16.52 21.92C16.9438 21.8771 17.372 21.9178 17.78 22.04C18.1637 22.1671 18.5081 22.3909 18.78 22.69C19.0983 23.0747 19.318 23.5312 19.42 24.02ZM16.01 27.24C16.1491 27.2008 16.286 27.154 16.42 27.1C16.5443 27.0609 16.6648 27.0107 16.78 26.95C17.0663 26.7526 17.2915 26.4789 17.43 26.16C17.591 25.8011 17.6159 25.3959 17.5 25.02C17.4359 24.776 17.3347 24.5433 17.2 24.33C17.0876 24.1722 16.9405 24.0422 16.77 23.95C16.6055 23.8682 16.4238 23.8271 16.24 23.83C16.041 23.8247 15.8423 23.8483 15.65 23.9C15.3331 23.9698 15.0246 24.0737 14.73 24.21L15.54 27.36L16.01 27.24ZM17.83 32.03C18.0375 31.9825 18.2331 31.8932 18.405 31.7677C18.5769 31.6423 18.7215 31.4831 18.83 31.3C18.9402 31.0856 19.0066 30.8514 19.0255 30.611C19.0444 30.3707 19.0153 30.129 18.94 29.9C18.8757 29.6068 18.7496 29.3306 18.57 29.09C18.4369 28.9178 18.2611 28.7834 18.06 28.7C17.8611 28.631 17.6493 28.6071 17.44 28.63C17.2138 28.6514 16.9897 28.6915 16.77 28.75L15.94 28.96L16.78 32.19C16.9327 32.2104 17.0874 32.2104 17.24 32.19L17.83 32.03Z" fill="white"/>
<path d="M25.21 19.72L27.14 19.22L29.04 26.59C29.4363 27.7035 29.4114 28.9236 28.97 30.02C28.735 30.4361 28.4134 30.797 28.027 31.0782C27.6406 31.3594 27.1983 31.5544 26.73 31.65C26.2409 31.8258 25.7194 31.8936 25.2015 31.8487C24.6837 31.8039 24.1817 31.6474 23.73 31.39C22.8704 30.7149 22.29 29.7464 22.1 28.67L20.1 21.03L22.1 20.5L23.97 27.78C24.082 28.436 24.3727 29.0484 24.81 29.55C24.9933 29.6956 25.2107 29.7922 25.4416 29.8307C25.6725 29.8692 25.9094 29.8483 26.13 29.77C26.3583 29.7328 26.5721 29.634 26.7483 29.4842C26.9246 29.3344 27.0566 29.1393 27.13 28.92C27.2522 28.2795 27.2074 27.6182 27 27L25.21 19.72Z" fill="white"/>
<path d="M32.65 25.42L27.72 19.1L30.16 18.48L32.84 22.37L33.32 23.56H33.4L33.25 22.25L33.69 17.58L35.88 17.02L34.72 24.87L35.82 29.11L33.77 29.64L32.65 25.42Z" fill="white"/>
<path d="M38.96 24.91L59.33 38.39L57.35 41.37L49.62 36.14L48.09 40.52L38.96 24.91Z" fill="#414141"/>
<path d="M38.96 24.91L59.33 38.39L61.3 35.41L53.46 30.34L56.89 27.21L38.96 24.91Z" fill="#303030"/>
<path d="M19.9112 -0.00138908L17.3259 0.665771L20.9691 14.7833L23.5544 14.1161L19.9112 -0.00138908Z" fill="white"/>
<path d="M5.1967 7.96042L3.84198 10.2612L14.3808 16.4666L15.7355 14.1658L5.1967 7.96042Z" fill="white"/>
<path d="M34.0753 0.542746L27.8461 11.0674L30.1438 12.4274L36.373 1.90269L34.0753 0.542746Z" fill="white"/>
<path d="M29.5119 37.1898L26.9266 37.8569L30.5673 51.9648L33.1526 51.2976L29.5119 37.1898Z" fill="white"/>
<path d="M20.3348 39.5483L14.1221 50.0828L16.422 51.4391L22.6347 40.9046L20.3348 39.5483Z" fill="white"/>
<path d="M36.1016 35.5254L34.7469 37.8262L45.2857 44.0315L46.6404 41.7308L36.1016 35.5254Z" fill="white"/>
</g>
<defs>
<clipPath id="clip0_222_311">
<rect width="61.3" height="51.98" fill="white"/>
</clipPath>
</defs>
</svg>
