<svg width="53" height="62" viewBox="0 0 53 62" fill="none" xmlns="http://www.w3.org/2000/svg">
<g clip-path="url(#clip0_222_250)">
<path d="M12.26 21.75L23.05 35.56C23.05 35.56 25.4 28.96 35.49 25.83C45.58 22.7 45.88 17.71 45.88 17.71L35.08 3.89999C35.08 3.89999 33.72 8.34 25.08 11.73C13.49 16.28 12.26 21.75 12.26 21.75Z" fill="#FE624C"/>
<g style="mix-blend-mode:multiply" opacity="0.5">
<path d="M41.4 20.64C39.3933 22.0956 37.1455 23.1856 34.76 23.86C31.7771 24.7408 28.9809 26.161 26.51 28.05C25.0566 29.1695 23.7762 30.4971 22.71 31.99L14.63 21.66C15.5025 20.2515 16.6362 19.0228 17.97 18.04C20.4196 16.2143 23.1123 14.7401 25.97 13.66C28.4264 12.7404 30.7369 11.4706 32.83 9.89C33.7787 9.15709 34.6439 8.32207 35.41 7.39999L43.67 17.94C43.1325 19.0035 42.3554 19.9278 41.4 20.64Z" fill="#FE624C"/>
</g>
<path d="M32.95 16.98C33.5266 17.7208 33.8707 18.6158 33.939 19.552C34.0072 20.4882 33.7966 21.4237 33.3336 22.2402C32.8706 23.0568 32.1761 23.7179 31.3376 24.14C30.4992 24.5622 29.5545 24.7264 28.6228 24.6121C27.6911 24.4977 26.8142 24.1098 26.1027 23.4974C25.3913 22.8851 24.8773 22.0756 24.6255 21.1713C24.3738 20.267 24.3956 19.3083 24.6883 18.4164C24.981 17.5245 25.5314 16.7393 26.27 16.16C26.762 15.7741 27.3253 15.4891 27.9277 15.3214C28.5301 15.1538 29.1597 15.1067 29.7803 15.1829C30.4009 15.259 31.0004 15.457 31.5443 15.7654C32.0883 16.0738 32.566 16.4866 32.95 16.98Z" fill="#FE624C"/>
<g style="mix-blend-mode:multiply" opacity="0.5">
<path d="M30.85 22.73C30.6496 22.8716 30.4351 22.9923 30.21 23.09C30.0513 23.1614 29.8827 23.2086 29.71 23.23L29.35 22.3C29.4861 22.2838 29.6201 22.2536 29.75 22.21C29.9234 22.1409 30.0907 22.0572 30.25 21.96L29.05 20.43H28.51C28.3276 20.4553 28.1425 20.4553 27.96 20.43C27.7686 20.3836 27.5861 20.3059 27.42 20.2C27.2218 20.0771 27.0487 19.9176 26.91 19.73C26.6529 19.428 26.5081 19.0465 26.5 18.65C26.5093 18.2814 26.6473 17.9276 26.89 17.65L26.38 17.02L27.05 16.49L27.54 17.11C27.6875 16.9968 27.8488 16.9027 28.02 16.83C28.1718 16.7683 28.3292 16.7214 28.49 16.69L28.82 17.6C28.7094 17.6138 28.6016 17.6441 28.5 17.69C28.3702 17.7356 28.246 17.796 28.13 17.87L29.21 19.25H29.77C29.9585 19.2457 30.1467 19.2659 30.33 19.31C30.5192 19.3534 30.7012 19.4242 30.87 19.52C31.068 19.6392 31.2411 19.7954 31.38 19.98C31.6632 20.3064 31.8287 20.7184 31.85 21.15C31.8357 21.5141 31.7062 21.8643 31.48 22.15L31.99 22.81L31.32 23.33L30.85 22.73ZM27.75 18.16C27.6844 18.2152 27.6316 18.2841 27.5954 18.3618C27.5591 18.4395 27.5402 18.5242 27.54 18.61C27.559 18.7546 27.614 18.8922 27.7 19.01C27.8061 19.1441 27.9539 19.2391 28.12 19.28C28.2957 19.3057 28.4743 19.3057 28.65 19.28L27.75 18.16ZM30.62 21.66C30.6802 21.5979 30.7272 21.5242 30.7581 21.4434C30.7891 21.3627 30.8033 21.2764 30.8 21.19C30.784 21.0103 30.7143 20.8396 30.6 20.7C30.4919 20.5527 30.3366 20.4468 30.16 20.4C29.978 20.3692 29.7921 20.3692 29.61 20.4L30.62 21.66Z" fill="#FE624C"/>
</g>
<path d="M37.9 17.56C37.7631 17.6594 37.6155 17.7432 37.46 17.81C37.3496 17.8624 37.2314 17.8962 37.11 17.91L36.86 17.26C36.9554 17.2514 37.0494 17.2313 37.14 17.2C37.2614 17.1536 37.3785 17.0968 37.49 17.03L36.65 15.96H36.28C36.1535 15.9703 36.0264 15.9703 35.9 15.96C35.7699 15.9238 35.6455 15.87 35.53 15.8C35.3891 15.7152 35.2667 15.603 35.17 15.47C34.9907 15.2604 34.8883 14.9958 34.88 14.72C34.8925 14.4679 34.9914 14.2278 35.16 14.04L34.8 13.6L35.27 13.24L35.6 13.67C35.7031 13.5873 35.8176 13.5199 35.94 13.47L36.26 13.37L36.5 14L36.27 14.06L36.02 14.2L36.77 15.2H37.15C37.2796 15.1852 37.4104 15.1852 37.54 15.2C37.6734 15.2307 37.8015 15.2813 37.92 15.35C38.0575 15.4314 38.1766 15.5404 38.27 15.67C38.4682 15.8951 38.5845 16.1805 38.6 16.48C38.5973 16.7425 38.5056 16.9963 38.34 17.2L38.7 17.66L38.23 18.02L37.9 17.56ZM35.75 14.39C35.7053 14.4282 35.6696 14.4758 35.6454 14.5294C35.6212 14.583 35.6091 14.6412 35.61 14.7C35.6227 14.801 35.6605 14.8973 35.72 14.98C35.7893 15.0758 35.8934 15.1404 36.01 15.16C36.1328 15.1761 36.2572 15.1761 36.38 15.16L35.75 14.39ZM37.75 16.82C37.7911 16.7758 37.8229 16.7239 37.8435 16.6672C37.8641 16.6105 37.8731 16.5502 37.87 16.49C37.8588 16.3651 37.81 16.2466 37.73 16.15C37.6548 16.0499 37.5497 15.9764 37.43 15.94C37.3005 15.9243 37.1695 15.9243 37.04 15.94L37.75 16.82Z" fill="#FE624C"/>
<path d="M22.73 26.26C22.5945 26.3616 22.4467 26.4456 22.29 26.51C22.1775 26.5565 22.0601 26.5901 21.94 26.61L21.69 25.96L21.97 25.9C22.0914 25.8536 22.2085 25.7968 22.32 25.73L21.48 24.66C21.36 24.66 21.24 24.66 21.11 24.66C20.9838 24.6745 20.8563 24.6745 20.73 24.66C20.6 24.6238 20.4755 24.57 20.36 24.5C20.221 24.4128 20.099 24.301 20 24.17C19.8214 23.9607 19.7223 23.6951 19.72 23.42C19.7306 23.1693 19.8257 22.9296 19.99 22.74L19.64 22.3L20.1 21.94L20.43 22.36C20.5379 22.2874 20.6516 22.2239 20.77 22.17C20.8772 22.1306 20.9876 22.1005 21.1 22.08L21.33 22.71C21.2537 22.7171 21.1793 22.7374 21.11 22.77L20.85 22.89L21.6 23.89C21.7265 23.8801 21.8535 23.8801 21.98 23.89C22.1126 23.8706 22.2474 23.8706 22.38 23.89C22.5097 23.9226 22.6342 23.9731 22.75 24.04C22.8875 24.1214 23.0066 24.2304 23.1 24.36C23.2982 24.5851 23.4145 24.8705 23.43 25.17C23.4342 25.4337 23.3417 25.6898 23.17 25.89L23.53 26.35L23.06 26.71L22.73 26.26ZM20.59 23.09C20.5424 23.1262 20.5039 23.1732 20.4779 23.227C20.4518 23.2809 20.4388 23.3402 20.44 23.4C20.4499 23.5035 20.4919 23.6014 20.56 23.68C20.6278 23.7746 20.7271 23.8419 20.84 23.87C20.9628 23.8858 21.0872 23.8858 21.21 23.87L20.59 23.09ZM22.59 25.52C22.6703 25.4291 22.7131 25.3112 22.71 25.19C22.7007 25.0646 22.6517 24.9455 22.57 24.85C22.4971 24.7497 22.3907 24.6787 22.27 24.65C22.1442 24.6293 22.0158 24.6293 21.89 24.65L22.59 25.52Z" fill="#FE624C"/>
<path d="M7.14998 24.56L21.99 33.89C21.99 33.89 21.99 26.89 30.39 20.52C38.79 14.15 37.39 9.36 37.39 9.36L22.55 0.0299988C22.55 0.0299988 22.78 4.65999 15.78 10.79C6.44998 18.95 7.14998 24.56 7.14998 24.56Z" fill="#FE624C"/>
<g style="mix-blend-mode:multiply" opacity="0.5">
<path d="M34.14 13.61C32.751 15.6655 31.0031 17.4541 28.98 18.89C26.4743 20.7364 24.3259 23.0237 22.64 25.64C21.6536 27.1885 20.8989 28.873 20.4 30.64L9.29999 23.64C9.64338 22.0146 10.2952 20.4701 11.22 19.09C12.9141 16.5288 14.9647 14.2222 17.31 12.24C19.3122 10.5477 21.0542 8.56986 22.48 6.37C23.1292 5.35973 23.6625 4.27959 24.07 3.14999L35.4 10.29C35.2426 11.4793 34.8113 12.6158 34.14 13.61Z" fill="#FE624C"/>
</g>
<path d="M24.99 13.02C25.7817 13.5201 26.408 14.243 26.7901 15.0979C27.1722 15.9528 27.2931 16.9016 27.1376 17.8251C26.982 18.7485 26.557 19.6053 25.9159 20.2879C25.2749 20.9705 24.4463 21.4484 23.5344 21.6615C22.6226 21.8746 21.6681 21.8134 20.7909 21.4856C19.9137 21.1578 19.1529 20.578 18.6043 19.8192C18.0556 19.0603 17.7435 18.1562 17.7071 17.2205C17.6708 16.2847 17.9118 15.3591 18.4 14.56C18.7283 14.0226 19.1601 13.5558 19.6705 13.1868C20.1808 12.8178 20.7594 12.554 21.3727 12.4107C21.9859 12.2674 22.6215 12.2475 23.2425 12.3521C23.8635 12.4567 24.4575 12.6837 24.99 13.02Z" fill="#FE624C"/>
<g style="mix-blend-mode:multiply" opacity="0.5">
<path d="M24.97 19.14C24.8299 19.3428 24.669 19.5305 24.49 19.7C24.3614 19.8196 24.2166 19.9206 24.06 20L23.41 19.24C23.5322 19.1814 23.6465 19.1075 23.75 19.02C23.8956 18.9032 24.0296 18.7726 24.15 18.63L22.49 17.63L22 17.85C21.8292 17.9164 21.6514 17.9634 21.47 17.99C21.2778 18.0195 21.0822 18.0195 20.89 17.99C20.658 17.9426 20.4373 17.851 20.24 17.72C19.8947 17.5309 19.6312 17.2211 19.5 16.85C19.3753 16.5111 19.3753 16.1389 19.5 15.8L18.81 15.37L19.26 14.65L19.92 15.07C20.0222 14.9127 20.1431 14.7683 20.28 14.64C20.4008 14.5315 20.5313 14.4344 20.67 14.35L21.3 15.09C21.2032 15.143 21.1126 15.2068 21.03 15.28C20.9235 15.37 20.8263 15.4705 20.74 15.58L22.23 16.52C22.3918 16.4332 22.5588 16.3564 22.73 16.29C22.9057 16.2174 23.0909 16.1703 23.28 16.15C23.4722 16.1201 23.6678 16.1201 23.86 16.15C24.0868 16.1885 24.302 16.2774 24.49 16.41C24.873 16.6132 25.1709 16.9466 25.33 17.35C25.455 17.706 25.455 18.094 25.33 18.45L26.03 18.9L25.58 19.61L24.97 19.14ZM20.51 15.89C20.464 15.964 20.4356 16.0475 20.4269 16.1342C20.4183 16.2208 20.4296 16.3084 20.46 16.39C20.5259 16.5209 20.6262 16.6315 20.75 16.71C20.8894 16.8082 21.0618 16.8477 21.23 16.82C21.4097 16.7953 21.5848 16.7448 21.75 16.67L20.51 15.89ZM24.39 18.21C24.4247 18.1312 24.4426 18.0461 24.4426 17.96C24.4426 17.8739 24.4247 17.7888 24.39 17.71C24.3125 17.5464 24.1869 17.4103 24.03 17.32C23.8811 17.2161 23.701 17.1667 23.52 17.18C23.3407 17.2117 23.1661 17.2654 23 17.34L24.39 18.21Z" fill="#FE624C"/>
</g>
<path d="M29.83 11.84C29.7353 11.9794 29.6282 12.1099 29.51 12.23C29.4189 12.3119 29.3181 12.3824 29.21 12.44L28.75 11.91C28.8372 11.8725 28.9181 11.8219 28.99 11.76C29.0931 11.6769 29.1869 11.5831 29.27 11.48L28.12 10.76L27.78 10.92C27.6605 10.9641 27.5364 10.9943 27.41 11.01C27.2771 11.0247 27.1429 11.0247 27.01 11.01C26.8483 10.9691 26.6934 10.9052 26.55 10.82C26.314 10.6824 26.1336 10.4666 26.04 10.21C25.9553 9.97402 25.9553 9.71594 26.04 9.47998L25.56 9.17998L25.87 8.68999L26.33 8.97998C26.4012 8.86754 26.4888 8.76641 26.59 8.67998C26.6739 8.60543 26.7642 8.5385 26.86 8.47998L27.29 8.98997L27.1 9.11998C27.0294 9.18672 26.9657 9.26043 26.91 9.33998L27.91 9.97998L28.25 9.81998C28.3729 9.77589 28.5004 9.74571 28.63 9.72998C28.7655 9.7052 28.9044 9.7052 29.04 9.72998C29.1969 9.76104 29.3463 9.82217 29.48 9.90999C29.7413 10.0548 29.9458 10.2839 30.06 10.56C30.1501 10.8087 30.1501 11.0812 30.06 11.33L30.56 11.64L30.24 12.13L29.83 11.84ZM26.74 9.55998C26.7165 9.61182 26.7044 9.66807 26.7044 9.72498C26.7044 9.78188 26.7165 9.83814 26.74 9.88998C26.7811 9.9856 26.851 10.066 26.94 10.12C27.0395 10.179 27.1545 10.2068 27.27 10.2C27.3942 10.179 27.5152 10.142 27.63 10.09L26.74 9.55998ZM29.44 11.16C29.4844 11.051 29.4844 10.9289 29.44 10.82C29.3814 10.704 29.2913 10.607 29.18 10.54C29.0765 10.4721 28.9534 10.4405 28.83 10.45C28.7025 10.4708 28.5781 10.5077 28.46 10.56L29.44 11.16Z" fill="#FE624C"/>
<path d="M18.53 25.21C18.4379 25.3541 18.3269 25.4853 18.2 25.6C18.1103 25.6792 18.0132 25.7495 17.91 25.81L17.45 25.28C17.5359 25.2401 17.6165 25.1898 17.69 25.13C17.7874 25.0441 17.8777 24.9504 17.96 24.85L16.81 24.14L16.47 24.29C16.3532 24.3338 16.2327 24.3673 16.11 24.39C15.974 24.4095 15.836 24.4095 15.7 24.39C15.5386 24.3579 15.3855 24.2932 15.25 24.2C15.0151 24.063 14.8322 23.852 14.73 23.6C14.6453 23.364 14.6453 23.1059 14.73 22.87L14.25 22.57L14.56 22.07L15.02 22.36C15.0875 22.2478 15.1718 22.1466 15.27 22.06L15.54 21.86L15.98 22.38C15.9107 22.4139 15.8467 22.4577 15.79 22.51C15.7159 22.5725 15.6489 22.643 15.59 22.72L16.59 23.37L16.94 23.21C17.0606 23.157 17.1889 23.1232 17.32 23.11C17.4559 23.0902 17.594 23.0902 17.73 23.11C17.8837 23.1413 18.0298 23.2024 18.16 23.29C18.4248 23.438 18.6324 23.6703 18.75 23.95C18.8403 24.1953 18.8403 24.4647 18.75 24.71L19.24 25.02L18.93 25.52L18.53 25.21ZM15.4 22.96C15.3736 23.0128 15.3598 23.071 15.3598 23.13C15.3598 23.189 15.3736 23.2472 15.4 23.3C15.4384 23.3948 15.5093 23.4728 15.6 23.52C15.647 23.5545 15.7003 23.5794 15.757 23.5931C15.8136 23.6068 15.8724 23.6092 15.93 23.6C16.0509 23.584 16.1689 23.5504 16.28 23.5L15.4 22.96ZM18.09 24.57C18.1351 24.4577 18.1351 24.3323 18.09 24.22C18.0355 24.1044 17.9487 24.0072 17.84 23.94C17.7369 23.8718 17.6125 23.8433 17.49 23.86C17.3617 23.871 17.2364 23.9048 17.12 23.96L18.09 24.57Z" fill="#FE624C"/>
<path d="M2.89 30.28L19.71 35.21C19.71 35.21 17.77 28.48 24.15 20.05C30.53 11.62 27.85 7.39998 27.85 7.39998L11.03 2.47998C11.03 2.47998 12.52 6.86998 7.46 14.67C0.699996 25.11 2.89 30.28 2.89 30.28Z" fill="#FE624C"/>
<g style="mix-blend-mode:multiply" opacity="0.5">
<path d="M25.89 12.42C25.1077 14.7756 23.9124 16.9732 22.36 18.91C20.4556 21.3668 19.0122 24.1484 18.1 27.12C17.5735 28.8784 17.3074 30.7044 17.31 32.54L4.72003 28.86C4.61405 27.2029 4.82097 25.5406 5.33001 23.96C6.2644 21.0338 7.61129 18.2559 9.33001 15.71C10.792 13.5338 11.9274 11.1552 12.7 8.64999C13.0491 7.50161 13.2672 6.31741 13.35 5.12L26.21 8.88C26.3769 10.0689 26.2674 11.2803 25.89 12.42Z" fill="#FE624C"/>
</g>
<path d="M16.92 14.34C17.8241 14.6036 18.6297 15.1295 19.2349 15.8511C19.84 16.5727 20.2175 17.4576 20.3195 18.3939C20.4216 19.3301 20.2437 20.2755 19.8082 21.1106C19.3728 21.9456 18.6994 22.6328 17.8734 23.085C17.0473 23.5372 16.1056 23.7343 15.1675 23.6512C14.2294 23.5681 13.3371 23.2085 12.6034 22.6181C11.8697 22.0277 11.3276 21.2329 11.0458 20.3343C10.7639 19.4357 10.7549 18.4737 11.02 17.57C11.3749 16.3599 12.1956 15.3401 13.3018 14.7345C14.408 14.1289 15.7093 13.987 16.92 14.34Z" fill="#FE624C"/>
<g style="mix-blend-mode:multiply" opacity="0.5">
<path d="M18.57 20.24C18.4863 20.4719 18.3826 20.6961 18.26 20.91C18.1702 21.0618 18.0591 21.1998 17.93 21.32L17.09 20.76C17.1954 20.6719 17.2895 20.5712 17.37 20.46C17.4705 20.3027 17.5607 20.139 17.64 19.97L15.76 19.42L15.35 19.77C15.2029 19.8785 15.0455 19.9723 14.88 20.05C14.6977 20.1205 14.5053 20.161 14.31 20.17C14.0738 20.1849 13.8368 20.1579 13.61 20.09C13.2092 20.0072 12.8531 19.7793 12.61 19.45C12.4135 19.1556 12.3252 18.8022 12.36 18.45L11.58 18.23L11.81 17.41L12.57 17.63C12.6224 17.4501 12.6998 17.2784 12.8 17.12C12.8853 16.9819 12.9823 16.8514 13.09 16.73L13.9 17.28C13.8175 17.3558 13.7467 17.4434 13.69 17.54C13.6111 17.6528 13.5441 17.7734 13.49 17.9L15.18 18.4C15.31 18.27 15.46 18.16 15.6 18.04C15.7503 17.9255 15.9151 17.8314 16.09 17.76C16.2708 17.6798 16.4632 17.6292 16.66 17.61C16.8864 17.5942 17.1137 17.6213 17.33 17.69C17.755 17.7851 18.1334 18.0256 18.4 18.37C18.6216 18.677 18.7278 19.0524 18.7 19.43L19.51 19.67L19.26 20.47L18.57 20.24ZM13.4 18.33C13.3762 18.4131 13.3719 18.5005 13.3875 18.5855C13.4031 18.6705 13.4382 18.7508 13.49 18.82C13.5907 18.9282 13.7184 19.0076 13.86 19.05C14.0186 19.1056 14.1914 19.1056 14.35 19.05C14.513 18.975 14.6645 18.8774 14.8 18.76L13.4 18.33ZM17.77 19.5C17.792 19.3291 17.7453 19.1564 17.64 19.02C17.5228 18.8821 17.3655 18.7842 17.19 18.74C17.0185 18.6798 16.8316 18.6798 16.66 18.74C16.4972 18.8207 16.3431 18.9179 16.2 19.03L17.77 19.5Z" fill="#FE624C"/>
</g>
<path d="M21.25 11.89C21.1987 12.0496 21.1317 12.2037 21.05 12.35C20.9855 12.4527 20.9082 12.5468 20.82 12.63L20.24 12.25C20.3104 12.1868 20.3741 12.1164 20.43 12.04C20.504 11.9311 20.5644 11.8136 20.61 11.69L19.31 11.32L19.03 11.56C18.9281 11.6365 18.8173 11.7003 18.7 11.75C18.4157 11.8531 18.1043 11.8531 17.82 11.75C17.5522 11.686 17.3151 11.5303 17.15 11.31C17.0156 11.099 16.9558 10.849 16.98 10.6L16.43 10.44L16.6 9.88L17.12 10.04C17.1577 9.91364 17.2115 9.79265 17.28 9.67999L17.49 9.41L18.04 9.78999L17.9 9.97C17.8467 10.0478 17.8031 10.1317 17.77 10.22L18.94 10.57C19.032 10.4814 19.1288 10.3979 19.23 10.32C19.3361 10.2417 19.45 10.1747 19.57 10.12C19.6952 10.0703 19.8263 10.0367 19.96 10.02C20.1886 10.0151 20.4157 10.0589 20.626 10.1485C20.8364 10.2382 21.0252 10.3716 21.18 10.54C21.3279 10.7572 21.3983 11.0179 21.38 11.28L21.94 11.45L21.77 12.01L21.25 11.89ZM17.66 10.56C17.6462 10.6167 17.6454 10.6758 17.6575 10.733C17.6696 10.7901 17.6944 10.8437 17.73 10.89C17.798 10.9664 17.8839 11.0248 17.98 11.06C18.0913 11.0907 18.2087 11.0907 18.32 11.06C18.4331 11.0043 18.5403 10.9373 18.64 10.86L17.66 10.56ZM20.66 11.37C20.6737 11.2463 20.6417 11.1218 20.57 11.02C20.4818 10.9297 20.3715 10.8642 20.25 10.83C20.1334 10.7896 20.0066 10.7896 19.89 10.83C19.7707 10.8841 19.6595 10.9548 19.56 11.04L20.66 11.37Z" fill="#FE624C"/>
<path d="M14.03 27.83C13.9776 27.9939 13.9072 28.1516 13.82 28.3C13.7555 28.4027 13.6783 28.4968 13.59 28.58L13.01 28.2C13.0804 28.1367 13.1441 28.0664 13.2 27.99C13.27 27.8822 13.3303 27.7684 13.38 27.65L12.09 27.27L11.8 27.51C11.6995 27.5886 11.5885 27.6526 11.47 27.7C11.1858 27.8031 10.8743 27.8031 10.59 27.7C10.3252 27.6354 10.0915 27.4796 9.93002 27.26C9.78836 27.0519 9.72464 26.8005 9.75003 26.55L9.21002 26.4L9.37003 25.83L9.89003 25.98C9.92622 25.8544 9.98372 25.7361 10.06 25.63C10.1185 25.5342 10.1855 25.4439 10.26 25.36L10.82 25.74C10.7656 25.7935 10.7185 25.854 10.68 25.92C10.6233 25.9973 10.5763 26.0812 10.54 26.17L11.71 26.52L12 26.26C12.1077 26.187 12.2215 26.1235 12.34 26.07C12.4653 26.0203 12.5963 25.9867 12.73 25.97C12.8884 25.9573 13.0478 25.9743 13.2 26.02C13.4924 26.0959 13.7542 26.26 13.95 26.49C14.1025 26.7051 14.1733 26.9674 14.15 27.23L14.71 27.4L14.54 27.96L14.03 27.83ZM10.4 26.56C10.3847 26.6176 10.3821 26.6779 10.3925 26.7366C10.4028 26.7953 10.4259 26.8511 10.46 26.9C10.5256 26.9769 10.6127 27.0326 10.71 27.06C10.8232 27.1004 10.9469 27.1004 11.06 27.06C11.172 27.0078 11.2763 26.9405 11.37 26.86L10.4 26.56ZM13.4 27.38C13.4152 27.2593 13.3829 27.1374 13.31 27.04C13.2244 26.9445 13.1134 26.8751 12.99 26.84C12.8744 26.7943 12.7457 26.7943 12.63 26.84C12.5151 26.8882 12.4074 26.9522 12.31 27.03L13.4 27.38Z" fill="#FE624C"/>
<path d="M43.2967 20.1093L3.80467 27.2364C1.93502 27.5738 0.692899 29.363 1.03031 31.2327L6.0191 58.8761C6.35652 60.7458 8.14569 61.9879 10.0153 61.6505L49.5074 54.5234C51.3771 54.186 52.6192 52.3968 52.2818 50.5271L47.293 22.8837C46.9556 21.014 45.1664 19.7719 43.2967 20.1093Z" fill="#303030"/>
<g style="mix-blend-mode:multiply" opacity="0.5">
<path d="M52.27 50.56L51.71 47.42C51.8048 48.2834 51.5686 49.1507 51.0489 49.8467C50.5292 50.5427 49.7648 51.0156 48.91 51.17L9.39998 58.28C8.95545 58.3608 8.49936 58.3533 8.05774 58.2578C7.61613 58.1623 7.19765 57.9808 6.82621 57.7236C6.45476 57.4663 6.13762 57.1385 5.8929 56.7587C5.64819 56.3788 5.48069 55.9545 5.39998 55.51L0.979984 31C0.974771 31.0833 0.974771 31.1667 0.979984 31.25L5.97998 58.89C6.05954 59.3354 6.2262 59.7608 6.47042 60.1418C6.71463 60.5227 7.0316 60.8517 7.40317 61.1099C7.77474 61.3682 8.1936 61.5506 8.63578 61.6467C9.07795 61.7428 9.53474 61.7507 9.97998 61.67L49.5 54.56C49.9451 54.4805 50.3702 54.3138 50.7506 54.0694C51.1311 53.8251 51.4595 53.5079 51.717 53.1362C51.9744 52.7644 52.1558 52.3454 52.2507 51.9033C52.3456 51.4612 52.3522 51.0047 52.27 50.56Z" fill="#FE624C"/>
</g>
<path d="M47.9228 26.3801L1.66016 34.7291L5.47856 55.8873L51.7412 47.5384L47.9228 26.3801Z" fill="#8F8F8F"/>
<g style="mix-blend-mode:multiply" opacity="0.5">
<path d="M24.54 48.16C23.46 47.36 22.18 46.46 20.78 45.53C20.08 45.08 19.36 44.58 18.61 44.13L17.22 43.26L18.06 41.97C18.54 41.27 18.95 40.55 19.38 39.86C20.23 38.49 20.98 37.18 21.59 36.03C22.84 33.76 23.52 32.15 23.52 32.15C23.52 32.15 22.29 33.39 20.65 35.4C19.82 36.4 18.89 37.59 17.93 38.89C17.46 39.54 16.93 40.2 16.48 40.89L15.54 42.24L14.05 41.36C13.29 40.91 12.52 40.51 11.79 40.1C10.32 39.3 8.92998 38.58 7.70998 38C5.29998 36.81 3.59998 36.17 3.59998 36.17C3.59998 36.17 4.95997 37.38 7.12997 38.97C8.20997 39.77 9.48998 40.67 10.89 41.59C11.6 42.05 12.31 42.59 13.06 43L14.45 43.86C14.17 44.3 13.89 44.73 13.61 45.15C13.14 45.86 12.72 46.58 12.29 47.27C11.45 48.64 10.69 49.95 10.08 51.09C8.82997 53.37 8.14998 54.98 8.14998 54.98C8.14998 54.98 9.37997 53.74 11.02 51.73C11.85 50.73 12.77 49.54 13.73 48.24C14.21 47.58 14.73 46.92 15.19 46.24L16.13 44.9L17.62 45.77C18.38 46.23 19.15 46.63 19.88 47.04C21.35 47.84 22.74 48.56 23.95 49.14C26.37 50.33 28.07 50.96 28.07 50.96C28.07 50.96 26.71 49.74 24.54 48.16Z" fill="#303030"/>
<path d="M44.46 44.37C43.38 43.57 42.09 42.67 40.7 41.74C39.99 41.29 39.28 40.74 38.53 40.34L37.14 39.47L37.98 38.18C38.45 37.48 38.87 36.76 39.3 36.07C40.14 34.7 40.9 33.39 41.51 32.25C42.76 29.97 43.44 28.36 43.44 28.36C43.44 28.36 42.2 29.6 40.57 31.61C39.74 32.61 38.81 33.8 37.85 35.1C37.38 35.75 36.85 36.41 36.39 37.1L35.46 38.44L33.96 37.56C33.21 37.11 32.44 36.71 31.71 36.3C30.24 35.5 28.85 34.78 27.63 34.2C25.22 33.02 23.52 32.38 23.52 32.38C23.52 32.38 24.87 33.58 27.05 35.17C28.13 35.97 29.41 36.87 30.81 37.79C31.51 38.25 32.23 38.74 32.98 39.2L34.37 40.07C34.09 40.5 33.8 40.93 33.53 41.36C33.06 42.06 32.64 42.78 32.21 43.47C31.36 44.85 30.61 46.15 30 47.3C28.75 49.57 28.06 51.18 28.06 51.18C28.06 51.18 29.3 49.94 30.94 47.93C31.76 46.93 32.69 45.74 33.65 44.44C34.12 43.79 34.65 43.12 35.11 42.44L36.04 41.1L37.54 41.98C38.29 42.43 39.06 42.83 39.8 43.24C41.26 44.04 42.66 44.76 43.87 45.34C46.29 46.53 47.99 47.16 47.99 47.16C47.99 47.16 46.63 45.96 44.46 44.37Z" fill="#303030"/>
</g>
<path d="M15.23 44.26C15.4356 45.0927 15.3026 45.973 14.8602 46.7078C14.4178 47.4426 13.7021 47.972 12.87 48.18L4.24001 49.74C3.38806 49.8329 2.53391 49.5856 1.86343 49.0518C1.19296 48.5181 0.760427 47.7411 0.660003 46.89L0.0600121 43.58C-0.146249 42.75 -0.0160137 41.8722 0.422332 41.1379C0.860678 40.4035 1.57158 39.8723 2.40001 39.66L11.03 38.1C11.882 38.0071 12.7361 38.2544 13.4066 38.7882C14.0771 39.3219 14.5096 40.0989 14.61 40.95L15.23 44.26Z" fill="#303030"/>
<g style="mix-blend-mode:multiply" opacity="0.5">
<path d="M15.23 44.26L14.63 40.95C14.5826 40.7007 14.5124 40.4563 14.42 40.22L14.83 42.49C15.0356 43.3227 14.9027 44.203 14.4603 44.9378C14.0179 45.6726 13.3022 46.2021 12.47 46.41L3.84003 47.97C3.1211 48.0612 2.39275 47.9009 1.77852 47.5163C1.16429 47.1318 0.701988 46.5466 0.470032 45.86L0.660019 46.86C0.760443 47.7111 1.19297 48.4881 1.86345 49.0218C2.53393 49.5556 3.38808 49.8029 4.24002 49.71L12.87 48.15C13.6956 47.9418 14.4061 47.4169 14.8477 46.6889C15.2894 45.961 15.4267 45.0884 15.23 44.26Z" fill="#FE624C"/>
</g>
<path d="M14.13 42.75C14.226 43.2891 14.1601 43.8445 13.9407 44.3461C13.7212 44.8478 13.358 45.2731 12.8969 45.5684C12.4358 45.8637 11.8975 46.0157 11.3501 46.0053C10.8026 45.9948 10.2706 45.8224 9.82108 45.5097C9.3716 45.197 9.02486 44.7581 8.82468 44.2485C8.6245 43.7389 8.57987 43.1813 8.69639 42.6463C8.81291 42.1113 9.08537 41.6228 9.47936 41.2426C9.87335 40.8624 10.3712 40.6074 10.91 40.51C11.2687 40.4438 11.6369 40.4493 11.9935 40.5263C12.35 40.6033 12.6878 40.7501 12.9872 40.9584C13.2866 41.1667 13.5418 41.4323 13.7379 41.7398C13.9341 42.0473 14.0673 42.3907 14.13 42.75Z" fill="#414141"/>
</g>
<defs>
<clipPath id="clip0_222_250">
<rect width="52.33" height="61.72" fill="white"/>
</clipPath>
</defs>
</svg>
