<svg width="98" height="113" viewBox="0 0 98 113" fill="none" xmlns="http://www.w3.org/2000/svg">
<g clip-path="url(#clip0_9405_986)">
<path d="M21.0904 74.17C21.1704 68.25 22.5204 60.71 26.0904 58.93C28.6104 57.66 30.8604 57.45 32.7704 58.31C37.0304 60.23 38.8204 66.98 39.7704 70.61C39.8804 71.02 39.9804 71.4 40.0704 71.72L40.7104 71.54C40.6171 71.22 40.5171 70.85 40.4104 70.43C39.4104 66.7 37.5704 59.75 33.0204 57.7C30.9204 56.76 28.4804 56.97 25.7704 58.33C20.7704 60.86 20.4404 72.81 20.4204 74.16L21.0904 74.17Z" fill="#FE624C"/>
<path d="M21.54 74.98L50.71 71.98C50.71 71.98 54.18 101.08 52.71 106.84C52.2 108.9 23.25 113.21 23.25 113.21L21.54 74.98Z" fill="#FE624C"/>
<g filter="url(#filter0_i_9405_986)">
<path d="M16.6901 73.03C16.6901 72.8 21.5401 75.03 21.5401 75.03L23.2701 113.22L14.0601 109.71C14.0601 109.71 15.3601 81.1 16.6901 73.03Z" fill="#FE624C"/>
</g>
<path d="M16.6904 73.02L45.0905 69.36L50.7204 71.94L21.5404 74.98L16.6904 73.02Z" fill="#F5F7F9"/>
<path d="M25.8401 76.17C25.9101 70.89 27.2802 59.38 31.0502 57.49C31.9155 56.969 32.8907 56.6579 33.8979 56.5815C34.905 56.5051 35.9161 56.6655 36.8502 57.05C41.3502 59.16 43.2901 67.4 44.3301 71.83C44.5201 72.65 44.6901 73.37 44.8401 73.89L45.4802 73.71C45.3302 73.2 45.1702 72.49 44.9802 71.71C43.9102 67.17 41.9301 58.71 37.1301 56.48C36.1058 56.0499 34.9947 55.8665 33.8865 55.9447C32.7783 56.0229 31.7039 56.3604 30.7501 56.93C26.3801 59.12 25.2402 71.93 25.1802 76.19L25.8401 76.17Z" fill="#FE624C"/>
<path d="M30.8405 57.14C33.2405 50.76 36.2405 38.82 37.8405 30.82L37.1904 30.69C35.5804 38.69 32.5904 50.56 30.1904 56.91L30.8405 57.14Z" fill="#303030"/>
<path d="M30.0902 57.14L30.7202 56.91C29.4102 53.32 27.4902 48.91 25.4602 44.19C23.4302 39.47 21.4002 34.79 19.8402 30.63L19.2202 30.87C20.7802 35.04 22.8502 39.87 24.8502 44.45C26.8502 49.03 28.8402 53.57 30.0902 57.14Z" fill="#303030"/>
<path d="M46.58 25.8C42.28 25.8 38.69 28.04 37.58 31.08C36.45 28.08 32.87 25.8 28.58 25.8C24.29 25.8 20.69 28.04 19.58 31.08C18.45 28.08 14.87 25.8 10.58 25.8C6.29002 25.8 2.50003 28.14 1.47003 31.3C1.16759 30.1406 1.00969 28.9482 1 27.75C1 16.84 13.36 8 28.61 8C43.86 8 56.21 16.84 56.21 27.75C56.206 28.9486 56.048 30.1417 55.7401 31.3C54.66 28.15 50.99 25.8 46.58 25.8Z" fill="#FE624C"/>
<path d="M59.4508 78.1839C59.5508 78.1839 59.4508 78.4339 59.4508 78.4339C63.9808 76.5939 95.2608 75.3739 96.2608 82.2839C97.8708 93.4339 99.4908 101.204 91.0308 104.554C85.5908 106.704 73.6308 106.134 65.9308 105.424L59.7608 109.964L59.9008 104.684L59.1408 104.564C50.7308 102.964 45.9608 77.9639 59.4508 78.1839Z" fill="#303030"/>
<path d="M57.3908 85.2139C57.3848 85.1741 57.3848 85.1337 57.3908 85.0939C57.3983 85.0456 57.393 84.9962 57.3755 84.9506C57.3579 84.905 57.3287 84.8647 57.2908 84.8339H57.2308C57.131 84.7108 57.0168 84.6 56.8908 84.5039C56.7754 84.4123 56.6516 84.3319 56.5208 84.2639L56.2508 84.1139C56.1694 84.0742 56.0812 84.0504 55.9908 84.0439H55.2908L55.0708 84.1239C55.024 84.1313 54.9817 84.1559 54.9521 84.1929C54.9225 84.2299 54.9078 84.2766 54.9108 84.3239C54.9108 84.3239 54.9108 84.3939 54.9108 84.5539C54.9013 84.6871 54.9013 84.8207 54.9108 84.9539C54.9243 85.1303 54.9243 85.3075 54.9108 85.4839C54.9108 85.6939 54.9108 85.8739 54.9108 86.0339C54.9108 86.1939 54.9108 86.3439 54.9108 86.5939C54.9108 86.8439 54.9108 87.1039 54.9108 87.3639C54.9108 87.6239 54.9108 87.9939 54.9108 88.4939C54.9108 88.9939 54.9108 89.4939 54.9108 89.9639C54.9108 90.1839 54.9108 90.4239 54.9108 90.6939V91.4939C54.9108 91.7539 54.9108 92.0039 54.9108 92.2439V92.8639C54.8681 93.3059 54.8481 93.7498 54.8508 94.1939C54.8508 94.6939 54.8508 95.1139 54.8508 95.4639C54.8508 95.8139 54.8508 96.0739 54.8508 96.3339C54.8508 96.5939 54.8508 96.8239 55.0008 96.8239H55.1508C55.1776 96.809 55.2011 96.789 55.2199 96.765C55.2388 96.7409 55.2527 96.7134 55.2608 96.6839C55.2742 96.5843 55.2742 96.4835 55.2608 96.3839C55.2608 96.2439 55.2608 96.0339 55.2608 95.7639C55.2608 95.4939 55.2608 95.1239 55.2608 94.6639V93.8539C55.2608 93.5839 55.2608 93.3239 55.2608 93.0839C55.2608 92.8439 55.2608 92.6439 55.2608 92.4639C55.2608 92.2839 55.2608 92.1639 55.2608 92.0739C55.2608 91.9839 55.2608 91.8739 55.2608 91.7139C55.2608 91.5539 55.2608 91.3539 55.2608 91.1439C55.2608 90.9339 55.2608 90.6939 55.2608 90.4539C55.2608 90.2139 55.2608 89.9639 55.2608 89.7239V87.5739C55.2608 87.4539 55.2608 87.2339 55.2608 86.9339C55.2608 86.6339 55.2608 86.3439 55.3508 86.0539C55.4408 85.7639 55.3508 85.5039 55.3508 85.2639C55.3508 85.0239 55.3508 84.8539 55.3508 84.7839C55.3508 84.7139 55.3508 84.6339 55.3508 84.6339C55.4065 84.6026 55.4676 84.5822 55.5309 84.5739H55.8808H56.0909C56.1639 84.5917 56.2345 84.6186 56.3008 84.6539C56.4008 84.7039 56.4308 84.7439 56.4308 84.7539V84.8539H56.6408C56.6719 84.9047 56.7088 84.9517 56.7508 84.9939C56.7949 85.038 56.8321 85.0886 56.8608 85.1439L56.9908 85.3539C57.0237 85.4283 57.0505 85.5052 57.0708 85.5839C57.0788 85.6604 57.0788 85.7374 57.0708 85.8139C57.0858 85.9033 57.0858 85.9945 57.0708 86.0839C57.085 86.2269 57.085 86.3709 57.0708 86.5139C57.0797 86.6504 57.0797 86.7874 57.0708 86.9239C57.0596 87.0306 57.0326 87.1351 56.9908 87.2339C56.9908 87.2939 56.9908 87.3739 56.9908 87.4639C56.9786 87.5535 56.9786 87.6443 56.9908 87.7339C57.0006 87.7834 57.0006 87.8344 56.9908 87.8839C56.9876 87.9305 56.9876 87.9773 56.9908 88.0239C56.9048 88.1835 56.8441 88.3556 56.8109 88.5339C56.7702 88.6453 56.7129 88.7498 56.6408 88.8439C56.6124 88.8448 56.5844 88.8515 56.5587 88.8635C56.5329 88.8755 56.5098 88.8927 56.4908 88.9139C56.4678 88.9335 56.4496 88.9581 56.4374 88.9858C56.4253 89.0136 56.4196 89.0437 56.4208 89.0739H56.3208C56.265 89.0741 56.2114 89.0956 56.1708 89.1339C56.1418 89.1609 56.121 89.1956 56.1108 89.2339L55.8508 89.3939L55.5909 89.4839C55.5909 89.4839 55.4508 89.5439 55.4208 89.6239L55.3409 89.7039C55.3027 89.7485 55.2814 89.8052 55.2809 89.8639C55.2808 89.8845 55.285 89.9048 55.2931 89.9237C55.3013 89.9426 55.3132 89.9596 55.3282 89.9737C55.3433 89.9877 55.361 89.9986 55.3804 90.0055C55.3997 90.0124 55.4203 90.0153 55.4408 90.0139C55.5494 90.0391 55.6623 90.0391 55.7708 90.0139L56.0508 89.8639C56.1382 89.8287 56.2219 89.7852 56.3008 89.7339C56.3608 89.6739 56.4208 89.6339 56.4408 89.6039C56.467 89.5967 56.4947 89.5967 56.5208 89.6039C56.5996 89.5933 56.673 89.5584 56.7308 89.5039C56.8055 89.4563 56.8673 89.391 56.9108 89.3139C57.0008 89.2086 57.075 89.0907 57.1308 88.9639C57.1996 88.8268 57.2532 88.6826 57.2908 88.5339C57.3561 88.4173 57.4065 88.293 57.4408 88.1639C57.4546 88.0845 57.4546 88.0033 57.4408 87.9239C57.4408 87.9239 57.4408 87.8639 57.4408 87.6939C57.4408 87.5239 57.5009 87.4439 57.5309 87.3139C57.5736 87.1329 57.6037 86.9491 57.6209 86.7639C57.6351 86.5608 57.6351 86.357 57.6209 86.1539C57.6337 85.9641 57.6337 85.7737 57.6209 85.5839C57.6129 85.5089 57.5881 85.4366 57.5482 85.3725C57.5084 85.3085 57.4546 85.2542 57.3908 85.2139Z" fill="white"/>
<path d="M65.5609 95.7139C65.5405 95.5819 65.5104 95.4515 65.4709 95.3239L65.3809 94.9539C65.3646 94.8835 65.3376 94.8161 65.3009 94.7539C65.2665 94.6265 65.2463 94.4957 65.2409 94.3639C65.2377 94.2424 65.2209 94.1217 65.1909 94.0039C65.1703 93.9065 65.1367 93.8123 65.0909 93.7239C65.0988 93.6307 65.0988 93.5371 65.0909 93.4439C65.0838 93.3574 65.0838 93.2704 65.0909 93.1839C65.0909 93.0739 65.0109 92.9239 64.9409 92.7039C64.8709 92.4839 64.8109 92.2739 64.7409 92.0639C64.6709 91.8539 64.6109 91.6439 64.5609 91.4339C64.513 91.2846 64.4828 91.1302 64.4709 90.9739C64.485 90.8577 64.485 90.7401 64.4709 90.6239V90.4139V90.3239H64.4109C64.4109 90.3239 64.4109 90.3239 64.4109 90.2639C64.3967 90.1534 64.3664 90.0456 64.3209 89.9439C64.3209 89.7739 64.2009 89.5739 64.1409 89.3439C64.0809 89.1139 64.0509 88.8539 64.0009 88.6039C63.9509 88.3539 63.9009 88.1939 63.8609 88.0939C63.8704 87.9474 63.8704 87.8004 63.8609 87.6539C63.8421 87.5292 63.805 87.4079 63.7509 87.2939C63.7102 87.1931 63.6768 87.0895 63.6509 86.9839L63.5409 86.5439C63.5409 86.4039 63.4709 86.2739 63.4409 86.1439C63.4214 86.0492 63.3803 85.9602 63.3209 85.8839C63.2945 85.8028 63.2778 85.7189 63.2709 85.6339C63.2582 85.5186 63.2348 85.4048 63.2009 85.2939C63.1972 85.1659 63.1804 85.0386 63.1509 84.9139C63.1209 84.783 63.0629 84.6602 62.9809 84.5539C62.9809 84.4539 62.9009 84.3239 62.8409 84.1539C62.7109 84.0039 62.6909 84.0039 62.6709 83.9939H62.6209C62.5125 84.0138 62.4158 84.0747 62.3509 84.1639C62.3509 84.2339 62.2709 84.3139 62.2209 84.4039C62.1758 84.4917 62.1454 84.5863 62.1309 84.6839C62.1309 84.7839 62.0709 84.9539 61.9509 85.1939C61.8621 85.4299 61.7854 85.6702 61.7209 85.9139C61.6071 86.1308 61.5069 86.3545 61.4209 86.5839C61.3309 86.8139 61.2709 86.9739 61.2309 87.0439C61.1824 87.1903 61.1257 87.3339 61.0609 87.4739C60.9784 87.6535 60.9147 87.8412 60.8709 88.0339C60.8709 88.2039 60.7909 88.3839 60.7409 88.5639L60.6009 88.9939C60.5582 89.1115 60.4937 89.2201 60.4109 89.3139C60.4109 89.3139 60.4109 89.3739 60.2909 89.5739C60.1914 89.7679 60.1143 89.9725 60.0609 90.1839C59.9609 90.3939 59.8609 90.6039 59.7709 90.8139C59.7106 90.9421 59.6637 91.0761 59.6309 91.2139C59.6253 91.2968 59.605 91.3781 59.5709 91.4539L59.4409 91.7139C59.3854 91.7925 59.3447 91.8807 59.3209 91.9739C59.3209 92.0839 59.2509 92.1939 59.2209 92.2939C59.1711 92.406 59.1342 92.5234 59.1109 92.6439C59.1109 92.7939 59.0409 92.9439 59.0109 93.0739C58.9809 93.2039 58.9409 93.3539 58.9109 93.4739C58.9044 93.5605 58.9044 93.6473 58.9109 93.7339C58.9183 93.8037 58.9183 93.8741 58.9109 93.9439C58.9109 94.0639 58.8509 94.1939 58.8209 94.3339C58.7847 94.4771 58.7379 94.6175 58.6809 94.7539C58.6492 94.8378 58.609 94.9182 58.5609 94.9939C58.515 95.0971 58.4781 95.2042 58.4509 95.3139C58.4509 95.4439 58.3809 95.5739 58.3509 95.7139C58.3103 95.825 58.2769 95.9385 58.2509 96.0539C58.2278 96.1324 58.2111 96.2127 58.2009 96.2939C58.1916 96.339 58.1922 96.3856 58.2025 96.4305C58.2129 96.4753 58.2328 96.5174 58.2609 96.5539C58.2835 96.5623 58.3084 96.5623 58.3309 96.5539C58.3431 96.5669 58.3578 96.5773 58.3741 96.5844C58.3905 96.5915 58.4081 96.5952 58.4259 96.5952C58.4437 96.5952 58.4614 96.5915 58.4777 96.5844C58.4941 96.5773 58.5088 96.5669 58.5209 96.5539L58.6409 96.4539C58.703 96.3933 58.7478 96.3174 58.7709 96.2339C58.8136 96.1328 58.8503 96.0293 58.8809 95.9239C58.8725 95.8541 58.8725 95.7836 58.8809 95.7139C58.8872 95.6474 58.8872 95.5804 58.8809 95.5139C58.8775 95.4639 58.8775 95.4138 58.8809 95.3639C58.8809 95.2739 58.9409 95.2339 58.9609 95.2239C59.0117 95.1297 59.0488 95.0286 59.0709 94.9239C59.0709 94.8039 59.1409 94.6939 59.1809 94.5839C59.2209 94.4739 59.2609 94.2839 59.3209 94.0939C59.3809 93.9039 59.4209 93.7439 59.4509 93.6039L59.5509 93.2039C59.5827 93.1001 59.5996 92.9924 59.6009 92.8839C59.5938 92.8074 59.5938 92.7304 59.6009 92.6539L59.6909 92.3639L59.8109 92.1339H60.0909H60.7409H61.7409H63.7409C63.9608 92.1216 64.1811 92.1216 64.4009 92.1339C64.4134 92.1277 64.427 92.1245 64.4409 92.1245C64.4548 92.1245 64.4685 92.1277 64.4809 92.1339C64.5026 92.3227 64.5497 92.5077 64.6209 92.6839C64.6909 92.9639 64.7609 93.2939 64.8209 93.6839C64.8209 93.8239 64.8909 93.9639 64.9209 94.1039C64.9286 94.1871 64.9286 94.2708 64.9209 94.3539C64.9133 94.4504 64.9133 94.5474 64.9209 94.6439C64.9209 94.7939 64.9709 94.9639 65.0009 95.1439C65.0309 95.3239 65.0709 95.4839 65.1109 95.6539C65.1509 95.8239 65.1709 95.9339 65.1909 96.0139C65.2109 96.0939 65.3209 96.3739 65.3609 96.4639C65.4009 96.5539 65.4709 96.6439 65.5609 96.6439C65.6037 96.6541 65.6482 96.6541 65.6909 96.6439C65.7609 96.6439 65.7909 96.5539 65.7909 96.4639C65.8303 96.3793 65.8507 96.2872 65.8507 96.1939C65.8507 96.1006 65.8303 96.0085 65.7909 95.9239C65.7257 95.8423 65.6481 95.7715 65.5609 95.7139ZM61.1109 88.2439C61.1039 88.1707 61.1039 88.0971 61.1109 88.0239C61.1358 87.9453 61.1658 87.8685 61.2009 87.7939C61.259 87.6808 61.3091 87.5639 61.3509 87.4439L61.5509 86.9439C61.6209 86.7739 61.7109 86.5439 61.8109 86.2639C61.9109 85.9839 62.0109 85.7239 62.1209 85.4739C62.2309 85.2239 62.2809 84.9739 62.3309 84.8439C62.334 84.8939 62.334 84.9439 62.3309 84.9939C62.3395 85.0971 62.3395 85.2007 62.3309 85.3039C62.3328 85.4328 62.353 85.5607 62.3909 85.6839C62.4277 85.8106 62.4816 85.9317 62.5509 86.0439C62.5509 86.1439 62.6109 86.2439 62.6409 86.3639C62.6514 86.4536 62.6514 86.5442 62.6409 86.6339C62.6461 86.7355 62.6628 86.8361 62.6909 86.9339C62.7104 87.038 62.744 87.1389 62.7909 87.2339C62.8301 87.3353 62.8635 87.4387 62.8909 87.5439C62.9158 87.6694 62.9492 87.793 62.9909 87.9139C62.9768 88.0235 62.9768 88.1344 62.9909 88.2439C62.9909 88.3939 62.9909 88.4339 62.9909 88.4539C62.9801 88.51 62.9801 88.5677 62.9909 88.6239V88.7339C62.9909 88.7339 62.9909 88.7839 63.0709 88.9239C63.1509 89.0639 63.1409 89.1739 63.1809 89.3139L63.2709 89.7139C63.2816 89.8069 63.2816 89.9009 63.2709 89.9939C63.3061 90.0413 63.33 90.096 63.3409 90.1539C63.3562 90.2433 63.3562 90.3345 63.3409 90.4239C63.3278 90.5134 63.3278 90.6044 63.3409 90.6939C63.3493 90.7637 63.3493 90.8342 63.3409 90.9039C63.3278 90.9934 63.3278 91.0844 63.3409 91.1739C63.3489 91.2503 63.3489 91.3274 63.3409 91.4039V91.5439H63.1209H62.7209C62.5317 91.5683 62.3401 91.5683 62.1509 91.5439H61.3909C61.1009 91.5439 60.8309 91.5439 60.6009 91.6039H59.9709C59.8211 91.5939 59.6708 91.5939 59.5209 91.6039L59.2309 91.5439C59.2216 91.5078 59.2216 91.47 59.2309 91.4339C59.2414 91.3811 59.2414 91.3267 59.2309 91.2739C59.2585 91.1392 59.3022 91.0082 59.3609 90.8839L59.5009 90.5439C59.5583 90.3998 59.6084 90.253 59.6509 90.1039C59.7347 89.9679 59.8114 89.8277 59.8809 89.6839C59.9564 89.5267 60.0167 89.3626 60.0609 89.1939L60.2509 88.8139C60.3067 88.7228 60.3409 88.6202 60.3509 88.5139C60.4343 88.396 60.5521 88.3068 60.6881 88.2585C60.8242 88.2101 60.9719 88.205 61.1109 88.2439Z" fill="white"/>
<path d="M69.641 84.0539C69.541 84.0539 69.471 84.1539 69.411 84.2739C69.351 84.3939 69.291 84.5039 69.221 84.6339C69.151 84.7639 69.091 84.8939 69.031 85.0039C68.9961 85.0807 68.9408 85.1464 68.871 85.1939L68.771 85.3939C68.7383 85.4483 68.721 85.5105 68.721 85.5739L68.671 85.6439L68.551 85.7839L68.441 85.8639C68.3839 85.8975 68.3412 85.9509 68.321 86.0139C68.221 86.2339 68.131 86.3939 68.071 86.5239C67.9684 86.673 67.8781 86.8302 67.801 86.9939V87.0639V86.9039C67.7641 86.7724 67.7138 86.6451 67.651 86.5239C67.5849 86.3251 67.5047 86.1313 67.411 85.9439C67.312 85.7338 67.1841 85.5386 67.031 85.3639C66.9142 85.2074 66.8073 85.0438 66.711 84.8739L66.431 84.3739C66.3636 84.275 66.3034 84.1714 66.251 84.0639C66.171 83.9239 66.101 83.8639 66.031 83.8639H65.901C65.8637 83.8837 65.8332 83.9144 65.8135 83.9519C65.7939 83.9894 65.786 84.0319 65.791 84.0739C65.791 84.0739 65.791 84.1739 65.791 84.2739C65.8116 84.3854 65.8559 84.4911 65.921 84.5839C65.9566 84.6839 66 84.7808 66.051 84.8739C66.0879 84.9383 66.1315 84.9986 66.181 85.0539C66.1975 85.1161 66.2324 85.1718 66.281 85.2139L66.471 85.4139C66.5167 85.4627 66.5569 85.5163 66.591 85.5739C66.6382 85.6359 66.6785 85.703 66.711 85.7739C66.7123 85.8435 66.7294 85.9119 66.761 85.9739C66.7773 86.0199 66.8091 86.0588 66.851 86.0839L66.961 86.3639C67.041 86.5239 67.111 86.7139 67.191 86.9239C67.2747 87.0786 67.3385 87.2432 67.381 87.4139C67.381 87.4739 67.381 87.5039 67.381 87.5239V87.5739C67.3359 87.668 67.3088 87.7698 67.301 87.8739C67.3055 87.938 67.3261 87.9999 67.361 88.0539C67.3851 88.101 67.4154 88.1447 67.451 88.1839C67.4465 88.2538 67.4465 88.324 67.451 88.3939C67.451 88.5039 67.451 88.6439 67.451 88.8139C67.451 88.9839 67.451 89.2039 67.451 89.6139C67.451 90.0239 67.451 90.4139 67.451 90.8039C67.451 91.0139 67.451 91.2339 67.451 91.4739C67.451 91.7139 67.451 91.9539 67.451 92.1839C67.451 92.4139 67.451 92.6539 67.451 92.8639C67.451 93.0739 67.451 93.2539 67.451 93.4039C67.451 93.7339 67.451 94.1139 67.451 94.5239C67.451 94.9339 67.451 95.2839 67.451 95.5239C67.4341 95.7769 67.4341 96.0309 67.451 96.2839C67.4612 96.3934 67.5029 96.4976 67.571 96.5839H67.641C67.6813 96.5867 67.7215 96.5766 67.7557 96.555C67.7898 96.5334 67.8162 96.5015 67.831 96.4639C67.8782 96.4051 67.9123 96.3369 67.931 96.2639C67.9471 96.1612 67.9471 96.0566 67.931 95.9539C67.9499 95.7446 67.9261 95.5337 67.861 95.3339C67.861 95.3339 67.861 95.1939 67.861 94.9139C67.861 94.6339 67.861 94.3439 67.861 93.9139V92.9639C67.8592 92.6596 67.8391 92.3558 67.801 92.0539C67.801 91.8239 67.801 91.4639 67.801 91.0039C67.801 90.5439 67.801 90.0839 67.801 89.6539V88.2739C67.801 88.1339 67.801 88.0739 67.801 88.0439C67.7975 88.0274 67.7975 88.0104 67.801 87.9939C67.8686 87.9174 67.932 87.8373 67.991 87.7539C68.081 87.6339 68.171 87.5039 68.281 87.3739L68.641 86.9639C68.698 86.868 68.7386 86.7632 68.761 86.6539C68.8234 86.5572 68.8801 86.4571 68.931 86.3539C69.0126 86.1944 69.0861 86.0309 69.151 85.8639C69.2632 85.6805 69.3633 85.4901 69.451 85.2939L69.681 84.8039C69.7791 84.6529 69.8533 84.4876 69.901 84.3139C69.8968 84.2541 69.8721 84.1976 69.831 84.1539C69.8113 84.1217 69.7832 84.0954 69.7497 84.0778C69.7163 84.0602 69.6787 84.0519 69.641 84.0539Z" fill="white"/>
<path d="M77.221 86.0539C77.2092 85.9075 77.2092 85.7603 77.221 85.6139C77.2159 85.4695 77.1992 85.3257 77.171 85.1839C77.171 85.0239 77.111 84.8639 77.071 84.7039L76.921 84.2639C76.9052 84.2163 76.8791 84.1728 76.8446 84.1365C76.81 84.1002 76.7678 84.072 76.721 84.0539H76.491C76.4296 84.0739 76.3721 84.1043 76.321 84.1439L76.221 84.2639C76.1983 84.2859 76.1804 84.3124 76.1683 84.3416C76.1563 84.3709 76.1504 84.4023 76.151 84.4339V84.8039C76.1439 84.8661 76.127 84.9269 76.101 84.9839C76.101 85.0939 76.031 85.2239 76.001 85.3739C75.957 85.5268 75.9335 85.6848 75.931 85.8439C75.9339 85.8905 75.9339 85.9373 75.931 85.9839C75.9274 86.05 75.9103 86.1146 75.881 86.1739C75.8272 86.2915 75.7902 86.416 75.771 86.5439C75.7406 86.7022 75.7238 86.8628 75.721 87.0239C75.7288 87.1571 75.7288 87.2907 75.721 87.4239C75.721 87.6239 75.661 87.8339 75.621 88.0539C75.581 88.2739 75.561 88.4839 75.521 88.6739C75.481 88.8639 75.461 88.9739 75.451 89.0139C75.441 89.0539 75.371 89.2139 75.311 89.3739C75.2532 89.5309 75.2227 89.6966 75.221 89.8639C75.2205 89.9988 75.2037 90.1331 75.171 90.2639C75.1495 90.3662 75.1194 90.4666 75.081 90.5639C75.011 90.7339 74.991 90.7939 75.001 90.8339C74.9665 90.9712 74.9197 91.1051 74.861 91.2339C74.8118 91.3506 74.7717 91.471 74.741 91.5939C74.741 91.7439 74.671 91.8739 74.631 91.9839C74.627 92.0987 74.6103 92.2128 74.581 92.3239C74.5618 92.4171 74.5316 92.5078 74.491 92.5939C74.4433 92.6615 74.4155 92.7412 74.411 92.8239C74.3951 92.9026 74.3717 92.9797 74.341 93.0539C74.341 93.1539 74.341 93.2639 74.341 93.3639C74.3354 93.4468 74.3151 93.5281 74.281 93.6039C74.2367 93.7308 74.2032 93.8613 74.181 93.9939C74.1539 94.1257 74.1372 94.2595 74.131 94.3939C74.1187 94.3522 74.1019 94.312 74.081 94.2739C74.0527 94.2037 74.0359 94.1294 74.031 94.0539C74.0275 93.994 74.0275 93.9339 74.031 93.8739C74.0322 93.7944 74.0151 93.7157 73.981 93.6439V93.5739C73.981 93.5739 73.981 93.5739 73.901 93.3239C73.885 93.1576 73.885 92.9902 73.901 92.8239C73.9133 92.5874 73.9133 92.3504 73.901 92.1139C73.901 91.8239 73.901 91.5639 73.901 91.3439C73.9119 91.1341 73.9119 90.9238 73.901 90.7139C73.8929 90.6041 73.8929 90.4938 73.901 90.3839C73.9094 90.2908 73.9094 90.1971 73.901 90.1039V89.9339C73.9 89.8221 73.8831 89.711 73.851 89.6039C73.825 89.482 73.7916 89.3618 73.751 89.2439L73.641 88.8739C73.641 88.7439 73.571 88.6139 73.531 88.4939C73.4836 88.3731 73.4436 88.2495 73.411 88.1239C73.3754 87.9463 73.3148 87.7746 73.231 87.6139L73.131 87.0439C73.091 86.8439 73.051 86.6639 73.011 86.5039C73.011 86.4039 72.941 86.2639 72.901 86.1039C72.861 85.9439 72.831 85.8039 72.791 85.6939L72.641 85.2639C72.5804 85.0912 72.5336 84.914 72.501 84.7339C72.4371 84.6037 72.3804 84.4702 72.331 84.3339C72.3084 84.2502 72.2634 84.1741 72.201 84.1139C72.1323 84.0372 72.0428 83.9822 71.9434 83.9555C71.8439 83.9289 71.7389 83.9318 71.641 83.9639H71.591C71.5609 83.9634 71.531 83.9694 71.5034 83.9815C71.4758 83.9936 71.4511 84.0114 71.431 84.0339C71.4113 84.0498 71.3949 84.0695 71.3829 84.0918C71.3709 84.1142 71.3634 84.1387 71.361 84.1639C71.3161 84.2278 71.2822 84.2988 71.261 84.3739C71.2237 84.4867 71.2068 84.6052 71.211 84.7239C71.2215 84.8203 71.2215 84.9175 71.211 85.0139C71.2001 85.0902 71.2001 85.1676 71.211 85.2439C71.211 85.2939 71.211 85.4339 71.211 85.8339C71.211 86.2339 71.211 86.5239 71.211 86.9339C71.211 87.1439 71.211 87.4139 71.211 87.7739C71.211 88.1339 71.211 88.5139 71.211 88.9539C71.211 89.3939 71.211 89.8339 71.211 90.3039C71.211 90.7739 71.211 91.2339 71.211 91.6839C71.211 92.1339 71.211 92.5939 71.211 93.0639C71.211 93.5339 71.211 93.9639 71.161 94.3639V95.3639C71.161 95.6239 71.161 95.7639 71.161 95.7739C71.1733 95.8568 71.1733 95.941 71.161 96.0239C71.1512 96.1337 71.1512 96.2441 71.161 96.3539C71.1189 96.4668 71.1189 96.591 71.161 96.7039C71.173 96.7401 71.1957 96.7719 71.226 96.7951C71.2563 96.8183 71.2929 96.8318 71.331 96.8339C71.4323 96.8297 71.53 96.7948 71.611 96.7339V96.5639C71.6242 96.471 71.6242 96.3768 71.611 96.2839C71.611 96.2839 71.611 96.1939 71.611 96.1039C71.6171 96.0286 71.6339 95.9545 71.661 95.8839C71.661 95.8839 71.661 95.7239 71.661 95.4939C71.661 95.2639 71.661 94.9839 71.711 94.6539C71.761 94.3239 71.711 93.9639 71.761 93.5839C71.811 93.2039 71.761 92.8239 71.761 92.4739C71.761 92.1239 71.761 91.8339 71.761 91.5239C71.761 91.2139 71.761 90.9539 71.761 90.7239C71.761 90.4939 71.761 90.2439 71.761 89.9639V85.9639C71.745 85.7976 71.745 85.6302 71.761 85.4639C71.761 85.4639 71.761 85.3939 71.761 85.3639C71.761 85.3339 71.841 85.5939 71.891 85.7339C71.9357 85.8561 71.9627 85.9841 71.971 86.1139C71.971 86.2239 72.051 86.3839 72.111 86.6139C72.171 86.8439 72.221 87.0639 72.261 87.2939C72.301 87.5239 72.391 87.7139 72.441 87.8739C72.4566 87.9729 72.498 88.066 72.561 88.1439C72.557 88.2005 72.557 88.2573 72.561 88.3139L72.661 88.6339C72.7054 88.765 72.7422 88.8986 72.771 89.0339C72.771 89.1939 72.851 89.3239 72.881 89.4339C72.8723 89.5537 72.8723 89.6741 72.881 89.7939C72.892 89.8936 72.892 89.9942 72.881 90.0939C72.8703 90.1635 72.8703 90.2343 72.881 90.3039C72.8899 90.3803 72.8899 90.4575 72.881 90.5339C72.8721 90.6504 72.8721 90.7674 72.881 90.8839C72.8973 91.0869 72.8973 91.2909 72.881 91.4939C72.881 91.7139 72.881 91.9739 72.881 92.2739C72.8933 92.5071 72.8933 92.7407 72.881 92.9739C72.8641 93.1402 72.8641 93.3077 72.881 93.4739C72.887 93.5538 72.887 93.634 72.881 93.7139C72.931 93.7839 72.931 93.8039 72.931 93.8039C72.9433 93.9218 72.9633 94.0387 72.991 94.1539C72.991 94.3439 73.061 94.5239 73.091 94.7139C73.121 94.9039 73.171 95.0939 73.231 95.2839C73.2683 95.4047 73.2951 95.5285 73.311 95.6539C73.311 95.6539 73.311 95.6539 73.371 95.8339C73.3775 95.8655 73.3919 95.8949 73.4129 95.9194C73.4339 95.9439 73.4608 95.9627 73.491 95.9739C73.5356 96.0161 73.5947 96.0396 73.656 96.0396C73.7174 96.0396 73.7765 96.0161 73.821 95.9739C73.8646 95.9181 73.9238 95.8763 73.991 95.8539H74.071V95.7139C74.071 95.5739 74.071 95.5439 74.071 95.5439C74.06 95.4442 74.06 95.3436 74.071 95.2439C74.0818 95.0941 74.0818 94.9437 74.071 94.7939C74.0603 94.6608 74.0603 94.527 74.071 94.3939C74.071 94.2139 74.071 94.1539 74.071 94.1339C74.0674 94.0673 74.0674 94.0005 74.071 93.9339C74.0814 93.8388 74.1015 93.7449 74.131 93.6539C74.1707 93.5584 74.1944 93.4571 74.201 93.3539V93.0939C74.2053 93.0151 74.2222 92.9374 74.251 92.8639C74.2783 92.7847 74.3117 92.7079 74.351 92.6339C74.3931 92.5745 74.4206 92.506 74.431 92.4339C74.431 92.3139 74.431 92.2739 74.481 92.2739C74.4714 92.2109 74.4714 92.1469 74.481 92.0839C74.4907 91.9975 74.4907 91.9103 74.481 91.8239C74.4919 91.7095 74.5223 91.5979 74.571 91.4939L74.781 90.8839C74.781 90.7039 74.861 90.4939 74.911 90.2839C74.9562 90.117 74.9863 89.9463 75.001 89.7739C75.001 89.6639 75.071 89.5139 75.111 89.3239C75.151 89.1339 75.181 88.9639 75.221 88.8239C75.261 88.6839 75.221 88.7039 75.311 88.3939L75.451 87.6539L75.601 86.8639C75.651 86.6039 75.681 86.4039 75.701 86.2639C75.721 86.1239 75.781 85.7639 75.831 85.5139C75.8683 85.3756 75.8984 85.2354 75.921 85.0939C75.921 85.0939 75.921 85.0939 75.921 85.1539L76.021 85.6539C76.021 85.7739 76.021 85.9739 76.021 86.2739C76.021 86.5739 76.021 86.8939 76.021 87.2739V88.2739C76.021 88.6139 76.021 88.8939 76.021 89.0939C76.021 89.6739 76.021 90.1439 76.021 90.4739C76.0152 90.7448 75.9952 91.0151 75.961 91.2839L75.861 91.7139C75.8514 91.827 75.8514 91.9408 75.861 92.0539C75.8679 92.1671 75.8679 92.2807 75.861 92.3939C75.861 92.5939 75.861 92.8339 75.861 93.0739C75.861 93.3139 75.861 93.6439 75.801 93.9739C75.741 94.3039 75.801 94.6039 75.801 94.8639V95.9639C75.7694 96.0509 75.7493 96.1417 75.741 96.2339C75.741 96.3339 75.741 96.4239 75.741 96.5039C75.7703 96.5288 75.7941 96.5594 75.811 96.5939C75.8379 96.6253 75.8719 96.6499 75.9101 96.6655C75.9484 96.6812 75.9899 96.6875 76.031 96.6839C76.161 96.6039 76.211 96.5339 76.211 96.4639C76.211 96.3939 76.211 96.2539 76.211 95.9339C76.211 95.6139 76.211 95.2339 76.211 94.8239C76.211 94.4139 76.211 94.0139 76.211 93.6039C76.211 93.1939 76.211 92.9139 76.211 92.7539C76.2144 92.553 76.2311 92.3526 76.261 92.1539C76.2834 91.9622 76.3168 91.7718 76.361 91.5839C76.361 91.4039 76.431 91.1439 76.461 90.8439C76.491 90.5439 76.511 90.1239 76.511 89.6439C76.511 89.4639 76.511 89.2139 76.511 88.9039L76.561 87.9539C76.561 87.6439 76.561 87.3539 76.611 87.0939C76.6287 86.921 76.6287 86.7468 76.611 86.5739C77.261 86.4239 77.241 86.2539 77.221 86.0539Z" fill="white"/>
<path d="M83.7309 96.2339H83.5309C83.4696 96.2371 83.4106 96.258 83.3609 96.2938C83.285 96.3098 83.2067 96.3098 83.1309 96.2938H82.5509C82.3681 96.3136 82.1837 96.3136 82.0009 96.2938C81.8924 96.2796 81.7854 96.2562 81.6809 96.2239L81.3209 96.1439C81.0278 96.1265 80.7339 96.1265 80.4409 96.1439C80.3313 96.1575 80.2205 96.1575 80.1109 96.1439H79.8609L79.7309 96.0939C79.6629 96.0039 79.6121 95.9022 79.5809 95.7938C79.5668 95.6776 79.5668 95.5601 79.5809 95.4439V94.9839C79.5809 94.9039 79.5809 94.7739 79.5809 94.5839C79.5903 94.4006 79.5903 94.2171 79.5809 94.0339C79.5809 93.8439 79.5809 93.6439 79.5809 93.4439C79.5809 93.2439 79.5809 93.0739 79.5809 92.9639C79.5705 92.8675 79.5705 92.7702 79.5809 92.6739C79.5882 92.604 79.5882 92.5337 79.5809 92.4639C79.5809 92.4139 79.5809 92.3439 79.5809 92.2439C79.5908 92.1274 79.5908 92.0103 79.5809 91.8939V91.2239V91.0738H79.7109C79.7701 91.0602 79.8316 91.0602 79.8909 91.0738C79.9705 91.0635 80.0512 91.0635 80.1309 91.0738H81.6409C81.6926 91.0922 81.7491 91.0922 81.8009 91.0738C81.8365 91.0446 81.864 91.0068 81.8809 90.9639C81.9261 90.9024 81.9538 90.8298 81.9609 90.7539V90.6539H81.1609H80.6309H79.6409C79.6343 90.544 79.6343 90.4338 79.6409 90.3238C79.6409 90.1238 79.6409 89.8939 79.6409 89.6339C79.6409 89.3739 79.6409 89.0739 79.7009 88.6839V88.6339C79.7112 88.5777 79.7112 88.5201 79.7009 88.4639C79.7009 88.4639 79.7009 88.3239 79.7009 88.0439C79.7009 87.7639 79.7009 87.5539 79.7009 87.2739C79.7009 86.9939 79.7009 86.6339 79.7009 86.2739C79.7009 85.9139 79.7009 85.6539 79.7009 85.4639C79.7009 85.2739 79.7009 85.0539 79.7009 84.9039C79.6934 84.8609 79.6934 84.8169 79.7009 84.7739C79.8005 84.7614 79.9012 84.7614 80.0009 84.7739L80.3509 84.8639L80.6709 84.9439L80.9209 85.0139L81.3109 85.0839L81.7109 85.1439L82.0009 85.1939L82.3609 85.3039C82.3892 85.3121 82.4139 85.3298 82.4309 85.3539C82.4169 85.3892 82.4169 85.4285 82.4309 85.4639H82.4809C82.4809 85.4639 82.5509 85.4639 82.6909 85.3039C82.7526 85.2417 82.8095 85.1749 82.8609 85.1039C82.8731 85.0682 82.8731 85.0295 82.8609 84.9939C82.847 84.9548 82.8228 84.9203 82.7909 84.8939C82.7256 84.8326 82.6403 84.7971 82.5509 84.7939C82.4214 84.778 82.2904 84.778 82.1609 84.7939L81.7809 84.7039C81.6309 84.7039 81.5909 84.6539 81.5909 84.6439H81.4209H81.1709H80.9009H80.6909C80.6148 84.6573 80.537 84.6573 80.4609 84.6439H80.3909V84.5839H80.6409H80.5709C80.5211 84.5771 80.4706 84.5771 80.4209 84.5839C80.4209 84.5839 80.4209 84.5839 80.3509 84.5839L80.1809 84.4739C80.1183 84.4378 80.051 84.4109 79.9809 84.3939C79.9182 84.3809 79.8535 84.3809 79.7909 84.3939H79.7109C79.6845 84.3973 79.6598 84.4087 79.6402 84.4266C79.6205 84.4445 79.6068 84.4679 79.6009 84.4939C79.5708 84.5356 79.5503 84.5834 79.5409 84.6339C79.5409 84.6839 79.5409 84.7239 79.5409 84.7639C79.5409 84.8039 79.5409 84.8639 79.5409 85.2739C79.5409 85.6839 79.5409 85.9639 79.5409 86.3839C79.5409 86.8039 79.5409 87.2439 79.5409 87.5939C79.5409 87.9439 79.5409 88.1839 79.5409 88.3039C79.5482 88.4137 79.5482 88.524 79.5409 88.6339C79.5231 88.7623 79.4964 88.8892 79.4609 89.0139C79.4609 89.1239 79.4609 89.2939 79.4609 89.5339C79.4609 89.7739 79.4609 89.9939 79.4609 90.1939V92.1939C79.4699 92.3471 79.4699 92.5007 79.4609 92.6539C79.453 92.7938 79.453 92.934 79.4609 93.0738C79.4197 93.2548 79.3929 93.4387 79.3809 93.6239C79.3809 93.8739 79.3809 94.1339 79.3809 94.3839C79.3809 94.6339 79.3809 94.8238 79.3809 95.0438C79.3809 95.2639 79.3809 95.3939 79.3809 95.4539C79.3809 95.5139 79.3809 95.6839 79.3809 95.8839C79.3955 96.0391 79.4223 96.1928 79.4609 96.3439C79.4609 96.4839 79.4609 96.6239 79.4609 96.7539C79.467 96.8404 79.467 96.9273 79.4609 97.0139C79.4559 97.0671 79.4559 97.1206 79.4609 97.1739C79.4609 97.2739 79.5209 97.3138 79.5609 97.3238C79.603 97.3383 79.6487 97.3383 79.6909 97.3238C79.7481 97.3209 79.8019 97.2958 79.8409 97.2539C79.8752 97.2066 79.9053 97.1564 79.9309 97.1039C79.9458 97.0414 79.9458 96.9763 79.9309 96.9139H80.0009C80.0873 96.9044 80.1745 96.9044 80.2609 96.9139C80.5509 96.9139 80.8709 96.9139 81.1609 96.9639H81.5809H81.9209L82.3509 97.0438L82.7109 97.1039C82.7784 97.1301 82.8533 97.1301 82.9209 97.1039H83.0909C83.2073 97.0927 83.3245 97.0927 83.4409 97.1039H83.5509C83.8009 97.1039 83.9409 97.1039 83.9809 97.0039C84.0165 96.9578 84.0374 96.902 84.0409 96.8439C84.0499 96.8044 84.0499 96.7634 84.0409 96.7239C84.1058 96.6828 84.1518 96.6175 84.1687 96.5425C84.1856 96.4675 84.172 96.3888 84.1309 96.3238C84.0898 96.2589 84.0245 96.2129 83.9495 96.196C83.8745 96.1791 83.7958 96.1927 83.7309 96.2339Z" fill="white"/>
<path d="M89.2312 86.0539C89.2312 85.7339 89.2312 85.4639 89.2312 85.2239C89.2312 84.9839 89.2312 84.8439 89.2312 84.7639C89.2312 84.6839 89.2312 84.4339 89.2312 84.3039C89.2363 84.2151 89.2116 84.1272 89.1611 84.0539C89.1499 84.0412 89.136 84.0309 89.1205 84.0239C89.105 84.0169 89.0882 84.0133 89.0712 84.0133C89.0541 84.0133 89.0373 84.0169 89.0218 84.0239C89.0063 84.0309 88.9924 84.0412 88.9812 84.0539H88.8912C88.8524 84.0928 88.8188 84.1365 88.7912 84.1839C88.7491 84.2494 88.7282 84.3262 88.7312 84.4039C88.7312 84.4039 88.7312 84.5339 88.7312 84.6739C88.7312 84.8139 88.7312 84.9839 88.7312 85.1739C88.7312 85.3639 88.7312 85.5739 88.7312 85.7939C88.7312 86.0139 88.7312 86.2239 88.7312 86.4139C88.7312 86.6039 88.7312 86.8339 88.7312 87.0739C88.7312 87.3139 88.7312 87.5339 88.7312 87.7739C88.7312 88.0139 88.7312 88.2339 88.7312 88.4539C88.7312 88.6739 88.7312 88.8539 88.7312 89.0139C88.7312 89.3439 88.7312 89.6939 88.7312 90.0639C88.7388 90.3386 88.7187 90.6133 88.6712 90.8839C88.6712 91.1039 88.6512 91.3139 88.6112 91.5139C88.6112 91.7039 88.6112 91.8439 88.6112 91.9039C88.6112 91.9639 88.6112 92.1539 88.6112 92.3239C88.6005 92.4949 88.5804 92.6651 88.5512 92.8339C88.5512 92.9739 88.4711 93.1739 88.4111 93.4239C88.3585 93.64 88.3316 93.8615 88.3312 94.0839C88.3312 94.1739 88.3312 94.3039 88.3312 94.4739V95.4739V95.3939C88.3312 95.3939 88.3312 95.3139 88.3312 95.1839C88.3312 95.0539 88.3312 94.9239 88.2812 94.7739C88.2312 94.6239 88.2812 94.4639 88.2312 94.3139C88.1812 94.1639 88.2312 94.0539 88.2312 93.9839C88.2466 93.841 88.2466 93.6968 88.2312 93.5539C88.225 93.4774 88.225 93.4005 88.2312 93.3239C88.187 93.2229 88.1633 93.1142 88.1611 93.0039C88.1541 92.8739 88.1272 92.7457 88.0812 92.6239C88.0875 92.5374 88.0875 92.4505 88.0812 92.3639C88.0812 92.2239 88.0212 92.0739 87.9912 91.9039C87.9998 91.7474 87.9998 91.5905 87.9912 91.4339C87.9792 91.3042 87.9792 91.1736 87.9912 91.0439C87.9462 90.9412 87.9127 90.8339 87.8912 90.7239C87.8912 90.5839 87.8212 90.4539 87.7812 90.3439C87.7896 90.2141 87.7896 90.0838 87.7812 89.9539C87.7711 89.8475 87.7711 89.7404 87.7812 89.6339C87.7909 89.5509 87.7909 89.467 87.7812 89.3839C87.7744 89.2974 87.7744 89.2105 87.7812 89.1239C87.7733 88.9843 87.7463 88.8463 87.7012 88.7139C87.6449 88.5339 87.6015 88.3501 87.5712 88.1639C87.471 87.9324 87.3842 87.6953 87.3112 87.4539C87.2112 87.1139 87.1011 86.7739 87.0011 86.4539C86.9011 86.1339 86.8411 85.8139 86.7511 85.5239C86.6989 85.3435 86.6355 85.1665 86.5612 84.9939C86.5612 84.8839 86.4912 84.7639 86.4612 84.6439C86.4507 84.5542 86.4507 84.4636 86.4612 84.3739C86.439 84.2782 86.3945 84.1891 86.3312 84.1139C86.3115 84.087 86.286 84.065 86.2565 84.0494C86.2271 84.0338 86.1945 84.0251 86.1611 84.0239H85.9812C85.9812 84.0739 85.9012 84.1439 85.8912 84.4339C85.8812 84.7239 85.8912 84.9239 85.8912 85.3239C85.8912 85.7239 85.8912 85.9039 85.8912 86.2039C85.8912 86.5039 85.8912 86.7239 85.8912 86.8339C85.9021 86.9937 85.9021 87.1541 85.8912 87.3139C85.8912 87.5339 85.8912 87.7139 85.8912 87.8639C85.9083 88.0101 85.9083 88.1578 85.8912 88.3039C85.8912 88.4939 85.8912 88.5539 85.8912 88.5739C85.8975 88.6805 85.8975 88.7873 85.8912 88.8939C85.8766 89.0803 85.8766 89.2675 85.8912 89.4539C85.903 89.6804 85.903 89.9074 85.8912 90.1339C85.8912 90.4139 85.8212 90.6639 85.7912 90.8739C85.7612 91.0839 85.7212 91.2939 85.6812 91.5739C85.6412 91.8539 85.6012 92.0739 85.5712 92.2739C85.5799 92.4338 85.5799 92.5941 85.5712 92.7539C85.5596 92.9037 85.5596 93.0541 85.5712 93.2039V94.9439C85.5712 95.0639 85.5712 95.2239 85.5712 95.4339C85.5835 95.6104 85.5835 95.7875 85.5712 95.9639C85.5712 96.1439 85.5712 96.2939 85.5712 96.4239C85.566 96.5127 85.5907 96.6007 85.6412 96.6739C85.6515 96.6865 85.6645 96.6966 85.6792 96.7036C85.6939 96.7105 85.7099 96.7141 85.7262 96.7141C85.7424 96.7141 85.7585 96.7105 85.7732 96.7036C85.7879 96.6966 85.8009 96.6865 85.8112 96.6739H85.9111C85.9626 96.6466 86.0062 96.6065 86.0378 96.5575C86.0693 96.5084 86.0877 96.4521 86.0912 96.3939C86.0912 96.2839 86.0912 96.0939 86.0912 95.7939C86.1052 95.6008 86.1052 95.407 86.0912 95.2139C86.0782 95.0475 86.0782 94.8803 86.0912 94.7139C86.1003 94.5874 86.1003 94.4604 86.0912 94.3339C86.078 94.2176 86.078 94.1002 86.0912 93.9839C86.0912 93.8739 86.0912 93.7439 86.0912 93.5839C86.0993 93.4359 86.1193 93.2887 86.1512 93.1439C86.1359 92.9776 86.1359 92.8102 86.1512 92.6439C86.1609 92.5241 86.1609 92.4037 86.1512 92.2839C86.1445 92.2174 86.1445 92.1504 86.1512 92.0839C86.1618 92.0043 86.1618 91.9236 86.1512 91.8439C86.1431 91.7708 86.1431 91.697 86.1512 91.6239C86.1754 91.5559 86.1921 91.4855 86.2012 91.4139C86.2012 91.3439 86.2012 91.2139 86.2012 91.0139C86.2123 90.7907 86.2123 90.5671 86.2012 90.3439L86.2912 89.6139C86.3062 89.4409 86.3062 89.2669 86.2912 89.0939C86.2811 89.0009 86.2811 88.907 86.2912 88.8139C86.3003 88.6908 86.3003 88.5671 86.2912 88.4439C86.2791 88.3075 86.2791 88.1703 86.2912 88.0339C86.3014 87.8574 86.3014 87.6805 86.2912 87.5039C86.2912 87.3639 86.2912 87.1639 86.2912 86.9139C86.3056 86.6742 86.3056 86.4337 86.2912 86.1939V85.9139L86.3612 86.1239L86.4711 86.5139C86.5077 86.6832 86.5545 86.8502 86.6112 87.0139C86.6712 87.2039 86.7212 87.3439 86.7612 87.4539C86.8311 87.5824 86.8817 87.7206 86.9111 87.8639L87.0312 88.3139C87.0312 88.4139 87.1011 88.5439 87.1311 88.6939C87.1432 88.8203 87.1432 88.9475 87.1311 89.0739L87.2312 89.4639C87.2432 89.5903 87.2432 89.7176 87.2312 89.8439C87.2312 89.9539 87.2912 90.0739 87.3212 90.2139C87.3474 90.2951 87.3642 90.379 87.3712 90.4639C87.3668 90.5472 87.3668 90.6307 87.3712 90.7139C87.3668 90.7918 87.3879 90.869 87.4312 90.9339C87.4386 91.0484 87.4553 91.1621 87.4812 91.2739C87.4812 91.4439 87.5412 91.6339 87.5812 91.8539C87.6212 92.0739 87.6412 92.2639 87.6712 92.4439C87.6835 92.5569 87.6835 92.6709 87.6712 92.7839C87.6712 92.7839 87.6712 92.7839 87.6712 92.9139C87.6756 92.9905 87.6756 93.0673 87.6712 93.1439C87.671 93.2738 87.6947 93.4026 87.7412 93.5239C87.7354 93.5905 87.7354 93.6574 87.7412 93.7239C87.7565 93.82 87.7565 93.9179 87.7412 94.0139C87.7339 94.1205 87.7339 94.2274 87.7412 94.3339C87.7412 94.4839 87.7412 94.6439 87.7412 94.8139C87.7412 94.9839 87.7412 95.1539 87.7912 95.3039C87.8412 95.4539 87.7912 95.5639 87.7912 95.5939C87.787 95.7159 87.8039 95.8377 87.8412 95.9539C87.8412 95.9539 87.9012 96.0939 87.9912 96.1139C88.0192 96.1328 88.0523 96.1429 88.0862 96.1429C88.12 96.1429 88.1531 96.1328 88.1812 96.1139C88.2037 96.1055 88.2286 96.1055 88.2511 96.1139C88.2161 96.1784 88.1978 96.2506 88.1978 96.3239C88.1978 96.3973 88.2161 96.4695 88.2511 96.5339C88.2567 96.5637 88.2711 96.5911 88.2926 96.6125C88.314 96.6339 88.3414 96.6484 88.3712 96.6539H88.6412C88.6739 96.6473 88.7035 96.6299 88.7252 96.6046C88.7469 96.5792 88.7596 96.5473 88.7612 96.5139C88.8038 96.3676 88.8273 96.2163 88.8312 96.0639C88.8205 95.9041 88.8205 95.7437 88.8312 95.5839C88.8448 95.3808 88.8448 95.177 88.8312 94.9739V93.6139C88.8312 93.4839 88.8312 93.4039 88.8312 93.3939V93.3339H88.9012V93.1039C88.8953 93.0341 88.8953 92.9638 88.9012 92.8939C88.9153 92.7777 88.9153 92.6602 88.9012 92.5439C88.9452 92.391 88.9687 92.233 88.9711 92.0739V91.5139C88.9617 91.3707 88.9617 91.2271 88.9711 91.0839C88.9711 90.9039 88.9711 90.8339 88.9711 90.8039C89.0247 90.5138 89.0481 90.2189 89.0412 89.9239C89.0412 89.4639 89.0412 88.8239 89.0412 88.0339C89.0412 87.6939 89.0412 87.3339 89.0412 86.9739C89.0412 86.6139 89.2412 86.3739 89.2312 86.0539Z" fill="white"/>
<path d="M94.1011 84.6739C94.1011 84.4939 93.8411 84.4839 93.7511 84.4839H93.4111C93.086 84.4419 92.7671 84.3614 92.4612 84.2439L92.0411 84.1639C91.9012 84.1602 91.7619 84.1839 91.6311 84.2339H91.4811L91.2711 84.1539C91.2615 84.1349 91.2473 84.1186 91.2299 84.1064C91.2124 84.0942 91.1923 84.0865 91.1711 84.0839H91.0811C90.9937 84.0969 90.9148 84.1436 90.8611 84.2139C90.8237 84.2588 90.8032 84.3154 90.8032 84.3739C90.8032 84.4323 90.8237 84.489 90.8611 84.5339C90.909 84.5837 90.9726 84.6155 91.0411 84.6239C91.1406 84.639 91.2417 84.639 91.3412 84.6239L91.8511 84.5139V84.7039V86.7039C91.8511 86.7739 91.8511 86.8639 91.8511 86.9739C91.8417 87.0904 91.8417 87.2074 91.8511 87.3239C91.8511 87.3939 91.8511 87.5439 91.8511 87.7639C91.8511 87.9839 91.8511 88.2339 91.8511 88.4939C91.8511 88.7539 91.8511 89.0939 91.8511 89.4939C91.8511 89.8939 91.8511 90.3139 91.8511 90.6739C91.8511 91.0339 91.8511 91.3039 91.8511 91.5739C91.8511 91.8439 91.8511 91.9539 91.8511 92.0339C91.8397 92.1068 91.8397 92.181 91.8511 92.2539C91.8511 92.3739 91.8511 92.4939 91.8511 92.6039C91.8425 92.7538 91.8425 92.904 91.8511 93.0539C91.8511 93.1939 91.8511 93.2839 91.8511 93.3439C91.8545 93.4038 91.8545 93.4639 91.8511 93.5239C91.843 93.597 91.843 93.6708 91.8511 93.7439C91.8577 93.7802 91.8577 93.8175 91.8511 93.8539C91.8468 93.9138 91.8468 93.974 91.8511 94.0339C91.8086 94.107 91.7846 94.1894 91.7812 94.2739C91.7654 94.4235 91.7654 94.5743 91.7812 94.7239C91.7812 94.8739 91.7812 95.0639 91.7812 95.2839C91.7812 95.5039 91.7812 95.6939 91.7812 95.8539C91.7812 96.0139 91.7812 96.2839 91.7812 96.3639C91.7812 96.4439 91.7811 96.5339 91.8911 96.5539C91.9404 96.5661 91.9919 96.5661 92.0411 96.5539C92.0939 96.5531 92.1442 96.5315 92.1812 96.4939C92.2156 96.4597 92.2428 96.4189 92.2611 96.3739C92.276 96.3391 92.2837 96.3017 92.2837 96.2639C92.2837 96.226 92.276 96.1886 92.2611 96.1539C92.2686 96.074 92.2686 95.9937 92.2611 95.9139C92.2611 95.8139 92.2611 95.7239 92.2611 95.6539C92.2611 95.5839 92.2611 95.4339 92.2611 95.3039C92.2496 95.1875 92.2496 95.0702 92.2611 94.9539C92.2611 94.8539 92.2611 94.7539 92.2611 94.6439C92.2691 94.544 92.2691 94.4437 92.2611 94.3439C92.2518 94.2408 92.2518 94.137 92.2611 94.0339C92.2611 93.9239 92.3111 93.8239 92.3311 93.7539C92.364 93.6333 92.3808 93.5089 92.3811 93.3839C92.3811 93.2239 92.3811 93.0839 92.3811 92.9539C92.3811 92.8239 92.3811 92.6739 92.3811 92.4839C92.3811 92.2939 92.4311 92.1039 92.4511 91.9439C92.4594 91.784 92.4594 91.6238 92.4511 91.4639C92.4511 91.3139 92.4511 91.2139 92.4511 91.1639C92.4398 91.0776 92.4398 90.9902 92.4511 90.9039C92.4511 90.7539 92.4511 90.6239 92.4511 90.4939C92.4511 90.3639 92.4511 90.1439 92.4511 89.8939C92.4511 89.6439 92.4511 89.4239 92.4511 89.2139C92.4511 89.0039 92.4511 88.7739 92.4511 88.5039C92.4511 88.2339 92.4511 88.0139 92.4511 87.8339C92.4511 87.6539 92.4511 87.4939 92.4511 87.2839C92.4511 87.0739 92.4511 86.8839 92.4511 86.7739C92.4511 86.6639 92.4511 86.4439 92.4511 86.1739C92.4511 85.9039 92.4511 85.6539 92.4511 85.4239V84.5739L92.7611 84.6839C92.8958 84.7385 93.037 84.7755 93.1812 84.7939C93.2605 84.8083 93.3418 84.8083 93.4211 84.7939H93.6011C93.6336 84.7832 93.6687 84.7832 93.7011 84.7939C93.7125 84.8316 93.7367 84.8643 93.7696 84.8862C93.8024 84.9081 93.8419 84.9179 93.8811 84.9139C93.9617 84.8912 94.0322 84.8418 94.0811 84.7739C94.0916 84.7414 94.0983 84.7078 94.1011 84.6739Z" fill="white"/>
</g>
<defs>
<filter id="filter0_i_9405_986" x="14.0601" y="73.0134" width="9.20996" height="44.2067" filterUnits="userSpaceOnUse" color-interpolation-filters="sRGB">
<feFlood flood-opacity="0" result="BackgroundImageFix"/>
<feBlend mode="normal" in="SourceGraphic" in2="BackgroundImageFix" result="shape"/>
<feColorMatrix in="SourceAlpha" type="matrix" values="0 0 0 0 0 0 0 0 0 0 0 0 0 0 0 0 0 0 127 0" result="hardAlpha"/>
<feOffset dy="40"/>
<feGaussianBlur stdDeviation="2"/>
<feComposite in2="hardAlpha" operator="arithmetic" k2="-1" k3="1"/>
<feColorMatrix type="matrix" values="0 0 0 0 0 0 0 0 0 0 0 0 0 0 0 0 0 0 0.25 0"/>
<feBlend mode="normal" in2="shape" result="effect1_innerShadow_9405_986"/>
</filter>
<clipPath id="clip0_9405_986">
<rect width="98" height="113" fill="white"/>
</clipPath>
</defs>
</svg>
