<svg xmlns="http://www.w3.org/2000/svg" width="88" height="84" viewBox="0 0 88 84" fill="none">
<g clip-path="url(#clip0_9239_977)">
<path d="M35.8395 62.5141C35.8365 62.4133 35.8246 62.3129 35.8039 62.2142C35.7741 62.0403 35.7266 61.8064 35.685 61.5664L35.5066 60.6247L35.2331 59.7069C35.1677 59.473 35.0963 59.2451 35.0488 59.0711C35.0234 58.9743 34.9895 58.88 34.9477 58.7892L35.9941 58.1234L37.0346 57.4336L36.7611 56.7678C36.5564 56.2779 36.3221 55.8011 36.0595 55.3402C35.9228 55.0883 35.792 54.8304 35.6552 54.5964L35.2509 53.9966L34.8466 53.3968L33.7051 53.9006C33.1403 54.1585 32.5754 54.4405 32.5754 54.4405C32.5754 54.4405 31.3863 52.9469 31.3328 52.9829L30.661 52.3051C30.5063 52.1483 30.3414 52.002 30.1675 51.8672L29.9416 51.6753L30.5361 50.5595L31.0891 49.4259L30.9404 49.2999C30.8085 49.1851 30.6695 49.0789 30.5242 48.982L29.2162 48.0943L27.8368 47.3325C27.6854 47.2461 27.5285 47.17 27.3671 47.1046L27.1888 47.0206L26.4396 48.0463L25.7262 49.078L25.4527 48.964C25.2609 48.8686 25.0622 48.7884 24.8581 48.7241L23.9544 48.4302C23.9544 48.3762 22.0994 47.9863 22.0994 47.9863C22.0994 47.9863 22.0994 47.3445 22.0578 46.7207L21.9745 45.467L21.2611 45.389L20.5298 45.3051C20.2622 45.3051 19.9709 45.3051 19.6855 45.3051C19.1609 45.2709 18.6346 45.2709 18.1099 45.3051L17.3965 45.365L17.2538 46.6187C17.2003 47.2185 17.1527 47.8663 17.1527 47.8663C17.0527 47.8691 16.9532 47.8811 16.8554 47.9023L16.2133 48.0283L15.2798 48.2082L14.3642 48.4782L13.7697 48.6701C13.6737 48.6957 13.5802 48.7299 13.4902 48.7721L12.8303 47.7104L12.0752 46.6367L11.4093 46.9126C10.9263 47.1205 10.4558 47.3568 10.0002 47.6204C9.74455 47.7584 9.48889 47.8903 9.25702 48.0283L8.66246 48.4422L8.06791 48.844L8.56139 49.9957C8.81705 50.5655 9.09649 51.1414 9.09649 51.1414C9.09649 51.1414 7.62199 52.3411 7.65766 52.3891L6.97987 53.0728C6.82641 53.2269 6.68339 53.3912 6.55179 53.5647C6.43288 53.7027 6.36153 53.7986 6.36153 53.7986L5.25566 53.1988L4.12601 52.641L4.00115 52.7969C3.88943 52.9281 3.78616 53.0663 3.69199 53.2108L2.81204 54.5304L2.05101 55.928C1.96563 56.0788 1.89016 56.2351 1.82509 56.3959L1.74779 56.5819L2.75853 57.3316L3.78711 58.0514L3.6682 58.3273C3.57849 58.5229 3.49911 58.7231 3.43038 58.9272L3.145 59.8449C3.09149 59.8449 2.70502 61.7104 2.70502 61.7104C2.70502 61.7104 2.06885 61.7104 1.45051 61.7524L0.207898 61.8364C0.207898 61.8364 0.172225 62.1242 0.124661 62.5561C0.124661 62.7721 0.0770935 63.024 0.0473658 63.2939C0.017638 63.5639 0.0473658 63.8578 0.0473658 64.1457C0.0193677 64.6772 0.0193677 65.2097 0.0473658 65.7412C0.083039 66.1731 0.112767 66.461 0.112767 66.461L1.34944 66.599L2.59206 66.707C2.59496 66.8058 2.6069 66.9042 2.62773 67.0009C2.65746 67.1808 2.70502 67.4147 2.74664 67.6547L2.92501 68.5964L3.19851 69.5142C3.26391 69.7481 3.33525 69.976 3.38282 70.15C3.40823 70.2468 3.44205 70.3411 3.48389 70.4319L2.43153 71.0977L1.37917 71.8295L1.65266 72.5013C1.85733 72.9912 2.09164 73.468 2.35424 73.9289C2.49099 74.1808 2.62179 74.4387 2.75853 74.6727L3.16283 75.2725L3.56713 75.8723L4.70867 75.3745C5.30323 75.1165 5.83833 74.8346 5.83833 74.8346C5.83833 74.8346 7.02744 76.3282 7.08095 76.2922L7.7528 76.97C7.90751 77.1268 8.07236 77.2731 8.24627 77.4079L8.4722 77.5998L7.87765 78.7155L7.31876 79.8492L7.47335 79.9752C7.60409 80.0896 7.74321 80.1938 7.88954 80.2871L9.19756 81.1808L10.5769 81.9426C10.7283 82.029 10.8852 82.1051 11.0466 82.1705L11.225 82.2485L11.9741 81.2288L12.6876 80.1971L12.9611 80.3111C13.1542 80.4033 13.3527 80.4835 13.5556 80.551L14.4653 80.8449C14.4653 80.8929 16.3144 81.2888 16.3144 81.2888C16.3144 81.2888 16.3144 81.9246 16.3619 82.5484L16.4452 83.8021L17.1586 83.886L17.8899 83.964C18.1575 83.964 18.4488 83.964 18.7342 83.964C19.2589 83.9952 19.785 83.9952 20.3098 83.964L21.0232 83.904L21.1659 82.6504C21.2194 82.0506 21.267 81.4028 21.267 81.4028C21.367 81.4 21.4665 81.388 21.5643 81.3668L22.2064 81.2408L23.1399 81.0609L24.0555 80.7909L24.6798 80.599C24.7757 80.5733 24.8692 80.5392 24.9592 80.497C24.9592 80.497 25.2921 81.0248 25.6191 81.5587C25.9462 82.0925 26.3148 82.6084 26.3148 82.6084L26.9747 82.3325C27.4592 82.1235 27.9316 81.8872 28.3898 81.6247C28.6395 81.4807 28.9011 81.3548 29.127 81.2108L29.7216 80.8029L30.3161 80.401L29.8167 79.2494C29.567 78.6495 29.2876 78.1037 29.2876 78.1037C29.2876 78.1037 30.7621 76.904 30.7264 76.85L31.4042 76.1722C31.5562 76.0168 31.6991 75.8526 31.8322 75.6804L32.0225 75.4465L33.1284 76.0463L34.258 76.6101L34.3829 76.4542C34.4939 76.3204 34.5972 76.1802 34.6921 76.0343L35.572 74.7207C35.8514 74.2108 36.1249 73.7009 36.3271 73.3231C36.4139 73.1721 36.4914 73.0159 36.559 72.8552L36.6362 72.6693L35.6255 71.9195L34.5969 71.1937L34.7158 70.9177C34.8058 70.7223 34.8852 70.522 34.9537 70.3179L35.239 69.4002C35.2926 69.4002 35.679 67.5347 35.679 67.5347C35.679 67.5347 36.3152 67.5347 36.9335 67.4867L38.1761 67.4027C38.1761 67.4027 38.1761 67.1148 38.2594 66.6829C38.2594 66.467 38.3069 66.2151 38.3367 65.9452C38.3664 65.6752 38.3367 65.3873 38.3367 65.0994C38.3647 64.568 38.3647 64.0353 38.3367 63.5039C38.2951 63.072 38.2713 62.7841 38.2713 62.7841L37.0346 62.6461L35.8395 62.5141ZM21.3503 73.527C19.604 73.9502 17.7726 73.8418 16.0874 73.2154C14.4022 72.589 12.9389 71.4728 11.8822 70.0077C10.8256 68.5426 10.223 66.7945 10.1507 64.9841C10.0784 63.1737 10.5397 61.3823 11.4761 59.8362C12.4125 58.2901 13.7821 57.0588 15.4119 56.2977C17.0417 55.5366 18.8585 55.2799 20.6329 55.56C22.4072 55.8402 24.0594 56.6446 25.3808 57.8716C26.7021 59.0987 27.6334 60.6934 28.0568 62.4542C28.3385 63.6255 28.3884 64.8415 28.2037 66.0323C28.019 67.2232 27.6032 68.3656 26.9803 69.3941C26.3573 70.4226 25.5394 71.3171 24.5733 72.0263C23.6072 72.7355 22.512 73.2455 21.3503 73.527Z" fill="#616161"/>
<path d="M26.5888 80.9229L25.3997 78.9975L24.4722 79.4773L22.9026 79.9452L21.3805 80.2391H21.2735H20.2271L20.1676 81.2888L20.0606 82.5364V82.8244C19.8109 82.8244 19.5196 82.8244 19.2163 82.8244H18.5326C18.3602 82.8244 18.1878 82.8244 18.0272 82.8244L17.5754 82.7764V82.4765C17.5397 81.8766 17.5278 81.2768 17.5278 81.2768V80.365L16.636 80.1791C16.1068 80.0651 15.4825 79.9272 15.1615 79.8492L13.9724 79.4713C13.8542 79.4364 13.7389 79.3923 13.6275 79.3394L12.3433 78.7875L11.1007 80.587L10.9342 80.8149L9.84616 80.2151L8.81759 79.5193L8.95433 79.2374L9.95913 77.3239L8.87705 76.4242C8.79079 76.3627 8.71109 76.2923 8.63922 76.2142L7.74145 75.3025C7.52146 75.0506 7.11121 74.5527 6.77232 74.1028L6.17776 73.389L5.36917 73.7969C5.36917 73.7969 4.81624 74.0729 4.26925 74.3188L4.01359 74.4328L3.74604 74.0309C3.67469 73.9109 3.5974 73.761 3.52011 73.605L3.1931 73.0052C3.04446 72.7292 2.90177 72.4593 2.81258 72.2434L3.08014 72.0694L4.98866 70.8698L4.50707 69.9341L4.04332 68.3565L3.75198 66.8209C3.7484 66.783 3.7484 66.7449 3.75198 66.707V65.6573L2.71746 65.5913L1.47484 65.4893L1.18945 65.4533C1.18945 65.2014 1.18945 64.9075 1.18945 64.6016V63.9117C1.18945 63.7378 1.18945 63.5639 1.18945 63.4019L1.24296 62.946H1.54024C2.13479 62.946 2.72935 62.904 2.72935 62.904H3.63307L3.82333 62.0103C3.93035 61.4765 4.06709 60.8466 4.15033 60.5167L4.51896 59.3171C4.55143 59.1972 4.59523 59.0806 4.64976 58.9692L5.19675 57.6675L3.41309 56.4139L3.1931 56.252L3.78765 55.1543L4.48329 54.1165L4.75678 54.2545L6.65341 55.2622L7.54524 54.1765C7.60974 54.0887 7.68133 54.0065 7.75928 53.9306L8.65706 53.0249C8.90677 52.8089 9.40025 52.3891 9.84616 52.0472L10.5477 51.4473L10.1494 50.6256C10.1494 50.6256 9.87589 50.0677 9.63212 49.5219L9.51917 49.2579L9.93535 48.982L10.3456 48.7541L10.9402 48.4362C11.2196 48.2862 11.4812 48.1422 11.6952 48.0463L11.8736 48.3162L13.0627 50.2417L13.9962 49.7558L15.5598 49.2879L17.0759 48.994H17.1889H18.2353L18.2948 47.9443L18.3959 46.6967L18.4315 46.4088C18.6812 46.4088 18.9726 46.4088 19.2758 46.4088H19.9536C20.126 46.4088 20.2984 46.4088 20.4649 46.4088L20.9168 46.4567V46.7567C20.9524 47.3565 20.9584 47.9563 20.9584 47.9563V48.874L21.8443 49.06C22.3734 49.168 23.0334 49.3119 23.3247 49.3899L24.5138 49.7678C24.632 49.8027 24.7473 49.8468 24.8587 49.8998L26.1429 50.4516L27.3855 48.6521L27.552 48.4242L28.64 49.024L29.6686 49.7258L29.5319 50.0077L28.5271 51.9152C28.5271 51.9152 29.5497 52.7729 29.6092 52.8149C29.6928 52.8819 29.7722 52.954 29.847 53.0308L30.7448 53.9426C30.9647 54.1945 31.375 54.6924 31.7139 55.1123L32.3084 55.8261L33.123 55.4182C33.123 55.4182 33.6759 55.1423 34.217 54.8963L34.4786 54.7824L34.758 55.2023C34.8175 55.3042 34.8947 55.4542 34.972 55.6101L35.299 56.21C35.4477 56.4919 35.5844 56.7558 35.6796 56.9717L35.412 57.1517L33.5035 58.3514L33.9851 59.2871L34.4488 60.8706L34.7342 62.4062C34.7393 62.442 34.7393 62.4783 34.7342 62.5141V63.5698L35.7747 63.6298L37.0114 63.7378L37.3027 63.7678C37.3027 64.0257 37.3027 64.3196 37.3027 64.6255V65.3154C37.3027 65.4913 37.3027 65.6592 37.3027 65.8192L37.2551 66.2751H36.9578C36.3633 66.2751 35.7687 66.3171 35.7687 66.3171H34.8591L34.6748 67.2108C34.5677 67.7447 34.431 68.3745 34.3478 68.7044L33.9791 69.904C33.9468 70.0221 33.903 70.1366 33.8483 70.2459L33.3013 71.5476L35.085 72.8012L35.305 72.9692L34.7104 74.0668L34.0148 75.1046L33.7413 74.9666L31.8447 73.9589L30.9528 75.0446C30.8884 75.1324 30.8168 75.2146 30.7388 75.2905L29.841 76.1963C29.5913 76.4182 29.0978 76.7961 28.6519 77.174L27.9504 77.7738L28.3487 78.5956C28.3487 78.5956 28.6222 79.1534 28.866 79.6992L28.9789 79.9632L28.5627 80.2391L28.1584 80.461L27.5639 80.7849C27.2844 80.9349 27.0228 81.0789 26.8088 81.1748L26.5888 80.9229ZM16.7965 54.6024C14.832 55.0838 13.0532 56.1421 11.685 57.6435C10.3168 59.1449 9.42063 61.022 9.1099 63.0373C8.79918 65.0526 9.08782 67.1155 9.93934 68.9653C10.7909 70.8151 12.167 72.3685 13.8937 73.4292C15.6204 74.4898 17.6201 75.01 19.6399 74.924C21.6597 74.838 23.6088 74.1496 25.2408 72.9459C26.8727 71.7422 28.1142 70.0773 28.8082 68.1617C29.5021 66.2461 29.6174 64.1659 29.1395 62.1842C28.4959 59.5295 26.8352 57.2406 24.5214 55.8193C22.2076 54.3981 19.4296 53.9605 16.7965 54.6024Z" fill="#DA242B"/>
<path d="M85.4255 44.5732C85.4223 44.472 85.4083 44.3715 85.3839 44.2733C85.3541 44.0994 85.3066 43.8594 85.2649 43.6255L85.0866 42.6838C85.0866 42.6838 84.9498 42.2219 84.819 41.76C84.7477 41.5321 84.6823 41.3042 84.6288 41.1602C84.6034 41.0634 84.5695 40.9691 84.5277 40.8783L85.5801 40.2125L86.6205 39.5107L86.3232 38.8389C86.1161 38.3501 85.8819 37.8735 85.6217 37.4113C85.479 37.1593 85.3541 36.8954 85.2114 36.6675L84.8071 36.0677L84.4088 35.4678L83.2672 35.9717C82.7024 36.2236 82.1316 36.5055 82.1316 36.5055C82.1316 36.5055 80.9425 35.018 80.889 35.0539L80.2172 34.3701C80.0631 34.2168 79.9003 34.0726 79.7296 33.9383L79.4978 33.7463L80.0923 32.6307L80.6512 31.491L80.4966 31.365C80.364 31.2529 80.225 31.1488 80.0804 31.0531L78.7784 30.1653L77.4049 29.3556C77.254 29.2665 77.0971 29.1883 76.9352 29.1216L76.7569 29.0437L76.0077 30.0634L75.2943 31.1011L75.0208 30.9811C74.827 30.8903 74.6286 30.8102 74.4262 30.7412L73.5165 30.4533C73.5165 30.3993 71.6675 30.0094 71.6675 30.0094C71.6675 30.0094 71.6675 29.3676 71.6199 28.7437L71.5367 27.4901L70.8232 27.4061L70.0919 27.3282C69.8244 27.3282 69.539 27.3282 69.2476 27.3282C68.7228 27.3 68.1969 27.3 67.6721 27.3282L66.9586 27.3941L66.8159 28.6478C66.7684 29.2476 66.7148 29.8954 66.7148 29.8954C66.6149 29.8985 66.5154 29.9105 66.4176 29.9314L65.7754 30.0514L64.842 30.2313L63.9264 30.5072L63.3021 30.6932C63.2062 30.7188 63.1127 30.753 63.0227 30.7952L62.3627 29.7395C62.0179 29.2116 61.6671 28.6898 61.6671 28.6898L61.0071 28.9657C60.5215 29.1722 60.049 29.4085 59.5921 29.6735C59.3424 29.8114 59.0867 29.9434 58.8548 30.0814L58.2603 30.4893L57.6657 30.8971L58.1652 32.0488C58.4149 32.6486 58.7003 33.1885 58.7003 33.1885C58.7003 33.1885 57.2198 34.3881 57.2555 34.4421L56.5836 35.1199C56.4282 35.276 56.2832 35.4423 56.1496 35.6178L55.9593 35.8457L54.8119 35.2399L53.6822 34.6821L53.5633 34.832C53.4495 34.9651 53.3443 35.1053 53.2482 35.2519L52.3683 36.5715L51.6132 37.9631C51.5276 38.1158 51.4521 38.2742 51.3872 38.437L51.304 38.6169L52.3207 39.3727L53.3433 40.0925L53.2244 40.3684C53.1344 40.5631 53.057 40.7635 52.9925 40.9682L52.7012 41.88C52.6477 41.88 52.2612 43.7515 52.2612 43.7515C52.2612 43.7515 51.6251 43.7515 51.0067 43.7935L49.7641 43.8774L49.6868 44.5972C49.6868 44.8131 49.6333 45.0651 49.6036 45.335C49.5738 45.6049 49.6036 45.8988 49.6036 46.1868C49.5696 46.7161 49.5696 47.247 49.6036 47.7763L49.663 48.4961L50.9056 48.6401L52.1423 48.742C52.145 48.8429 52.157 48.9433 52.178 49.042C52.2137 49.2219 52.2553 49.4558 52.3028 49.6898L52.4812 50.6315C52.4812 50.6315 52.612 51.0934 52.7488 51.5552C52.8201 51.7832 52.8855 52.0171 52.939 52.1551C52.9609 52.2529 52.9948 52.3476 53.0401 52.437L51.9877 53.1028L50.9473 53.8046C50.9473 53.8046 51.0543 54.0745 51.2207 54.4764C51.4268 54.9637 51.6611 55.4384 51.9223 55.898C52.0591 56.1559 52.1899 56.4138 52.3266 56.6478L52.7369 57.2476L53.1352 57.8474L54.2768 57.3496C54.8416 57.0916 55.4124 56.8097 55.4124 56.8097C55.4124 56.8097 56.6015 58.2973 56.649 58.2613L57.3209 58.9451C57.4769 59.0987 57.6416 59.2429 57.8144 59.377C57.9511 59.497 58.0462 59.5689 58.0462 59.5689L57.4517 60.6846C57.1782 61.2844 56.8988 61.8243 56.8988 61.8243L57.0474 61.9503C57.1807 62.0614 57.3196 62.1654 57.4636 62.2622L58.7716 63.1499L60.1629 64.0317C60.3123 64.1178 60.4672 64.194 60.6266 64.2596L60.8109 64.3376L61.5541 63.3179L62.2676 62.2802L62.5411 62.4002C62.7349 62.4907 62.9334 62.5707 63.1356 62.6401L64.0393 62.928C64.0393 62.982 65.8944 63.3719 65.8944 63.3719C65.8944 63.3719 65.8944 64.0137 65.936 64.6375L66.0192 65.8911L66.7327 65.9751L67.464 66.0531C67.7315 66.0531 68.0229 66.0531 68.3083 66.0531C68.8331 66.0814 69.359 66.0814 69.8838 66.0531L70.6032 65.9871C70.6032 65.9871 70.6686 65.3873 70.74 64.7395L70.8648 63.4318C70.9628 63.4289 71.0604 63.4169 71.1562 63.3959L71.7983 63.2759L72.7377 63.0959L73.6473 62.82L74.2776 62.6341C74.3735 62.6084 74.467 62.5743 74.557 62.5321L75.217 63.5938L75.9067 64.6375L76.5726 64.3616C77.0567 64.1562 77.5274 63.9197 77.9816 63.6538C78.2373 63.5158 78.493 63.3839 78.7248 63.2459L79.3194 62.838L79.914 62.4301C79.914 62.4301 79.6702 61.8303 79.4205 61.2784C79.1708 60.7266 78.8854 60.1388 78.8854 60.1388C78.8854 60.1388 80.3658 58.9391 80.3301 58.8851L81.002 58.2073C81.1574 58.0512 81.3024 57.8849 81.436 57.7095L81.6263 57.4816L82.7321 58.0814L83.8559 58.6452L83.9807 58.4893C84.0941 58.3574 84.1975 58.217 84.2899 58.0694L85.1758 56.7497L85.9308 55.3581C86.0164 55.2054 86.0919 55.0471 86.1568 54.8843L86.2341 54.7043L85.2233 53.9486L84.2007 53.2287C84.2007 53.2287 84.2423 53.1208 84.3137 52.9529C84.4051 52.758 84.4845 52.5577 84.5515 52.353C84.6942 51.8912 84.8428 51.4353 84.8428 51.4353L85.2828 49.5698C85.2828 49.5698 85.913 49.5698 86.5313 49.5218L87.774 49.4378L87.8572 48.718C87.8572 48.5021 87.9107 48.2502 87.9345 47.9802C87.9583 47.7103 87.9345 47.4224 87.9345 47.1285C87.9654 46.5991 87.9654 46.0683 87.9345 45.5389L87.875 44.8191L86.6324 44.6752L85.4255 44.5732ZM70.187 52.491C69.0427 52.7756 67.8403 52.7108 66.7326 52.3046C65.6249 51.8984 64.6619 51.1692 63.9658 50.2097C63.2697 49.2502 62.872 48.1035 62.8232 46.9155C62.7744 45.7275 63.0767 44.5516 63.6917 43.5373C64.3067 42.5229 65.2066 41.7158 66.2772 41.2186C67.3478 40.7213 68.5407 40.5563 69.7045 40.7444C70.8682 40.9326 71.9503 41.4654 72.8132 42.2753C73.6762 43.0852 74.2811 44.1356 74.5511 45.293C74.9098 46.8308 74.6527 48.4493 73.8356 49.797C73.0185 51.1447 71.7074 52.1128 70.187 52.491Z" fill="#616161"/>
<path d="M76.1743 62.982L74.9852 61.0506L74.0577 61.5364L72.494 62.0043L70.9719 62.2982H70.859H69.8185L69.7531 63.3419L69.652 64.5955L69.6164 64.8835C69.3666 64.8835 69.0753 64.8835 68.7721 64.8835H68.0884H67.583L67.1311 64.8295V64.5296C67.1014 63.9297 67.0895 63.3299 67.0895 63.3299V62.4182L66.2036 62.2262C65.6745 62.1182 65.0502 61.9803 64.7232 61.8963L63.5341 61.5244C63.4152 61.4917 63.2997 61.4475 63.1892 61.3924L61.8991 60.8406L60.6564 62.6401L60.4959 62.862L59.4079 62.2622L58.3793 61.5544L58.516 61.2785L59.5149 59.365L58.4387 58.4653C58.3517 58.4002 58.2702 58.328 58.195 58.2494L57.2972 57.3436C57.0772 57.0917 56.667 56.5938 56.3281 56.1439L55.7335 55.4362L54.919 55.8381C54.919 55.8381 54.366 56.114 53.825 56.3599L53.5634 56.4739L53.3018 56.072C53.2304 55.952 53.1472 55.8021 53.0699 55.6521L52.7489 55.0523C52.6002 54.7764 52.4575 54.5064 52.3624 54.2905L52.6299 54.1106L54.5385 52.9109L54.0569 51.9752L53.5872 50.3916L53.3018 48.8621C53.2994 48.8241 53.2994 48.786 53.3018 48.7481V47.6924L52.2613 47.6324L51.0247 47.5304L50.7393 47.4944C50.7393 47.2425 50.7393 46.9486 50.7393 46.6427V45.9469C50.7393 45.7789 50.7393 45.605 50.7393 45.443L50.7868 44.9871H51.0841C51.6787 44.9512 52.2732 44.9452 52.2732 44.9452H53.1829L53.3672 44.0514C53.4742 43.5176 53.6169 42.8878 53.6942 42.5578L54.0628 41.3582C54.1104 41.2082 54.1579 41.1063 54.1936 41.0163L54.7466 39.7147L52.9629 38.461L52.737 38.2931L53.3315 37.1954L54.0271 36.1577L54.3066 36.2956L56.1973 37.3093L57.0891 36.2237C57.1536 36.1359 57.2252 36.0536 57.3031 35.9777L58.2009 35.072C58.4506 34.85 58.9441 34.4362 59.39 34.0943L60.0976 33.4944L59.6932 32.6726C59.6932 32.6726 59.4198 32.1148 59.176 31.569L59.063 31.3051L59.4792 31.0231L59.8895 30.8012L60.484 30.4773C60.7575 30.3273 61.0191 30.1834 61.2331 30.0934L61.4115 30.3633L62.6006 32.2888L63.5281 31.8029L65.0918 31.335L66.6139 31.0471C66.6493 31.0417 66.6854 31.0417 66.7209 31.0471H67.7673L67.8268 29.9974L67.9338 28.7498L67.9635 28.4559C68.2192 28.4559 68.5046 28.4559 68.8078 28.4559H69.4856C69.6639 28.4559 69.8364 28.4559 69.9969 28.4559L70.4487 28.5039V28.8038C70.4487 29.4036 70.4904 30.0034 70.4904 30.0034V30.9212L71.3762 31.1071C71.9054 31.2151 72.5297 31.353 72.8567 31.437L74.0458 31.8089C74.1638 31.8444 74.279 31.8885 74.3906 31.9409L75.6749 32.4987L76.9175 30.6992L77.084 30.4773L78.172 31.0771L79.2006 31.7789L79.0638 32.0548L78.065 33.9683L79.1411 34.868C79.2282 34.9331 79.3097 35.0053 79.3849 35.084L80.2827 35.9897C80.5027 36.2476 80.907 36.7395 81.2518 37.1894L81.8463 37.8972L82.6609 37.4953C82.6609 37.4953 83.2079 37.2194 83.7549 36.9734L84.0165 36.8595L84.29 37.2794C84.3494 37.3813 84.4267 37.5313 84.51 37.6812L84.831 38.2811C84.9796 38.563 85.1224 38.8269 85.2175 39.0429L84.9499 39.2228L83.0414 40.4225L83.517 41.3582L83.9808 42.9417L84.2721 44.4713C84.2745 44.5093 84.2745 44.5473 84.2721 44.5853V45.641L85.3126 45.7009L86.5493 45.8089L86.8347 45.8389C86.8347 46.0908 86.8347 46.3848 86.8347 46.6907V47.3865C86.8347 47.5604 86.8347 47.7284 86.8347 47.8903L86.7811 48.3462H86.4898C85.8953 48.3822 85.3007 48.3942 85.3007 48.3942H84.397L84.2127 49.2939C84.0997 49.8278 83.963 50.4576 83.8857 50.7815L83.5111 51.9811C83.4777 52.0988 83.4339 52.2132 83.3803 52.323L82.8333 53.6247L84.617 54.8783L84.8429 55.0463L84.2484 56.1439L83.5587 57.1817L83.2792 57.0437L81.3826 56.03L80.4908 57.1217C80.4298 57.2087 80.3601 57.2891 80.2827 57.3616L79.379 58.2674C79.1292 58.4893 78.6358 58.9032 78.1898 59.2451L77.4823 59.8449L77.8866 60.6667C77.8866 60.6667 78.1601 61.2245 78.4039 61.7763L78.5168 62.0343L78.0947 62.3162C77.9996 62.3762 77.845 62.4542 77.6964 62.5381L77.1018 62.862C76.8283 63.012 76.5608 63.156 76.3467 63.2459L76.1743 62.982ZM67.0598 39.4867C65.6494 39.8321 64.3722 40.5918 63.3898 41.6696C62.4074 42.7474 61.764 44.095 61.5409 45.5419C61.3178 46.9887 61.525 48.4698 62.1364 49.7978C62.7478 51.1258 63.7358 52.241 64.9756 53.0023C66.2153 53.7637 67.651 54.137 69.1011 54.075C70.5512 54.013 71.9504 53.5185 73.1219 52.654C74.2933 51.7896 75.1843 50.594 75.6821 49.2186C76.18 47.8432 76.2623 46.3498 75.9186 44.9272C75.4582 43.021 74.2665 41.3773 72.6053 40.3571C70.9442 39.337 68.9496 39.0239 67.0598 39.4867Z" fill="#DA242B"/>
<path d="M82.922 53.7207L82.821 53.6487L82.8626 53.5467C81.7803 50.5276 80.9121 47.4347 80.2644 44.2914C79.6996 41.5681 79.3309 38.629 80.3536 36.0677L80.306 36.0077L79.4082 35.102C79.333 35.0233 79.2515 34.9511 79.1645 34.886L78.0883 33.9863L79.0872 32.0728L79.2239 31.7969L78.1953 31.0951L78.1359 31.0592C77.7316 31.503 77.3332 31.9409 76.9468 32.3668C75.5258 33.8364 73.8075 35.192 71.7801 35.4379C69.1224 35.7558 66.548 34.0163 65.1151 31.7429C65.0497 31.635 64.9903 31.521 64.9249 31.407L63.5574 31.8149L62.6299 32.3008L61.4408 30.3753L61.2624 30.1054C61.0484 30.1954 60.7868 30.3393 60.5133 30.4893L59.9187 30.8132L59.5085 31.0351L59.0923 31.3171L59.2053 31.581C59.449 32.1268 59.7166 32.6787 59.7225 32.6847L60.1268 33.5064L59.4193 34.1063C58.9972 34.4482 58.5037 34.862 58.2302 35.084L57.3324 35.9897C57.2545 36.0656 57.1829 36.1478 57.1184 36.2356L56.72 36.7155C56.6784 37.0874 56.6368 37.4533 56.5892 37.8192C56.0779 41.8201 55.2218 45.8569 53.4262 49.4379L53.6105 50.4216L54.0802 52.0052L54.5618 52.9409L52.6533 54.1405L52.3857 54.3205C52.4809 54.5364 52.6236 54.8064 52.7722 55.0823L53.0932 55.6821C53.1705 55.8321 53.2538 55.982 53.3251 56.102L53.5867 56.5039L53.8483 56.3899C54.3894 56.144 54.9364 55.8741 54.9423 55.8681L55.7569 55.4661L56.3514 56.174C56.6606 56.5579 57.0173 56.9897 57.2432 57.2597C58.0798 53.7766 59.5406 50.4772 61.5538 47.5244C61.3609 45.8304 61.7538 44.1211 62.6659 42.6856C63.578 41.25 64.9534 40.1762 66.5597 39.6456C68.166 39.115 69.9046 39.1602 71.4816 39.7735C73.0587 40.3868 74.3775 41.5307 75.2151 43.0118C76.0527 44.4928 76.3578 46.2202 76.0788 47.902C75.7998 49.5838 74.9537 51.1168 73.6837 52.2419C72.4137 53.367 70.7976 54.0152 69.1085 54.077C67.4194 54.1388 65.761 53.6104 64.4136 52.581C64.9916 55.7038 65.3098 58.8699 65.3649 62.0463L66.2032 62.2262L67.0891 62.4182V63.3299C67.0891 63.3299 67.0891 63.9298 67.1307 64.5296V64.8295L67.5826 64.8835H68.0879H68.7717C69.0749 64.8835 69.3662 64.8835 69.6159 64.8835L69.6516 64.5956L69.7527 63.3419L69.8181 62.2982H70.5613C70.6419 61.1072 70.9529 59.9436 71.4769 58.8732C71.7533 58.3236 72.1805 57.8657 72.7075 57.5542C73.2346 57.2426 73.8393 57.0904 74.4496 57.1157C75.7636 57.2956 76.6495 58.5193 77.3808 59.635L77.4997 59.8149L78.1894 59.2511C78.6056 58.9092 79.0991 58.4953 79.3785 58.2734L80.2822 57.3676C80.3596 57.2951 80.4294 57.2147 80.4903 57.1277L81.3822 56.036L83.2788 57.0497L83.5582 57.1877L84.0101 56.5099C83.6117 55.5981 83.2609 54.6624 82.922 53.7207Z" fill="#DA242B"/>
<path d="M53.8431 20.994L53.4982 19.1945L52.9691 17.3951L54.063 16.7652L55.1332 16.1114L54.3128 14.096C54.0868 13.5981 53.8133 13.1243 53.629 12.7644L53.308 12.1646L52.1189 12.5604L50.9297 12.9863L49.9012 11.4388C49.8527 11.3544 49.7948 11.2759 49.7287 11.2048L49.3304 10.7069L48.7358 9.98718C48.7358 9.98718 49.1223 9.4893 49.5028 8.98544L50.246 7.96576L48.718 6.4242C47.9035 5.7104 47.0651 5.02659 47.0651 5.02659L46.1614 5.84835L45.2339 6.7061L43.7059 5.66241L42.0887 4.76867C42.0887 4.76867 42.2492 4.16884 42.4157 3.56901C42.5822 2.96918 42.7071 2.36935 42.7071 2.36935C42.7071 2.36935 41.7201 1.93146 40.7212 1.52357L38.6581 0.863777C38.6581 0.863777 38.3846 1.43362 38.1052 1.99746L37.5701 3.14912L36.6664 2.95117L36.0718 2.81922C35.9782 2.79525 35.8827 2.77918 35.7864 2.77123L33.9493 2.5613C33.9493 2.5613 33.872 1.96146 33.7887 1.31365L33.5985 0.0780029H32.9207C32.5164 0.0780029 31.9753 0.0780029 31.4343 0.0780029L29.282 0.263948L29.1988 1.52357C29.1988 2.15939 29.1453 2.79521 29.1453 2.79521L27.3616 3.14312L25.5779 3.67097L24.9537 2.57327L24.3056 1.48759L22.2722 2.24938C21.7787 2.47731 21.309 2.75325 20.9523 2.9392L20.3577 3.26309C20.3577 3.26309 20.5599 3.86292 20.7561 4.46275C20.9523 5.06258 21.1782 5.66241 21.1782 5.66241L19.6443 6.7001C19.5625 6.75166 19.4849 6.80986 19.4124 6.87407L18.9189 7.27595L18.2055 7.87578L17.2066 7.04801L16.1959 6.29822L14.6619 7.83979C13.9603 8.66155 13.2825 9.5133 13.2825 9.5133L14.0971 10.455L14.9473 11.3908L13.9128 12.9323L13.0269 14.5698L11.8378 14.2339L10.6487 13.94C10.6487 13.94 10.2087 14.9358 9.81035 15.9435L9.15634 18.0249L10.2801 18.5887L11.4156 19.1226L11.2254 20.0343L11.0946 20.6641C11.0706 20.7565 11.0547 20.8508 11.047 20.946L10.8389 22.7995L9.60226 22.9615L8.37747 23.1534C8.37747 23.1534 8.37747 23.4293 8.37747 23.8372C8.37747 24.2451 8.34774 24.7909 8.37747 25.3368C8.46665 26.4225 8.56179 27.5082 8.56179 27.5082L9.81035 27.5921L11.0649 27.6461L11.4097 29.4456L11.9389 31.2451L10.8151 31.9109L9.74495 32.5587L10.5654 34.5802C10.7914 35.072 11.0649 35.5459 11.2492 35.9118L11.5702 36.5116L12.7593 36.1097L13.9485 35.6838L14.977 37.2314C15.023 37.3158 15.0789 37.3944 15.1435 37.4653L15.5478 37.9632L16.1424 38.683L15.3754 39.6847L14.6322 40.7104L16.1602 42.252C16.9747 42.9658 17.8131 43.6496 17.8131 43.6496L18.7525 42.8218L19.68 41.97L21.208 43.0137L22.8251 43.9015C22.8251 43.9015 22.6646 44.5013 22.4981 45.1011C22.3317 45.701 22.2068 46.3008 22.2068 46.3008C22.2068 46.3008 23.1938 46.7447 24.1926 47.1465L26.2557 47.8064L26.8087 46.6727L27.3438 45.527L28.2475 45.7189L28.842 45.8569C28.9354 45.8812 29.0311 45.8953 29.1274 45.8989L30.9646 46.1088C30.9646 46.1088 31.0419 46.7087 31.1251 47.3565L31.3154 48.5982H31.9932C32.3975 48.5982 32.9385 48.5982 33.4796 48.5982L35.6319 48.4062L35.7151 47.1465L35.7686 45.8809L37.5523 45.533L39.3359 45.0052C39.3359 45.0052 39.651 45.551 39.9602 46.1028L40.6083 47.1825L42.606 46.3548C43.0995 46.1269 43.5692 45.8569 43.9259 45.665L44.5204 45.3471C44.5204 45.3471 44.3183 44.7472 44.1221 44.1474C43.9259 43.5476 43.7 42.9477 43.7 42.9477L45.2339 41.91C45.3167 41.8622 45.3944 41.8059 45.4658 41.7421L45.9593 41.3342L46.6727 40.7344L47.6656 41.5022L48.6764 42.252L50.2103 40.7164C50.9119 39.8886 51.5897 39.0429 51.5897 39.0429L50.7752 38.0951L49.9249 37.1594L50.9595 35.6179L51.8454 33.9863L53.0345 34.3162L54.2236 34.6161C54.2236 34.6161 54.6576 33.6204 55.0619 32.6067L55.7159 30.5313L54.5922 29.9675L53.4566 29.4276L53.6469 28.5159L53.7777 27.916C53.8019 27.8217 53.8178 27.7253 53.8252 27.6281L54.0333 25.7746L55.27 25.6127L56.4948 25.4208C56.4948 25.4208 56.4948 25.1508 56.4948 24.743C56.4948 24.3351 56.5245 23.7832 56.4948 23.2434L56.3105 21.072L55.0619 20.988L53.8431 20.994ZM46.8452 16.5013L37.7544 20.7901C37.2361 19.9958 36.5498 19.3273 35.7449 18.8326C34.9399 18.3379 34.0363 18.0293 33.099 17.9289L32.7066 7.81581C35.6152 7.86761 38.4578 8.69937 40.9425 10.2257C43.4271 11.7521 45.4644 13.9181 46.8452 16.5013ZM33.099 27.1123C32.5528 27.247 31.9793 27.2153 31.4509 27.021C30.9226 26.8268 30.4633 26.4788 30.1311 26.0211C29.7989 25.5634 29.6087 25.0165 29.5847 24.4497C29.5606 23.8829 29.7038 23.3217 29.996 22.837C30.2883 22.3524 30.7165 21.966 31.2264 21.727C31.7363 21.4879 32.3051 21.4068 32.8608 21.494C33.4164 21.5812 33.9339 21.8327 34.3478 22.2167C34.7617 22.6007 35.0534 23.1 35.1859 23.6513C35.3634 24.3894 35.2433 25.1684 34.8521 25.8173C34.4608 26.4661 33.8303 26.9319 33.099 27.1123ZM24.6683 9.78323L28.9193 18.9546C28.1321 19.4775 27.4694 20.1699 26.9791 20.9819C26.4887 21.794 26.1828 22.7057 26.0833 23.6513L16.0591 24.0472C16.1117 21.113 16.9367 18.2458 18.4495 15.7393C19.9623 13.2328 22.1086 11.1772 24.6683 9.78323ZM18.0093 32.1568L27.1 27.874C27.6192 28.6674 28.3057 29.3353 29.1105 29.8299C29.9153 30.3245 30.8184 30.6337 31.7554 30.7352L32.1478 40.8483C29.239 40.7941 26.3968 39.9607 23.9124 38.4334C21.428 36.9061 19.3907 34.7399 18.0093 32.1568ZM40.1861 38.8749L35.9351 29.7096C36.7154 29.1873 37.3727 28.4988 37.8606 27.6925C38.3486 26.8862 38.6553 25.9817 38.7592 25.0429L48.7834 24.647C48.7276 27.5742 47.9022 30.4339 46.3916 32.9337C44.8811 35.4335 42.7396 37.4838 40.1861 38.8749Z" fill="#616161"/>
<path d="M40.911 45.563L39.8527 43.6975L37.2783 44.4713L34.6385 44.9812L34.5433 47.1525V47.4045L33.3542 47.5065C33.0629 47.5065 32.718 47.5065 32.4148 47.5065H32.2662L32.2186 47.2365L31.9451 45.1251L29.1804 44.8132H29.1388H29.0853L26.6476 44.2854L25.7261 46.2588L25.6131 46.4867L24.5251 46.1388L23.4787 45.707L23.55 45.431L24.1029 43.3616L21.7247 42.06L19.5011 40.5425L17.9493 41.982L17.759 42.15L16.8969 41.4122L16.0883 40.5964L16.2548 40.3685L17.5569 38.659L15.9932 36.7455L15.9219 36.6495V36.6135L14.3939 34.3042L12.3843 35.036L12.1405 35.114L12.0692 34.988C11.9265 34.7181 11.7659 34.3882 11.6232 34.1003L11.1892 33.0326L11.427 32.8886L13.2761 31.8209L12.4616 29.2417L11.9621 26.5784L9.80985 26.4825H9.5542L9.45312 25.2828C9.45312 24.9889 9.45312 24.641 9.45312 24.3351V24.1851L9.73256 24.1431L11.8254 23.8672L12.1405 21.084V21.036L12.6756 18.5167L10.7195 17.593L10.4936 17.473L10.8384 16.3753C10.9871 16.0034 11.1357 15.6375 11.2665 15.3256L11.54 15.3916L13.5912 15.9495L14.8814 13.5502L16.3856 11.3008L14.9349 9.69924L14.7684 9.50729C14.9825 9.24337 15.2381 8.90749 15.4938 8.63757L16.3083 7.82177L16.5343 7.98974L18.2228 9.30337L20.1254 7.72582L20.2146 7.65384H20.2562L22.5393 6.10627L21.8139 4.04886L21.7366 3.80295L21.8674 3.73094C22.135 3.58698 22.4322 3.42502 22.7474 3.28107L23.7997 2.8432L23.9424 3.08315L25.0007 4.94861L27.5751 4.17484L30.215 3.67097L30.3101 1.49959V1.24167L31.4992 1.13971C31.7905 1.13971 32.1354 1.13971 32.4386 1.13971H32.5872L32.6289 1.42161L32.9023 3.53302L35.667 3.85091H35.7086H35.7622L38.1998 4.37876L39.1214 2.40534L39.2343 2.1774L40.3224 2.52531C40.691 2.67527 41.0537 2.82521 41.3688 2.96318L41.2974 3.23311L40.7445 5.30849L43.1227 6.60414L45.3464 8.12169L46.9338 6.6581L47.1241 6.49017C47.3857 6.70611 47.6889 6.96402 47.9862 7.22194L48.7948 8.04371L48.6283 8.27164L47.3262 9.97517L48.8899 11.8946C48.9189 11.9224 48.943 11.9548 48.9613 11.9906V12.0266L50.4893 14.3359L52.4989 13.6041L52.7426 13.5201L52.814 13.6521C52.9567 13.922 53.1172 14.2519 53.2599 14.5399L53.6939 15.6016L53.4561 15.7455L51.607 16.8132L52.374 19.4165L52.8734 22.0797L55.0257 22.1697H55.2814L55.3824 23.3694C55.3824 23.6693 55.3824 24.0111 55.3824 24.3171V24.467L55.103 24.509L53.0102 24.7909L52.6951 27.5741V27.6161L52.16 30.1354L54.116 31.0592L54.342 31.1731L53.9971 32.2768L53.5691 33.3265L53.2956 33.2605L51.2444 32.6967L49.9542 35.096L48.4499 37.3394L49.9007 38.9409L50.0671 39.1388L49.3596 40.0386L48.5451 40.8543L48.3191 40.6864L46.6306 39.3788L44.728 40.9503L44.6389 41.0223H44.5972L42.326 42.5698L43.0514 44.5973L43.1287 44.8432L42.9979 44.9152C42.7303 45.0592 42.4331 45.2271 42.1179 45.3711L41.0656 45.8029L40.911 45.563ZM37.6409 24.8869C37.5604 25.6648 37.3095 26.4149 36.9064 27.0829C36.5034 27.751 35.9582 28.3203 35.3103 28.7498L34.4898 29.2957L39.6684 40.4585L40.7267 39.8586C43.4656 38.3717 45.7621 36.1751 47.3799 33.4951C48.9976 30.8151 49.878 27.7484 49.9304 24.611V23.4114L37.7242 23.8912L37.6409 24.8869ZM16.4391 31.641L17.0337 32.7087C18.5073 35.4726 20.6843 37.7904 23.3407 39.4235C25.9971 41.0566 29.037 41.9459 32.1473 42H33.3364L32.8607 29.6855L31.8857 29.5836C31.1139 29.5024 30.3698 29.2487 29.7074 28.841C29.0451 28.4332 28.4812 27.8816 28.0567 27.2263L27.5157 26.4045L16.4391 31.641ZM31.4873 20.4422C30.7246 20.6306 30.0344 21.043 29.5039 21.627C28.9734 22.2111 28.6265 22.9407 28.5068 23.7236C28.3872 24.5066 28.5004 25.3078 28.8319 26.0259C29.1635 26.744 29.6986 27.3468 30.3696 27.7582C31.0407 28.1696 31.8175 28.3711 32.602 28.3372C33.3866 28.3033 34.1435 28.0356 34.7772 27.5678C35.411 27.1 35.893 26.4532 36.1625 25.7091C36.432 24.9651 36.4768 24.1571 36.2913 23.3873C36.0421 22.3533 35.3959 21.4616 34.495 20.9081C33.5942 20.3547 32.5123 20.185 31.4873 20.4362V20.4422ZM24.1267 8.78152C21.3874 10.2694 19.0906 12.4671 17.4729 15.1481C15.8552 17.8292 14.975 20.8968 14.923 24.0352V25.2348L27.1292 24.749L27.2362 23.7652C27.3176 22.9876 27.5688 22.2378 27.9718 21.5699C28.3748 20.9019 28.9196 20.3324 29.5669 19.9023L30.3874 19.3565L25.2088 8.19366L24.1267 8.78152ZM32.0046 18.9786L32.9796 19.0866C33.7504 19.1687 34.4936 19.4221 35.1557 19.8287C35.8178 20.2353 36.3823 20.7848 36.8086 21.4379L37.3496 22.2657L48.4143 17.0411L47.8197 15.9795C46.3461 13.2143 44.1683 10.8955 41.5106 9.26233C38.853 7.62912 35.8117 6.74054 32.7002 6.68812H31.5111L32.0046 18.9786Z" fill="#172B63"/>
</g>
<defs>
<clipPath id="clip0_9239_977">
<rect width="88" height="84" fill="white"/>
</clipPath>
</defs>
</svg>
