<svg xmlns="http://www.w3.org/2000/svg" width="33" height="34" viewBox="0 0 33 34" fill="none">
<g clip-path="url(#clip0_9203_1887)">
<path d="M32.51 11.38L29.14 5.47C29.0496 5.30831 28.9279 5.16618 28.7822 5.05185C28.6364 4.93752 28.4693 4.85328 28.2907 4.80399C28.1121 4.75469 27.9255 4.74133 27.7417 4.76468C27.558 4.78803 27.3806 4.84761 27.22 4.94L24.62 6.42001C23.5736 5.5781 22.403 4.90343 21.15 4.42001V1.42001C21.15 1.04778 21.0029 0.690654 20.7406 0.426514C20.4783 0.162373 20.1222 0.0126497 19.75 0.0100098H12.94C12.5661 0.0100098 12.2074 0.158578 11.943 0.423004C11.6786 0.68743 11.53 1.04606 11.53 1.42001V4.42001C10.3372 4.89366 9.21904 5.53696 8.21001 6.33002L5.62001 4.81003C5.29866 4.62362 4.91673 4.57157 4.55721 4.66519C4.19769 4.75882 3.88965 4.99055 3.70003 5.31003L0.250019 11.17C0.0639736 11.4941 0.0131914 11.8785 0.108662 12.2397C0.204133 12.601 0.43817 12.9101 0.760029 13.1L3.34002 14.62C3.23254 15.2982 3.17573 15.9834 3.17003 16.67C3.17405 17.2962 3.22417 17.9212 3.32003 18.54L0.720021 20.02C0.397438 20.2065 0.161088 20.5123 0.0619396 20.8715C-0.0372089 21.2307 0.00879024 21.6144 0.190022 21.94L3.55001 27.85C3.7365 28.1726 4.04233 28.4089 4.40151 28.5081C4.76069 28.6072 5.14445 28.5612 5.47002 28.38L8.07003 26.9C9.11689 27.7413 10.2873 28.4159 11.54 28.9V31.9C11.5426 32.2732 11.692 32.6303 11.9559 32.8941C12.2198 33.158 12.5769 33.3074 12.95 33.31H19.72C20.0922 33.3074 20.4483 33.1577 20.7106 32.8935C20.9729 32.6294 21.12 32.2723 21.12 31.9V28.9C22.3185 28.4361 23.4409 27.7957 24.45 27L27.03 28.51C27.3523 28.6996 27.7366 28.7534 28.0986 28.6596C28.4605 28.5659 28.7703 28.3322 28.96 28.01L32.4 22.14C32.4936 21.9812 32.555 21.8055 32.5806 21.6229C32.6061 21.4404 32.5953 21.2545 32.5488 21.0761C32.5024 20.8977 32.4211 20.7303 32.3098 20.5834C32.1985 20.4365 32.0592 20.313 31.9 20.22L29.31 18.7C29.4258 18.0227 29.486 17.3371 29.49 16.65C29.4856 16.0206 29.4355 15.3922 29.34 14.77L31.95 13.29C32.2751 13.1086 32.5159 12.8068 32.6207 12.4496C32.7254 12.0923 32.6857 11.7082 32.51 11.38ZM16.34 24.67C14.7578 24.67 13.2111 24.2008 11.8955 23.3218C10.5799 22.4427 9.55449 21.1933 8.94899 19.7315C8.34349 18.2697 8.18505 16.6611 8.49373 15.1093C8.80241 13.5574 9.56433 12.132 10.6832 11.0132C11.802 9.89433 13.2274 9.13241 14.7793 8.82373C16.3311 8.51505 17.9397 8.67349 19.4015 9.27899C20.8633 9.88449 22.1127 10.9099 22.9918 12.2255C23.8708 13.5411 24.34 15.0878 24.34 16.67C24.34 18.7917 23.4972 20.8266 21.9969 22.3269C20.4966 23.8272 18.4617 24.67 16.34 24.67Z" fill="#DA242B"/>
</g>
<defs>
<clipPath id="clip0_9203_1887">
<rect width="32.69" height="33.32" fill="white"/>
</clipPath>
</defs>
</svg>
