<svg xmlns="http://www.w3.org/2000/svg" width="32" height="50" viewBox="0 0 32 50" fill="none">
<g clip-path="url(#clip0_5235_6)">
<path d="M28.21 0L31.72 8.37L19.43 38.37C18.7869 39.9441 17.5448 41.1982 15.977 41.8564C14.4092 42.5147 12.6441 42.5232 11.0701 41.88C9.496 41.2369 8.24189 39.9947 7.58364 38.4269C6.92538 36.8591 6.9169 35.0941 7.56005 33.52L19.84 3.52002L28.21 0Z" fill="#DA242B"/>
<path d="M7.81159 31.4427L20.7599 36.74C21.5318 37.0558 22.4135 36.686 22.7292 35.9142L22.8012 35.7383C23.117 34.9665 22.7472 34.0848 21.9754 33.769L9.02705 28.4717C8.2552 28.156 7.37353 28.5257 7.05775 29.2975L6.98581 29.4734C6.67003 30.2452 7.03974 31.1269 7.81159 31.4427Z" fill="#282F39"/>
<path d="M10.1856 25.6541L23.1339 30.9514C23.9058 31.2672 24.7875 30.8975 25.1033 30.1256L25.1752 29.9498C25.491 29.1779 25.1212 28.2962 24.3494 27.9804L11.4011 22.6831C10.6292 22.3674 9.74752 22.7371 9.43175 23.5089L9.3598 23.6848C9.04403 24.4567 9.41376 25.3384 10.1856 25.6541Z" fill="#282F39"/>
<path d="M12.5552 19.8687L25.5035 25.166C26.2754 25.4818 27.1571 25.1121 27.4729 24.3402L27.5448 24.1644C27.8606 23.3925 27.4909 22.5108 26.719 22.1951L13.7707 16.8978C12.9988 16.582 12.1172 16.9517 11.8014 17.7235L11.7294 17.8994C11.4137 18.6713 11.7834 19.553 12.5552 19.8687Z" fill="#282F39"/>
<path d="M14.9193 14.0802L27.8676 19.3775C28.6394 19.6932 29.5211 19.3235 29.8369 18.5516L29.9088 18.3758C30.2246 17.6039 29.8549 16.7222 29.083 16.4065L16.1347 11.1092C15.3629 10.7934 14.4812 11.1631 14.1654 11.935L14.0934 12.1108C13.7777 12.8827 14.1474 13.7644 14.9193 14.0802Z" fill="#282F39"/>
<path d="M31.7101 8.37L19.8401 3.51L28.2101 0L31.7101 8.37Z" fill="#282F39"/>
<path d="M13.24 36.6L25.49 41.6C24.0948 44.758 21.5221 47.2467 18.3196 48.5363C15.1171 49.826 11.5377 49.8147 8.34332 48.5049C5.14898 47.1951 2.59199 44.6903 1.21673 41.5236C-0.15853 38.3569 -0.243452 34.7784 0.980007 31.55L13.24 36.6Z" fill="#DA242B"/>
</g>
<defs>
<clipPath id="clip0_5235_6">
<rect width="31.72" height="49.84" fill="white"/>
</clipPath>
</defs>
</svg>
